M48
;DRILL file {KiCad 4.0.7} date 01/28/18 09:50:46
;FORMAT={3:3/ absolute / metric / suppress leading zeros}
FMAT,2
METRIC,TZ
T1C0.300
T2C0.400
T3C1.016
T4C1.200
T5C3.500
%
G90
G05
M71
T1
X90000Y-52000
X90000Y-53000
X90000Y-54000
X90000Y-55000
X90000Y-56000
X90000Y-57000
X90000Y-58000
X90000Y-59000
X90000Y-60000
X90000Y-61000
X90000Y-62000
X90000Y-63000
X90000Y-64000
X90000Y-65000
X90000Y-66000
X90000Y-67000
X90000Y-68000
X90000Y-69000
X90000Y-70000
X90000Y-71000
X90000Y-72000
X90000Y-73000
X90000Y-74000
X90000Y-75000
X90000Y-76000
X90000Y-77000
X90000Y-78000
X90000Y-79000
X90000Y-80000
X90000Y-81000
X90000Y-82000
X90000Y-83000
X90000Y-84000
X90000Y-85000
X90000Y-86000
X90000Y-87000
X90000Y-88000
X90000Y-89000
X90000Y-90000
X90000Y-91000
X90000Y-92000
X90000Y-93000
X90000Y-94000
X90000Y-95000
X90000Y-96000
X90000Y-97000
X90000Y-98000
X90000Y-99000
X90000Y-100000
X90000Y-101000
X90000Y-102000
X90000Y-103000
X90000Y-104000
X90000Y-105000
X90000Y-106000
X90000Y-107000
X90000Y-108000
X90000Y-109000
X90000Y-110000
X90000Y-111000
X90000Y-112000
X90000Y-113000
X90000Y-114000
X90000Y-115000
X90000Y-116000
X90000Y-117000
X90000Y-118000
X90000Y-119000
X90000Y-120000
X90000Y-121000
X90000Y-122000
X90000Y-123000
X90000Y-124000
X90000Y-125000
X90000Y-126000
X90000Y-127000
X90000Y-128000
X90000Y-129000
X90000Y-130000
X90000Y-131000
X90000Y-132000
X90000Y-133000
X90000Y-134000
X98000Y-140000
X98000Y-141000
X98000Y-142000
X99000Y-44000
X99000Y-45000
X99000Y-46000
X99000Y-140000
X99000Y-141000
X99000Y-142000
X100000Y-44000
X100000Y-45000
X100000Y-46000
X100000Y-140000
X100000Y-141000
X100000Y-142000
X101000Y-44000
X101000Y-45000
X101000Y-46000
X101000Y-140000
X101000Y-141000
X101000Y-142000
X102000Y-44000
X102000Y-45000
X102000Y-46000
X102000Y-140000
X102000Y-141000
X102000Y-142000
X103000Y-44000
X103000Y-45000
X103000Y-46000
X103000Y-140000
X103000Y-141000
X103000Y-142000
X104000Y-44000
X104000Y-45000
X104000Y-46000
X104000Y-140000
X104000Y-141000
X104000Y-142000
X105000Y-44000
X105000Y-45000
X105000Y-46000
X105000Y-140000
X105000Y-141000
X105000Y-142000
X106000Y-44000
X106000Y-45000
X106000Y-46000
X106000Y-140000
X106000Y-141000
X106000Y-142000
X107000Y-44000
X107000Y-45000
X107000Y-46000
X107000Y-140000
X107000Y-141000
X107000Y-142000
X108000Y-44000
X108000Y-45000
X108000Y-46000
X108000Y-140000
X108000Y-141000
X108000Y-142000
X109000Y-44000
X109000Y-45000
X109000Y-46000
X109000Y-140000
X109000Y-141000
X109000Y-142000
X110000Y-44000
X110000Y-45000
X110000Y-46000
X110000Y-140000
X110000Y-141000
X110000Y-142000
X111000Y-44000
X111000Y-45000
X111000Y-46000
X111000Y-140000
X111000Y-141000
X111000Y-142000
X112000Y-44000
X112000Y-45000
X112000Y-46000
X112000Y-140000
X112000Y-141000
X112000Y-142000
X113000Y-44000
X113000Y-45000
X113000Y-46000
X113000Y-140000
X113000Y-141000
X113000Y-142000
X114000Y-44000
X114000Y-45000
X114000Y-46000
X114000Y-140000
X114000Y-141000
X114000Y-142000
X115000Y-44000
X115000Y-45000
X115000Y-46000
X115000Y-140000
X115000Y-141000
X115000Y-142000
X116000Y-44000
X116000Y-45000
X116000Y-46000
X116000Y-140000
X116000Y-141000
X116000Y-142000
X117000Y-44000
X117000Y-45000
X117000Y-46000
X117000Y-140000
X117000Y-141000
X117000Y-142000
X118000Y-44000
X118000Y-45000
X118000Y-46000
X118000Y-140000
X118000Y-141000
X118000Y-142000
X119000Y-44000
X119000Y-45000
X119000Y-46000
X119000Y-140000
X119000Y-141000
X119000Y-142000
X120000Y-44000
X120000Y-45000
X120000Y-46000
X120000Y-140000
X120000Y-141000
X120000Y-142000
X121000Y-44000
X121000Y-45000
X121000Y-46000
X121000Y-140000
X121000Y-141000
X121000Y-142000
X122000Y-44000
X122000Y-45000
X122000Y-46000
X122000Y-140000
X122000Y-141000
X122000Y-142000
X123000Y-44000
X123000Y-45000
X123000Y-46000
X123000Y-140000
X123000Y-141000
X123000Y-142000
X124000Y-44000
X124000Y-45000
X124000Y-46000
X124000Y-140000
X124000Y-141000
X124000Y-142000
X125000Y-44000
X125000Y-45000
X125000Y-46000
X125000Y-140000
X125000Y-141000
X125000Y-142000
X126000Y-44000
X126000Y-45000
X126000Y-46000
X126000Y-140000
X126000Y-141000
X126000Y-142000
X127000Y-44000
X127000Y-45000
X127000Y-46000
X127000Y-140000
X127000Y-141000
X127000Y-142000
X128000Y-44000
X128000Y-45000
X128000Y-46000
X128000Y-140000
X128000Y-141000
X128000Y-142000
X129000Y-44000
X129000Y-45000
X129000Y-46000
X129000Y-140000
X129000Y-141000
X129000Y-142000
X130000Y-44000
X130000Y-45000
X130000Y-46000
X130000Y-140000
X130000Y-141000
X130000Y-142000
X131000Y-44000
X131000Y-45000
X131000Y-46000
X131000Y-140000
X131000Y-141000
X131000Y-142000
X132000Y-44000
X132000Y-45000
X132000Y-46000
X132000Y-140000
X132000Y-141000
X132000Y-142000
X133000Y-44000
X133000Y-45000
X133000Y-46000
X133000Y-140000
X133000Y-141000
X133000Y-142000
X134000Y-44000
X134000Y-45000
X134000Y-46000
X134000Y-140000
X134000Y-141000
X134000Y-142000
X135000Y-44000
X135000Y-45000
X135000Y-46000
X135000Y-140000
X135000Y-141000
X135000Y-142000
X136000Y-44000
X136000Y-45000
X136000Y-46000
X136000Y-140000
X136000Y-141000
X136000Y-142000
X137000Y-44000
X137000Y-45000
X137000Y-46000
X137000Y-140000
X137000Y-141000
X137000Y-142000
X138000Y-44000
X138000Y-45000
X138000Y-46000
X138000Y-140000
X138000Y-141000
X138000Y-142000
X139000Y-44000
X139000Y-45000
X139000Y-46000
X139000Y-140000
X139000Y-141000
X139000Y-142000
X140000Y-44000
X140000Y-45000
X140000Y-46000
X140000Y-140000
X140000Y-141000
X140000Y-142000
X141000Y-44000
X141000Y-45000
X141000Y-46000
X141000Y-140000
X141000Y-141000
X141000Y-142000
X142000Y-44000
X142000Y-45000
X142000Y-46000
X142000Y-140000
X142000Y-141000
X142000Y-142000
X143000Y-44000
X143000Y-45000
X143000Y-46000
X143000Y-140000
X143000Y-141000
X143000Y-142000
X144000Y-44000
X144000Y-45000
X144000Y-46000
X144000Y-140000
X144000Y-141000
X144000Y-142000
X145000Y-44000
X145000Y-45000
X145000Y-46000
X145000Y-140000
X145000Y-141000
X145000Y-142000
X146000Y-44000
X146000Y-45000
X146000Y-46000
X146000Y-140000
X146000Y-141000
X146000Y-142000
X147000Y-44000
X147000Y-45000
X147000Y-46000
X147000Y-140000
X147000Y-141000
X147000Y-142000
X148000Y-44000
X148000Y-45000
X148000Y-46000
X148000Y-140000
X148000Y-141000
X148000Y-142000
X149000Y-44000
X149000Y-45000
X149000Y-46000
X149000Y-140000
X149000Y-141000
X149000Y-142000
X150000Y-44000
X150000Y-45000
X150000Y-46000
X150000Y-140000
X150000Y-141000
X150000Y-142000
X151000Y-44000
X151000Y-45000
X151000Y-46000
X151000Y-140000
X151000Y-141000
X151000Y-142000
X152000Y-44000
X152000Y-45000
X152000Y-46000
X152000Y-140000
X152000Y-141000
X152000Y-142000
X153000Y-44000
X153000Y-45000
X153000Y-46000
X153000Y-140000
X153000Y-141000
X153000Y-142000
X154000Y-44000
X154000Y-45000
X154000Y-46000
X154000Y-140000
X154000Y-141000
X154000Y-142000
X155000Y-44000
X155000Y-45000
X155000Y-46000
X155000Y-140000
X155000Y-141000
X155000Y-142000
X156000Y-44000
X156000Y-45000
X156000Y-46000
X156000Y-140000
X156000Y-141000
X156000Y-142000
X157000Y-44000
X157000Y-45000
X157000Y-46000
X157000Y-140000
X157000Y-141000
X157000Y-142000
X158000Y-44000
X158000Y-45000
X158000Y-46000
X158000Y-140000
X158000Y-141000
X158000Y-142000
X159000Y-44000
X159000Y-45000
X159000Y-46000
X159000Y-140000
X159000Y-141000
X159000Y-142000
X160000Y-44000
X160000Y-45000
X160000Y-46000
X160000Y-140000
X160000Y-141000
X160000Y-142000
X161000Y-44000
X161000Y-45000
X161000Y-46000
X161000Y-140000
X161000Y-141000
X161000Y-142000
X162000Y-44000
X162000Y-45000
X162000Y-46000
X162000Y-140000
X162000Y-141000
X162000Y-142000
X163000Y-44000
X163000Y-45000
X163000Y-46000
X163000Y-140000
X163000Y-141000
X163000Y-142000
X164000Y-44000
X164000Y-45000
X164000Y-46000
X164000Y-140000
X164000Y-141000
X164000Y-142000
X165000Y-44000
X165000Y-45000
X165000Y-46000
X165000Y-140000
X165000Y-141000
X165000Y-142000
X166000Y-44000
X166000Y-45000
X166000Y-46000
X166000Y-140000
X166000Y-141000
X166000Y-142000
X167000Y-44000
X167000Y-45000
X167000Y-46000
X167000Y-140000
X167000Y-141000
X167000Y-142000
X168000Y-44000
X168000Y-45000
X168000Y-46000
X168000Y-140000
X168000Y-141000
X168000Y-142000
X169000Y-44000
X169000Y-45000
X169000Y-46000
X169000Y-140000
X169000Y-141000
X169000Y-142000
X170000Y-44000
X170000Y-45000
X170000Y-46000
X170000Y-140000
X170000Y-141000
X170000Y-142000
X171000Y-44000
X171000Y-45000
X171000Y-46000
X171000Y-140000
X171000Y-141000
X171000Y-142000
X172000Y-44000
X172000Y-45000
X172000Y-46000
X172000Y-140000
X172000Y-141000
X172000Y-142000
X173000Y-44000
X173000Y-45000
X173000Y-46000
X173000Y-140000
X173000Y-141000
X173000Y-142000
X174000Y-44000
X174000Y-45000
X174000Y-46000
X174000Y-140000
X174000Y-141000
X174000Y-142000
X175000Y-44000
X175000Y-45000
X175000Y-46000
X175000Y-140000
X175000Y-141000
X175000Y-142000
X176000Y-44000
X176000Y-45000
X176000Y-46000
X176000Y-140000
X176000Y-141000
X176000Y-142000
X177000Y-44000
X177000Y-45000
X177000Y-46000
X177000Y-140000
X177000Y-141000
X177000Y-142000
X178000Y-44000
X178000Y-45000
X178000Y-46000
X178000Y-140000
X178000Y-141000
X178000Y-142000
X179000Y-44000
X179000Y-45000
X179000Y-46000
X179000Y-140000
X179000Y-141000
X179000Y-142000
X180000Y-44000
X180000Y-45000
X180000Y-46000
X187000Y-53000
X187000Y-54000
X187000Y-55000
X187000Y-56000
X187000Y-57000
X187000Y-58000
X187000Y-59000
X187000Y-60000
X187000Y-61000
X187000Y-62000
X187000Y-63000
X187000Y-64000
X187000Y-65000
X187000Y-66000
X187000Y-67000
X187000Y-68000
X187000Y-69000
X187000Y-70000
X187000Y-71000
X187000Y-72000
X187000Y-73000
X187000Y-74000
X187000Y-75000
X187000Y-76000
X187000Y-77000
X187000Y-78000
X187000Y-79000
X187000Y-80000
X187000Y-81000
X187000Y-82000
X187000Y-83000
X187000Y-84000
X187000Y-85000
X187000Y-86000
X187000Y-87000
X187000Y-88000
X187000Y-89000
X187000Y-90000
X187000Y-91000
X187000Y-92000
X187000Y-93000
X187000Y-94000
X187000Y-95000
X187000Y-96000
X187000Y-97000
X187000Y-98000
X187000Y-99000
X187000Y-100000
X187000Y-101000
X187000Y-102000
X187000Y-103000
X187000Y-104000
X187000Y-105000
X187000Y-106000
X187000Y-107000
X187000Y-108000
X187000Y-109000
X187000Y-110000
X187000Y-111000
X187000Y-112000
X187000Y-113000
X187000Y-114000
X187000Y-115000
X187000Y-116000
X187000Y-117000
X187000Y-118000
X187000Y-119000
X187000Y-120000
X187000Y-121000
X187000Y-122000
X187000Y-123000
X187000Y-124000
X187000Y-125000
X187000Y-126000
X187000Y-127000
X187000Y-128000
X187000Y-129000
X187000Y-130000
X187000Y-131000
X187000Y-132000
X187000Y-133000
X187000Y-134000
X188000Y-53000
X188000Y-54000
X188000Y-55000
X188000Y-56000
X188000Y-57000
X188000Y-58000
X188000Y-59000
X188000Y-60000
X188000Y-61000
X188000Y-62000
X188000Y-63000
X188000Y-64000
X188000Y-65000
X188000Y-66000
X188000Y-67000
X188000Y-68000
X188000Y-69000
X188000Y-70000
X188000Y-71000
X188000Y-72000
X188000Y-73000
X188000Y-74000
X188000Y-75000
X188000Y-76000
X188000Y-77000
X188000Y-78000
X188000Y-79000
X188000Y-80000
X188000Y-81000
X188000Y-82000
X188000Y-83000
X188000Y-84000
X188000Y-85000
X188000Y-86000
X188000Y-87000
X188000Y-88000
X188000Y-89000
X188000Y-90000
X188000Y-91000
X188000Y-92000
X188000Y-93000
X188000Y-94000
X188000Y-95000
X188000Y-96000
X188000Y-97000
X188000Y-98000
X188000Y-99000
X188000Y-100000
X188000Y-101000
X188000Y-102000
X188000Y-103000
X188000Y-104000
X188000Y-105000
X188000Y-106000
X188000Y-107000
X188000Y-108000
X188000Y-109000
X188000Y-110000
X188000Y-111000
X188000Y-112000
X188000Y-113000
X188000Y-114000
X188000Y-115000
X188000Y-116000
X188000Y-117000
X188000Y-118000
X188000Y-119000
X188000Y-120000
X188000Y-121000
X188000Y-122000
X188000Y-123000
X188000Y-124000
X188000Y-125000
X188000Y-126000
X188000Y-127000
X188000Y-128000
X188000Y-129000
X188000Y-130000
X188000Y-131000
X188000Y-132000
X188000Y-133000
X188000Y-134000
T2
X95000Y-57000
X95000Y-59500
X95000Y-63500
X95000Y-66000
X95000Y-68500
X95000Y-71000
X95000Y-73750
X95000Y-76000
X95000Y-78750
X95000Y-81000
X95000Y-84500
X95000Y-86750
X95000Y-89000
X95000Y-92250
X95000Y-94500
X95000Y-97500
X95000Y-100750
X95000Y-103250
X98000Y-107000
X99750Y-107000
X99750Y-107040
X101500Y-107000
X101500Y-111500
X102500Y-112500
X103500Y-67000
X103500Y-86500
X103500Y-93500
X103500Y-109500
X103500Y-113500
X103500Y-115750
X104500Y-77500
X104500Y-85500
X104500Y-102000
X105500Y-57500
X105500Y-66000
X105500Y-70000
X105500Y-72500
X105500Y-83000
X105500Y-99500
X106000Y-103000
X106500Y-54500
X106500Y-96000
X107000Y-103000
X107500Y-64500
X107500Y-71270
X107500Y-96000
X108000Y-103000
X108500Y-81000
X108500Y-95000
X109000Y-103000
X109500Y-63500
X109500Y-70000
X109500Y-98000
X109500Y-99000
X109500Y-100000
X110000Y-103000
X110250Y-78750
X110250Y-83500
X111000Y-103000
X111250Y-127000
X112000Y-75000
X112000Y-76000
X112000Y-77000
X112000Y-78000
X112000Y-79000
X112000Y-103000
X113000Y-62000
X113000Y-70000
X113000Y-91000
X113000Y-99000
X113000Y-103000
X114000Y-86500
X114000Y-92500
X114000Y-103000
X115000Y-52000
X115000Y-68500
X115000Y-79000
X115000Y-91250
X115000Y-101000
X115000Y-103000
X116000Y-79000
X116000Y-103000
X116500Y-58000
X116500Y-64300
X117000Y-79000
X117000Y-83500
X117000Y-89500
X117000Y-103000
X118000Y-79000
X118000Y-103000
X119000Y-79000
X119000Y-103000
X119500Y-90000
X119500Y-98500
X120000Y-79000
X120000Y-103000
X120500Y-67500
X120500Y-71000
X120500Y-91000
X120500Y-96000
X121000Y-78000
X121000Y-103000
X122000Y-77000
X122000Y-86000
X122000Y-102000
X123000Y-68000
X123000Y-76000
X123000Y-86000
X123000Y-101000
X124000Y-61000
X124000Y-68000
X124000Y-75000
X124000Y-86000
X124000Y-100000
X124750Y-133250
X125000Y-68000
X125000Y-75000
X125000Y-86000
X125000Y-99000
X126000Y-68000
X126000Y-75000
X126000Y-86000
X126000Y-98000
X127000Y-68000
X127000Y-75000
X127000Y-86000
X127000Y-97000
X127340Y-118505
X127500Y-96500
X128000Y-68000
X128000Y-75000
X128000Y-86000
X128000Y-96000
X129000Y-61000
X129000Y-68000
X129000Y-75000
X129000Y-86000
X129000Y-95000
X130000Y-68000
X130000Y-75000
X130000Y-86000
X130000Y-94000
X131000Y-68000
X131000Y-75000
X131000Y-86000
X131000Y-93000
X131000Y-134000
X132000Y-68000
X132000Y-75000
X132000Y-86000
X132000Y-93000
X133000Y-68000
X133000Y-75000
X133000Y-86000
X133000Y-93000
X133000Y-121000
X133000Y-122000
X133000Y-123000
X133000Y-124000
X133000Y-125000
X133000Y-127000
X133000Y-129000
X133000Y-130000
X133000Y-131000
X133000Y-132000
X133000Y-133000
X134000Y-61000
X134000Y-68000
X134000Y-75000
X134000Y-86000
X134000Y-93000
X135000Y-68000
X135000Y-75000
X135000Y-86000
X135000Y-93000
X136000Y-68000
X136000Y-75000
X136000Y-86000
X136000Y-93000
X137000Y-68000
X137000Y-75000
X137000Y-86000
X137000Y-93000
X138000Y-68000
X138000Y-75000
X138000Y-86000
X138000Y-93000
X139000Y-61000
X139000Y-68000
X139000Y-75000
X139000Y-86000
X139000Y-93000
X140000Y-68000
X140000Y-86000
X140000Y-93000
X141000Y-68000
X141000Y-86000
X141000Y-93000
X142000Y-68000
X142000Y-86000
X142000Y-93000
X143000Y-68000
X143000Y-86000
X143000Y-93000
X144000Y-71250
X144000Y-107000
X144000Y-112000
X144000Y-117750
X144000Y-136000
X145000Y-135000
X145500Y-50500
X145500Y-58000
X145500Y-75500
X145500Y-80500
X145500Y-83500
X145500Y-100500
X145500Y-108500
X145500Y-125500
X145500Y-133500
X151000Y-81000
X151000Y-93000
X152000Y-79500
X152000Y-92000
X153000Y-82000
X153000Y-87500
X154000Y-58250
X154000Y-72500
X154000Y-108000
X155500Y-77000
X155500Y-127000
X156500Y-52000
X156500Y-101500
X157000Y-124000
X157000Y-125000
X157000Y-126000
X157000Y-127000
X157000Y-128000
X157000Y-129000
X157000Y-130000
X157000Y-131000
X157000Y-132000
X157000Y-133000
X157000Y-134000
X157000Y-135000
X157000Y-136000
X157000Y-137000
X158000Y-96000
X158000Y-97000
X158000Y-98000
X159000Y-96000
X159000Y-97000
X159000Y-98000
X160000Y-96000
X160000Y-97000
X160000Y-98000
X161000Y-51000
X161000Y-72000
X161000Y-73000
X161000Y-74000
X161000Y-75000
X161000Y-76000
X161000Y-77000
X161000Y-78000
X161000Y-83000
X161000Y-90000
X161000Y-133000
X162000Y-51000
X162000Y-84500
X162000Y-91000
X162000Y-119000
X162000Y-129500
X163000Y-51000
X163000Y-59500
X163000Y-63500
X163000Y-109500
X163000Y-134500
X164000Y-51000
X164000Y-74000
X164000Y-105500
X165000Y-51000
X165000Y-76000
X165000Y-104000
X165000Y-121500
X165000Y-130500
X166000Y-51000
X166000Y-78500
X166000Y-103000
X166000Y-110500
X166000Y-122500
X167000Y-51000
X167000Y-57000
X167000Y-81000
X167500Y-99000
X167500Y-132000
X168000Y-51000
X168000Y-55500
X168000Y-83500
X169000Y-51000
X169000Y-54500
X169000Y-86000
X169500Y-93000
X169500Y-116500
X170000Y-51000
X170000Y-53000
X170000Y-88500
X170500Y-92000
X170500Y-114000
X171500Y-82500
X171500Y-111500
X172500Y-80000
X172500Y-109000
X173500Y-77500
X173500Y-106000
X174500Y-88000
X174500Y-103500
X177500Y-93500
X177500Y-97500
X177500Y-100500
X177500Y-102000
X177500Y-105000
X177500Y-107500
X177500Y-110500
X177500Y-112500
X177500Y-115000
X177500Y-120000
X177500Y-123000
X178000Y-66500
X178000Y-69000
X178000Y-72500
X178000Y-75000
X178000Y-77500
X178000Y-79500
X178000Y-82000
X178000Y-85000
X178000Y-87000
X178000Y-90000
X180750Y-117750
X180750Y-124000
X181000Y-96000
T3
X92076Y-57070
X92076Y-59610
X92076Y-62150
X92076Y-64690
X92076Y-67230
X92076Y-69770
X92076Y-72310
X92076Y-74850
X92076Y-77390
X92076Y-79930
X92076Y-83150
X92076Y-85690
X92076Y-88230
X92076Y-90770
X92076Y-93310
X92076Y-95850
X92076Y-99420
X92076Y-101960
X92076Y-104500
X92076Y-107040
X92076Y-109580
X92076Y-113960
X92076Y-116500
X92076Y-119040
X92076Y-123730
X92076Y-126270
X140424Y-99920
X140424Y-102460
X140424Y-105000
X140424Y-107540
X140424Y-110080
X184924Y-66070
X184924Y-68610
X184924Y-71150
X184924Y-73690
X184924Y-76230
X184924Y-78770
X184924Y-81310
X184924Y-83850
X184924Y-86390
X184924Y-88930
X185000Y-93510
X185000Y-96050
X185000Y-98590
X185000Y-101130
X185000Y-103670
X185000Y-106210
X185000Y-108750
X185000Y-111290
X185000Y-113830
X185000Y-116370
X185000Y-118910
X185000Y-121450
X185000Y-123990
T4
X140500Y-120510
X140500Y-123050
X140500Y-125590
X140500Y-128130
X140500Y-130670
X140500Y-133210
X140500Y-135750
T5
X94000Y-48000
X94000Y-138000
X184000Y-48000
X184000Y-138000
T0
M30
