M48
;DRILL file {KiCad (5.0.2)-1} date 14/03/2019 15:41:26
;FORMAT={-:-/ absolute / inch / decimal}
FMAT,2
INCH,TZ
T1C0.0118
T2C0.0157
T3C0.0400
T4C0.0472
T5C0.1378
%
G90
G05
T1
X3.5433Y-3.189
X3.5433Y-2.3622
X5.6299Y-5.5512
X5.3937Y-1.7717
X6.063Y-1.7717
X7.3622Y-2.8346
X6.6142Y-5.5906
X7.4016Y-3.8976
X3.5433Y-3.3465
X6.7717Y-5.5118
X3.5433Y-2.5984
X6.0236Y-5.5512
X4.4882Y-1.7717
X6.2598Y-1.7717
X7.4016Y-4.6063
X7.3622Y-2.2047
X6.811Y-5.5906
X7.3622Y-4.0157
X6.9291Y-5.5118
X5.5118Y-5.5512
X4.8031Y-1.7717
X4.4488Y-1.7323
X7.3622Y-4.9213
X7.3622Y-2.6772
X4.0157Y-1.7323
X3.5433Y-2.0866
X7.3622Y-4.3307
X3.937Y-5.5512
X5.4724Y-5.5512
X5.4724Y-1.7717
X4.7638Y-1.7323
X3.5433Y-4.6457
X7.3622Y-4.8425
X7.3622Y-4.1732
X4.4882Y-5.5512
X5.2756Y-1.7717
X4.6063Y-1.7323
X3.5433Y-4.6063
X7.4016Y-4.9606
X7.4016Y-3.6614
X6.811Y-1.7717
X4.6063Y-5.5512
X5.0787Y-1.7323
X7.3622Y-5.1575
X5.9055Y-5.5906
X7.3622Y-3.8976
X6.9685Y-1.7717
X5.5118Y-1.7323
X4.4882Y-5.5906
X4.1732Y-5.5118
X6.4173Y-5.5906
X4.0551Y-1.811
X5.6693Y-5.5118
X5.9843Y-1.7323
X4.8819Y-5.5906
X5.1181Y-5.5118
X3.5433Y-4.1732
X4.3701Y-1.811
X5.1575Y-5.5906
X6.2205Y-5.5118
X6.4961Y-1.7323
X5.0394Y-5.5906
X7.4016Y-5.2756
X3.5433Y-3.8583
X4.685Y-1.811
X5.7874Y-5.5906
X5.7874Y-5.5118
X6.5748Y-1.7323
X7.4016Y-5.0787
X7.4016Y-3.0709
X5.0787Y-1.811
X5.2756Y-5.5906
X6.1417Y-5.5118
X5.0394Y-1.7323
X4.9213Y-5.5118
X6.811Y-1.811
X5.1181Y-1.811
X6.1024Y-5.5118
X6.6929Y-1.7323
X4.685Y-5.5118
X6.6535Y-5.5512
X6.6535Y-1.811
X7.4016Y-3.1102
X6.1811Y-1.811
X6.5354Y-5.5118
X6.8504Y-1.7323
X6.8504Y-5.5512
X7.3622Y-2.0866
X3.8976Y-1.7323
X3.5433Y-4.7638
X7.4016Y-3.2677
X4.8031Y-1.811
X3.8976Y-1.7717
X3.8976Y-5.5906
X7.3622Y-2.2441
X3.5433Y-4.8425
X7.4016Y-3.3071
X5.9055Y-1.811
X4.2126Y-1.7717
X6.3386Y-5.5512
X7.3622Y-2.5984
X7.3622Y-3.4646
X6.0236Y-1.811
X5.8268Y-5.5512
X5.0787Y-1.7717
X6.8898Y-5.5512
X7.4016Y-2.874
X7.3622Y-3.7402
X3.5433Y-3.5433
X3.5433Y-2.7165
X5.8661Y-5.5512
X5.5118Y-1.7717
X6.6142Y-1.7717
X7.4016Y-2.5591
X6.7717Y-5.5906
X7.3622Y-3.937
X3.5433Y-2.9921
X3.8976Y-5.5512
X3.5433Y-2.8346
X5.2756Y-5.5512
X4.5669Y-1.7717
X6.3386Y-1.7717
X7.4016Y-4.6457
X7.0866Y-1.811
X7.0079Y-5.5906
X7.4016Y-4.2913
X4.2913Y-5.5512
X5.7874Y-5.5512
X5.9055Y-1.7717
X4.1732Y-1.7323
X7.4016Y-4.7244
X7.3622Y-2.7559
X7.0472Y-5.5906
X7.4016Y-4.4094
X3.9764Y-5.5512
X4.9213Y-5.5512
X5.7874Y-1.7717
X4.2913Y-1.7323
X3.5433Y-4.685
X7.3622Y-4.9606
X7.3622Y-4.2126
X4.5669Y-5.5512
X5.0394Y-1.7717
X4.5276Y-1.7323
X3.5433Y-4.4488
X7.4016Y-5.
X7.4016Y-4.5276
X6.7717Y-1.7717
X4.8031Y-5.5512
X5.1181Y-1.7323
X7.4016Y-5.2362
X5.9449Y-5.5906
X7.4016Y-4.0551
X7.0472Y-1.7717
X6.063Y-1.7323
X4.5669Y-5.5906
X4.5276Y-5.5118
X6.2992Y-5.5906
X4.0945Y-1.811
X5.7087Y-5.5118
X5.5906Y-1.7323
X4.9606Y-5.5906
X7.3622Y-5.1969
X3.5433Y-4.2913
X4.4094Y-1.811
X5.2362Y-5.5906
X5.3543Y-5.5118
X5.7087Y-1.7323
X3.9764Y-5.5118
X7.3622Y-3.1102
X3.5433Y-4.0551
X4.8425Y-1.811
X5.5512Y-5.5906
X6.6142Y-5.5118
X5.6299Y-1.7323
X4.0157Y-5.5118
X7.4016Y-2.9528
X6.1024Y-1.811
X5.8268Y-5.5906
X6.378Y-5.5118
X6.1811Y-1.7323
X4.8819Y-5.5118
X6.8504Y-1.811
X5.315Y-1.811
X5.9843Y-5.5118
X6.811Y-1.7323
X4.0157Y-5.5906
X6.6929Y-1.811
X7.4016Y-3.1496
X5.3937Y-1.811
X6.8898Y-1.7323
X6.9685Y-5.5512
X7.4016Y-2.0866
X3.5433Y-4.8031
X7.3622Y-3.3071
X5.6299Y-1.811
X4.2913Y-1.7717
X4.3701Y-5.5906
X7.3622Y-2.3228
X3.5433Y-5.2362
X7.3622Y-3.3465
X4.7244Y-1.811
X5.5906Y-5.5512
X4.252Y-1.7717
X6.4173Y-5.5512
X7.3622Y-2.6378
X7.4016Y-3.4646
X5.5118Y-1.811
X6.1024Y-5.5512
X5.1969Y-1.7717
X6.6535Y-1.7717
X6.4961Y-5.5512
X7.3622Y-2.7953
X7.3622Y-3.7008
X3.5433Y-3.2283
X3.5433Y-2.874
X5.9449Y-5.5512
X6.7323Y-1.7323
X6.1417Y-1.7717
X7.3622Y-2.3622
X3.9764Y-1.7323
X3.5433Y-2.1654
X7.4016Y-3.9764
X3.5433Y-3.0315
X6.811Y-5.5118
X3.5433Y-2.7953
X5.Y-5.5512
X4.6063Y-1.7717
X6.1811Y-1.7717
X7.3622Y-4.5669
X7.4016Y-2.5197
X3.5433Y-2.2047
X7.3622Y-4.5276
X4.5276Y-5.5512
X5.9843Y-5.5512
X5.8268Y-1.7717
X4.2126Y-1.7323
X7.3622Y-4.7638
X7.4016Y-2.9134
X4.1339Y-1.7323
X7.3622Y-4.4882
X4.0157Y-5.5512
X5.1575Y-5.5512
X5.8661Y-1.7717
X4.3307Y-1.7323
X3.5433Y-4.3701
X7.4016Y-4.8425
X7.4016Y-4.4882
X4.7638Y-5.5512
X4.5669Y-1.7323
X7.4016Y-5.1575
X6.4961Y-5.5906
X7.3622Y-4.4094
X6.6929Y-1.7717
X7.0079Y-5.5118
X5.1575Y-1.7323
X7.4016Y-5.1969
X5.9843Y-5.5906
X7.3622Y-3.9764
X7.0866Y-1.7717
X5.5512Y-1.7323
X4.6063Y-5.5906
X4.2913Y-5.5118
X6.378Y-5.5906
X4.2126Y-1.811
X6.5748Y-5.5118
X5.8268Y-1.7323
X4.5276Y-5.5906
X7.3622Y-5.2756
X3.5433Y-3.8976
X4.4882Y-1.811
X5.5118Y-5.5906
X5.5512Y-5.5118
X6.378Y-1.7323
X4.252Y-5.5118
X7.3622Y-3.0709
X3.5433Y-4.252
X4.9606Y-1.811
X5.7087Y-5.5906
X6.1811Y-5.5118
X6.2992Y-1.7323
X4.0945Y-5.5118
X7.3622Y-3.0315
X6.1417Y-1.811
X6.0236Y-5.5118
X6.5354Y-1.7323
X4.8425Y-5.5118
X6.4961Y-1.811
X5.3543Y-1.811
X5.8661Y-5.5118
X6.9291Y-1.7323
X4.3307Y-5.5906
X6.7717Y-1.811
X7.3622Y-3.189
X6.2992Y-1.811
X4.1339Y-1.7717
X4.2126Y-5.5906
X7.4016Y-2.126
X3.5433Y-4.8819
X7.3622Y-3.3858
X4.4488Y-1.811
X3.937Y-1.7717
X4.0945Y-5.5906
X7.4016Y-2.3228
X3.5433Y-4.9606
X7.4016Y-3.3465
X5.8268Y-1.811
X6.063Y-5.5512
X4.3307Y-1.7717
X6.378Y-5.5512
X7.4016Y-2.7165
X7.4016Y-3.5039
X3.5433Y-3.4252
X3.5433Y-2.2835
X6.2205Y-5.5512
X5.5512Y-1.7717
X5.9843Y-1.7717
X6.6142Y-5.5512
X7.3622Y-2.9134
X7.4016Y-3.7008
X3.5433Y-3.3071
X3.5433Y-2.4409
X5.7087Y-5.5512
X5.9449Y-1.7717
X6.2205Y-1.7717
X7.4016Y-2.4409
X3.5433Y-2.0472
X7.4016Y-4.252
X3.5433Y-3.2677
X7.0472Y-5.5118
X3.5433Y-2.6378
X5.3937Y-5.5512
X4.6457Y-1.7717
X6.5748Y-1.7717
X7.4016Y-4.5669
X7.3622Y-2.126
X3.5433Y-2.126
X7.3622Y-4.3701
X4.4094Y-5.5512
X6.1417Y-5.5512
X4.9213Y-1.7717
X4.4882Y-1.7323
X7.4016Y-4.7638
X7.3622Y-2.4016
X7.4016Y-4.0157
X4.1732Y-5.5512
X5.Y-1.7717
X4.3701Y-1.7323
X3.5433Y-4.5669
X7.3622Y-4.8819
X7.4016Y-3.7402
X4.2126Y-5.5512
X4.6457Y-1.7323
X7.3622Y-5.0787
X6.063Y-5.5906
X7.3622Y-4.0551
X6.7323Y-1.7717
X6.6535Y-5.5118
X5.2756Y-1.7323
X3.937Y-5.5118
X5.8661Y-5.5906
X3.8976Y-1.811
X6.2598Y-1.7323
X4.6457Y-5.5906
X5.0787Y-5.5118
X6.0236Y-5.5906
X3.5433Y-3.8189
X4.1339Y-1.811
X5.8268Y-5.5118
X6.1417Y-1.7323
X5.Y-5.5906
X5.1575Y-5.5118
X3.5433Y-4.2126
X4.5276Y-1.811
X5.315Y-5.5906
X6.4961Y-5.5118
X5.9449Y-1.7323
X4.4882Y-5.5118
X7.3622Y-2.9528
X3.5433Y-4.3307
X5.1575Y-1.811
X5.5906Y-5.5906
X5.9449Y-5.5118
X5.6693Y-1.7323
X4.2126Y-5.5118
X6.3386Y-1.811
X5.748Y-1.811
X6.4173Y-5.5118
X6.4173Y-1.7323
X3.8976Y-5.5118
X6.9291Y-5.5512
X6.4567Y-1.811
X5.9449Y-1.811
X5.6299Y-5.5118
X6.9685Y-1.7323
X3.9764Y-5.5906
X6.8898Y-1.811
X3.5433Y-5.1181
X7.3622Y-3.2283
X5.6693Y-1.811
X7.0472Y-1.7323
X4.0551Y-5.5906
X7.3622Y-2.1654
X3.5433Y-4.9213
X7.3622Y-3.5039
X5.Y-1.811
X4.3701Y-1.7717
X6.2598Y-5.5512
X7.3622Y-2.4803
X3.5433Y-5.0394
X7.4016Y-3.3858
X5.4724Y-1.811
X5.6693Y-5.5512
X4.5276Y-1.7717
X7.0079Y-5.5512
X7.4016Y-2.7953
X7.4016Y-3.622
X3.5433Y-3.0709
X3.5433Y-2.6772
X5.1181Y-5.5512
X5.2362Y-1.7717
X6.378Y-1.7717
X4.2913Y-5.5906
X7.3622Y-2.2835
X7.3622Y-3.7795
X3.5433Y-3.4646
X3.5433Y-2.5197
X4.9606Y-5.5512
X5.5906Y-1.7717
X6.4173Y-1.7717
X7.3622Y-2.7165
X6.8504Y-5.5906
X7.3622Y-4.4488
X3.5433Y-3.5039
X4.0945Y-5.5512
X3.5433Y-2.4803
X5.5512Y-5.5512
X5.4331Y-1.7717
X6.4961Y-1.7717
X7.4016Y-4.685
X7.4016Y-2.1654
X6.6929Y-5.5906
X7.4016Y-4.1339
X4.7244Y-5.5512
X5.0787Y-5.5512
X5.1181Y-1.7717
X4.685Y-1.7323
X7.3622Y-4.8031
X7.4016Y-2.4016
X7.4016Y-4.3701
X4.252Y-5.5512
X4.4488Y-1.7717
X4.8031Y-1.7323
X3.5433Y-4.4094
X7.4016Y-4.8819
X7.4016Y-3.8189
X4.0551Y-5.5512
X4.8819Y-1.7323
X7.3622Y-5.0394
X6.2205Y-5.5906
X7.4016Y-4.1732
X6.8898Y-1.7717
X6.6929Y-5.5118
X5.315Y-1.7323
X5.0787Y-5.5906
X4.1339Y-5.5118
X6.1024Y-5.5906
X3.937Y-1.811
X6.6535Y-1.7323
X4.8425Y-5.5906
X4.6063Y-5.5118
X6.1811Y-5.5906
X3.5433Y-3.6614
X4.1732Y-1.811
X5.5906Y-5.5118
X6.1024Y-1.7323
X4.7244Y-5.5906
X4.7638Y-5.5118
X3.5433Y-4.0157
X4.5669Y-1.811
X5.3543Y-5.5906
X5.748Y-5.5118
X5.2362Y-1.7323
X5.1969Y-5.5118
X7.4016Y-3.0315
X3.5433Y-4.1339
X4.8819Y-1.811
X5.6299Y-5.5906
X5.4331Y-5.5118
X6.3386Y-1.7323
X4.3307Y-5.5118
X6.7323Y-1.811
X5.2362Y-1.811
X6.2598Y-5.5118
X6.4567Y-1.7323
X4.7244Y-5.5118
X3.8583Y-5.5906
X6.5354Y-1.811
X5.4331Y-1.811
X6.063Y-5.5118
X7.0866Y-1.7323
X6.6929Y-5.5512
X6.9291Y-1.811
X7.3622Y-3.2677
X6.2598Y-1.811
X4.4094Y-1.7717
X3.937Y-5.5906
X7.4016Y-2.2441
X3.5433Y-5.1575
X7.4016Y-3.5827
X5.1969Y-1.811
X4.0157Y-1.7717
X6.2992Y-5.5512
X7.4016Y-2.7559
X3.5433Y-5.1969
X7.4016Y-3.5433
X5.7874Y-1.811
X5.9055Y-5.5512
X4.7638Y-1.7717
X6.4567Y-5.5512
X7.3622Y-2.5591
X4.0551Y-1.7323
X7.3622Y-3.5433
X3.5433Y-3.1102
X3.5433Y-2.9134
X5.3543Y-5.5512
X5.315Y-1.7717
X6.0236Y-1.7717
X7.3622Y-2.874
X6.9291Y-5.5906
X7.3622Y-3.8583
X3.5433Y-3.3858
X3.5433Y-2.5591
X5.1969Y-5.5512
X5.6299Y-1.7717
X6.4567Y-1.7717
X7.3622Y-4.685
X7.4016Y-2.8346
X6.6535Y-5.5906
X7.4016Y-4.2126
X3.5433Y-3.622
X6.8504Y-5.5118
X3.5433Y-2.2441
X6.1811Y-5.5512
X4.8819Y-1.7717
X6.5354Y-1.7717
X7.3622Y-4.7244
X7.3622Y-2.4409
X4.0945Y-1.7323
X6.9685Y-5.5906
X7.3622Y-4.252
X6.9685Y-5.5118
X4.8425Y-5.5512
X5.1575Y-1.7717
X4.9606Y-1.7323
X7.4016Y-4.8031
X7.3622Y-4.0945
X4.685Y-5.5512
X4.685Y-1.7717
X4.8425Y-1.7323
X3.5433Y-4.4882
X7.3622Y-5.
X7.4016Y-3.937
X4.3307Y-5.5512
X4.9213Y-1.7323
X7.3622Y-5.1181
X6.1417Y-5.5906
X7.3622Y-3.8189
X7.0079Y-1.7717
X4.6457Y-5.5512
X5.3937Y-1.7323
X5.1181Y-5.5906
X4.0551Y-5.5118
X6.2598Y-5.5906
X3.9764Y-1.811
X5.9055Y-1.7323
X4.685Y-5.5906
X5.0394Y-5.5118
X6.4567Y-5.5906
X3.5433Y-3.7795
X4.2913Y-1.811
X5.3937Y-5.5906
X5.2362Y-5.5118
X5.8661Y-1.7323
X4.8031Y-5.5906
X7.3622Y-5.2362
X3.5433Y-3.937
X4.6063Y-1.811
X5.4331Y-5.5906
X5.2756Y-5.5118
X5.4331Y-1.7323
X3.8583Y-5.5118
X7.3622Y-2.9921
X3.5433Y-3.7008
X4.9213Y-1.811
X5.6693Y-5.5906
X5.9055Y-5.5118
X5.748Y-1.7323
X4.4094Y-5.5118
X6.378Y-1.811
X5.8661Y-1.811
X6.2992Y-5.5118
X5.3543Y-1.7323
X4.9606Y-5.5118
X4.4094Y-5.5906
X6.5748Y-1.811
X5.2756Y-1.811
X6.3386Y-5.5118
X3.9764Y-1.7717
X4.1732Y-5.5906
X7.0079Y-1.811
X3.5433Y-5.
X7.3622Y-3.1496
X4.252Y-1.811
X7.0079Y-1.7323
X7.0472Y-5.5512
X7.4016Y-2.2835
X3.5433Y-5.0787
X7.3622Y-3.6614
X5.7087Y-1.811
X4.0945Y-1.7717
X6.5354Y-5.5512
X7.4016Y-2.4803
X3.5433Y-5.2756
X7.4016Y-3.4252
X5.9843Y-1.811
X5.0394Y-5.5512
X4.8425Y-1.7717
X6.5748Y-5.5512
X7.3622Y-2.5197
X7.3622Y-3.622
X3.5433Y-3.1496
X3.5433Y-2.3228
X5.748Y-5.5512
X5.6693Y-1.7717
X6.1024Y-1.7717
X7.4016Y-2.3622
X6.5748Y-5.5906
X7.4016Y-3.8583
X3.5433Y-2.9528
X6.7323Y-5.5118
X3.5433Y-2.4016
X5.4331Y-5.5512
X5.748Y-1.7717
X6.2992Y-1.7717
X7.3622Y-4.6457
X6.9685Y-1.811
X3.937Y-1.7323
X6.8898Y-5.5906
X7.4016Y-4.4488
X3.5433Y-3.5827
X6.8898Y-5.5118
X3.5433Y-2.7559
X5.2362Y-5.5512
X4.7244Y-1.7717
X4.7244Y-1.7323
X7.3622Y-4.6063
X7.4016Y-2.5984
X6.7323Y-5.5906
X7.3622Y-4.2913
X3.8583Y-5.5512
X4.8819Y-5.5512
X5.3543Y-1.7717
X4.252Y-1.7323
X7.4016Y-5.0394
X7.4016Y-4.3307
X4.4488Y-5.5512
X5.7087Y-1.7717
X4.4094Y-1.7323
X3.5433Y-4.5276
X7.4016Y-4.9213
X7.4016Y-4.0945
X6.9291Y-1.7717
X4.3701Y-5.5512
X5.Y-1.7323
X7.4016Y-5.1181
X6.3386Y-5.5906
X7.3622Y-4.1339
X6.8504Y-1.7717
X4.1339Y-5.5512
X5.7874Y-1.7323
X4.4488Y-5.5906
X4.5669Y-5.5118
X6.5354Y-5.5906
X4.0157Y-1.811
X6.0236Y-1.7323
X4.9213Y-5.5906
X5.Y-5.5118
X3.5433Y-3.9764
X4.3307Y-1.811
X5.748Y-5.5906
X5.315Y-5.5118
X5.1969Y-1.7323
X4.7638Y-5.5906
X4.3701Y-5.5118
X3.5433Y-3.7402
X4.6457Y-1.811
X5.4724Y-5.5906
X5.3937Y-5.5118
X6.2205Y-1.7323
X4.4488Y-5.5118
X7.4016Y-2.9921
X3.5433Y-4.0945
X5.0394Y-1.811
X5.1969Y-5.5906
X5.4724Y-5.5118
X6.6142Y-1.7323
X4.8031Y-5.5118
X6.4173Y-1.811
X6.2205Y-1.811
X5.5118Y-5.5118
X5.4724Y-1.7323
X4.6457Y-5.5118
X4.1339Y-5.5906
X6.6142Y-1.811
X7.4016Y-3.189
X5.5906Y-1.811
X6.4567Y-5.5118
X6.7717Y-1.7323
X6.7323Y-5.5512
X7.0472Y-1.811
X3.5433Y-4.7244
X7.4016Y-3.2283
X4.7638Y-1.811
X4.0551Y-1.7717
X4.252Y-5.5906
X7.4016Y-2.2047
X7.3622Y-3.5827
X5.5512Y-1.811
X4.1732Y-1.7717
X6.811Y-5.5512
X7.4016Y-2.6378
X7.3622Y-3.4252
X6.063Y-1.811
X5.315Y-5.5512
X4.9606Y-1.7717
X6.7717Y-5.5512
X7.4016Y-2.6772
X7.4016Y-3.7795
T2
X3.7402Y-2.2441
X3.7402Y-2.3425
X3.7402Y-2.5
X3.7402Y-2.5984
X3.7402Y-2.6969
X3.7402Y-2.7953
X3.7402Y-2.9035
X3.7402Y-2.9921
X3.7402Y-3.1004
X3.7402Y-3.189
X3.7402Y-3.3268
X3.7402Y-3.4154
X3.7402Y-3.5039
X3.7402Y-3.6319
X3.7402Y-3.7205
X3.7402Y-3.8386
X3.7402Y-3.9665
X3.7402Y-4.065
X3.8583Y-4.2126
X3.9272Y-4.2126
X3.9272Y-4.2142
X3.9961Y-4.2126
X3.9961Y-4.3898
X4.0354Y-4.4291
X4.0748Y-2.6378
X4.0748Y-3.4055
X4.0748Y-3.6811
X4.0748Y-4.311
X4.0748Y-4.4685
X4.0748Y-4.5571
X4.1142Y-3.0512
X4.1142Y-3.3661
X4.1142Y-4.0157
X4.1535Y-2.2638
X4.1535Y-2.5984
X4.1535Y-2.7559
X4.1535Y-2.8543
X4.1535Y-3.2677
X4.1535Y-3.9173
X4.1732Y-4.0551
X4.1929Y-2.1457
X4.1929Y-3.7795
X4.2126Y-4.0551
X4.2323Y-2.5394
X4.2323Y-2.8059
X4.2323Y-3.7795
X4.252Y-4.0551
X4.2717Y-3.189
X4.2717Y-3.7402
X4.2913Y-4.0551
X4.311Y-2.5
X4.311Y-2.7559
X4.311Y-3.8583
X4.311Y-3.8976
X4.311Y-3.937
X4.3307Y-4.0551
X4.3406Y-3.1004
X4.3406Y-3.2874
X4.3701Y-4.0551
X4.3799Y-5.
X4.4094Y-2.9528
X4.4094Y-2.9921
X4.4094Y-3.0315
X4.4094Y-3.0709
X4.4094Y-3.1102
X4.4094Y-4.0551
X4.4488Y-2.4409
X4.4488Y-2.7559
X4.4488Y-3.5827
X4.4488Y-3.8976
X4.4488Y-4.0551
X4.4882Y-3.4055
X4.4882Y-3.6417
X4.4882Y-4.0551
X4.5276Y-2.0472
X4.5276Y-2.6969
X4.5276Y-3.1102
X4.5276Y-3.5925
X4.5276Y-3.9764
X4.5276Y-4.0551
X4.5669Y-3.1102
X4.5669Y-4.0551
X4.5866Y-2.2835
X4.5866Y-2.5315
X4.6063Y-3.1102
X4.6063Y-3.2874
X4.6063Y-3.5236
X4.6063Y-4.0551
X4.6457Y-3.1102
X4.6457Y-4.0551
X4.685Y-3.1102
X4.685Y-4.0551
X4.7047Y-3.5433
X4.7047Y-3.878
X4.7244Y-3.1102
X4.7244Y-4.0551
X4.7441Y-2.6575
X4.7441Y-2.7953
X4.7441Y-3.5827
X4.7441Y-3.7795
X4.7638Y-3.0709
X4.7638Y-4.0551
X4.8031Y-3.0315
X4.8031Y-3.3858
X4.8031Y-4.0157
X4.8425Y-2.6772
X4.8425Y-2.9921
X4.8425Y-3.3858
X4.8425Y-3.9764
X4.8819Y-2.4016
X4.8819Y-2.6772
X4.8819Y-2.9528
X4.8819Y-3.3858
X4.8819Y-3.937
X4.9114Y-5.2461
X4.9213Y-2.6772
X4.9213Y-2.9528
X4.9213Y-3.3858
X4.9213Y-3.8976
X4.9606Y-2.6772
X4.9606Y-2.9528
X4.9606Y-3.3858
X4.9606Y-3.8583
X5.Y-2.6772
X5.Y-2.9528
X5.Y-3.3858
X5.Y-3.8189
X5.0134Y-4.6656
X5.0197Y-3.7992
X5.0394Y-2.6772
X5.0394Y-2.9528
X5.0394Y-3.3858
X5.0394Y-3.7795
X5.0787Y-2.4016
X5.0787Y-2.6772
X5.0787Y-2.9528
X5.0787Y-3.3858
X5.0787Y-3.7402
X5.1181Y-2.6772
X5.1181Y-2.9528
X5.1181Y-3.3858
X5.1181Y-3.7008
X5.1575Y-2.6772
X5.1575Y-2.9528
X5.1575Y-3.3858
X5.1575Y-3.6614
X5.1575Y-5.2756
X5.1969Y-2.6772
X5.1969Y-2.9528
X5.1969Y-3.3858
X5.1969Y-3.6614
X5.2362Y-2.6772
X5.2362Y-2.9528
X5.2362Y-3.3858
X5.2362Y-3.6614
X5.2362Y-4.7638
X5.2362Y-4.8031
X5.2362Y-4.8425
X5.2362Y-4.8819
X5.2362Y-4.9213
X5.2362Y-5.
X5.2362Y-5.0787
X5.2362Y-5.1181
X5.2362Y-5.1575
X5.2362Y-5.1969
X5.2362Y-5.2362
X5.2756Y-2.4016
X5.2756Y-2.6772
X5.2756Y-2.9528
X5.2756Y-3.3858
X5.2756Y-3.6614
X5.315Y-2.6772
X5.315Y-2.9528
X5.315Y-3.3858
X5.315Y-3.6614
X5.3543Y-2.6772
X5.3543Y-2.9528
X5.3543Y-3.3858
X5.3543Y-3.6614
X5.3937Y-2.6772
X5.3937Y-2.9528
X5.3937Y-3.3858
X5.3937Y-3.6614
X5.4331Y-2.6772
X5.4331Y-2.9528
X5.4331Y-3.3858
X5.4331Y-3.6614
X5.4724Y-2.4016
X5.4724Y-2.6772
X5.4724Y-2.9528
X5.4724Y-3.3858
X5.4724Y-3.6614
X5.5118Y-2.6772
X5.5118Y-3.3858
X5.5118Y-3.6614
X5.5512Y-2.6772
X5.5512Y-3.3858
X5.5512Y-3.6614
X5.5906Y-2.6772
X5.5906Y-3.3858
X5.5906Y-3.6614
X5.6299Y-2.6772
X5.6299Y-3.3858
X5.6299Y-3.6614
X5.6693Y-2.8051
X5.6693Y-4.2126
X5.6693Y-4.4094
X5.6693Y-4.6358
X5.6693Y-5.3543
X5.7087Y-5.315
X5.7283Y-1.9882
X5.7283Y-2.2835
X5.7283Y-2.9724
X5.7283Y-3.1693
X5.7283Y-3.2874
X5.7283Y-3.9567
X5.7283Y-4.2717
X5.7283Y-4.9409
X5.7283Y-5.2559
X5.9449Y-3.189
X5.9449Y-3.6614
X5.9843Y-3.1299
X5.9843Y-3.622
X6.0236Y-3.2283
X6.0236Y-3.4449
X6.063Y-2.2933
X6.063Y-2.8543
X6.063Y-4.252
X6.122Y-3.0315
X6.122Y-5.
X6.1614Y-2.0472
X6.1614Y-3.9961
X6.1811Y-4.8819
X6.1811Y-4.9213
X6.1811Y-4.9606
X6.1811Y-5.
X6.1811Y-5.0394
X6.1811Y-5.0787
X6.1811Y-5.1181
X6.1811Y-5.1575
X6.1811Y-5.1969
X6.1811Y-5.2362
X6.1811Y-5.2756
X6.1811Y-5.315
X6.1811Y-5.3543
X6.1811Y-5.3937
X6.2205Y-3.7795
X6.2205Y-3.8189
X6.2205Y-3.8583
X6.2598Y-3.7795
X6.2598Y-3.8189
X6.2598Y-3.8583
X6.2992Y-3.7795
X6.2992Y-3.8189
X6.2992Y-3.8583
X6.3386Y-2.0079
X6.3386Y-2.8346
X6.3386Y-2.874
X6.3386Y-2.9134
X6.3386Y-2.9528
X6.3386Y-2.9921
X6.3386Y-3.0315
X6.3386Y-3.0709
X6.3386Y-3.2677
X6.3386Y-3.5433
X6.3386Y-5.2362
X6.378Y-2.0079
X6.378Y-3.3268
X6.378Y-3.5827
X6.378Y-4.685
X6.378Y-5.0984
X6.4173Y-2.0079
X6.4173Y-2.3425
X6.4173Y-2.5
X6.4173Y-4.311
X6.4173Y-5.2953
X6.4567Y-2.0079
X6.4567Y-2.9134
X6.4567Y-4.1535
X6.4961Y-2.0079
X6.4961Y-2.9921
X6.4961Y-4.0945
X6.4961Y-4.7835
X6.4961Y-5.1378
X6.5354Y-2.0079
X6.5354Y-3.0906
X6.5354Y-4.0551
X6.5354Y-4.3504
X6.5354Y-4.8228
X6.5748Y-2.0079
X6.5748Y-2.2441
X6.5748Y-3.189
X6.5945Y-3.8976
X6.5945Y-5.1969
X6.6142Y-2.0079
X6.6142Y-2.185
X6.6142Y-3.2874
X6.6535Y-2.0079
X6.6535Y-2.1457
X6.6535Y-3.3858
X6.6732Y-3.6614
X6.6732Y-4.5866
X6.6929Y-2.0079
X6.6929Y-2.0866
X6.6929Y-3.4843
X6.7126Y-3.622
X6.7126Y-4.4882
X6.752Y-3.248
X6.752Y-4.3898
X6.7913Y-3.1496
X6.7913Y-4.2913
X6.8307Y-3.0512
X6.8307Y-4.1732
X6.8701Y-3.4646
X6.8701Y-4.0748
X6.9882Y-3.6811
X6.9882Y-3.8386
X6.9882Y-3.9567
X6.9882Y-4.0157
X6.9882Y-4.1339
X6.9882Y-4.2323
X6.9882Y-4.3504
X6.9882Y-4.4291
X6.9882Y-4.5276
X6.9882Y-4.7244
X6.9882Y-4.8425
X7.0079Y-2.6181
X7.0079Y-2.7165
X7.0079Y-2.8543
X7.0079Y-2.9528
X7.0079Y-3.0512
X7.0079Y-3.1299
X7.0079Y-3.2283
X7.0079Y-3.3465
X7.0079Y-3.4252
X7.0079Y-3.5433
X7.1161Y-4.6358
X7.1161Y-4.8819
X7.126Y-3.7795
T3
X3.625Y-4.4866
X3.625Y-4.5866
X3.625Y-4.6866
X3.625Y-3.2736
X3.625Y-3.3736
X3.625Y-3.4736
X3.625Y-3.5736
X3.625Y-3.6736
X3.625Y-3.7736
X7.2835Y-3.6815
X7.2835Y-3.7815
X7.2835Y-3.8815
X7.2835Y-3.9815
X7.2835Y-4.0815
X7.2835Y-4.1815
X7.2835Y-4.2815
X7.2835Y-4.3815
X7.2835Y-4.4815
X7.2835Y-4.5815
X7.2835Y-4.6815
X7.2835Y-4.7815
X7.2835Y-4.8815
X5.5285Y-3.9339
X5.5285Y-4.0339
X5.5285Y-4.1339
X5.5285Y-4.2339
X5.5285Y-4.3339
X7.2805Y-2.6012
X7.2805Y-2.7012
X7.2805Y-2.8012
X7.2805Y-2.9012
X7.2805Y-3.0012
X7.2805Y-3.1012
X7.2805Y-3.2012
X7.2805Y-3.3012
X7.2805Y-3.4012
X7.2805Y-3.5012
X3.625Y-2.2469
X3.625Y-2.3469
X3.625Y-2.4469
X3.625Y-2.5469
X3.625Y-2.6469
X3.625Y-2.7469
X3.625Y-2.8469
X3.625Y-2.9469
X3.625Y-3.0469
X3.625Y-3.1469
X3.625Y-4.8713
X3.625Y-4.9713
X3.625Y-3.9142
X3.625Y-4.0142
X3.625Y-4.1142
X3.625Y-4.2142
X3.625Y-4.3142
T4
X5.5315Y-4.7445
X5.5315Y-4.8445
X5.5315Y-4.9445
X5.5315Y-5.0445
X5.5315Y-5.1445
X5.5315Y-5.2445
X5.5315Y-5.3445
T5
X7.2441Y-5.4331
X3.7008Y-5.4331
X3.7008Y-1.8898
X7.2441Y-1.8898
T0
M30
