%TF.GenerationSoftware,KiCad,Pcbnew,(5.0.2)-1*%
%TF.CreationDate,2019-03-14T15:40:06+01:00*%
%TF.ProjectId,Alexandrie,416c6578-616e-4647-9269-652e6b696361,rev?*%
%TF.SameCoordinates,Original*%
%TF.FileFunction,Soldermask,Bot*%
%TF.FilePolarity,Negative*%
%FSLAX46Y46*%
G04 Gerber Fmt 4.6, Leading zero omitted, Abs format (unit mm)*
G04 Created by KiCad (PCBNEW (5.0.2)-1) date 14/03/2019 15:40:06*
%MOMM*%
%LPD*%
G01*
G04 APERTURE LIST*
%ADD10C,0.150000*%
%ADD11C,0.100000*%
G04 APERTURE END LIST*
D10*
X189000000Y-43000000D02*
X89000000Y-43000000D01*
X189000000Y-143000000D02*
X189000000Y-43000000D01*
X89000000Y-143000000D02*
X189000000Y-143000000D01*
X89000000Y-143000000D02*
X89000000Y-142000000D01*
X89000000Y-43000000D02*
X89000000Y-44000000D01*
X89000000Y-44000000D02*
X89000000Y-142000000D01*
D11*
G36*
X95079249Y-134442188D02*
X95473693Y-134605572D01*
X95752607Y-134721102D01*
X96354531Y-135123295D01*
X96358616Y-135126024D01*
X96873976Y-135641384D01*
X96873978Y-135641387D01*
X97278898Y-136247393D01*
X97278898Y-136247394D01*
X97557812Y-136920751D01*
X97700000Y-137635580D01*
X97700000Y-138364420D01*
X97557812Y-139079249D01*
X97394428Y-139473693D01*
X97278898Y-139752607D01*
X96876705Y-140354531D01*
X96873976Y-140358616D01*
X96445980Y-140786612D01*
X96430434Y-140805554D01*
X96418883Y-140827165D01*
X96411770Y-140850614D01*
X96409368Y-140875000D01*
X96411770Y-140899386D01*
X96418883Y-140922835D01*
X96430434Y-140944446D01*
X96445980Y-140963388D01*
X96464922Y-140978934D01*
X96486533Y-140990485D01*
X96509982Y-140997598D01*
X96534368Y-141000000D01*
X181465632Y-141000000D01*
X181490018Y-140997598D01*
X181513467Y-140990485D01*
X181535078Y-140978934D01*
X181554020Y-140963388D01*
X181569566Y-140944446D01*
X181581117Y-140922835D01*
X181588230Y-140899386D01*
X181590632Y-140875000D01*
X181588230Y-140850614D01*
X181581117Y-140827165D01*
X181569566Y-140805554D01*
X181554020Y-140786612D01*
X181126024Y-140358616D01*
X181123295Y-140354531D01*
X180721102Y-139752607D01*
X180605572Y-139473693D01*
X180442188Y-139079249D01*
X180300000Y-138364420D01*
X180300000Y-137635580D01*
X180442188Y-136920751D01*
X180721102Y-136247394D01*
X180721102Y-136247393D01*
X181126022Y-135641387D01*
X181126024Y-135641384D01*
X181641384Y-135126024D01*
X181645469Y-135123294D01*
X182247393Y-134721102D01*
X182526307Y-134605572D01*
X182920751Y-134442188D01*
X183635580Y-134300000D01*
X184364420Y-134300000D01*
X185079249Y-134442188D01*
X185473693Y-134605572D01*
X185752607Y-134721102D01*
X186354531Y-135123295D01*
X186358616Y-135126024D01*
X186873976Y-135641384D01*
X186873978Y-135641387D01*
X187278898Y-136247393D01*
X187278898Y-136247394D01*
X187557812Y-136920751D01*
X187700000Y-137635580D01*
X187700000Y-138364420D01*
X187557812Y-139079249D01*
X187394428Y-139473693D01*
X187278898Y-139752607D01*
X186876705Y-140354531D01*
X186873976Y-140358616D01*
X186445980Y-140786612D01*
X186430434Y-140805554D01*
X186418883Y-140827165D01*
X186411770Y-140850614D01*
X186409368Y-140875000D01*
X186411770Y-140899386D01*
X186418883Y-140922835D01*
X186430434Y-140944446D01*
X186445980Y-140963388D01*
X186464922Y-140978934D01*
X186486533Y-140990485D01*
X186509982Y-140997598D01*
X186534368Y-141000000D01*
X189000000Y-141000000D01*
X189000000Y-143000000D01*
X89000000Y-143000000D01*
X89000000Y-141000000D01*
X91465632Y-141000000D01*
X91490018Y-140997598D01*
X91513467Y-140990485D01*
X91535078Y-140978934D01*
X91554020Y-140963388D01*
X91569566Y-140944446D01*
X91581117Y-140922835D01*
X91588230Y-140899386D01*
X91590632Y-140875000D01*
X91588230Y-140850614D01*
X91581117Y-140827165D01*
X91569566Y-140805554D01*
X91554020Y-140786612D01*
X91126024Y-140358616D01*
X91123295Y-140354531D01*
X90721102Y-139752607D01*
X90605572Y-139473693D01*
X90442188Y-139079249D01*
X90300000Y-138364420D01*
X90300000Y-137635580D01*
X90442188Y-136920751D01*
X90721102Y-136247394D01*
X90721102Y-136247393D01*
X91126022Y-135641387D01*
X91126024Y-135641384D01*
X91641384Y-135126024D01*
X91645469Y-135123294D01*
X92247393Y-134721102D01*
X92526307Y-134605572D01*
X92920751Y-134442188D01*
X93635580Y-134300000D01*
X94364420Y-134300000D01*
X95079249Y-134442188D01*
X95079249Y-134442188D01*
G37*
G36*
X140894208Y-119313473D02*
X141035241Y-119327363D01*
X141261442Y-119395981D01*
X141261444Y-119395982D01*
X141261447Y-119395983D01*
X141469910Y-119507408D01*
X141652634Y-119657366D01*
X141802592Y-119840090D01*
X141914017Y-120048553D01*
X141914018Y-120048556D01*
X141914019Y-120048558D01*
X141982637Y-120274759D01*
X142005806Y-120510000D01*
X141982637Y-120745241D01*
X141914019Y-120971442D01*
X141914017Y-120971447D01*
X141802592Y-121179910D01*
X141652634Y-121362634D01*
X141469910Y-121512592D01*
X141261446Y-121624018D01*
X141222034Y-121635973D01*
X141141565Y-121660384D01*
X141118929Y-121669760D01*
X141098555Y-121683374D01*
X141081228Y-121700701D01*
X141067614Y-121721075D01*
X141058236Y-121743714D01*
X141053456Y-121767748D01*
X141053456Y-121792252D01*
X141058236Y-121816285D01*
X141067614Y-121838925D01*
X141081228Y-121859299D01*
X141098555Y-121876626D01*
X141118929Y-121890240D01*
X141141565Y-121899616D01*
X141222034Y-121924027D01*
X141261446Y-121935982D01*
X141469910Y-122047408D01*
X141652634Y-122197366D01*
X141802592Y-122380090D01*
X141914017Y-122588553D01*
X141914018Y-122588556D01*
X141914019Y-122588558D01*
X141982637Y-122814759D01*
X142005806Y-123050000D01*
X141982637Y-123285241D01*
X141914019Y-123511442D01*
X141914017Y-123511447D01*
X141802592Y-123719910D01*
X141652634Y-123902634D01*
X141469910Y-124052592D01*
X141261446Y-124164018D01*
X141222034Y-124175973D01*
X141141565Y-124200384D01*
X141118929Y-124209760D01*
X141098555Y-124223374D01*
X141081228Y-124240701D01*
X141067614Y-124261075D01*
X141058236Y-124283714D01*
X141053456Y-124307748D01*
X141053456Y-124332252D01*
X141058236Y-124356285D01*
X141067614Y-124378925D01*
X141081228Y-124399299D01*
X141098555Y-124416626D01*
X141118929Y-124430240D01*
X141141565Y-124439616D01*
X141222034Y-124464027D01*
X141261446Y-124475982D01*
X141469910Y-124587408D01*
X141652634Y-124737366D01*
X141802592Y-124920090D01*
X141914017Y-125128553D01*
X141914018Y-125128556D01*
X141914019Y-125128558D01*
X141982637Y-125354759D01*
X142005806Y-125590000D01*
X141982637Y-125825241D01*
X141914019Y-126051442D01*
X141914017Y-126051447D01*
X141802592Y-126259910D01*
X141652634Y-126442634D01*
X141469910Y-126592592D01*
X141261446Y-126704018D01*
X141222034Y-126715973D01*
X141141565Y-126740384D01*
X141118929Y-126749760D01*
X141098555Y-126763374D01*
X141081228Y-126780701D01*
X141067614Y-126801075D01*
X141058236Y-126823714D01*
X141053456Y-126847748D01*
X141053456Y-126872252D01*
X141058236Y-126896285D01*
X141067614Y-126918925D01*
X141081228Y-126939299D01*
X141098555Y-126956626D01*
X141118929Y-126970240D01*
X141141565Y-126979616D01*
X141222034Y-127004027D01*
X141261446Y-127015982D01*
X141469910Y-127127408D01*
X141652634Y-127277366D01*
X141802592Y-127460090D01*
X141914017Y-127668553D01*
X141914018Y-127668556D01*
X141914019Y-127668558D01*
X141982637Y-127894759D01*
X142005806Y-128130000D01*
X141982637Y-128365241D01*
X141914019Y-128591442D01*
X141914017Y-128591447D01*
X141802592Y-128799910D01*
X141652634Y-128982634D01*
X141469910Y-129132592D01*
X141261446Y-129244018D01*
X141222034Y-129255973D01*
X141141565Y-129280384D01*
X141118929Y-129289760D01*
X141098555Y-129303374D01*
X141081228Y-129320701D01*
X141067614Y-129341075D01*
X141058236Y-129363714D01*
X141053456Y-129387748D01*
X141053456Y-129412252D01*
X141058236Y-129436285D01*
X141067614Y-129458925D01*
X141081228Y-129479299D01*
X141098555Y-129496626D01*
X141118929Y-129510240D01*
X141141565Y-129519616D01*
X141222034Y-129544027D01*
X141261446Y-129555982D01*
X141469910Y-129667408D01*
X141652634Y-129817366D01*
X141802592Y-130000090D01*
X141914017Y-130208553D01*
X141914018Y-130208556D01*
X141914019Y-130208558D01*
X141982637Y-130434759D01*
X142005806Y-130670000D01*
X141982637Y-130905241D01*
X141914019Y-131131442D01*
X141914017Y-131131447D01*
X141802592Y-131339910D01*
X141652634Y-131522634D01*
X141469910Y-131672592D01*
X141261446Y-131784018D01*
X141222034Y-131795973D01*
X141141565Y-131820384D01*
X141118929Y-131829760D01*
X141098555Y-131843374D01*
X141081228Y-131860701D01*
X141067614Y-131881075D01*
X141058236Y-131903714D01*
X141053456Y-131927748D01*
X141053456Y-131952252D01*
X141058236Y-131976285D01*
X141067614Y-131998925D01*
X141081228Y-132019299D01*
X141098555Y-132036626D01*
X141118929Y-132050240D01*
X141141565Y-132059616D01*
X141222034Y-132084027D01*
X141261446Y-132095982D01*
X141469910Y-132207408D01*
X141652634Y-132357366D01*
X141802592Y-132540090D01*
X141914017Y-132748553D01*
X141914018Y-132748556D01*
X141914019Y-132748558D01*
X141982637Y-132974759D01*
X142005806Y-133210000D01*
X141982637Y-133445241D01*
X141914019Y-133671442D01*
X141914017Y-133671447D01*
X141802592Y-133879910D01*
X141652634Y-134062634D01*
X141469910Y-134212592D01*
X141278766Y-134314760D01*
X141258391Y-134328374D01*
X141241064Y-134345701D01*
X141227450Y-134366075D01*
X141218073Y-134388714D01*
X141213292Y-134412748D01*
X141213292Y-134437252D01*
X141218072Y-134461285D01*
X141227450Y-134483924D01*
X141241064Y-134504299D01*
X141258391Y-134521626D01*
X141278765Y-134535240D01*
X141301404Y-134544617D01*
X141325438Y-134549398D01*
X141337690Y-134550000D01*
X142000000Y-134550000D01*
X142000000Y-136950000D01*
X139000000Y-136950000D01*
X139000000Y-134550000D01*
X139662310Y-134550000D01*
X139686696Y-134547598D01*
X139710145Y-134540485D01*
X139731756Y-134528934D01*
X139750698Y-134513388D01*
X139766244Y-134494446D01*
X139777795Y-134472835D01*
X139784908Y-134449386D01*
X139787310Y-134425000D01*
X139784908Y-134400614D01*
X139777795Y-134377165D01*
X139766244Y-134355554D01*
X139750698Y-134336612D01*
X139731756Y-134321066D01*
X139721234Y-134314760D01*
X139530090Y-134212592D01*
X139347366Y-134062634D01*
X139197408Y-133879910D01*
X139085983Y-133671447D01*
X139085981Y-133671442D01*
X139017363Y-133445241D01*
X138994194Y-133210000D01*
X139017363Y-132974759D01*
X139085981Y-132748558D01*
X139085982Y-132748556D01*
X139085983Y-132748553D01*
X139197408Y-132540090D01*
X139347366Y-132357366D01*
X139530090Y-132207408D01*
X139738554Y-132095982D01*
X139777966Y-132084027D01*
X139858435Y-132059616D01*
X139881071Y-132050240D01*
X139901445Y-132036626D01*
X139918772Y-132019299D01*
X139932386Y-131998925D01*
X139941764Y-131976286D01*
X139946544Y-131952252D01*
X139946544Y-131927748D01*
X139941764Y-131903715D01*
X139932386Y-131881075D01*
X139918772Y-131860701D01*
X139901445Y-131843374D01*
X139881071Y-131829760D01*
X139858435Y-131820384D01*
X139777966Y-131795973D01*
X139738554Y-131784018D01*
X139530090Y-131672592D01*
X139347366Y-131522634D01*
X139197408Y-131339910D01*
X139085983Y-131131447D01*
X139085981Y-131131442D01*
X139017363Y-130905241D01*
X138994194Y-130670000D01*
X139017363Y-130434759D01*
X139085981Y-130208558D01*
X139085982Y-130208556D01*
X139085983Y-130208553D01*
X139197408Y-130000090D01*
X139347366Y-129817366D01*
X139530090Y-129667408D01*
X139738554Y-129555982D01*
X139777966Y-129544027D01*
X139858435Y-129519616D01*
X139881071Y-129510240D01*
X139901445Y-129496626D01*
X139918772Y-129479299D01*
X139932386Y-129458925D01*
X139941764Y-129436286D01*
X139946544Y-129412252D01*
X139946544Y-129387748D01*
X139941764Y-129363715D01*
X139932386Y-129341075D01*
X139918772Y-129320701D01*
X139901445Y-129303374D01*
X139881071Y-129289760D01*
X139858435Y-129280384D01*
X139777966Y-129255973D01*
X139738554Y-129244018D01*
X139530090Y-129132592D01*
X139347366Y-128982634D01*
X139197408Y-128799910D01*
X139085983Y-128591447D01*
X139085981Y-128591442D01*
X139017363Y-128365241D01*
X138994194Y-128130000D01*
X139017363Y-127894759D01*
X139085981Y-127668558D01*
X139085982Y-127668556D01*
X139085983Y-127668553D01*
X139197408Y-127460090D01*
X139347366Y-127277366D01*
X139530090Y-127127408D01*
X139738554Y-127015982D01*
X139777966Y-127004027D01*
X139858435Y-126979616D01*
X139881071Y-126970240D01*
X139901445Y-126956626D01*
X139918772Y-126939299D01*
X139932386Y-126918925D01*
X139941764Y-126896286D01*
X139946544Y-126872252D01*
X139946544Y-126847748D01*
X139941764Y-126823715D01*
X139932386Y-126801075D01*
X139918772Y-126780701D01*
X139901445Y-126763374D01*
X139881071Y-126749760D01*
X139858435Y-126740384D01*
X139777966Y-126715973D01*
X139738554Y-126704018D01*
X139530090Y-126592592D01*
X139347366Y-126442634D01*
X139197408Y-126259910D01*
X139085983Y-126051447D01*
X139085981Y-126051442D01*
X139017363Y-125825241D01*
X138994194Y-125590000D01*
X139017363Y-125354759D01*
X139085981Y-125128558D01*
X139085982Y-125128556D01*
X139085983Y-125128553D01*
X139197408Y-124920090D01*
X139347366Y-124737366D01*
X139530090Y-124587408D01*
X139738554Y-124475982D01*
X139777966Y-124464027D01*
X139858435Y-124439616D01*
X139881071Y-124430240D01*
X139901445Y-124416626D01*
X139918772Y-124399299D01*
X139932386Y-124378925D01*
X139941764Y-124356286D01*
X139946544Y-124332252D01*
X139946544Y-124307748D01*
X139941764Y-124283715D01*
X139932386Y-124261075D01*
X139918772Y-124240701D01*
X139901445Y-124223374D01*
X139881071Y-124209760D01*
X139858435Y-124200384D01*
X139777966Y-124175973D01*
X139738554Y-124164018D01*
X139530090Y-124052592D01*
X139347366Y-123902634D01*
X139197408Y-123719910D01*
X139085983Y-123511447D01*
X139085981Y-123511442D01*
X139017363Y-123285241D01*
X138994194Y-123050000D01*
X139017363Y-122814759D01*
X139085981Y-122588558D01*
X139085982Y-122588556D01*
X139085983Y-122588553D01*
X139197408Y-122380090D01*
X139347366Y-122197366D01*
X139530090Y-122047408D01*
X139738554Y-121935982D01*
X139777966Y-121924027D01*
X139858435Y-121899616D01*
X139881071Y-121890240D01*
X139901445Y-121876626D01*
X139918772Y-121859299D01*
X139932386Y-121838925D01*
X139941764Y-121816286D01*
X139946544Y-121792252D01*
X139946544Y-121767748D01*
X139941764Y-121743715D01*
X139932386Y-121721075D01*
X139918772Y-121700701D01*
X139901445Y-121683374D01*
X139881071Y-121669760D01*
X139858435Y-121660384D01*
X139777966Y-121635973D01*
X139738554Y-121624018D01*
X139530090Y-121512592D01*
X139347366Y-121362634D01*
X139197408Y-121179910D01*
X139085983Y-120971447D01*
X139085981Y-120971442D01*
X139017363Y-120745241D01*
X138994194Y-120510000D01*
X139017363Y-120274759D01*
X139085981Y-120048558D01*
X139085982Y-120048556D01*
X139085983Y-120048553D01*
X139197408Y-119840090D01*
X139347366Y-119657366D01*
X139530090Y-119507408D01*
X139738553Y-119395983D01*
X139738556Y-119395982D01*
X139738558Y-119395981D01*
X139964759Y-119327363D01*
X140105792Y-119313473D01*
X140141049Y-119310000D01*
X140858951Y-119310000D01*
X140894208Y-119313473D01*
X140894208Y-119313473D01*
G37*
G36*
X92601336Y-125321919D02*
X92782670Y-125376927D01*
X92949797Y-125466258D01*
X93096278Y-125586472D01*
X93216492Y-125732953D01*
X93305823Y-125900080D01*
X93360831Y-126081414D01*
X93379404Y-126270000D01*
X93360831Y-126458586D01*
X93305823Y-126639920D01*
X93216492Y-126807047D01*
X93096278Y-126953528D01*
X92949797Y-127073742D01*
X92782670Y-127163073D01*
X92601336Y-127218081D01*
X92460007Y-127232000D01*
X91692393Y-127232000D01*
X91551064Y-127218081D01*
X91369730Y-127163073D01*
X91202603Y-127073742D01*
X91056122Y-126953528D01*
X90935908Y-126807047D01*
X90846577Y-126639920D01*
X90791569Y-126458586D01*
X90772996Y-126270000D01*
X90791569Y-126081414D01*
X90846577Y-125900080D01*
X90935908Y-125732953D01*
X91056122Y-125586472D01*
X91202603Y-125466258D01*
X91369730Y-125376927D01*
X91551064Y-125321919D01*
X91692393Y-125308000D01*
X92460007Y-125308000D01*
X92601336Y-125321919D01*
X92601336Y-125321919D01*
G37*
G36*
X186298550Y-124952000D02*
X183701450Y-124952000D01*
X183701450Y-123028000D01*
X186298550Y-123028000D01*
X186298550Y-124952000D01*
X186298550Y-124952000D01*
G37*
G36*
X93374750Y-124692000D02*
X90777650Y-124692000D01*
X90777650Y-122768000D01*
X93374750Y-122768000D01*
X93374750Y-124692000D01*
X93374750Y-124692000D01*
G37*
G36*
X185525136Y-120501919D02*
X185706470Y-120556927D01*
X185873597Y-120646258D01*
X186020078Y-120766472D01*
X186140292Y-120912953D01*
X186229623Y-121080080D01*
X186284631Y-121261414D01*
X186303204Y-121450000D01*
X186284631Y-121638586D01*
X186229623Y-121819920D01*
X186140292Y-121987047D01*
X186020078Y-122133528D01*
X185873597Y-122253742D01*
X185706470Y-122343073D01*
X185525136Y-122398081D01*
X185383807Y-122412000D01*
X184616193Y-122412000D01*
X184474864Y-122398081D01*
X184293530Y-122343073D01*
X184126403Y-122253742D01*
X183979922Y-122133528D01*
X183859708Y-121987047D01*
X183770377Y-121819920D01*
X183715369Y-121638586D01*
X183696796Y-121450000D01*
X183715369Y-121261414D01*
X183770377Y-121080080D01*
X183859708Y-120912953D01*
X183979922Y-120766472D01*
X184126403Y-120646258D01*
X184293530Y-120556927D01*
X184474864Y-120501919D01*
X184616193Y-120488000D01*
X185383807Y-120488000D01*
X185525136Y-120501919D01*
X185525136Y-120501919D01*
G37*
G36*
X92601336Y-118091919D02*
X92782670Y-118146927D01*
X92949797Y-118236258D01*
X93096278Y-118356472D01*
X93216492Y-118502953D01*
X93305823Y-118670080D01*
X93360831Y-118851414D01*
X93379404Y-119040000D01*
X93360831Y-119228586D01*
X93305823Y-119409920D01*
X93216492Y-119577047D01*
X93096278Y-119723528D01*
X92949797Y-119843742D01*
X92782670Y-119933073D01*
X92601336Y-119988081D01*
X92460007Y-120002000D01*
X91692393Y-120002000D01*
X91551064Y-119988081D01*
X91369730Y-119933073D01*
X91202603Y-119843742D01*
X91056122Y-119723528D01*
X90935908Y-119577047D01*
X90846577Y-119409920D01*
X90791569Y-119228586D01*
X90772996Y-119040000D01*
X90791569Y-118851414D01*
X90846577Y-118670080D01*
X90935908Y-118502953D01*
X91056122Y-118356472D01*
X91202603Y-118236258D01*
X91369730Y-118146927D01*
X91551064Y-118091919D01*
X91692393Y-118078000D01*
X92460007Y-118078000D01*
X92601336Y-118091919D01*
X92601336Y-118091919D01*
G37*
G36*
X185525136Y-117961919D02*
X185706470Y-118016927D01*
X185873597Y-118106258D01*
X186020078Y-118226472D01*
X186140292Y-118372953D01*
X186229623Y-118540080D01*
X186284631Y-118721414D01*
X186303204Y-118910000D01*
X186284631Y-119098586D01*
X186229623Y-119279920D01*
X186140292Y-119447047D01*
X186020078Y-119593528D01*
X185873597Y-119713742D01*
X185706470Y-119803073D01*
X185525136Y-119858081D01*
X185383807Y-119872000D01*
X184616193Y-119872000D01*
X184474864Y-119858081D01*
X184293530Y-119803073D01*
X184126403Y-119713742D01*
X183979922Y-119593528D01*
X183859708Y-119447047D01*
X183770377Y-119279920D01*
X183715369Y-119098586D01*
X183696796Y-118910000D01*
X183715369Y-118721414D01*
X183770377Y-118540080D01*
X183859708Y-118372953D01*
X183979922Y-118226472D01*
X184126403Y-118106258D01*
X184293530Y-118016927D01*
X184474864Y-117961919D01*
X184616193Y-117948000D01*
X185383807Y-117948000D01*
X185525136Y-117961919D01*
X185525136Y-117961919D01*
G37*
G36*
X92601336Y-115551919D02*
X92782670Y-115606927D01*
X92949797Y-115696258D01*
X93096278Y-115816472D01*
X93216492Y-115962953D01*
X93305823Y-116130080D01*
X93360831Y-116311414D01*
X93379404Y-116500000D01*
X93360831Y-116688586D01*
X93305823Y-116869920D01*
X93216492Y-117037047D01*
X93096278Y-117183528D01*
X92949797Y-117303742D01*
X92782670Y-117393073D01*
X92601336Y-117448081D01*
X92460007Y-117462000D01*
X91692393Y-117462000D01*
X91551064Y-117448081D01*
X91369730Y-117393073D01*
X91202603Y-117303742D01*
X91056122Y-117183528D01*
X90935908Y-117037047D01*
X90846577Y-116869920D01*
X90791569Y-116688586D01*
X90772996Y-116500000D01*
X90791569Y-116311414D01*
X90846577Y-116130080D01*
X90935908Y-115962953D01*
X91056122Y-115816472D01*
X91202603Y-115696258D01*
X91369730Y-115606927D01*
X91551064Y-115551919D01*
X91692393Y-115538000D01*
X92460007Y-115538000D01*
X92601336Y-115551919D01*
X92601336Y-115551919D01*
G37*
G36*
X185525136Y-115421919D02*
X185706470Y-115476927D01*
X185873597Y-115566258D01*
X186020078Y-115686472D01*
X186140292Y-115832953D01*
X186229623Y-116000080D01*
X186284631Y-116181414D01*
X186303204Y-116370000D01*
X186284631Y-116558586D01*
X186229623Y-116739920D01*
X186140292Y-116907047D01*
X186020078Y-117053528D01*
X185873597Y-117173742D01*
X185706470Y-117263073D01*
X185525136Y-117318081D01*
X185383807Y-117332000D01*
X184616193Y-117332000D01*
X184474864Y-117318081D01*
X184293530Y-117263073D01*
X184126403Y-117173742D01*
X183979922Y-117053528D01*
X183859708Y-116907047D01*
X183770377Y-116739920D01*
X183715369Y-116558586D01*
X183696796Y-116370000D01*
X183715369Y-116181414D01*
X183770377Y-116000080D01*
X183859708Y-115832953D01*
X183979922Y-115686472D01*
X184126403Y-115566258D01*
X184293530Y-115476927D01*
X184474864Y-115421919D01*
X184616193Y-115408000D01*
X185383807Y-115408000D01*
X185525136Y-115421919D01*
X185525136Y-115421919D01*
G37*
G36*
X93374750Y-114922000D02*
X90777650Y-114922000D01*
X90777650Y-112998000D01*
X93374750Y-112998000D01*
X93374750Y-114922000D01*
X93374750Y-114922000D01*
G37*
G36*
X185525136Y-112881919D02*
X185706470Y-112936927D01*
X185873597Y-113026258D01*
X186020078Y-113146472D01*
X186140292Y-113292953D01*
X186229623Y-113460080D01*
X186284631Y-113641414D01*
X186303204Y-113830000D01*
X186284631Y-114018586D01*
X186229623Y-114199920D01*
X186140292Y-114367047D01*
X186020078Y-114513528D01*
X185873597Y-114633742D01*
X185706470Y-114723073D01*
X185525136Y-114778081D01*
X185383807Y-114792000D01*
X184616193Y-114792000D01*
X184474864Y-114778081D01*
X184293530Y-114723073D01*
X184126403Y-114633742D01*
X183979922Y-114513528D01*
X183859708Y-114367047D01*
X183770377Y-114199920D01*
X183715369Y-114018586D01*
X183696796Y-113830000D01*
X183715369Y-113641414D01*
X183770377Y-113460080D01*
X183859708Y-113292953D01*
X183979922Y-113146472D01*
X184126403Y-113026258D01*
X184293530Y-112936927D01*
X184474864Y-112881919D01*
X184616193Y-112868000D01*
X185383807Y-112868000D01*
X185525136Y-112881919D01*
X185525136Y-112881919D01*
G37*
G36*
X185525136Y-110341919D02*
X185706470Y-110396927D01*
X185873597Y-110486258D01*
X186020078Y-110606472D01*
X186140292Y-110752953D01*
X186229623Y-110920080D01*
X186284631Y-111101414D01*
X186303204Y-111290000D01*
X186284631Y-111478586D01*
X186229623Y-111659920D01*
X186140292Y-111827047D01*
X186020078Y-111973528D01*
X185873597Y-112093742D01*
X185706470Y-112183073D01*
X185525136Y-112238081D01*
X185383807Y-112252000D01*
X184616193Y-112252000D01*
X184474864Y-112238081D01*
X184293530Y-112183073D01*
X184126403Y-112093742D01*
X183979922Y-111973528D01*
X183859708Y-111827047D01*
X183770377Y-111659920D01*
X183715369Y-111478586D01*
X183696796Y-111290000D01*
X183715369Y-111101414D01*
X183770377Y-110920080D01*
X183859708Y-110752953D01*
X183979922Y-110606472D01*
X184126403Y-110486258D01*
X184293530Y-110396927D01*
X184474864Y-110341919D01*
X184616193Y-110328000D01*
X185383807Y-110328000D01*
X185525136Y-110341919D01*
X185525136Y-110341919D01*
G37*
G36*
X141722350Y-111042000D02*
X139125250Y-111042000D01*
X139125250Y-109118000D01*
X141722350Y-109118000D01*
X141722350Y-111042000D01*
X141722350Y-111042000D01*
G37*
G36*
X92601336Y-108631919D02*
X92782670Y-108686927D01*
X92949797Y-108776258D01*
X93096278Y-108896472D01*
X93216492Y-109042953D01*
X93305823Y-109210080D01*
X93360831Y-109391414D01*
X93379404Y-109580000D01*
X93360831Y-109768586D01*
X93305823Y-109949920D01*
X93216492Y-110117047D01*
X93096278Y-110263528D01*
X92949797Y-110383742D01*
X92782670Y-110473073D01*
X92601336Y-110528081D01*
X92460007Y-110542000D01*
X91692393Y-110542000D01*
X91551064Y-110528081D01*
X91369730Y-110473073D01*
X91202603Y-110383742D01*
X91056122Y-110263528D01*
X90935908Y-110117047D01*
X90846577Y-109949920D01*
X90791569Y-109768586D01*
X90772996Y-109580000D01*
X90791569Y-109391414D01*
X90846577Y-109210080D01*
X90935908Y-109042953D01*
X91056122Y-108896472D01*
X91202603Y-108776258D01*
X91369730Y-108686927D01*
X91551064Y-108631919D01*
X91692393Y-108618000D01*
X92460007Y-108618000D01*
X92601336Y-108631919D01*
X92601336Y-108631919D01*
G37*
G36*
X185525136Y-107801919D02*
X185706470Y-107856927D01*
X185873597Y-107946258D01*
X186020078Y-108066472D01*
X186140292Y-108212953D01*
X186229623Y-108380080D01*
X186284631Y-108561414D01*
X186303204Y-108750000D01*
X186284631Y-108938586D01*
X186229623Y-109119920D01*
X186140292Y-109287047D01*
X186020078Y-109433528D01*
X185873597Y-109553742D01*
X185706470Y-109643073D01*
X185525136Y-109698081D01*
X185383807Y-109712000D01*
X184616193Y-109712000D01*
X184474864Y-109698081D01*
X184293530Y-109643073D01*
X184126403Y-109553742D01*
X183979922Y-109433528D01*
X183859708Y-109287047D01*
X183770377Y-109119920D01*
X183715369Y-108938586D01*
X183696796Y-108750000D01*
X183715369Y-108561414D01*
X183770377Y-108380080D01*
X183859708Y-108212953D01*
X183979922Y-108066472D01*
X184126403Y-107946258D01*
X184293530Y-107856927D01*
X184474864Y-107801919D01*
X184616193Y-107788000D01*
X185383807Y-107788000D01*
X185525136Y-107801919D01*
X185525136Y-107801919D01*
G37*
G36*
X140948936Y-106591919D02*
X141130270Y-106646927D01*
X141297397Y-106736258D01*
X141443878Y-106856472D01*
X141564092Y-107002953D01*
X141653423Y-107170080D01*
X141708431Y-107351414D01*
X141727004Y-107540000D01*
X141708431Y-107728586D01*
X141653423Y-107909920D01*
X141564092Y-108077047D01*
X141443878Y-108223528D01*
X141297397Y-108343742D01*
X141130270Y-108433073D01*
X140948936Y-108488081D01*
X140807607Y-108502000D01*
X140039993Y-108502000D01*
X139898664Y-108488081D01*
X139717330Y-108433073D01*
X139550203Y-108343742D01*
X139403722Y-108223528D01*
X139283508Y-108077047D01*
X139194177Y-107909920D01*
X139139169Y-107728586D01*
X139120596Y-107540000D01*
X139139169Y-107351414D01*
X139194177Y-107170080D01*
X139283508Y-107002953D01*
X139403722Y-106856472D01*
X139550203Y-106736258D01*
X139717330Y-106646927D01*
X139898664Y-106591919D01*
X140039993Y-106578000D01*
X140807607Y-106578000D01*
X140948936Y-106591919D01*
X140948936Y-106591919D01*
G37*
G36*
X92601336Y-106091919D02*
X92782670Y-106146927D01*
X92949797Y-106236258D01*
X93096278Y-106356472D01*
X93216492Y-106502953D01*
X93305823Y-106670080D01*
X93360831Y-106851414D01*
X93379404Y-107040000D01*
X93360831Y-107228586D01*
X93305823Y-107409920D01*
X93216492Y-107577047D01*
X93096278Y-107723528D01*
X92949797Y-107843742D01*
X92782670Y-107933073D01*
X92601336Y-107988081D01*
X92460007Y-108002000D01*
X91692393Y-108002000D01*
X91551064Y-107988081D01*
X91369730Y-107933073D01*
X91202603Y-107843742D01*
X91056122Y-107723528D01*
X90935908Y-107577047D01*
X90846577Y-107409920D01*
X90791569Y-107228586D01*
X90772996Y-107040000D01*
X90791569Y-106851414D01*
X90846577Y-106670080D01*
X90935908Y-106502953D01*
X91056122Y-106356472D01*
X91202603Y-106236258D01*
X91369730Y-106146927D01*
X91551064Y-106091919D01*
X91692393Y-106078000D01*
X92460007Y-106078000D01*
X92601336Y-106091919D01*
X92601336Y-106091919D01*
G37*
G36*
X185525136Y-105261919D02*
X185706470Y-105316927D01*
X185873597Y-105406258D01*
X186020078Y-105526472D01*
X186140292Y-105672953D01*
X186229623Y-105840080D01*
X186284631Y-106021414D01*
X186303204Y-106210000D01*
X186284631Y-106398586D01*
X186229623Y-106579920D01*
X186140292Y-106747047D01*
X186020078Y-106893528D01*
X185873597Y-107013742D01*
X185706470Y-107103073D01*
X185525136Y-107158081D01*
X185383807Y-107172000D01*
X184616193Y-107172000D01*
X184474864Y-107158081D01*
X184293530Y-107103073D01*
X184126403Y-107013742D01*
X183979922Y-106893528D01*
X183859708Y-106747047D01*
X183770377Y-106579920D01*
X183715369Y-106398586D01*
X183696796Y-106210000D01*
X183715369Y-106021414D01*
X183770377Y-105840080D01*
X183859708Y-105672953D01*
X183979922Y-105526472D01*
X184126403Y-105406258D01*
X184293530Y-105316927D01*
X184474864Y-105261919D01*
X184616193Y-105248000D01*
X185383807Y-105248000D01*
X185525136Y-105261919D01*
X185525136Y-105261919D01*
G37*
G36*
X140948936Y-104051919D02*
X141130270Y-104106927D01*
X141297397Y-104196258D01*
X141443878Y-104316472D01*
X141564092Y-104462953D01*
X141653423Y-104630080D01*
X141708431Y-104811414D01*
X141727004Y-105000000D01*
X141708431Y-105188586D01*
X141653423Y-105369920D01*
X141564092Y-105537047D01*
X141443878Y-105683528D01*
X141297397Y-105803742D01*
X141130270Y-105893073D01*
X140948936Y-105948081D01*
X140807607Y-105962000D01*
X140039993Y-105962000D01*
X139898664Y-105948081D01*
X139717330Y-105893073D01*
X139550203Y-105803742D01*
X139403722Y-105683528D01*
X139283508Y-105537047D01*
X139194177Y-105369920D01*
X139139169Y-105188586D01*
X139120596Y-105000000D01*
X139139169Y-104811414D01*
X139194177Y-104630080D01*
X139283508Y-104462953D01*
X139403722Y-104316472D01*
X139550203Y-104196258D01*
X139717330Y-104106927D01*
X139898664Y-104051919D01*
X140039993Y-104038000D01*
X140807607Y-104038000D01*
X140948936Y-104051919D01*
X140948936Y-104051919D01*
G37*
G36*
X92601336Y-103551919D02*
X92782670Y-103606927D01*
X92949797Y-103696258D01*
X93096278Y-103816472D01*
X93216492Y-103962953D01*
X93305823Y-104130080D01*
X93360831Y-104311414D01*
X93379404Y-104500000D01*
X93360831Y-104688586D01*
X93305823Y-104869920D01*
X93216492Y-105037047D01*
X93096278Y-105183528D01*
X92949797Y-105303742D01*
X92782670Y-105393073D01*
X92601336Y-105448081D01*
X92460007Y-105462000D01*
X91692393Y-105462000D01*
X91551064Y-105448081D01*
X91369730Y-105393073D01*
X91202603Y-105303742D01*
X91056122Y-105183528D01*
X90935908Y-105037047D01*
X90846577Y-104869920D01*
X90791569Y-104688586D01*
X90772996Y-104500000D01*
X90791569Y-104311414D01*
X90846577Y-104130080D01*
X90935908Y-103962953D01*
X91056122Y-103816472D01*
X91202603Y-103696258D01*
X91369730Y-103606927D01*
X91551064Y-103551919D01*
X91692393Y-103538000D01*
X92460007Y-103538000D01*
X92601336Y-103551919D01*
X92601336Y-103551919D01*
G37*
G36*
X185525136Y-102721919D02*
X185706470Y-102776927D01*
X185873597Y-102866258D01*
X186020078Y-102986472D01*
X186140292Y-103132953D01*
X186229623Y-103300080D01*
X186284631Y-103481414D01*
X186303204Y-103670000D01*
X186284631Y-103858586D01*
X186229623Y-104039920D01*
X186140292Y-104207047D01*
X186020078Y-104353528D01*
X185873597Y-104473742D01*
X185706470Y-104563073D01*
X185525136Y-104618081D01*
X185383807Y-104632000D01*
X184616193Y-104632000D01*
X184474864Y-104618081D01*
X184293530Y-104563073D01*
X184126403Y-104473742D01*
X183979922Y-104353528D01*
X183859708Y-104207047D01*
X183770377Y-104039920D01*
X183715369Y-103858586D01*
X183696796Y-103670000D01*
X183715369Y-103481414D01*
X183770377Y-103300080D01*
X183859708Y-103132953D01*
X183979922Y-102986472D01*
X184126403Y-102866258D01*
X184293530Y-102776927D01*
X184474864Y-102721919D01*
X184616193Y-102708000D01*
X185383807Y-102708000D01*
X185525136Y-102721919D01*
X185525136Y-102721919D01*
G37*
G36*
X140948936Y-101511919D02*
X141130270Y-101566927D01*
X141297397Y-101656258D01*
X141443878Y-101776472D01*
X141564092Y-101922953D01*
X141653423Y-102090080D01*
X141708431Y-102271414D01*
X141727004Y-102460000D01*
X141708431Y-102648586D01*
X141653423Y-102829920D01*
X141564092Y-102997047D01*
X141443878Y-103143528D01*
X141297397Y-103263742D01*
X141130270Y-103353073D01*
X140948936Y-103408081D01*
X140807607Y-103422000D01*
X140039993Y-103422000D01*
X139898664Y-103408081D01*
X139717330Y-103353073D01*
X139550203Y-103263742D01*
X139403722Y-103143528D01*
X139283508Y-102997047D01*
X139194177Y-102829920D01*
X139139169Y-102648586D01*
X139120596Y-102460000D01*
X139139169Y-102271414D01*
X139194177Y-102090080D01*
X139283508Y-101922953D01*
X139403722Y-101776472D01*
X139550203Y-101656258D01*
X139717330Y-101566927D01*
X139898664Y-101511919D01*
X140039993Y-101498000D01*
X140807607Y-101498000D01*
X140948936Y-101511919D01*
X140948936Y-101511919D01*
G37*
G36*
X92601336Y-101011919D02*
X92782670Y-101066927D01*
X92949797Y-101156258D01*
X93096278Y-101276472D01*
X93216492Y-101422953D01*
X93305823Y-101590080D01*
X93360831Y-101771414D01*
X93379404Y-101960000D01*
X93360831Y-102148586D01*
X93305823Y-102329920D01*
X93216492Y-102497047D01*
X93096278Y-102643528D01*
X92949797Y-102763742D01*
X92782670Y-102853073D01*
X92601336Y-102908081D01*
X92460007Y-102922000D01*
X91692393Y-102922000D01*
X91551064Y-102908081D01*
X91369730Y-102853073D01*
X91202603Y-102763742D01*
X91056122Y-102643528D01*
X90935908Y-102497047D01*
X90846577Y-102329920D01*
X90791569Y-102148586D01*
X90772996Y-101960000D01*
X90791569Y-101771414D01*
X90846577Y-101590080D01*
X90935908Y-101422953D01*
X91056122Y-101276472D01*
X91202603Y-101156258D01*
X91369730Y-101066927D01*
X91551064Y-101011919D01*
X91692393Y-100998000D01*
X92460007Y-100998000D01*
X92601336Y-101011919D01*
X92601336Y-101011919D01*
G37*
G36*
X185525136Y-100181919D02*
X185706470Y-100236927D01*
X185873597Y-100326258D01*
X186020078Y-100446472D01*
X186140292Y-100592953D01*
X186229623Y-100760080D01*
X186284631Y-100941414D01*
X186303204Y-101130000D01*
X186284631Y-101318586D01*
X186229623Y-101499920D01*
X186140292Y-101667047D01*
X186020078Y-101813528D01*
X185873597Y-101933742D01*
X185706470Y-102023073D01*
X185525136Y-102078081D01*
X185383807Y-102092000D01*
X184616193Y-102092000D01*
X184474864Y-102078081D01*
X184293530Y-102023073D01*
X184126403Y-101933742D01*
X183979922Y-101813528D01*
X183859708Y-101667047D01*
X183770377Y-101499920D01*
X183715369Y-101318586D01*
X183696796Y-101130000D01*
X183715369Y-100941414D01*
X183770377Y-100760080D01*
X183859708Y-100592953D01*
X183979922Y-100446472D01*
X184126403Y-100326258D01*
X184293530Y-100236927D01*
X184474864Y-100181919D01*
X184616193Y-100168000D01*
X185383807Y-100168000D01*
X185525136Y-100181919D01*
X185525136Y-100181919D01*
G37*
G36*
X140948936Y-98971919D02*
X141130270Y-99026927D01*
X141297397Y-99116258D01*
X141443878Y-99236472D01*
X141564092Y-99382953D01*
X141653423Y-99550080D01*
X141708431Y-99731414D01*
X141727004Y-99920000D01*
X141708431Y-100108586D01*
X141653423Y-100289920D01*
X141564092Y-100457047D01*
X141443878Y-100603528D01*
X141297397Y-100723742D01*
X141130270Y-100813073D01*
X140948936Y-100868081D01*
X140807607Y-100882000D01*
X140039993Y-100882000D01*
X139898664Y-100868081D01*
X139717330Y-100813073D01*
X139550203Y-100723742D01*
X139403722Y-100603528D01*
X139283508Y-100457047D01*
X139194177Y-100289920D01*
X139139169Y-100108586D01*
X139120596Y-99920000D01*
X139139169Y-99731414D01*
X139194177Y-99550080D01*
X139283508Y-99382953D01*
X139403722Y-99236472D01*
X139550203Y-99116258D01*
X139717330Y-99026927D01*
X139898664Y-98971919D01*
X140039993Y-98958000D01*
X140807607Y-98958000D01*
X140948936Y-98971919D01*
X140948936Y-98971919D01*
G37*
G36*
X93374750Y-100382000D02*
X90777650Y-100382000D01*
X90777650Y-98458000D01*
X93374750Y-98458000D01*
X93374750Y-100382000D01*
X93374750Y-100382000D01*
G37*
G36*
X185525136Y-97641919D02*
X185706470Y-97696927D01*
X185873597Y-97786258D01*
X186020078Y-97906472D01*
X186140292Y-98052953D01*
X186229623Y-98220080D01*
X186284631Y-98401414D01*
X186303204Y-98590000D01*
X186284631Y-98778586D01*
X186229623Y-98959920D01*
X186140292Y-99127047D01*
X186020078Y-99273528D01*
X185873597Y-99393742D01*
X185706470Y-99483073D01*
X185525136Y-99538081D01*
X185383807Y-99552000D01*
X184616193Y-99552000D01*
X184474864Y-99538081D01*
X184293530Y-99483073D01*
X184126403Y-99393742D01*
X183979922Y-99273528D01*
X183859708Y-99127047D01*
X183770377Y-98959920D01*
X183715369Y-98778586D01*
X183696796Y-98590000D01*
X183715369Y-98401414D01*
X183770377Y-98220080D01*
X183859708Y-98052953D01*
X183979922Y-97906472D01*
X184126403Y-97786258D01*
X184293530Y-97696927D01*
X184474864Y-97641919D01*
X184616193Y-97628000D01*
X185383807Y-97628000D01*
X185525136Y-97641919D01*
X185525136Y-97641919D01*
G37*
G36*
X185525136Y-95101919D02*
X185706470Y-95156927D01*
X185873597Y-95246258D01*
X186020078Y-95366472D01*
X186140292Y-95512953D01*
X186229623Y-95680080D01*
X186284631Y-95861414D01*
X186303204Y-96050000D01*
X186284631Y-96238586D01*
X186229623Y-96419920D01*
X186140292Y-96587047D01*
X186020078Y-96733528D01*
X185873597Y-96853742D01*
X185706470Y-96943073D01*
X185525136Y-96998081D01*
X185383807Y-97012000D01*
X184616193Y-97012000D01*
X184474864Y-96998081D01*
X184293530Y-96943073D01*
X184126403Y-96853742D01*
X183979922Y-96733528D01*
X183859708Y-96587047D01*
X183770377Y-96419920D01*
X183715369Y-96238586D01*
X183696796Y-96050000D01*
X183715369Y-95861414D01*
X183770377Y-95680080D01*
X183859708Y-95512953D01*
X183979922Y-95366472D01*
X184126403Y-95246258D01*
X184293530Y-95156927D01*
X184474864Y-95101919D01*
X184616193Y-95088000D01*
X185383807Y-95088000D01*
X185525136Y-95101919D01*
X185525136Y-95101919D01*
G37*
G36*
X92601336Y-94901919D02*
X92782670Y-94956927D01*
X92949797Y-95046258D01*
X93096278Y-95166472D01*
X93216492Y-95312953D01*
X93305823Y-95480080D01*
X93360831Y-95661414D01*
X93379404Y-95850000D01*
X93360831Y-96038586D01*
X93305823Y-96219920D01*
X93216492Y-96387047D01*
X93096278Y-96533528D01*
X92949797Y-96653742D01*
X92782670Y-96743073D01*
X92601336Y-96798081D01*
X92460007Y-96812000D01*
X91692393Y-96812000D01*
X91551064Y-96798081D01*
X91369730Y-96743073D01*
X91202603Y-96653742D01*
X91056122Y-96533528D01*
X90935908Y-96387047D01*
X90846577Y-96219920D01*
X90791569Y-96038586D01*
X90772996Y-95850000D01*
X90791569Y-95661414D01*
X90846577Y-95480080D01*
X90935908Y-95312953D01*
X91056122Y-95166472D01*
X91202603Y-95046258D01*
X91369730Y-94956927D01*
X91551064Y-94901919D01*
X91692393Y-94888000D01*
X92460007Y-94888000D01*
X92601336Y-94901919D01*
X92601336Y-94901919D01*
G37*
G36*
X185525136Y-92561919D02*
X185706470Y-92616927D01*
X185873597Y-92706258D01*
X186020078Y-92826472D01*
X186140292Y-92972953D01*
X186229623Y-93140080D01*
X186284631Y-93321414D01*
X186303204Y-93510000D01*
X186284631Y-93698586D01*
X186229623Y-93879920D01*
X186140292Y-94047047D01*
X186020078Y-94193528D01*
X185873597Y-94313742D01*
X185706470Y-94403073D01*
X185525136Y-94458081D01*
X185383807Y-94472000D01*
X184616193Y-94472000D01*
X184474864Y-94458081D01*
X184293530Y-94403073D01*
X184126403Y-94313742D01*
X183979922Y-94193528D01*
X183859708Y-94047047D01*
X183770377Y-93879920D01*
X183715369Y-93698586D01*
X183696796Y-93510000D01*
X183715369Y-93321414D01*
X183770377Y-93140080D01*
X183859708Y-92972953D01*
X183979922Y-92826472D01*
X184126403Y-92706258D01*
X184293530Y-92616927D01*
X184474864Y-92561919D01*
X184616193Y-92548000D01*
X185383807Y-92548000D01*
X185525136Y-92561919D01*
X185525136Y-92561919D01*
G37*
G36*
X92601336Y-92361919D02*
X92782670Y-92416927D01*
X92949797Y-92506258D01*
X93096278Y-92626472D01*
X93216492Y-92772953D01*
X93305823Y-92940080D01*
X93360831Y-93121414D01*
X93379404Y-93310000D01*
X93360831Y-93498586D01*
X93305823Y-93679920D01*
X93216492Y-93847047D01*
X93096278Y-93993528D01*
X92949797Y-94113742D01*
X92782670Y-94203073D01*
X92601336Y-94258081D01*
X92460007Y-94272000D01*
X91692393Y-94272000D01*
X91551064Y-94258081D01*
X91369730Y-94203073D01*
X91202603Y-94113742D01*
X91056122Y-93993528D01*
X90935908Y-93847047D01*
X90846577Y-93679920D01*
X90791569Y-93498586D01*
X90772996Y-93310000D01*
X90791569Y-93121414D01*
X90846577Y-92940080D01*
X90935908Y-92772953D01*
X91056122Y-92626472D01*
X91202603Y-92506258D01*
X91369730Y-92416927D01*
X91551064Y-92361919D01*
X91692393Y-92348000D01*
X92460007Y-92348000D01*
X92601336Y-92361919D01*
X92601336Y-92361919D01*
G37*
G36*
X92601336Y-89821919D02*
X92782670Y-89876927D01*
X92949797Y-89966258D01*
X93096278Y-90086472D01*
X93216492Y-90232953D01*
X93305823Y-90400080D01*
X93360831Y-90581414D01*
X93379404Y-90770000D01*
X93360831Y-90958586D01*
X93305823Y-91139920D01*
X93216492Y-91307047D01*
X93096278Y-91453528D01*
X92949797Y-91573742D01*
X92782670Y-91663073D01*
X92601336Y-91718081D01*
X92460007Y-91732000D01*
X91692393Y-91732000D01*
X91551064Y-91718081D01*
X91369730Y-91663073D01*
X91202603Y-91573742D01*
X91056122Y-91453528D01*
X90935908Y-91307047D01*
X90846577Y-91139920D01*
X90791569Y-90958586D01*
X90772996Y-90770000D01*
X90791569Y-90581414D01*
X90846577Y-90400080D01*
X90935908Y-90232953D01*
X91056122Y-90086472D01*
X91202603Y-89966258D01*
X91369730Y-89876927D01*
X91551064Y-89821919D01*
X91692393Y-89808000D01*
X92460007Y-89808000D01*
X92601336Y-89821919D01*
X92601336Y-89821919D01*
G37*
G36*
X186222350Y-89892000D02*
X183625250Y-89892000D01*
X183625250Y-87968000D01*
X186222350Y-87968000D01*
X186222350Y-89892000D01*
X186222350Y-89892000D01*
G37*
G36*
X92601336Y-87281919D02*
X92782670Y-87336927D01*
X92949797Y-87426258D01*
X93096278Y-87546472D01*
X93216492Y-87692953D01*
X93305823Y-87860080D01*
X93360831Y-88041414D01*
X93379404Y-88230000D01*
X93360831Y-88418586D01*
X93305823Y-88599920D01*
X93216492Y-88767047D01*
X93096278Y-88913528D01*
X92949797Y-89033742D01*
X92782670Y-89123073D01*
X92601336Y-89178081D01*
X92460007Y-89192000D01*
X91692393Y-89192000D01*
X91551064Y-89178081D01*
X91369730Y-89123073D01*
X91202603Y-89033742D01*
X91056122Y-88913528D01*
X90935908Y-88767047D01*
X90846577Y-88599920D01*
X90791569Y-88418586D01*
X90772996Y-88230000D01*
X90791569Y-88041414D01*
X90846577Y-87860080D01*
X90935908Y-87692953D01*
X91056122Y-87546472D01*
X91202603Y-87426258D01*
X91369730Y-87336927D01*
X91551064Y-87281919D01*
X91692393Y-87268000D01*
X92460007Y-87268000D01*
X92601336Y-87281919D01*
X92601336Y-87281919D01*
G37*
G36*
X185448936Y-85441919D02*
X185630270Y-85496927D01*
X185630272Y-85496928D01*
X185647423Y-85506095D01*
X185797397Y-85586258D01*
X185943878Y-85706472D01*
X186064092Y-85852953D01*
X186153423Y-86020080D01*
X186208431Y-86201414D01*
X186227004Y-86390000D01*
X186208431Y-86578586D01*
X186153423Y-86759920D01*
X186064092Y-86927047D01*
X185943878Y-87073528D01*
X185797397Y-87193742D01*
X185630270Y-87283073D01*
X185448936Y-87338081D01*
X185307607Y-87352000D01*
X184539993Y-87352000D01*
X184398664Y-87338081D01*
X184217330Y-87283073D01*
X184050203Y-87193742D01*
X183903722Y-87073528D01*
X183783508Y-86927047D01*
X183694177Y-86759920D01*
X183639169Y-86578586D01*
X183620596Y-86390000D01*
X183639169Y-86201414D01*
X183694177Y-86020080D01*
X183783508Y-85852953D01*
X183903722Y-85706472D01*
X184050203Y-85586258D01*
X184200177Y-85506095D01*
X184217328Y-85496928D01*
X184217330Y-85496927D01*
X184398664Y-85441919D01*
X184539993Y-85428000D01*
X185307607Y-85428000D01*
X185448936Y-85441919D01*
X185448936Y-85441919D01*
G37*
G36*
X92601336Y-84741919D02*
X92782670Y-84796927D01*
X92949797Y-84886258D01*
X93096278Y-85006472D01*
X93216492Y-85152953D01*
X93305823Y-85320080D01*
X93360831Y-85501414D01*
X93379404Y-85690000D01*
X93360831Y-85878586D01*
X93305823Y-86059920D01*
X93216492Y-86227047D01*
X93096278Y-86373528D01*
X92949797Y-86493742D01*
X92799823Y-86573905D01*
X92791067Y-86578585D01*
X92782670Y-86583073D01*
X92601336Y-86638081D01*
X92460007Y-86652000D01*
X91692393Y-86652000D01*
X91551064Y-86638081D01*
X91369730Y-86583073D01*
X91361334Y-86578585D01*
X91352577Y-86573905D01*
X91202603Y-86493742D01*
X91056122Y-86373528D01*
X90935908Y-86227047D01*
X90846577Y-86059920D01*
X90791569Y-85878586D01*
X90772996Y-85690000D01*
X90791569Y-85501414D01*
X90846577Y-85320080D01*
X90935908Y-85152953D01*
X91056122Y-85006472D01*
X91202603Y-84886258D01*
X91369730Y-84796927D01*
X91551064Y-84741919D01*
X91692393Y-84728000D01*
X92460007Y-84728000D01*
X92601336Y-84741919D01*
X92601336Y-84741919D01*
G37*
G36*
X185448936Y-82901919D02*
X185630270Y-82956927D01*
X185797397Y-83046258D01*
X185943878Y-83166472D01*
X186064092Y-83312953D01*
X186153423Y-83480080D01*
X186208431Y-83661414D01*
X186227004Y-83850000D01*
X186208431Y-84038586D01*
X186153423Y-84219920D01*
X186064092Y-84387047D01*
X185943878Y-84533528D01*
X185797397Y-84653742D01*
X185630270Y-84743073D01*
X185448936Y-84798081D01*
X185307607Y-84812000D01*
X184539993Y-84812000D01*
X184398664Y-84798081D01*
X184217330Y-84743073D01*
X184050203Y-84653742D01*
X183903722Y-84533528D01*
X183783508Y-84387047D01*
X183694177Y-84219920D01*
X183639169Y-84038586D01*
X183620596Y-83850000D01*
X183639169Y-83661414D01*
X183694177Y-83480080D01*
X183783508Y-83312953D01*
X183903722Y-83166472D01*
X184050203Y-83046258D01*
X184217330Y-82956927D01*
X184398664Y-82901919D01*
X184539993Y-82888000D01*
X185307607Y-82888000D01*
X185448936Y-82901919D01*
X185448936Y-82901919D01*
G37*
G36*
X93374750Y-84112000D02*
X90777650Y-84112000D01*
X90777650Y-82188000D01*
X93374750Y-82188000D01*
X93374750Y-84112000D01*
X93374750Y-84112000D01*
G37*
G36*
X185448936Y-80361919D02*
X185630270Y-80416927D01*
X185797397Y-80506258D01*
X185943878Y-80626472D01*
X186064092Y-80772953D01*
X186153423Y-80940080D01*
X186208431Y-81121414D01*
X186227004Y-81310000D01*
X186208431Y-81498586D01*
X186153423Y-81679920D01*
X186064092Y-81847047D01*
X185943878Y-81993528D01*
X185797397Y-82113742D01*
X185630270Y-82203073D01*
X185448936Y-82258081D01*
X185307607Y-82272000D01*
X184539993Y-82272000D01*
X184398664Y-82258081D01*
X184217330Y-82203073D01*
X184050203Y-82113742D01*
X183903722Y-81993528D01*
X183783508Y-81847047D01*
X183694177Y-81679920D01*
X183639169Y-81498586D01*
X183620596Y-81310000D01*
X183639169Y-81121414D01*
X183694177Y-80940080D01*
X183783508Y-80772953D01*
X183903722Y-80626472D01*
X184050203Y-80506258D01*
X184217330Y-80416927D01*
X184398664Y-80361919D01*
X184539993Y-80348000D01*
X185307607Y-80348000D01*
X185448936Y-80361919D01*
X185448936Y-80361919D01*
G37*
G36*
X92601336Y-78981919D02*
X92782670Y-79036927D01*
X92949797Y-79126258D01*
X93096278Y-79246472D01*
X93216492Y-79392953D01*
X93305823Y-79560080D01*
X93360831Y-79741414D01*
X93379404Y-79930000D01*
X93360831Y-80118586D01*
X93305823Y-80299920D01*
X93216492Y-80467047D01*
X93096278Y-80613528D01*
X92949797Y-80733742D01*
X92782670Y-80823073D01*
X92601336Y-80878081D01*
X92460007Y-80892000D01*
X91692393Y-80892000D01*
X91551064Y-80878081D01*
X91369730Y-80823073D01*
X91202603Y-80733742D01*
X91056122Y-80613528D01*
X90935908Y-80467047D01*
X90846577Y-80299920D01*
X90791569Y-80118586D01*
X90772996Y-79930000D01*
X90791569Y-79741414D01*
X90846577Y-79560080D01*
X90935908Y-79392953D01*
X91056122Y-79246472D01*
X91202603Y-79126258D01*
X91369730Y-79036927D01*
X91551064Y-78981919D01*
X91692393Y-78968000D01*
X92460007Y-78968000D01*
X92601336Y-78981919D01*
X92601336Y-78981919D01*
G37*
G36*
X185448936Y-77821919D02*
X185630270Y-77876927D01*
X185797397Y-77966258D01*
X185943878Y-78086472D01*
X186064092Y-78232953D01*
X186153423Y-78400080D01*
X186208431Y-78581414D01*
X186227004Y-78770000D01*
X186208431Y-78958586D01*
X186153423Y-79139920D01*
X186064092Y-79307047D01*
X185943878Y-79453528D01*
X185797397Y-79573742D01*
X185630270Y-79663073D01*
X185448936Y-79718081D01*
X185307607Y-79732000D01*
X184539993Y-79732000D01*
X184398664Y-79718081D01*
X184217330Y-79663073D01*
X184050203Y-79573742D01*
X183903722Y-79453528D01*
X183783508Y-79307047D01*
X183694177Y-79139920D01*
X183639169Y-78958586D01*
X183620596Y-78770000D01*
X183639169Y-78581414D01*
X183694177Y-78400080D01*
X183783508Y-78232953D01*
X183903722Y-78086472D01*
X184050203Y-77966258D01*
X184217330Y-77876927D01*
X184398664Y-77821919D01*
X184539993Y-77808000D01*
X185307607Y-77808000D01*
X185448936Y-77821919D01*
X185448936Y-77821919D01*
G37*
G36*
X92601336Y-76441919D02*
X92782670Y-76496927D01*
X92949797Y-76586258D01*
X93096278Y-76706472D01*
X93216492Y-76852953D01*
X93305823Y-77020080D01*
X93360831Y-77201414D01*
X93379404Y-77390000D01*
X93360831Y-77578586D01*
X93305823Y-77759920D01*
X93216492Y-77927047D01*
X93096278Y-78073528D01*
X92949797Y-78193742D01*
X92782670Y-78283073D01*
X92601336Y-78338081D01*
X92460007Y-78352000D01*
X91692393Y-78352000D01*
X91551064Y-78338081D01*
X91369730Y-78283073D01*
X91202603Y-78193742D01*
X91056122Y-78073528D01*
X90935908Y-77927047D01*
X90846577Y-77759920D01*
X90791569Y-77578586D01*
X90772996Y-77390000D01*
X90791569Y-77201414D01*
X90846577Y-77020080D01*
X90935908Y-76852953D01*
X91056122Y-76706472D01*
X91202603Y-76586258D01*
X91369730Y-76496927D01*
X91551064Y-76441919D01*
X91692393Y-76428000D01*
X92460007Y-76428000D01*
X92601336Y-76441919D01*
X92601336Y-76441919D01*
G37*
G36*
X185448936Y-75281919D02*
X185630270Y-75336927D01*
X185797397Y-75426258D01*
X185943878Y-75546472D01*
X186064092Y-75692953D01*
X186153423Y-75860080D01*
X186208431Y-76041414D01*
X186227004Y-76230000D01*
X186208431Y-76418586D01*
X186153423Y-76599920D01*
X186064092Y-76767047D01*
X185943878Y-76913528D01*
X185797397Y-77033742D01*
X185630270Y-77123073D01*
X185448936Y-77178081D01*
X185307607Y-77192000D01*
X184539993Y-77192000D01*
X184398664Y-77178081D01*
X184217330Y-77123073D01*
X184050203Y-77033742D01*
X183903722Y-76913528D01*
X183783508Y-76767047D01*
X183694177Y-76599920D01*
X183639169Y-76418586D01*
X183620596Y-76230000D01*
X183639169Y-76041414D01*
X183694177Y-75860080D01*
X183783508Y-75692953D01*
X183903722Y-75546472D01*
X184050203Y-75426258D01*
X184217330Y-75336927D01*
X184398664Y-75281919D01*
X184539993Y-75268000D01*
X185307607Y-75268000D01*
X185448936Y-75281919D01*
X185448936Y-75281919D01*
G37*
G36*
X92601336Y-73901919D02*
X92782670Y-73956927D01*
X92949797Y-74046258D01*
X93096278Y-74166472D01*
X93216492Y-74312953D01*
X93305823Y-74480080D01*
X93360831Y-74661414D01*
X93379404Y-74850000D01*
X93360831Y-75038586D01*
X93305823Y-75219920D01*
X93216492Y-75387047D01*
X93096278Y-75533528D01*
X92949797Y-75653742D01*
X92782670Y-75743073D01*
X92601336Y-75798081D01*
X92460007Y-75812000D01*
X91692393Y-75812000D01*
X91551064Y-75798081D01*
X91369730Y-75743073D01*
X91202603Y-75653742D01*
X91056122Y-75533528D01*
X90935908Y-75387047D01*
X90846577Y-75219920D01*
X90791569Y-75038586D01*
X90772996Y-74850000D01*
X90791569Y-74661414D01*
X90846577Y-74480080D01*
X90935908Y-74312953D01*
X91056122Y-74166472D01*
X91202603Y-74046258D01*
X91369730Y-73956927D01*
X91551064Y-73901919D01*
X91692393Y-73888000D01*
X92460007Y-73888000D01*
X92601336Y-73901919D01*
X92601336Y-73901919D01*
G37*
G36*
X185448936Y-72741919D02*
X185630270Y-72796927D01*
X185797397Y-72886258D01*
X185943878Y-73006472D01*
X186064092Y-73152953D01*
X186153423Y-73320080D01*
X186208431Y-73501414D01*
X186227004Y-73690000D01*
X186208431Y-73878586D01*
X186153423Y-74059920D01*
X186064092Y-74227047D01*
X185943878Y-74373528D01*
X185797397Y-74493742D01*
X185630270Y-74583073D01*
X185448936Y-74638081D01*
X185307607Y-74652000D01*
X184539993Y-74652000D01*
X184398664Y-74638081D01*
X184217330Y-74583073D01*
X184050203Y-74493742D01*
X183903722Y-74373528D01*
X183783508Y-74227047D01*
X183694177Y-74059920D01*
X183639169Y-73878586D01*
X183620596Y-73690000D01*
X183639169Y-73501414D01*
X183694177Y-73320080D01*
X183783508Y-73152953D01*
X183903722Y-73006472D01*
X184050203Y-72886258D01*
X184217330Y-72796927D01*
X184398664Y-72741919D01*
X184539993Y-72728000D01*
X185307607Y-72728000D01*
X185448936Y-72741919D01*
X185448936Y-72741919D01*
G37*
G36*
X92601336Y-71361919D02*
X92782670Y-71416927D01*
X92949797Y-71506258D01*
X93096278Y-71626472D01*
X93216492Y-71772953D01*
X93305823Y-71940080D01*
X93360831Y-72121414D01*
X93379404Y-72310000D01*
X93360831Y-72498586D01*
X93305823Y-72679920D01*
X93216492Y-72847047D01*
X93096278Y-72993528D01*
X92949797Y-73113742D01*
X92782670Y-73203073D01*
X92601336Y-73258081D01*
X92460007Y-73272000D01*
X91692393Y-73272000D01*
X91551064Y-73258081D01*
X91369730Y-73203073D01*
X91202603Y-73113742D01*
X91056122Y-72993528D01*
X90935908Y-72847047D01*
X90846577Y-72679920D01*
X90791569Y-72498586D01*
X90772996Y-72310000D01*
X90791569Y-72121414D01*
X90846577Y-71940080D01*
X90935908Y-71772953D01*
X91056122Y-71626472D01*
X91202603Y-71506258D01*
X91369730Y-71416927D01*
X91551064Y-71361919D01*
X91692393Y-71348000D01*
X92460007Y-71348000D01*
X92601336Y-71361919D01*
X92601336Y-71361919D01*
G37*
G36*
X185448936Y-70201919D02*
X185630270Y-70256927D01*
X185797397Y-70346258D01*
X185943878Y-70466472D01*
X186064092Y-70612953D01*
X186153423Y-70780080D01*
X186208431Y-70961414D01*
X186227004Y-71150000D01*
X186208431Y-71338586D01*
X186153423Y-71519920D01*
X186064092Y-71687047D01*
X185943878Y-71833528D01*
X185797397Y-71953742D01*
X185630270Y-72043073D01*
X185448936Y-72098081D01*
X185307607Y-72112000D01*
X184539993Y-72112000D01*
X184398664Y-72098081D01*
X184217330Y-72043073D01*
X184050203Y-71953742D01*
X183903722Y-71833528D01*
X183783508Y-71687047D01*
X183694177Y-71519920D01*
X183639169Y-71338586D01*
X183620596Y-71150000D01*
X183639169Y-70961414D01*
X183694177Y-70780080D01*
X183783508Y-70612953D01*
X183903722Y-70466472D01*
X184050203Y-70346258D01*
X184217330Y-70256927D01*
X184398664Y-70201919D01*
X184539993Y-70188000D01*
X185307607Y-70188000D01*
X185448936Y-70201919D01*
X185448936Y-70201919D01*
G37*
G36*
X92601336Y-68821919D02*
X92782670Y-68876927D01*
X92949797Y-68966258D01*
X93096278Y-69086472D01*
X93216492Y-69232953D01*
X93305823Y-69400080D01*
X93360831Y-69581414D01*
X93379404Y-69770000D01*
X93360831Y-69958586D01*
X93305823Y-70139920D01*
X93216492Y-70307047D01*
X93096278Y-70453528D01*
X92949797Y-70573742D01*
X92782670Y-70663073D01*
X92601336Y-70718081D01*
X92460007Y-70732000D01*
X91692393Y-70732000D01*
X91551064Y-70718081D01*
X91369730Y-70663073D01*
X91202603Y-70573742D01*
X91056122Y-70453528D01*
X90935908Y-70307047D01*
X90846577Y-70139920D01*
X90791569Y-69958586D01*
X90772996Y-69770000D01*
X90791569Y-69581414D01*
X90846577Y-69400080D01*
X90935908Y-69232953D01*
X91056122Y-69086472D01*
X91202603Y-68966258D01*
X91369730Y-68876927D01*
X91551064Y-68821919D01*
X91692393Y-68808000D01*
X92460007Y-68808000D01*
X92601336Y-68821919D01*
X92601336Y-68821919D01*
G37*
G36*
X185448936Y-67661919D02*
X185630270Y-67716927D01*
X185797397Y-67806258D01*
X185943878Y-67926472D01*
X186064092Y-68072953D01*
X186153423Y-68240080D01*
X186208431Y-68421414D01*
X186227004Y-68610000D01*
X186208431Y-68798586D01*
X186153423Y-68979920D01*
X186064092Y-69147047D01*
X185943878Y-69293528D01*
X185797397Y-69413742D01*
X185630270Y-69503073D01*
X185448936Y-69558081D01*
X185307607Y-69572000D01*
X184539993Y-69572000D01*
X184398664Y-69558081D01*
X184217330Y-69503073D01*
X184050203Y-69413742D01*
X183903722Y-69293528D01*
X183783508Y-69147047D01*
X183694177Y-68979920D01*
X183639169Y-68798586D01*
X183620596Y-68610000D01*
X183639169Y-68421414D01*
X183694177Y-68240080D01*
X183783508Y-68072953D01*
X183903722Y-67926472D01*
X184050203Y-67806258D01*
X184217330Y-67716927D01*
X184398664Y-67661919D01*
X184539993Y-67648000D01*
X185307607Y-67648000D01*
X185448936Y-67661919D01*
X185448936Y-67661919D01*
G37*
G36*
X92601336Y-66281919D02*
X92782670Y-66336927D01*
X92949797Y-66426258D01*
X93096278Y-66546472D01*
X93216492Y-66692953D01*
X93305823Y-66860080D01*
X93360831Y-67041414D01*
X93379404Y-67230000D01*
X93360831Y-67418586D01*
X93305823Y-67599920D01*
X93216492Y-67767047D01*
X93096278Y-67913528D01*
X92949797Y-68033742D01*
X92782670Y-68123073D01*
X92601336Y-68178081D01*
X92460007Y-68192000D01*
X91692393Y-68192000D01*
X91551064Y-68178081D01*
X91369730Y-68123073D01*
X91202603Y-68033742D01*
X91056122Y-67913528D01*
X90935908Y-67767047D01*
X90846577Y-67599920D01*
X90791569Y-67418586D01*
X90772996Y-67230000D01*
X90791569Y-67041414D01*
X90846577Y-66860080D01*
X90935908Y-66692953D01*
X91056122Y-66546472D01*
X91202603Y-66426258D01*
X91369730Y-66336927D01*
X91551064Y-66281919D01*
X91692393Y-66268000D01*
X92460007Y-66268000D01*
X92601336Y-66281919D01*
X92601336Y-66281919D01*
G37*
G36*
X185448936Y-65121919D02*
X185630270Y-65176927D01*
X185797397Y-65266258D01*
X185943878Y-65386472D01*
X186064092Y-65532953D01*
X186153423Y-65700080D01*
X186208431Y-65881414D01*
X186227004Y-66070000D01*
X186208431Y-66258586D01*
X186153423Y-66439920D01*
X186064092Y-66607047D01*
X185943878Y-66753528D01*
X185797397Y-66873742D01*
X185630270Y-66963073D01*
X185448936Y-67018081D01*
X185307607Y-67032000D01*
X184539993Y-67032000D01*
X184398664Y-67018081D01*
X184217330Y-66963073D01*
X184050203Y-66873742D01*
X183903722Y-66753528D01*
X183783508Y-66607047D01*
X183694177Y-66439920D01*
X183639169Y-66258586D01*
X183620596Y-66070000D01*
X183639169Y-65881414D01*
X183694177Y-65700080D01*
X183783508Y-65532953D01*
X183903722Y-65386472D01*
X184050203Y-65266258D01*
X184217330Y-65176927D01*
X184398664Y-65121919D01*
X184539993Y-65108000D01*
X185307607Y-65108000D01*
X185448936Y-65121919D01*
X185448936Y-65121919D01*
G37*
G36*
X92601336Y-63741919D02*
X92782670Y-63796927D01*
X92949797Y-63886258D01*
X93096278Y-64006472D01*
X93216492Y-64152953D01*
X93305823Y-64320080D01*
X93360831Y-64501414D01*
X93379404Y-64690000D01*
X93360831Y-64878586D01*
X93305823Y-65059920D01*
X93216492Y-65227047D01*
X93096278Y-65373528D01*
X92949797Y-65493742D01*
X92782670Y-65583073D01*
X92601336Y-65638081D01*
X92460007Y-65652000D01*
X91692393Y-65652000D01*
X91551064Y-65638081D01*
X91369730Y-65583073D01*
X91202603Y-65493742D01*
X91056122Y-65373528D01*
X90935908Y-65227047D01*
X90846577Y-65059920D01*
X90791569Y-64878586D01*
X90772996Y-64690000D01*
X90791569Y-64501414D01*
X90846577Y-64320080D01*
X90935908Y-64152953D01*
X91056122Y-64006472D01*
X91202603Y-63886258D01*
X91369730Y-63796927D01*
X91551064Y-63741919D01*
X91692393Y-63728000D01*
X92460007Y-63728000D01*
X92601336Y-63741919D01*
X92601336Y-63741919D01*
G37*
G36*
X92601336Y-61201919D02*
X92782670Y-61256927D01*
X92949797Y-61346258D01*
X93096278Y-61466472D01*
X93216492Y-61612953D01*
X93305823Y-61780080D01*
X93360831Y-61961414D01*
X93379404Y-62150000D01*
X93360831Y-62338586D01*
X93305823Y-62519920D01*
X93216492Y-62687047D01*
X93096278Y-62833528D01*
X92949797Y-62953742D01*
X92782670Y-63043073D01*
X92601336Y-63098081D01*
X92460007Y-63112000D01*
X91692393Y-63112000D01*
X91551064Y-63098081D01*
X91369730Y-63043073D01*
X91202603Y-62953742D01*
X91056122Y-62833528D01*
X90935908Y-62687047D01*
X90846577Y-62519920D01*
X90791569Y-62338586D01*
X90772996Y-62150000D01*
X90791569Y-61961414D01*
X90846577Y-61780080D01*
X90935908Y-61612953D01*
X91056122Y-61466472D01*
X91202603Y-61346258D01*
X91369730Y-61256927D01*
X91551064Y-61201919D01*
X91692393Y-61188000D01*
X92460007Y-61188000D01*
X92601336Y-61201919D01*
X92601336Y-61201919D01*
G37*
G36*
X92601336Y-58661919D02*
X92782670Y-58716927D01*
X92949797Y-58806258D01*
X93096278Y-58926472D01*
X93216492Y-59072953D01*
X93305823Y-59240080D01*
X93360831Y-59421414D01*
X93379404Y-59610000D01*
X93360831Y-59798586D01*
X93305823Y-59979920D01*
X93216492Y-60147047D01*
X93096278Y-60293528D01*
X92949797Y-60413742D01*
X92782670Y-60503073D01*
X92601336Y-60558081D01*
X92460007Y-60572000D01*
X91692393Y-60572000D01*
X91551064Y-60558081D01*
X91369730Y-60503073D01*
X91202603Y-60413742D01*
X91056122Y-60293528D01*
X90935908Y-60147047D01*
X90846577Y-59979920D01*
X90791569Y-59798586D01*
X90772996Y-59610000D01*
X90791569Y-59421414D01*
X90846577Y-59240080D01*
X90935908Y-59072953D01*
X91056122Y-58926472D01*
X91202603Y-58806258D01*
X91369730Y-58716927D01*
X91551064Y-58661919D01*
X91692393Y-58648000D01*
X92460007Y-58648000D01*
X92601336Y-58661919D01*
X92601336Y-58661919D01*
G37*
G36*
X93374750Y-58032000D02*
X90777650Y-58032000D01*
X90777650Y-56108000D01*
X93374750Y-56108000D01*
X93374750Y-58032000D01*
X93374750Y-58032000D01*
G37*
G36*
X189000000Y-45000000D02*
X186534368Y-45000000D01*
X186509982Y-45002402D01*
X186486533Y-45009515D01*
X186464922Y-45021066D01*
X186445980Y-45036612D01*
X186430434Y-45055554D01*
X186418883Y-45077165D01*
X186411770Y-45100614D01*
X186409368Y-45125000D01*
X186411770Y-45149386D01*
X186418883Y-45172835D01*
X186430434Y-45194446D01*
X186445980Y-45213388D01*
X186873976Y-45641384D01*
X186873978Y-45641387D01*
X187278898Y-46247393D01*
X187278898Y-46247394D01*
X187557812Y-46920751D01*
X187700000Y-47635580D01*
X187700000Y-48364420D01*
X187557812Y-49079249D01*
X187394428Y-49473693D01*
X187278898Y-49752607D01*
X186876705Y-50354531D01*
X186873976Y-50358616D01*
X186358616Y-50873976D01*
X186358613Y-50873978D01*
X185752607Y-51278898D01*
X185473693Y-51394428D01*
X185079249Y-51557812D01*
X184364420Y-51700000D01*
X183635580Y-51700000D01*
X182920751Y-51557812D01*
X182526307Y-51394428D01*
X182247393Y-51278898D01*
X181641387Y-50873978D01*
X181641384Y-50873976D01*
X181126024Y-50358616D01*
X181123295Y-50354531D01*
X180721102Y-49752607D01*
X180605572Y-49473693D01*
X180442188Y-49079249D01*
X180300000Y-48364420D01*
X180300000Y-47635580D01*
X180442188Y-46920751D01*
X180721102Y-46247394D01*
X180721102Y-46247393D01*
X181126022Y-45641387D01*
X181126024Y-45641384D01*
X181554020Y-45213388D01*
X181569566Y-45194446D01*
X181581117Y-45172835D01*
X181588230Y-45149386D01*
X181590632Y-45125000D01*
X181588230Y-45100614D01*
X181581117Y-45077165D01*
X181569566Y-45055554D01*
X181554020Y-45036612D01*
X181535078Y-45021066D01*
X181513467Y-45009515D01*
X181490018Y-45002402D01*
X181465632Y-45000000D01*
X96534368Y-45000000D01*
X96509982Y-45002402D01*
X96486533Y-45009515D01*
X96464922Y-45021066D01*
X96445980Y-45036612D01*
X96430434Y-45055554D01*
X96418883Y-45077165D01*
X96411770Y-45100614D01*
X96409368Y-45125000D01*
X96411770Y-45149386D01*
X96418883Y-45172835D01*
X96430434Y-45194446D01*
X96445980Y-45213388D01*
X96873976Y-45641384D01*
X96873978Y-45641387D01*
X97278898Y-46247393D01*
X97278898Y-46247394D01*
X97557812Y-46920751D01*
X97700000Y-47635580D01*
X97700000Y-48364420D01*
X97557812Y-49079249D01*
X97394428Y-49473693D01*
X97278898Y-49752607D01*
X96876705Y-50354531D01*
X96873976Y-50358616D01*
X96358616Y-50873976D01*
X96358613Y-50873978D01*
X95752607Y-51278898D01*
X95473693Y-51394428D01*
X95079249Y-51557812D01*
X94364420Y-51700000D01*
X93635580Y-51700000D01*
X92920751Y-51557812D01*
X92526307Y-51394428D01*
X92247393Y-51278898D01*
X91641387Y-50873978D01*
X91641384Y-50873976D01*
X91126024Y-50358616D01*
X91123295Y-50354531D01*
X90721102Y-49752607D01*
X90605572Y-49473693D01*
X90442188Y-49079249D01*
X90300000Y-48364420D01*
X90300000Y-47635580D01*
X90442188Y-46920751D01*
X90721102Y-46247394D01*
X90721102Y-46247393D01*
X91126022Y-45641387D01*
X91126024Y-45641384D01*
X91554020Y-45213388D01*
X91569566Y-45194446D01*
X91581117Y-45172835D01*
X91588230Y-45149386D01*
X91590632Y-45125000D01*
X91588230Y-45100614D01*
X91581117Y-45077165D01*
X91569566Y-45055554D01*
X91554020Y-45036612D01*
X91535078Y-45021066D01*
X91513467Y-45009515D01*
X91490018Y-45002402D01*
X91465632Y-45000000D01*
X89000000Y-45000000D01*
X89000000Y-43000000D01*
X189000000Y-43000000D01*
X189000000Y-45000000D01*
X189000000Y-45000000D01*
G37*
M02*
