G04 #@! TF.FileFunction,Soldermask,Bot*
%FSLAX46Y46*%
G04 Gerber Fmt 4.6, Leading zero omitted, Abs format (unit mm)*
G04 Created by KiCad (PCBNEW 4.0.7) date 01/28/18 09:50:26*
%MOMM*%
%LPD*%
G01*
G04 APERTURE LIST*
%ADD10C,0.100000*%
%ADD11O,2.597100X1.924000*%
%ADD12R,2.597100X1.924000*%
%ADD13C,7.400000*%
%ADD14R,3.000000X2.400000*%
%ADD15O,3.000000X2.400000*%
G04 APERTURE END LIST*
D10*
D11*
X92076200Y-77390000D03*
X92076200Y-74850000D03*
X92076200Y-72310000D03*
X92076200Y-67230000D03*
X92076200Y-64690000D03*
X92076200Y-62150000D03*
X92076200Y-79930000D03*
X92076200Y-69770000D03*
D12*
X92076200Y-57070000D03*
D11*
X92076200Y-59610000D03*
X92076200Y-104500000D03*
X92076200Y-109580000D03*
X92076200Y-107040000D03*
D12*
X92076200Y-99420000D03*
D11*
X92076200Y-101960000D03*
X92076200Y-90770000D03*
X92076200Y-88230000D03*
X92076200Y-95850000D03*
X92076200Y-93310000D03*
D12*
X92076200Y-83150000D03*
D11*
X92076200Y-85690000D03*
D12*
X92076200Y-123730000D03*
D11*
X92076200Y-126270000D03*
X184923800Y-68610000D03*
X184923800Y-71150000D03*
X184923800Y-73690000D03*
X184923800Y-78770000D03*
X184923800Y-81310000D03*
X184923800Y-83850000D03*
X184923800Y-66070000D03*
X184923800Y-76230000D03*
D12*
X184923800Y-88930000D03*
D11*
X184923800Y-86390000D03*
X92076200Y-119040000D03*
D12*
X92076200Y-113960000D03*
D11*
X92076200Y-116500000D03*
D13*
X184000000Y-48000000D03*
X94000000Y-138000000D03*
X94000000Y-48000000D03*
X184000000Y-138000000D03*
D11*
X140423800Y-105000000D03*
X140423800Y-99920000D03*
X140423800Y-102460000D03*
D12*
X140423800Y-110080000D03*
D11*
X140423800Y-107540000D03*
X185000000Y-96050000D03*
X185000000Y-98590000D03*
X185000000Y-101130000D03*
X185000000Y-103670000D03*
X185000000Y-106210000D03*
X185000000Y-108750000D03*
X185000000Y-113830000D03*
X185000000Y-116370000D03*
X185000000Y-118910000D03*
X185000000Y-93510000D03*
X185000000Y-111290000D03*
D12*
X185000000Y-123990000D03*
D11*
X185000000Y-121450000D03*
D14*
X140500000Y-135750000D03*
D15*
X140500000Y-133210000D03*
X140500000Y-130670000D03*
X140500000Y-128130000D03*
X140500000Y-125590000D03*
X140500000Y-123050000D03*
X140500000Y-120510000D03*
M02*
