%TF.GenerationSoftware,KiCad,Pcbnew,(5.1.5)-3*%
%TF.CreationDate,2020-07-23T08:34:40+02:00*%
%TF.ProjectId,Alexandrie,416c6578-616e-4647-9269-652e6b696361,rev?*%
%TF.SameCoordinates,Original*%
%TF.FileFunction,Soldermask,Top*%
%TF.FilePolarity,Negative*%
%FSLAX46Y46*%
G04 Gerber Fmt 4.6, Leading zero omitted, Abs format (unit mm)*
G04 Created by KiCad (PCBNEW (5.1.5)-3) date 2020-07-23 08:34:40*
%MOMM*%
%LPD*%
G04 APERTURE LIST*
%ADD10C,0.100000*%
G04 APERTURE END LIST*
D10*
G36*
X185079249Y-134442188D02*
G01*
X185752606Y-134721101D01*
X185752607Y-134721102D01*
X186358613Y-135126022D01*
X186873978Y-135641387D01*
X187144537Y-136046308D01*
X187278899Y-136247394D01*
X187557812Y-136920751D01*
X187700000Y-137635580D01*
X187700000Y-138364420D01*
X187557812Y-139079249D01*
X187278899Y-139752606D01*
X187278898Y-139752607D01*
X186873978Y-140358613D01*
X186358613Y-140873978D01*
X185953692Y-141144537D01*
X185752606Y-141278899D01*
X185079249Y-141557812D01*
X184364420Y-141700000D01*
X183635580Y-141700000D01*
X182920751Y-141557812D01*
X182247394Y-141278899D01*
X182046308Y-141144537D01*
X181641387Y-140873978D01*
X181126022Y-140358613D01*
X180721102Y-139752607D01*
X180721101Y-139752606D01*
X180442188Y-139079249D01*
X180300000Y-138364420D01*
X180300000Y-137635580D01*
X180442188Y-136920751D01*
X180721101Y-136247394D01*
X180855463Y-136046308D01*
X181126022Y-135641387D01*
X181641387Y-135126022D01*
X182247393Y-134721102D01*
X182247394Y-134721101D01*
X182920751Y-134442188D01*
X183635580Y-134300000D01*
X184364420Y-134300000D01*
X185079249Y-134442188D01*
G37*
G36*
X95079249Y-134442188D02*
G01*
X95752606Y-134721101D01*
X95752607Y-134721102D01*
X96358613Y-135126022D01*
X96873978Y-135641387D01*
X97144537Y-136046308D01*
X97278899Y-136247394D01*
X97557812Y-136920751D01*
X97700000Y-137635580D01*
X97700000Y-138364420D01*
X97557812Y-139079249D01*
X97278899Y-139752606D01*
X97278898Y-139752607D01*
X96873978Y-140358613D01*
X96358613Y-140873978D01*
X95953692Y-141144537D01*
X95752606Y-141278899D01*
X95079249Y-141557812D01*
X94364420Y-141700000D01*
X93635580Y-141700000D01*
X92920751Y-141557812D01*
X92247394Y-141278899D01*
X92046308Y-141144537D01*
X91641387Y-140873978D01*
X91126022Y-140358613D01*
X90721102Y-139752607D01*
X90721101Y-139752606D01*
X90442188Y-139079249D01*
X90300000Y-138364420D01*
X90300000Y-137635580D01*
X90442188Y-136920751D01*
X90721101Y-136247394D01*
X90855463Y-136046308D01*
X91126022Y-135641387D01*
X91641387Y-135126022D01*
X92247393Y-134721102D01*
X92247394Y-134721101D01*
X92920751Y-134442188D01*
X93635580Y-134300000D01*
X94364420Y-134300000D01*
X95079249Y-134442188D01*
G37*
G36*
X140917714Y-119315788D02*
G01*
X141035241Y-119327363D01*
X141261442Y-119395981D01*
X141261445Y-119395982D01*
X141469910Y-119507408D01*
X141652634Y-119657366D01*
X141802592Y-119840090D01*
X141914018Y-120048555D01*
X141914019Y-120048558D01*
X141982637Y-120274759D01*
X142005806Y-120510000D01*
X141982637Y-120745241D01*
X141931760Y-120912957D01*
X141914018Y-120971445D01*
X141802592Y-121179910D01*
X141652634Y-121362634D01*
X141469910Y-121512592D01*
X141261445Y-121624018D01*
X141261442Y-121624019D01*
X141141563Y-121660384D01*
X141118927Y-121669761D01*
X141098552Y-121683374D01*
X141081225Y-121700701D01*
X141067612Y-121721076D01*
X141058234Y-121743715D01*
X141053454Y-121767748D01*
X141053454Y-121792252D01*
X141058234Y-121816285D01*
X141067612Y-121838924D01*
X141081225Y-121859299D01*
X141098552Y-121876626D01*
X141118927Y-121890239D01*
X141141563Y-121899616D01*
X141261442Y-121935981D01*
X141261445Y-121935982D01*
X141469910Y-122047408D01*
X141652634Y-122197366D01*
X141802592Y-122380090D01*
X141914018Y-122588555D01*
X141914019Y-122588558D01*
X141982637Y-122814759D01*
X142005806Y-123050000D01*
X141982637Y-123285241D01*
X141914019Y-123511442D01*
X141914018Y-123511445D01*
X141802592Y-123719910D01*
X141652634Y-123902634D01*
X141469910Y-124052592D01*
X141261445Y-124164018D01*
X141261442Y-124164019D01*
X141141563Y-124200384D01*
X141118927Y-124209761D01*
X141098552Y-124223374D01*
X141081225Y-124240701D01*
X141067612Y-124261076D01*
X141058234Y-124283715D01*
X141053454Y-124307748D01*
X141053454Y-124332252D01*
X141058234Y-124356285D01*
X141067612Y-124378924D01*
X141081225Y-124399299D01*
X141098552Y-124416626D01*
X141118927Y-124430239D01*
X141141563Y-124439616D01*
X141261442Y-124475981D01*
X141261445Y-124475982D01*
X141469910Y-124587408D01*
X141652634Y-124737366D01*
X141802592Y-124920090D01*
X141914018Y-125128555D01*
X141914019Y-125128558D01*
X141982637Y-125354759D01*
X142005806Y-125590000D01*
X141982637Y-125825241D01*
X141959936Y-125900075D01*
X141914018Y-126051445D01*
X141802592Y-126259910D01*
X141652634Y-126442634D01*
X141469910Y-126592592D01*
X141261445Y-126704018D01*
X141261442Y-126704019D01*
X141141563Y-126740384D01*
X141118927Y-126749761D01*
X141098552Y-126763374D01*
X141081225Y-126780701D01*
X141067612Y-126801076D01*
X141058234Y-126823715D01*
X141053454Y-126847748D01*
X141053454Y-126872252D01*
X141058234Y-126896285D01*
X141067612Y-126918924D01*
X141081225Y-126939299D01*
X141098552Y-126956626D01*
X141118927Y-126970239D01*
X141141563Y-126979616D01*
X141261442Y-127015981D01*
X141261445Y-127015982D01*
X141469910Y-127127408D01*
X141652634Y-127277366D01*
X141802592Y-127460090D01*
X141914018Y-127668555D01*
X141914019Y-127668558D01*
X141982637Y-127894759D01*
X142005806Y-128130000D01*
X141982637Y-128365241D01*
X141914019Y-128591442D01*
X141914018Y-128591445D01*
X141802592Y-128799910D01*
X141652634Y-128982634D01*
X141469910Y-129132592D01*
X141261445Y-129244018D01*
X141261442Y-129244019D01*
X141141563Y-129280384D01*
X141118927Y-129289761D01*
X141098552Y-129303374D01*
X141081225Y-129320701D01*
X141067612Y-129341076D01*
X141058234Y-129363715D01*
X141053454Y-129387748D01*
X141053454Y-129412252D01*
X141058234Y-129436285D01*
X141067612Y-129458924D01*
X141081225Y-129479299D01*
X141098552Y-129496626D01*
X141118927Y-129510239D01*
X141141563Y-129519616D01*
X141261442Y-129555981D01*
X141261445Y-129555982D01*
X141469910Y-129667408D01*
X141652634Y-129817366D01*
X141802592Y-130000090D01*
X141914018Y-130208555D01*
X141914019Y-130208558D01*
X141982637Y-130434759D01*
X142005806Y-130670000D01*
X141982637Y-130905241D01*
X141914019Y-131131442D01*
X141914018Y-131131445D01*
X141802592Y-131339910D01*
X141652634Y-131522634D01*
X141469910Y-131672592D01*
X141261445Y-131784018D01*
X141261442Y-131784019D01*
X141141563Y-131820384D01*
X141118927Y-131829761D01*
X141098552Y-131843374D01*
X141081225Y-131860701D01*
X141067612Y-131881076D01*
X141058234Y-131903715D01*
X141053454Y-131927748D01*
X141053454Y-131952252D01*
X141058234Y-131976285D01*
X141067612Y-131998924D01*
X141081225Y-132019299D01*
X141098552Y-132036626D01*
X141118927Y-132050239D01*
X141141563Y-132059616D01*
X141261442Y-132095981D01*
X141261445Y-132095982D01*
X141469910Y-132207408D01*
X141652634Y-132357366D01*
X141802592Y-132540090D01*
X141914018Y-132748555D01*
X141914019Y-132748558D01*
X141982637Y-132974759D01*
X142005806Y-133210000D01*
X141982637Y-133445241D01*
X141950858Y-133550000D01*
X141914018Y-133671445D01*
X141802592Y-133879910D01*
X141652634Y-134062634D01*
X141469910Y-134212592D01*
X141278762Y-134314762D01*
X141258388Y-134328375D01*
X141241061Y-134345702D01*
X141227447Y-134366077D01*
X141218069Y-134388715D01*
X141213289Y-134412749D01*
X141213289Y-134437253D01*
X141218069Y-134461286D01*
X141227447Y-134483925D01*
X141241060Y-134504299D01*
X141258387Y-134521626D01*
X141278762Y-134535240D01*
X141301400Y-134544618D01*
X141325434Y-134549398D01*
X141337686Y-134550000D01*
X142000000Y-134550000D01*
X142000000Y-136950000D01*
X139000000Y-136950000D01*
X139000000Y-134550000D01*
X139662314Y-134550000D01*
X139686700Y-134547598D01*
X139710149Y-134540485D01*
X139731760Y-134528934D01*
X139750702Y-134513389D01*
X139766247Y-134494447D01*
X139777798Y-134472836D01*
X139784911Y-134449387D01*
X139787313Y-134425001D01*
X139784911Y-134400615D01*
X139777798Y-134377166D01*
X139766247Y-134355555D01*
X139750702Y-134336613D01*
X139731760Y-134321068D01*
X139721238Y-134314762D01*
X139530090Y-134212592D01*
X139347366Y-134062634D01*
X139197408Y-133879910D01*
X139085982Y-133671445D01*
X139049142Y-133550000D01*
X139017363Y-133445241D01*
X138994194Y-133210000D01*
X139017363Y-132974759D01*
X139085981Y-132748558D01*
X139085982Y-132748555D01*
X139197408Y-132540090D01*
X139347366Y-132357366D01*
X139530090Y-132207408D01*
X139738555Y-132095982D01*
X139738558Y-132095981D01*
X139858437Y-132059616D01*
X139881073Y-132050239D01*
X139901448Y-132036626D01*
X139918775Y-132019299D01*
X139932388Y-131998924D01*
X139941766Y-131976285D01*
X139946546Y-131952252D01*
X139946546Y-131927748D01*
X139941766Y-131903715D01*
X139932388Y-131881076D01*
X139918775Y-131860701D01*
X139901448Y-131843374D01*
X139881073Y-131829761D01*
X139858437Y-131820384D01*
X139738558Y-131784019D01*
X139738555Y-131784018D01*
X139530090Y-131672592D01*
X139347366Y-131522634D01*
X139197408Y-131339910D01*
X139085982Y-131131445D01*
X139085981Y-131131442D01*
X139017363Y-130905241D01*
X138994194Y-130670000D01*
X139017363Y-130434759D01*
X139085981Y-130208558D01*
X139085982Y-130208555D01*
X139197408Y-130000090D01*
X139347366Y-129817366D01*
X139530090Y-129667408D01*
X139738555Y-129555982D01*
X139738558Y-129555981D01*
X139858437Y-129519616D01*
X139881073Y-129510239D01*
X139901448Y-129496626D01*
X139918775Y-129479299D01*
X139932388Y-129458924D01*
X139941766Y-129436285D01*
X139946546Y-129412252D01*
X139946546Y-129387748D01*
X139941766Y-129363715D01*
X139932388Y-129341076D01*
X139918775Y-129320701D01*
X139901448Y-129303374D01*
X139881073Y-129289761D01*
X139858437Y-129280384D01*
X139738558Y-129244019D01*
X139738555Y-129244018D01*
X139530090Y-129132592D01*
X139347366Y-128982634D01*
X139197408Y-128799910D01*
X139085982Y-128591445D01*
X139085981Y-128591442D01*
X139017363Y-128365241D01*
X138994194Y-128130000D01*
X139017363Y-127894759D01*
X139085981Y-127668558D01*
X139085982Y-127668555D01*
X139197408Y-127460090D01*
X139347366Y-127277366D01*
X139530090Y-127127408D01*
X139738555Y-127015982D01*
X139738558Y-127015981D01*
X139858437Y-126979616D01*
X139881073Y-126970239D01*
X139901448Y-126956626D01*
X139918775Y-126939299D01*
X139932388Y-126918924D01*
X139941766Y-126896285D01*
X139946546Y-126872252D01*
X139946546Y-126847748D01*
X139941766Y-126823715D01*
X139932388Y-126801076D01*
X139918775Y-126780701D01*
X139901448Y-126763374D01*
X139881073Y-126749761D01*
X139858437Y-126740384D01*
X139738558Y-126704019D01*
X139738555Y-126704018D01*
X139530090Y-126592592D01*
X139347366Y-126442634D01*
X139197408Y-126259910D01*
X139085982Y-126051445D01*
X139040064Y-125900075D01*
X139017363Y-125825241D01*
X138994194Y-125590000D01*
X139017363Y-125354759D01*
X139085981Y-125128558D01*
X139085982Y-125128555D01*
X139197408Y-124920090D01*
X139347366Y-124737366D01*
X139530090Y-124587408D01*
X139738555Y-124475982D01*
X139738558Y-124475981D01*
X139858437Y-124439616D01*
X139881073Y-124430239D01*
X139901448Y-124416626D01*
X139918775Y-124399299D01*
X139932388Y-124378924D01*
X139941766Y-124356285D01*
X139946546Y-124332252D01*
X139946546Y-124307748D01*
X139941766Y-124283715D01*
X139932388Y-124261076D01*
X139918775Y-124240701D01*
X139901448Y-124223374D01*
X139881073Y-124209761D01*
X139858437Y-124200384D01*
X139738558Y-124164019D01*
X139738555Y-124164018D01*
X139530090Y-124052592D01*
X139347366Y-123902634D01*
X139197408Y-123719910D01*
X139085982Y-123511445D01*
X139085981Y-123511442D01*
X139017363Y-123285241D01*
X138994194Y-123050000D01*
X139017363Y-122814759D01*
X139085981Y-122588558D01*
X139085982Y-122588555D01*
X139197408Y-122380090D01*
X139347366Y-122197366D01*
X139530090Y-122047408D01*
X139738555Y-121935982D01*
X139738558Y-121935981D01*
X139858437Y-121899616D01*
X139881073Y-121890239D01*
X139901448Y-121876626D01*
X139918775Y-121859299D01*
X139932388Y-121838924D01*
X139941766Y-121816285D01*
X139946546Y-121792252D01*
X139946546Y-121767748D01*
X139941766Y-121743715D01*
X139932388Y-121721076D01*
X139918775Y-121700701D01*
X139901448Y-121683374D01*
X139881073Y-121669761D01*
X139858437Y-121660384D01*
X139738558Y-121624019D01*
X139738555Y-121624018D01*
X139530090Y-121512592D01*
X139347366Y-121362634D01*
X139197408Y-121179910D01*
X139085982Y-120971445D01*
X139068240Y-120912957D01*
X139017363Y-120745241D01*
X138994194Y-120510000D01*
X139017363Y-120274759D01*
X139085981Y-120048558D01*
X139085982Y-120048555D01*
X139197408Y-119840090D01*
X139347366Y-119657366D01*
X139530090Y-119507408D01*
X139738555Y-119395982D01*
X139738558Y-119395981D01*
X139964759Y-119327363D01*
X140082286Y-119315788D01*
X140141049Y-119310000D01*
X140858951Y-119310000D01*
X140917714Y-119315788D01*
G37*
G36*
X111950000Y-136450000D02*
G01*
X107800000Y-136450000D01*
X107800000Y-133550000D01*
X111950000Y-133550000D01*
X111950000Y-136450000D01*
G37*
G36*
X118200000Y-136450000D02*
G01*
X114050000Y-136450000D01*
X114050000Y-133550000D01*
X118200000Y-133550000D01*
X118200000Y-136450000D01*
G37*
G36*
X159700000Y-136215000D02*
G01*
X157800000Y-136215000D01*
X157800000Y-135215000D01*
X159700000Y-135215000D01*
X159700000Y-136215000D01*
G37*
G36*
X150200000Y-136215000D02*
G01*
X148300000Y-136215000D01*
X148300000Y-135215000D01*
X150200000Y-135215000D01*
X150200000Y-136215000D01*
G37*
G36*
X150200000Y-134945000D02*
G01*
X148300000Y-134945000D01*
X148300000Y-133945000D01*
X150200000Y-133945000D01*
X150200000Y-134945000D01*
G37*
G36*
X159700000Y-134945000D02*
G01*
X157800000Y-134945000D01*
X157800000Y-133945000D01*
X159700000Y-133945000D01*
X159700000Y-134945000D01*
G37*
G36*
X159700000Y-133675000D02*
G01*
X157800000Y-133675000D01*
X157800000Y-132675000D01*
X159700000Y-132675000D01*
X159700000Y-133675000D01*
G37*
G36*
X150200000Y-133675000D02*
G01*
X148300000Y-133675000D01*
X148300000Y-132675000D01*
X150200000Y-132675000D01*
X150200000Y-133675000D01*
G37*
G36*
X113700000Y-132825000D02*
G01*
X111800000Y-132825000D01*
X111800000Y-131175000D01*
X113700000Y-131175000D01*
X113700000Y-132825000D01*
G37*
G36*
X111200000Y-132825000D02*
G01*
X109300000Y-132825000D01*
X109300000Y-131175000D01*
X111200000Y-131175000D01*
X111200000Y-132825000D01*
G37*
G36*
X129775000Y-132600000D02*
G01*
X119975000Y-132600000D01*
X119975000Y-121400000D01*
X129775000Y-121400000D01*
X129775000Y-132600000D01*
G37*
G36*
X159700000Y-132405000D02*
G01*
X157800000Y-132405000D01*
X157800000Y-131405000D01*
X159700000Y-131405000D01*
X159700000Y-132405000D01*
G37*
G36*
X150200000Y-132405000D02*
G01*
X148300000Y-132405000D01*
X148300000Y-131405000D01*
X150200000Y-131405000D01*
X150200000Y-132405000D01*
G37*
G36*
X159700000Y-131135000D02*
G01*
X157800000Y-131135000D01*
X157800000Y-130135000D01*
X159700000Y-130135000D01*
X159700000Y-131135000D01*
G37*
G36*
X150200000Y-131135000D02*
G01*
X148300000Y-131135000D01*
X148300000Y-130135000D01*
X150200000Y-130135000D01*
X150200000Y-131135000D01*
G37*
G36*
X118225000Y-130290000D02*
G01*
X113225000Y-130290000D01*
X113225000Y-128790000D01*
X118225000Y-128790000D01*
X118225000Y-130290000D01*
G37*
G36*
X150200000Y-129865000D02*
G01*
X148300000Y-129865000D01*
X148300000Y-128865000D01*
X150200000Y-128865000D01*
X150200000Y-129865000D01*
G37*
G36*
X159700000Y-129865000D02*
G01*
X157800000Y-129865000D01*
X157800000Y-128865000D01*
X159700000Y-128865000D01*
X159700000Y-129865000D01*
G37*
G36*
X97825000Y-129200000D02*
G01*
X96175000Y-129200000D01*
X96175000Y-127300000D01*
X97825000Y-127300000D01*
X97825000Y-129200000D01*
G37*
G36*
X150200000Y-128595000D02*
G01*
X148300000Y-128595000D01*
X148300000Y-127595000D01*
X150200000Y-127595000D01*
X150200000Y-128595000D01*
G37*
G36*
X159700000Y-128595000D02*
G01*
X157800000Y-128595000D01*
X157800000Y-127595000D01*
X159700000Y-127595000D01*
X159700000Y-128595000D01*
G37*
G36*
X165696820Y-128449300D02*
G01*
X163798220Y-128449300D01*
X163798220Y-126550700D01*
X165696820Y-126550700D01*
X165696820Y-128449300D01*
G37*
G36*
X162201780Y-128449300D02*
G01*
X160303180Y-128449300D01*
X160303180Y-126550700D01*
X162201780Y-126550700D01*
X162201780Y-128449300D01*
G37*
G36*
X167850000Y-128300000D02*
G01*
X166150000Y-128300000D01*
X166150000Y-126400000D01*
X167850000Y-126400000D01*
X167850000Y-128300000D01*
G37*
G36*
X118225000Y-127750000D02*
G01*
X113225000Y-127750000D01*
X113225000Y-126250000D01*
X118225000Y-126250000D01*
X118225000Y-127750000D01*
G37*
G36*
X150200000Y-127325000D02*
G01*
X148300000Y-127325000D01*
X148300000Y-126325000D01*
X150200000Y-126325000D01*
X150200000Y-127325000D01*
G37*
G36*
X159700000Y-127325000D02*
G01*
X157800000Y-127325000D01*
X157800000Y-126325000D01*
X159700000Y-126325000D01*
X159700000Y-127325000D01*
G37*
G36*
X92601333Y-125321919D02*
G01*
X92782675Y-125376929D01*
X92949793Y-125466256D01*
X93096278Y-125586472D01*
X93216494Y-125732957D01*
X93305821Y-125900075D01*
X93360831Y-126081417D01*
X93379404Y-126270000D01*
X93360831Y-126458583D01*
X93305821Y-126639925D01*
X93216494Y-126807043D01*
X93096278Y-126953528D01*
X92949793Y-127073744D01*
X92782675Y-127163071D01*
X92601333Y-127218081D01*
X92460007Y-127232000D01*
X91692393Y-127232000D01*
X91551067Y-127218081D01*
X91369725Y-127163071D01*
X91202607Y-127073744D01*
X91056122Y-126953528D01*
X90935906Y-126807043D01*
X90846579Y-126639925D01*
X90791569Y-126458583D01*
X90772996Y-126270000D01*
X90791569Y-126081417D01*
X90846579Y-125900075D01*
X90935906Y-125732957D01*
X91056122Y-125586472D01*
X91202607Y-125466256D01*
X91369725Y-125376929D01*
X91551067Y-125321919D01*
X91692393Y-125308000D01*
X92460007Y-125308000D01*
X92601333Y-125321919D01*
G37*
G36*
X97825000Y-126700000D02*
G01*
X96175000Y-126700000D01*
X96175000Y-124800000D01*
X97825000Y-124800000D01*
X97825000Y-126700000D01*
G37*
G36*
X159700000Y-126055000D02*
G01*
X157800000Y-126055000D01*
X157800000Y-125055000D01*
X159700000Y-125055000D01*
X159700000Y-126055000D01*
G37*
G36*
X150200000Y-126055000D02*
G01*
X148300000Y-126055000D01*
X148300000Y-125055000D01*
X150200000Y-125055000D01*
X150200000Y-126055000D01*
G37*
G36*
X167850000Y-125600000D02*
G01*
X166150000Y-125600000D01*
X166150000Y-123700000D01*
X167850000Y-123700000D01*
X167850000Y-125600000D01*
G37*
G36*
X118225000Y-125210000D02*
G01*
X113225000Y-125210000D01*
X113225000Y-123710000D01*
X118225000Y-123710000D01*
X118225000Y-125210000D01*
G37*
G36*
X146325000Y-125200000D02*
G01*
X144675000Y-125200000D01*
X144675000Y-123300000D01*
X146325000Y-123300000D01*
X146325000Y-125200000D01*
G37*
G36*
X186298550Y-124952000D02*
G01*
X183701450Y-124952000D01*
X183701450Y-123028000D01*
X186298550Y-123028000D01*
X186298550Y-124952000D01*
G37*
G36*
X159700000Y-124785000D02*
G01*
X157800000Y-124785000D01*
X157800000Y-123785000D01*
X159700000Y-123785000D01*
X159700000Y-124785000D01*
G37*
G36*
X150200000Y-124785000D02*
G01*
X148300000Y-124785000D01*
X148300000Y-123785000D01*
X150200000Y-123785000D01*
X150200000Y-124785000D01*
G37*
G36*
X93374750Y-124692000D02*
G01*
X90777650Y-124692000D01*
X90777650Y-122768000D01*
X93374750Y-122768000D01*
X93374750Y-124692000D01*
G37*
G36*
X113700000Y-122825000D02*
G01*
X111800000Y-122825000D01*
X111800000Y-121175000D01*
X113700000Y-121175000D01*
X113700000Y-122825000D01*
G37*
G36*
X111200000Y-122825000D02*
G01*
X109300000Y-122825000D01*
X109300000Y-121175000D01*
X111200000Y-121175000D01*
X111200000Y-122825000D01*
G37*
G36*
X146325000Y-122700000D02*
G01*
X144675000Y-122700000D01*
X144675000Y-120800000D01*
X146325000Y-120800000D01*
X146325000Y-122700000D01*
G37*
G36*
X185525133Y-120501919D02*
G01*
X185706475Y-120556929D01*
X185873593Y-120646256D01*
X186020078Y-120766472D01*
X186140294Y-120912957D01*
X186229621Y-121080075D01*
X186284631Y-121261417D01*
X186303204Y-121450000D01*
X186284631Y-121638583D01*
X186229621Y-121819925D01*
X186140294Y-121987043D01*
X186020078Y-122133528D01*
X185873593Y-122253744D01*
X185706475Y-122343071D01*
X185525133Y-122398081D01*
X185383807Y-122412000D01*
X184616193Y-122412000D01*
X184474867Y-122398081D01*
X184293525Y-122343071D01*
X184126407Y-122253744D01*
X183979922Y-122133528D01*
X183859706Y-121987043D01*
X183770379Y-121819925D01*
X183715369Y-121638583D01*
X183696796Y-121450000D01*
X183715369Y-121261417D01*
X183770379Y-121080075D01*
X183859706Y-120912957D01*
X183979922Y-120766472D01*
X184126407Y-120646256D01*
X184293525Y-120556929D01*
X184474867Y-120501919D01*
X184616193Y-120488000D01*
X185383807Y-120488000D01*
X185525133Y-120501919D01*
G37*
G36*
X92601333Y-118091919D02*
G01*
X92782675Y-118146929D01*
X92949793Y-118236256D01*
X93096278Y-118356472D01*
X93216494Y-118502957D01*
X93305821Y-118670075D01*
X93360831Y-118851417D01*
X93379404Y-119040000D01*
X93360831Y-119228583D01*
X93305821Y-119409925D01*
X93216494Y-119577043D01*
X93096278Y-119723528D01*
X92949793Y-119843744D01*
X92782675Y-119933071D01*
X92601333Y-119988081D01*
X92460007Y-120002000D01*
X91692393Y-120002000D01*
X91551067Y-119988081D01*
X91369725Y-119933071D01*
X91202607Y-119843744D01*
X91056122Y-119723528D01*
X90935906Y-119577043D01*
X90846579Y-119409925D01*
X90791569Y-119228583D01*
X90772996Y-119040000D01*
X90791569Y-118851417D01*
X90846579Y-118670075D01*
X90935906Y-118502957D01*
X91056122Y-118356472D01*
X91202607Y-118236256D01*
X91369725Y-118146929D01*
X91551067Y-118091919D01*
X91692393Y-118078000D01*
X92460007Y-118078000D01*
X92601333Y-118091919D01*
G37*
G36*
X123700000Y-119950000D02*
G01*
X119550000Y-119950000D01*
X119550000Y-117050000D01*
X123700000Y-117050000D01*
X123700000Y-119950000D01*
G37*
G36*
X117450000Y-119950000D02*
G01*
X113300000Y-119950000D01*
X113300000Y-117050000D01*
X117450000Y-117050000D01*
X117450000Y-119950000D01*
G37*
G36*
X185525133Y-117961919D02*
G01*
X185706475Y-118016929D01*
X185873593Y-118106256D01*
X186020078Y-118226472D01*
X186140294Y-118372957D01*
X186229621Y-118540075D01*
X186284631Y-118721417D01*
X186303204Y-118910000D01*
X186284631Y-119098583D01*
X186229621Y-119279925D01*
X186140294Y-119447043D01*
X186020078Y-119593528D01*
X185873593Y-119713744D01*
X185706475Y-119803071D01*
X185525133Y-119858081D01*
X185383807Y-119872000D01*
X184616193Y-119872000D01*
X184474867Y-119858081D01*
X184293525Y-119803071D01*
X184126407Y-119713744D01*
X183979922Y-119593528D01*
X183859706Y-119447043D01*
X183770379Y-119279925D01*
X183715369Y-119098583D01*
X183696796Y-118910000D01*
X183715369Y-118721417D01*
X183770379Y-118540075D01*
X183859706Y-118372957D01*
X183979922Y-118226472D01*
X184126407Y-118106256D01*
X184293525Y-118016929D01*
X184474867Y-117961919D01*
X184616193Y-117948000D01*
X185383807Y-117948000D01*
X185525133Y-117961919D01*
G37*
G36*
X92601333Y-115551919D02*
G01*
X92782675Y-115606929D01*
X92949793Y-115696256D01*
X93096278Y-115816472D01*
X93216494Y-115962957D01*
X93305821Y-116130075D01*
X93360831Y-116311417D01*
X93379404Y-116500000D01*
X93360831Y-116688583D01*
X93305821Y-116869925D01*
X93216494Y-117037043D01*
X93096278Y-117183528D01*
X92949793Y-117303744D01*
X92782675Y-117393071D01*
X92601333Y-117448081D01*
X92460007Y-117462000D01*
X91692393Y-117462000D01*
X91551067Y-117448081D01*
X91369725Y-117393071D01*
X91202607Y-117303744D01*
X91056122Y-117183528D01*
X90935906Y-117037043D01*
X90846579Y-116869925D01*
X90791569Y-116688583D01*
X90772996Y-116500000D01*
X90791569Y-116311417D01*
X90846579Y-116130075D01*
X90935906Y-115962957D01*
X91056122Y-115816472D01*
X91202607Y-115696256D01*
X91369725Y-115606929D01*
X91551067Y-115551919D01*
X91692393Y-115538000D01*
X92460007Y-115538000D01*
X92601333Y-115551919D01*
G37*
G36*
X185525133Y-115421919D02*
G01*
X185706475Y-115476929D01*
X185873593Y-115566256D01*
X186020078Y-115686472D01*
X186140294Y-115832957D01*
X186229621Y-116000075D01*
X186284631Y-116181417D01*
X186303204Y-116370000D01*
X186284631Y-116558583D01*
X186229621Y-116739925D01*
X186140294Y-116907043D01*
X186020078Y-117053528D01*
X185873593Y-117173744D01*
X185706475Y-117263071D01*
X185525133Y-117318081D01*
X185383807Y-117332000D01*
X184616193Y-117332000D01*
X184474867Y-117318081D01*
X184293525Y-117263071D01*
X184126407Y-117173744D01*
X183979922Y-117053528D01*
X183859706Y-116907043D01*
X183770379Y-116739925D01*
X183715369Y-116558583D01*
X183696796Y-116370000D01*
X183715369Y-116181417D01*
X183770379Y-116000075D01*
X183859706Y-115832957D01*
X183979922Y-115686472D01*
X184126407Y-115566256D01*
X184293525Y-115476929D01*
X184474867Y-115421919D01*
X184616193Y-115408000D01*
X185383807Y-115408000D01*
X185525133Y-115421919D01*
G37*
G36*
X100250000Y-115850000D02*
G01*
X96350000Y-115850000D01*
X96350000Y-113150000D01*
X100250000Y-113150000D01*
X100250000Y-115850000D01*
G37*
G36*
X105650000Y-115850000D02*
G01*
X101750000Y-115850000D01*
X101750000Y-113150000D01*
X105650000Y-113150000D01*
X105650000Y-115850000D01*
G37*
G36*
X93374750Y-114922000D02*
G01*
X90777650Y-114922000D01*
X90777650Y-112998000D01*
X93374750Y-112998000D01*
X93374750Y-114922000D01*
G37*
G36*
X185525133Y-112881919D02*
G01*
X185706475Y-112936929D01*
X185873593Y-113026256D01*
X186020078Y-113146472D01*
X186140294Y-113292957D01*
X186229621Y-113460075D01*
X186284631Y-113641417D01*
X186303204Y-113830000D01*
X186284631Y-114018583D01*
X186229621Y-114199925D01*
X186140294Y-114367043D01*
X186020078Y-114513528D01*
X185873593Y-114633744D01*
X185706475Y-114723071D01*
X185525133Y-114778081D01*
X185383807Y-114792000D01*
X184616193Y-114792000D01*
X184474867Y-114778081D01*
X184293525Y-114723071D01*
X184126407Y-114633744D01*
X183979922Y-114513528D01*
X183859706Y-114367043D01*
X183770379Y-114199925D01*
X183715369Y-114018583D01*
X183696796Y-113830000D01*
X183715369Y-113641417D01*
X183770379Y-113460075D01*
X183859706Y-113292957D01*
X183979922Y-113146472D01*
X184126407Y-113026256D01*
X184293525Y-112936929D01*
X184474867Y-112881919D01*
X184616193Y-112868000D01*
X185383807Y-112868000D01*
X185525133Y-112881919D01*
G37*
G36*
X185525133Y-110341919D02*
G01*
X185706475Y-110396929D01*
X185873593Y-110486256D01*
X186020078Y-110606472D01*
X186140294Y-110752957D01*
X186229621Y-110920075D01*
X186284631Y-111101417D01*
X186303204Y-111290000D01*
X186284631Y-111478583D01*
X186229621Y-111659925D01*
X186140294Y-111827043D01*
X186020078Y-111973528D01*
X185873593Y-112093744D01*
X185706475Y-112183071D01*
X185525133Y-112238081D01*
X185383807Y-112252000D01*
X184616193Y-112252000D01*
X184474867Y-112238081D01*
X184293525Y-112183071D01*
X184126407Y-112093744D01*
X183979922Y-111973528D01*
X183859706Y-111827043D01*
X183770379Y-111659925D01*
X183715369Y-111478583D01*
X183696796Y-111290000D01*
X183715369Y-111101417D01*
X183770379Y-110920075D01*
X183859706Y-110752957D01*
X183979922Y-110606472D01*
X184126407Y-110486256D01*
X184293525Y-110396929D01*
X184474867Y-110341919D01*
X184616193Y-110328000D01*
X185383807Y-110328000D01*
X185525133Y-110341919D01*
G37*
G36*
X168350000Y-111300000D02*
G01*
X166650000Y-111300000D01*
X166650000Y-109400000D01*
X168350000Y-109400000D01*
X168350000Y-111300000D01*
G37*
G36*
X150200000Y-111215000D02*
G01*
X148300000Y-111215000D01*
X148300000Y-110215000D01*
X150200000Y-110215000D01*
X150200000Y-111215000D01*
G37*
G36*
X159700000Y-111215000D02*
G01*
X157800000Y-111215000D01*
X157800000Y-110215000D01*
X159700000Y-110215000D01*
X159700000Y-111215000D01*
G37*
G36*
X141722350Y-111042000D02*
G01*
X139125250Y-111042000D01*
X139125250Y-109118000D01*
X141722350Y-109118000D01*
X141722350Y-111042000D01*
G37*
G36*
X92601333Y-108631919D02*
G01*
X92782675Y-108686929D01*
X92949793Y-108776256D01*
X93096278Y-108896472D01*
X93216494Y-109042957D01*
X93305821Y-109210075D01*
X93360831Y-109391417D01*
X93379404Y-109580000D01*
X93360831Y-109768583D01*
X93305821Y-109949925D01*
X93216494Y-110117043D01*
X93096278Y-110263528D01*
X92949793Y-110383744D01*
X92782675Y-110473071D01*
X92601333Y-110528081D01*
X92460007Y-110542000D01*
X91692393Y-110542000D01*
X91551067Y-110528081D01*
X91369725Y-110473071D01*
X91202607Y-110383744D01*
X91056122Y-110263528D01*
X90935906Y-110117043D01*
X90846579Y-109949925D01*
X90791569Y-109768583D01*
X90772996Y-109580000D01*
X90791569Y-109391417D01*
X90846579Y-109210075D01*
X90935906Y-109042957D01*
X91056122Y-108896472D01*
X91202607Y-108776256D01*
X91369725Y-108686929D01*
X91551067Y-108631919D01*
X91692393Y-108618000D01*
X92460007Y-108618000D01*
X92601333Y-108631919D01*
G37*
G36*
X159700000Y-109945000D02*
G01*
X157800000Y-109945000D01*
X157800000Y-108945000D01*
X159700000Y-108945000D01*
X159700000Y-109945000D01*
G37*
G36*
X150200000Y-109945000D02*
G01*
X148300000Y-109945000D01*
X148300000Y-108945000D01*
X150200000Y-108945000D01*
X150200000Y-109945000D01*
G37*
G36*
X185525133Y-107801919D02*
G01*
X185706475Y-107856929D01*
X185873593Y-107946256D01*
X186020078Y-108066472D01*
X186140294Y-108212957D01*
X186229621Y-108380075D01*
X186284631Y-108561417D01*
X186303204Y-108750000D01*
X186284631Y-108938583D01*
X186229621Y-109119925D01*
X186140294Y-109287043D01*
X186020078Y-109433528D01*
X185873593Y-109553744D01*
X185706475Y-109643071D01*
X185525133Y-109698081D01*
X185383807Y-109712000D01*
X184616193Y-109712000D01*
X184474867Y-109698081D01*
X184293525Y-109643071D01*
X184126407Y-109553744D01*
X183979922Y-109433528D01*
X183859706Y-109287043D01*
X183770379Y-109119925D01*
X183715369Y-108938583D01*
X183696796Y-108750000D01*
X183715369Y-108561417D01*
X183770379Y-108380075D01*
X183859706Y-108212957D01*
X183979922Y-108066472D01*
X184126407Y-107946256D01*
X184293525Y-107856929D01*
X184474867Y-107801919D01*
X184616193Y-107788000D01*
X185383807Y-107788000D01*
X185525133Y-107801919D01*
G37*
G36*
X150200000Y-108675000D02*
G01*
X148300000Y-108675000D01*
X148300000Y-107675000D01*
X150200000Y-107675000D01*
X150200000Y-108675000D01*
G37*
G36*
X159700000Y-108675000D02*
G01*
X157800000Y-108675000D01*
X157800000Y-107675000D01*
X159700000Y-107675000D01*
X159700000Y-108675000D01*
G37*
G36*
X168350000Y-108600000D02*
G01*
X166650000Y-108600000D01*
X166650000Y-106700000D01*
X168350000Y-106700000D01*
X168350000Y-108600000D01*
G37*
G36*
X140948933Y-106591919D02*
G01*
X141130275Y-106646929D01*
X141297393Y-106736256D01*
X141443878Y-106856472D01*
X141564094Y-107002957D01*
X141653421Y-107170075D01*
X141708431Y-107351417D01*
X141727004Y-107540000D01*
X141708431Y-107728583D01*
X141653421Y-107909925D01*
X141564094Y-108077043D01*
X141443878Y-108223528D01*
X141297393Y-108343744D01*
X141130275Y-108433071D01*
X140948933Y-108488081D01*
X140807607Y-108502000D01*
X140039993Y-108502000D01*
X139898667Y-108488081D01*
X139717325Y-108433071D01*
X139550207Y-108343744D01*
X139403722Y-108223528D01*
X139283506Y-108077043D01*
X139194179Y-107909925D01*
X139139169Y-107728583D01*
X139120596Y-107540000D01*
X139139169Y-107351417D01*
X139194179Y-107170075D01*
X139283506Y-107002957D01*
X139403722Y-106856472D01*
X139550207Y-106736256D01*
X139717325Y-106646929D01*
X139898667Y-106591919D01*
X140039993Y-106578000D01*
X140807607Y-106578000D01*
X140948933Y-106591919D01*
G37*
G36*
X162201780Y-108449300D02*
G01*
X160303180Y-108449300D01*
X160303180Y-106550700D01*
X162201780Y-106550700D01*
X162201780Y-108449300D01*
G37*
G36*
X165696820Y-108449300D02*
G01*
X163798220Y-108449300D01*
X163798220Y-106550700D01*
X165696820Y-106550700D01*
X165696820Y-108449300D01*
G37*
G36*
X92601333Y-106091919D02*
G01*
X92782675Y-106146929D01*
X92949793Y-106236256D01*
X93096278Y-106356472D01*
X93216494Y-106502957D01*
X93305821Y-106670075D01*
X93360831Y-106851417D01*
X93379404Y-107040000D01*
X93360831Y-107228583D01*
X93305821Y-107409925D01*
X93216494Y-107577043D01*
X93096278Y-107723528D01*
X92949793Y-107843744D01*
X92782675Y-107933071D01*
X92601333Y-107988081D01*
X92460007Y-108002000D01*
X91692393Y-108002000D01*
X91551067Y-107988081D01*
X91369725Y-107933071D01*
X91202607Y-107843744D01*
X91056122Y-107723528D01*
X90935906Y-107577043D01*
X90846579Y-107409925D01*
X90791569Y-107228583D01*
X90772996Y-107040000D01*
X90791569Y-106851417D01*
X90846579Y-106670075D01*
X90935906Y-106502957D01*
X91056122Y-106356472D01*
X91202607Y-106236256D01*
X91369725Y-106146929D01*
X91551067Y-106091919D01*
X91692393Y-106078000D01*
X92460007Y-106078000D01*
X92601333Y-106091919D01*
G37*
G36*
X159700000Y-107405000D02*
G01*
X157800000Y-107405000D01*
X157800000Y-106405000D01*
X159700000Y-106405000D01*
X159700000Y-107405000D01*
G37*
G36*
X150200000Y-107405000D02*
G01*
X148300000Y-107405000D01*
X148300000Y-106405000D01*
X150200000Y-106405000D01*
X150200000Y-107405000D01*
G37*
G36*
X185525133Y-105261919D02*
G01*
X185706475Y-105316929D01*
X185873593Y-105406256D01*
X186020078Y-105526472D01*
X186140294Y-105672957D01*
X186229621Y-105840075D01*
X186284631Y-106021417D01*
X186303204Y-106210000D01*
X186284631Y-106398583D01*
X186229621Y-106579925D01*
X186140294Y-106747043D01*
X186020078Y-106893528D01*
X185873593Y-107013744D01*
X185706475Y-107103071D01*
X185525133Y-107158081D01*
X185383807Y-107172000D01*
X184616193Y-107172000D01*
X184474867Y-107158081D01*
X184293525Y-107103071D01*
X184126407Y-107013744D01*
X183979922Y-106893528D01*
X183859706Y-106747043D01*
X183770379Y-106579925D01*
X183715369Y-106398583D01*
X183696796Y-106210000D01*
X183715369Y-106021417D01*
X183770379Y-105840075D01*
X183859706Y-105672957D01*
X183979922Y-105526472D01*
X184126407Y-105406256D01*
X184293525Y-105316929D01*
X184474867Y-105261919D01*
X184616193Y-105248000D01*
X185383807Y-105248000D01*
X185525133Y-105261919D01*
G37*
G36*
X150200000Y-106135000D02*
G01*
X148300000Y-106135000D01*
X148300000Y-105135000D01*
X150200000Y-105135000D01*
X150200000Y-106135000D01*
G37*
G36*
X159700000Y-106135000D02*
G01*
X157800000Y-106135000D01*
X157800000Y-105135000D01*
X159700000Y-105135000D01*
X159700000Y-106135000D01*
G37*
G36*
X140948933Y-104051919D02*
G01*
X141130275Y-104106929D01*
X141297393Y-104196256D01*
X141443878Y-104316472D01*
X141564094Y-104462957D01*
X141653421Y-104630075D01*
X141708431Y-104811417D01*
X141727004Y-105000000D01*
X141708431Y-105188583D01*
X141653421Y-105369925D01*
X141564094Y-105537043D01*
X141443878Y-105683528D01*
X141297393Y-105803744D01*
X141130275Y-105893071D01*
X140948933Y-105948081D01*
X140807607Y-105962000D01*
X140039993Y-105962000D01*
X139898667Y-105948081D01*
X139717325Y-105893071D01*
X139550207Y-105803744D01*
X139403722Y-105683528D01*
X139283506Y-105537043D01*
X139194179Y-105369925D01*
X139139169Y-105188583D01*
X139120596Y-105000000D01*
X139139169Y-104811417D01*
X139194179Y-104630075D01*
X139283506Y-104462957D01*
X139403722Y-104316472D01*
X139550207Y-104196256D01*
X139717325Y-104106929D01*
X139898667Y-104051919D01*
X140039993Y-104038000D01*
X140807607Y-104038000D01*
X140948933Y-104051919D01*
G37*
G36*
X92601333Y-103551919D02*
G01*
X92782675Y-103606929D01*
X92949793Y-103696256D01*
X93096278Y-103816472D01*
X93216494Y-103962957D01*
X93305821Y-104130075D01*
X93360831Y-104311417D01*
X93379404Y-104500000D01*
X93360831Y-104688583D01*
X93305821Y-104869925D01*
X93216494Y-105037043D01*
X93096278Y-105183528D01*
X92949793Y-105303744D01*
X92782675Y-105393071D01*
X92601333Y-105448081D01*
X92460007Y-105462000D01*
X91692393Y-105462000D01*
X91551067Y-105448081D01*
X91369725Y-105393071D01*
X91202607Y-105303744D01*
X91056122Y-105183528D01*
X90935906Y-105037043D01*
X90846579Y-104869925D01*
X90791569Y-104688583D01*
X90772996Y-104500000D01*
X90791569Y-104311417D01*
X90846579Y-104130075D01*
X90935906Y-103962957D01*
X91056122Y-103816472D01*
X91202607Y-103696256D01*
X91369725Y-103606929D01*
X91551067Y-103551919D01*
X91692393Y-103538000D01*
X92460007Y-103538000D01*
X92601333Y-103551919D01*
G37*
G36*
X150200000Y-104865000D02*
G01*
X148300000Y-104865000D01*
X148300000Y-103865000D01*
X150200000Y-103865000D01*
X150200000Y-104865000D01*
G37*
G36*
X159700000Y-104865000D02*
G01*
X157800000Y-104865000D01*
X157800000Y-103865000D01*
X159700000Y-103865000D01*
X159700000Y-104865000D01*
G37*
G36*
X185525133Y-102721919D02*
G01*
X185706475Y-102776929D01*
X185873593Y-102866256D01*
X186020078Y-102986472D01*
X186140294Y-103132957D01*
X186229621Y-103300075D01*
X186284631Y-103481417D01*
X186303204Y-103670000D01*
X186284631Y-103858583D01*
X186229621Y-104039925D01*
X186140294Y-104207043D01*
X186020078Y-104353528D01*
X185873593Y-104473744D01*
X185706475Y-104563071D01*
X185525133Y-104618081D01*
X185383807Y-104632000D01*
X184616193Y-104632000D01*
X184474867Y-104618081D01*
X184293525Y-104563071D01*
X184126407Y-104473744D01*
X183979922Y-104353528D01*
X183859706Y-104207043D01*
X183770379Y-104039925D01*
X183715369Y-103858583D01*
X183696796Y-103670000D01*
X183715369Y-103481417D01*
X183770379Y-103300075D01*
X183859706Y-103132957D01*
X183979922Y-102986472D01*
X184126407Y-102866256D01*
X184293525Y-102776929D01*
X184474867Y-102721919D01*
X184616193Y-102708000D01*
X185383807Y-102708000D01*
X185525133Y-102721919D01*
G37*
G36*
X150200000Y-103595000D02*
G01*
X148300000Y-103595000D01*
X148300000Y-102595000D01*
X150200000Y-102595000D01*
X150200000Y-103595000D01*
G37*
G36*
X159700000Y-103595000D02*
G01*
X157800000Y-103595000D01*
X157800000Y-102595000D01*
X159700000Y-102595000D01*
X159700000Y-103595000D01*
G37*
G36*
X140948933Y-101511919D02*
G01*
X141130275Y-101566929D01*
X141297393Y-101656256D01*
X141443878Y-101776472D01*
X141564094Y-101922957D01*
X141653421Y-102090075D01*
X141708431Y-102271417D01*
X141727004Y-102460000D01*
X141708431Y-102648583D01*
X141653421Y-102829925D01*
X141564094Y-102997043D01*
X141443878Y-103143528D01*
X141297393Y-103263744D01*
X141130275Y-103353071D01*
X140948933Y-103408081D01*
X140807607Y-103422000D01*
X140039993Y-103422000D01*
X139898667Y-103408081D01*
X139717325Y-103353071D01*
X139550207Y-103263744D01*
X139403722Y-103143528D01*
X139283506Y-102997043D01*
X139194179Y-102829925D01*
X139139169Y-102648583D01*
X139120596Y-102460000D01*
X139139169Y-102271417D01*
X139194179Y-102090075D01*
X139283506Y-101922957D01*
X139403722Y-101776472D01*
X139550207Y-101656256D01*
X139717325Y-101566929D01*
X139898667Y-101511919D01*
X140039993Y-101498000D01*
X140807607Y-101498000D01*
X140948933Y-101511919D01*
G37*
G36*
X92601333Y-101011919D02*
G01*
X92782675Y-101066929D01*
X92949793Y-101156256D01*
X93096278Y-101276472D01*
X93216494Y-101422957D01*
X93305821Y-101590075D01*
X93360831Y-101771417D01*
X93379404Y-101960000D01*
X93360831Y-102148583D01*
X93305821Y-102329925D01*
X93216494Y-102497043D01*
X93096278Y-102643528D01*
X92949793Y-102763744D01*
X92782675Y-102853071D01*
X92601333Y-102908081D01*
X92460007Y-102922000D01*
X91692393Y-102922000D01*
X91551067Y-102908081D01*
X91369725Y-102853071D01*
X91202607Y-102763744D01*
X91056122Y-102643528D01*
X90935906Y-102497043D01*
X90846579Y-102329925D01*
X90791569Y-102148583D01*
X90772996Y-101960000D01*
X90791569Y-101771417D01*
X90846579Y-101590075D01*
X90935906Y-101422957D01*
X91056122Y-101276472D01*
X91202607Y-101156256D01*
X91369725Y-101066929D01*
X91551067Y-101011919D01*
X91692393Y-100998000D01*
X92460007Y-100998000D01*
X92601333Y-101011919D01*
G37*
G36*
X159700000Y-102325000D02*
G01*
X157800000Y-102325000D01*
X157800000Y-101325000D01*
X159700000Y-101325000D01*
X159700000Y-102325000D01*
G37*
G36*
X150200000Y-102325000D02*
G01*
X148300000Y-102325000D01*
X148300000Y-101325000D01*
X150200000Y-101325000D01*
X150200000Y-102325000D01*
G37*
G36*
X185525133Y-100181919D02*
G01*
X185706475Y-100236929D01*
X185873593Y-100326256D01*
X186020078Y-100446472D01*
X186140294Y-100592957D01*
X186229621Y-100760075D01*
X186284631Y-100941417D01*
X186303204Y-101130000D01*
X186284631Y-101318583D01*
X186229621Y-101499925D01*
X186140294Y-101667043D01*
X186020078Y-101813528D01*
X185873593Y-101933744D01*
X185706475Y-102023071D01*
X185525133Y-102078081D01*
X185383807Y-102092000D01*
X184616193Y-102092000D01*
X184474867Y-102078081D01*
X184293525Y-102023071D01*
X184126407Y-101933744D01*
X183979922Y-101813528D01*
X183859706Y-101667043D01*
X183770379Y-101499925D01*
X183715369Y-101318583D01*
X183696796Y-101130000D01*
X183715369Y-100941417D01*
X183770379Y-100760075D01*
X183859706Y-100592957D01*
X183979922Y-100446472D01*
X184126407Y-100326256D01*
X184293525Y-100236929D01*
X184474867Y-100181919D01*
X184616193Y-100168000D01*
X185383807Y-100168000D01*
X185525133Y-100181919D01*
G37*
G36*
X108600000Y-101800000D02*
G01*
X106900000Y-101800000D01*
X106900000Y-99900000D01*
X108600000Y-99900000D01*
X108600000Y-101800000D01*
G37*
G36*
X159700000Y-101055000D02*
G01*
X157800000Y-101055000D01*
X157800000Y-100055000D01*
X159700000Y-100055000D01*
X159700000Y-101055000D01*
G37*
G36*
X150200000Y-101055000D02*
G01*
X148300000Y-101055000D01*
X148300000Y-100055000D01*
X150200000Y-100055000D01*
X150200000Y-101055000D01*
G37*
G36*
X140948933Y-98971919D02*
G01*
X141130275Y-99026929D01*
X141297393Y-99116256D01*
X141443878Y-99236472D01*
X141564094Y-99382957D01*
X141653421Y-99550075D01*
X141708431Y-99731417D01*
X141727004Y-99920000D01*
X141708431Y-100108583D01*
X141653421Y-100289925D01*
X141564094Y-100457043D01*
X141443878Y-100603528D01*
X141297393Y-100723744D01*
X141130275Y-100813071D01*
X140948933Y-100868081D01*
X140807607Y-100882000D01*
X140039993Y-100882000D01*
X139898667Y-100868081D01*
X139717325Y-100813071D01*
X139550207Y-100723744D01*
X139403722Y-100603528D01*
X139283506Y-100457043D01*
X139194179Y-100289925D01*
X139139169Y-100108583D01*
X139120596Y-99920000D01*
X139139169Y-99731417D01*
X139194179Y-99550075D01*
X139283506Y-99382957D01*
X139403722Y-99236472D01*
X139550207Y-99116256D01*
X139717325Y-99026929D01*
X139898667Y-98971919D01*
X140039993Y-98958000D01*
X140807607Y-98958000D01*
X140948933Y-98971919D01*
G37*
G36*
X93374750Y-100382000D02*
G01*
X90777650Y-100382000D01*
X90777650Y-98458000D01*
X93374750Y-98458000D01*
X93374750Y-100382000D01*
G37*
G36*
X150200000Y-99785000D02*
G01*
X148300000Y-99785000D01*
X148300000Y-98785000D01*
X150200000Y-98785000D01*
X150200000Y-99785000D01*
G37*
G36*
X159700000Y-99785000D02*
G01*
X157800000Y-99785000D01*
X157800000Y-98785000D01*
X159700000Y-98785000D01*
X159700000Y-99785000D01*
G37*
G36*
X185525133Y-97641919D02*
G01*
X185706475Y-97696929D01*
X185873593Y-97786256D01*
X186020078Y-97906472D01*
X186140294Y-98052957D01*
X186229621Y-98220075D01*
X186284631Y-98401417D01*
X186303204Y-98590000D01*
X186284631Y-98778583D01*
X186229621Y-98959925D01*
X186140294Y-99127043D01*
X186020078Y-99273528D01*
X185873593Y-99393744D01*
X185706475Y-99483071D01*
X185525133Y-99538081D01*
X185383807Y-99552000D01*
X184616193Y-99552000D01*
X184474867Y-99538081D01*
X184293525Y-99483071D01*
X184126407Y-99393744D01*
X183979922Y-99273528D01*
X183859706Y-99127043D01*
X183770379Y-98959925D01*
X183715369Y-98778583D01*
X183696796Y-98590000D01*
X183715369Y-98401417D01*
X183770379Y-98220075D01*
X183859706Y-98052957D01*
X183979922Y-97906472D01*
X184126407Y-97786256D01*
X184293525Y-97696929D01*
X184474867Y-97641919D01*
X184616193Y-97628000D01*
X185383807Y-97628000D01*
X185525133Y-97641919D01*
G37*
G36*
X112250000Y-99310000D02*
G01*
X110350000Y-99310000D01*
X110350000Y-98310000D01*
X112250000Y-98310000D01*
X112250000Y-99310000D01*
G37*
G36*
X117650000Y-99310000D02*
G01*
X115750000Y-99310000D01*
X115750000Y-98310000D01*
X117650000Y-98310000D01*
X117650000Y-99310000D01*
G37*
G36*
X108600000Y-99100000D02*
G01*
X106900000Y-99100000D01*
X106900000Y-97200000D01*
X108600000Y-97200000D01*
X108600000Y-99100000D01*
G37*
G36*
X112250000Y-98040000D02*
G01*
X110350000Y-98040000D01*
X110350000Y-97040000D01*
X112250000Y-97040000D01*
X112250000Y-98040000D01*
G37*
G36*
X117650000Y-98040000D02*
G01*
X115750000Y-98040000D01*
X115750000Y-97040000D01*
X117650000Y-97040000D01*
X117650000Y-98040000D01*
G37*
G36*
X150200000Y-97825000D02*
G01*
X148300000Y-97825000D01*
X148300000Y-96175000D01*
X150200000Y-96175000D01*
X150200000Y-97825000D01*
G37*
G36*
X152700000Y-97825000D02*
G01*
X150800000Y-97825000D01*
X150800000Y-96175000D01*
X152700000Y-96175000D01*
X152700000Y-97825000D01*
G37*
G36*
X185525133Y-95101919D02*
G01*
X185706475Y-95156929D01*
X185873593Y-95246256D01*
X186020078Y-95366472D01*
X186140294Y-95512957D01*
X186229621Y-95680075D01*
X186284631Y-95861417D01*
X186303204Y-96050000D01*
X186284631Y-96238583D01*
X186229621Y-96419925D01*
X186140294Y-96587043D01*
X186020078Y-96733528D01*
X185873593Y-96853744D01*
X185706475Y-96943071D01*
X185525133Y-96998081D01*
X185383807Y-97012000D01*
X184616193Y-97012000D01*
X184474867Y-96998081D01*
X184293525Y-96943071D01*
X184126407Y-96853744D01*
X183979922Y-96733528D01*
X183859706Y-96587043D01*
X183770379Y-96419925D01*
X183715369Y-96238583D01*
X183696796Y-96050000D01*
X183715369Y-95861417D01*
X183770379Y-95680075D01*
X183859706Y-95512957D01*
X183979922Y-95366472D01*
X184126407Y-95246256D01*
X184293525Y-95156929D01*
X184474867Y-95101919D01*
X184616193Y-95088000D01*
X185383807Y-95088000D01*
X185525133Y-95101919D01*
G37*
G36*
X92601333Y-94901919D02*
G01*
X92782675Y-94956929D01*
X92949793Y-95046256D01*
X93096278Y-95166472D01*
X93216494Y-95312957D01*
X93305821Y-95480075D01*
X93360831Y-95661417D01*
X93379404Y-95850000D01*
X93360831Y-96038583D01*
X93305821Y-96219925D01*
X93216494Y-96387043D01*
X93096278Y-96533528D01*
X92949793Y-96653744D01*
X92782675Y-96743071D01*
X92601333Y-96798081D01*
X92460007Y-96812000D01*
X91692393Y-96812000D01*
X91551067Y-96798081D01*
X91369725Y-96743071D01*
X91202607Y-96653744D01*
X91056122Y-96533528D01*
X90935906Y-96387043D01*
X90846579Y-96219925D01*
X90791569Y-96038583D01*
X90772996Y-95850000D01*
X90791569Y-95661417D01*
X90846579Y-95480075D01*
X90935906Y-95312957D01*
X91056122Y-95166472D01*
X91202607Y-95046256D01*
X91369725Y-94956929D01*
X91551067Y-94901919D01*
X91692393Y-94888000D01*
X92460007Y-94888000D01*
X92601333Y-94901919D01*
G37*
G36*
X117650000Y-96770000D02*
G01*
X115750000Y-96770000D01*
X115750000Y-95770000D01*
X117650000Y-95770000D01*
X117650000Y-96770000D01*
G37*
G36*
X112250000Y-96770000D02*
G01*
X110350000Y-96770000D01*
X110350000Y-95770000D01*
X112250000Y-95770000D01*
X112250000Y-96770000D01*
G37*
G36*
X112250000Y-95500000D02*
G01*
X110350000Y-95500000D01*
X110350000Y-94500000D01*
X112250000Y-94500000D01*
X112250000Y-95500000D01*
G37*
G36*
X117650000Y-95500000D02*
G01*
X115750000Y-95500000D01*
X115750000Y-94500000D01*
X117650000Y-94500000D01*
X117650000Y-95500000D01*
G37*
G36*
X185525133Y-92561919D02*
G01*
X185706475Y-92616929D01*
X185873593Y-92706256D01*
X186020078Y-92826472D01*
X186140294Y-92972957D01*
X186229621Y-93140075D01*
X186284631Y-93321417D01*
X186303204Y-93510000D01*
X186284631Y-93698583D01*
X186229621Y-93879925D01*
X186140294Y-94047043D01*
X186020078Y-94193528D01*
X185873593Y-94313744D01*
X185706475Y-94403071D01*
X185525133Y-94458081D01*
X185383807Y-94472000D01*
X184616193Y-94472000D01*
X184474867Y-94458081D01*
X184293525Y-94403071D01*
X184126407Y-94313744D01*
X183979922Y-94193528D01*
X183859706Y-94047043D01*
X183770379Y-93879925D01*
X183715369Y-93698583D01*
X183696796Y-93510000D01*
X183715369Y-93321417D01*
X183770379Y-93140075D01*
X183859706Y-92972957D01*
X183979922Y-92826472D01*
X184126407Y-92706256D01*
X184293525Y-92616929D01*
X184474867Y-92561919D01*
X184616193Y-92548000D01*
X185383807Y-92548000D01*
X185525133Y-92561919D01*
G37*
G36*
X92601333Y-92361919D02*
G01*
X92782675Y-92416929D01*
X92949793Y-92506256D01*
X93096278Y-92626472D01*
X93216494Y-92772957D01*
X93305821Y-92940075D01*
X93360831Y-93121417D01*
X93379404Y-93310000D01*
X93360831Y-93498583D01*
X93305821Y-93679925D01*
X93216494Y-93847043D01*
X93096278Y-93993528D01*
X92949793Y-94113744D01*
X92782675Y-94203071D01*
X92601333Y-94258081D01*
X92460007Y-94272000D01*
X91692393Y-94272000D01*
X91551067Y-94258081D01*
X91369725Y-94203071D01*
X91202607Y-94113744D01*
X91056122Y-93993528D01*
X90935906Y-93847043D01*
X90846579Y-93679925D01*
X90791569Y-93498583D01*
X90772996Y-93310000D01*
X90791569Y-93121417D01*
X90846579Y-92940075D01*
X90935906Y-92772957D01*
X91056122Y-92626472D01*
X91202607Y-92506256D01*
X91369725Y-92416929D01*
X91551067Y-92361919D01*
X91692393Y-92348000D01*
X92460007Y-92348000D01*
X92601333Y-92361919D01*
G37*
G36*
X112250000Y-94230000D02*
G01*
X110350000Y-94230000D01*
X110350000Y-93230000D01*
X112250000Y-93230000D01*
X112250000Y-94230000D01*
G37*
G36*
X117650000Y-94230000D02*
G01*
X115750000Y-94230000D01*
X115750000Y-93230000D01*
X117650000Y-93230000D01*
X117650000Y-94230000D01*
G37*
G36*
X112250000Y-92960000D02*
G01*
X110350000Y-92960000D01*
X110350000Y-91960000D01*
X112250000Y-91960000D01*
X112250000Y-92960000D01*
G37*
G36*
X117650000Y-92960000D02*
G01*
X115750000Y-92960000D01*
X115750000Y-91960000D01*
X117650000Y-91960000D01*
X117650000Y-92960000D01*
G37*
G36*
X92601333Y-89821919D02*
G01*
X92782675Y-89876929D01*
X92949793Y-89966256D01*
X93096278Y-90086472D01*
X93216494Y-90232957D01*
X93305821Y-90400075D01*
X93360831Y-90581417D01*
X93379404Y-90770000D01*
X93360831Y-90958583D01*
X93305821Y-91139925D01*
X93216494Y-91307043D01*
X93096278Y-91453528D01*
X92949793Y-91573744D01*
X92782675Y-91663071D01*
X92601333Y-91718081D01*
X92460007Y-91732000D01*
X91692393Y-91732000D01*
X91551067Y-91718081D01*
X91369725Y-91663071D01*
X91202607Y-91573744D01*
X91056122Y-91453528D01*
X90935906Y-91307043D01*
X90846579Y-91139925D01*
X90791569Y-90958583D01*
X90772996Y-90770000D01*
X90791569Y-90581417D01*
X90846579Y-90400075D01*
X90935906Y-90232957D01*
X91056122Y-90086472D01*
X91202607Y-89966256D01*
X91369725Y-89876929D01*
X91551067Y-89821919D01*
X91692393Y-89808000D01*
X92460007Y-89808000D01*
X92601333Y-89821919D01*
G37*
G36*
X112250000Y-91690000D02*
G01*
X110350000Y-91690000D01*
X110350000Y-90690000D01*
X112250000Y-90690000D01*
X112250000Y-91690000D01*
G37*
G36*
X117650000Y-91690000D02*
G01*
X115750000Y-91690000D01*
X115750000Y-90690000D01*
X117650000Y-90690000D01*
X117650000Y-91690000D01*
G37*
G36*
X186222350Y-89892000D02*
G01*
X183625250Y-89892000D01*
X183625250Y-87968000D01*
X186222350Y-87968000D01*
X186222350Y-89892000D01*
G37*
G36*
X92601333Y-87281919D02*
G01*
X92782675Y-87336929D01*
X92949793Y-87426256D01*
X93096278Y-87546472D01*
X93216494Y-87692957D01*
X93305821Y-87860075D01*
X93360831Y-88041417D01*
X93379404Y-88230000D01*
X93360831Y-88418583D01*
X93305821Y-88599925D01*
X93216494Y-88767043D01*
X93096278Y-88913528D01*
X92949793Y-89033744D01*
X92782675Y-89123071D01*
X92601333Y-89178081D01*
X92460007Y-89192000D01*
X91692393Y-89192000D01*
X91551067Y-89178081D01*
X91369725Y-89123071D01*
X91202607Y-89033744D01*
X91056122Y-88913528D01*
X90935906Y-88767043D01*
X90846579Y-88599925D01*
X90791569Y-88418583D01*
X90772996Y-88230000D01*
X90791569Y-88041417D01*
X90846579Y-87860075D01*
X90935906Y-87692957D01*
X91056122Y-87546472D01*
X91202607Y-87426256D01*
X91369725Y-87336929D01*
X91551067Y-87281919D01*
X91692393Y-87268000D01*
X92460007Y-87268000D01*
X92601333Y-87281919D01*
G37*
G36*
X115300000Y-88850000D02*
G01*
X113400000Y-88850000D01*
X113400000Y-87150000D01*
X115300000Y-87150000D01*
X115300000Y-88850000D01*
G37*
G36*
X112600000Y-88850000D02*
G01*
X110700000Y-88850000D01*
X110700000Y-87150000D01*
X112600000Y-87150000D01*
X112600000Y-88850000D01*
G37*
G36*
X118200000Y-88825000D02*
G01*
X116300000Y-88825000D01*
X116300000Y-87175000D01*
X118200000Y-87175000D01*
X118200000Y-88825000D01*
G37*
G36*
X120700000Y-88825000D02*
G01*
X118800000Y-88825000D01*
X118800000Y-87175000D01*
X120700000Y-87175000D01*
X120700000Y-88825000D01*
G37*
G36*
X185448933Y-85441919D02*
G01*
X185630275Y-85496929D01*
X185797393Y-85586256D01*
X185943878Y-85706472D01*
X186064094Y-85852957D01*
X186153421Y-86020075D01*
X186208431Y-86201417D01*
X186227004Y-86390000D01*
X186208431Y-86578583D01*
X186153421Y-86759925D01*
X186064094Y-86927043D01*
X185943878Y-87073528D01*
X185797393Y-87193744D01*
X185630275Y-87283071D01*
X185448933Y-87338081D01*
X185307607Y-87352000D01*
X184539993Y-87352000D01*
X184398667Y-87338081D01*
X184217325Y-87283071D01*
X184050207Y-87193744D01*
X183903722Y-87073528D01*
X183783506Y-86927043D01*
X183694179Y-86759925D01*
X183639169Y-86578583D01*
X183620596Y-86390000D01*
X183639169Y-86201417D01*
X183694179Y-86020075D01*
X183783506Y-85852957D01*
X183903722Y-85706472D01*
X184050207Y-85586256D01*
X184217325Y-85496929D01*
X184398667Y-85441919D01*
X184539993Y-85428000D01*
X185307607Y-85428000D01*
X185448933Y-85441919D01*
G37*
G36*
X92601333Y-84741919D02*
G01*
X92782675Y-84796929D01*
X92949793Y-84886256D01*
X93096278Y-85006472D01*
X93216494Y-85152957D01*
X93305821Y-85320075D01*
X93360831Y-85501417D01*
X93379404Y-85690000D01*
X93360831Y-85878583D01*
X93305821Y-86059925D01*
X93216494Y-86227043D01*
X93096278Y-86373528D01*
X92949793Y-86493744D01*
X92782675Y-86583071D01*
X92601333Y-86638081D01*
X92460007Y-86652000D01*
X91692393Y-86652000D01*
X91551067Y-86638081D01*
X91369725Y-86583071D01*
X91202607Y-86493744D01*
X91056122Y-86373528D01*
X90935906Y-86227043D01*
X90846579Y-86059925D01*
X90791569Y-85878583D01*
X90772996Y-85690000D01*
X90791569Y-85501417D01*
X90846579Y-85320075D01*
X90935906Y-85152957D01*
X91056122Y-85006472D01*
X91202607Y-84886256D01*
X91369725Y-84796929D01*
X91551067Y-84741919D01*
X91692393Y-84728000D01*
X92460007Y-84728000D01*
X92601333Y-84741919D01*
G37*
G36*
X118100000Y-86350000D02*
G01*
X116200000Y-86350000D01*
X116200000Y-84650000D01*
X118100000Y-84650000D01*
X118100000Y-86350000D01*
G37*
G36*
X120800000Y-86350000D02*
G01*
X118900000Y-86350000D01*
X118900000Y-84650000D01*
X120800000Y-84650000D01*
X120800000Y-86350000D01*
G37*
G36*
X150200000Y-86215000D02*
G01*
X148300000Y-86215000D01*
X148300000Y-85215000D01*
X150200000Y-85215000D01*
X150200000Y-86215000D01*
G37*
G36*
X159700000Y-86215000D02*
G01*
X157800000Y-86215000D01*
X157800000Y-85215000D01*
X159700000Y-85215000D01*
X159700000Y-86215000D01*
G37*
G36*
X150200000Y-84945000D02*
G01*
X148300000Y-84945000D01*
X148300000Y-83945000D01*
X150200000Y-83945000D01*
X150200000Y-84945000D01*
G37*
G36*
X159700000Y-84945000D02*
G01*
X157800000Y-84945000D01*
X157800000Y-83945000D01*
X159700000Y-83945000D01*
X159700000Y-84945000D01*
G37*
G36*
X185448933Y-82901919D02*
G01*
X185630275Y-82956929D01*
X185797393Y-83046256D01*
X185943878Y-83166472D01*
X186064094Y-83312957D01*
X186153421Y-83480075D01*
X186208431Y-83661417D01*
X186227004Y-83850000D01*
X186208431Y-84038583D01*
X186153421Y-84219925D01*
X186064094Y-84387043D01*
X185943878Y-84533528D01*
X185797393Y-84653744D01*
X185630275Y-84743071D01*
X185448933Y-84798081D01*
X185307607Y-84812000D01*
X184539993Y-84812000D01*
X184398667Y-84798081D01*
X184217325Y-84743071D01*
X184050207Y-84653744D01*
X183903722Y-84533528D01*
X183783506Y-84387043D01*
X183694179Y-84219925D01*
X183639169Y-84038583D01*
X183620596Y-83850000D01*
X183639169Y-83661417D01*
X183694179Y-83480075D01*
X183783506Y-83312957D01*
X183903722Y-83166472D01*
X184050207Y-83046256D01*
X184217325Y-82956929D01*
X184398667Y-82901919D01*
X184539993Y-82888000D01*
X185307607Y-82888000D01*
X185448933Y-82901919D01*
G37*
G36*
X93374750Y-84112000D02*
G01*
X90777650Y-84112000D01*
X90777650Y-82188000D01*
X93374750Y-82188000D01*
X93374750Y-84112000D01*
G37*
G36*
X159700000Y-83675000D02*
G01*
X157800000Y-83675000D01*
X157800000Y-82675000D01*
X159700000Y-82675000D01*
X159700000Y-83675000D01*
G37*
G36*
X150200000Y-83675000D02*
G01*
X148300000Y-83675000D01*
X148300000Y-82675000D01*
X150200000Y-82675000D01*
X150200000Y-83675000D01*
G37*
G36*
X159700000Y-82405000D02*
G01*
X157800000Y-82405000D01*
X157800000Y-81405000D01*
X159700000Y-81405000D01*
X159700000Y-82405000D01*
G37*
G36*
X150200000Y-82405000D02*
G01*
X148300000Y-82405000D01*
X148300000Y-81405000D01*
X150200000Y-81405000D01*
X150200000Y-82405000D01*
G37*
G36*
X141350000Y-82300000D02*
G01*
X139650000Y-82300000D01*
X139650000Y-80400000D01*
X141350000Y-80400000D01*
X141350000Y-82300000D01*
G37*
G36*
X185448933Y-80361919D02*
G01*
X185630275Y-80416929D01*
X185797393Y-80506256D01*
X185943878Y-80626472D01*
X186064094Y-80772957D01*
X186153421Y-80940075D01*
X186208431Y-81121417D01*
X186227004Y-81310000D01*
X186208431Y-81498583D01*
X186153421Y-81679925D01*
X186064094Y-81847043D01*
X185943878Y-81993528D01*
X185797393Y-82113744D01*
X185630275Y-82203071D01*
X185448933Y-82258081D01*
X185307607Y-82272000D01*
X184539993Y-82272000D01*
X184398667Y-82258081D01*
X184217325Y-82203071D01*
X184050207Y-82113744D01*
X183903722Y-81993528D01*
X183783506Y-81847043D01*
X183694179Y-81679925D01*
X183639169Y-81498583D01*
X183620596Y-81310000D01*
X183639169Y-81121417D01*
X183694179Y-80940075D01*
X183783506Y-80772957D01*
X183903722Y-80626472D01*
X184050207Y-80506256D01*
X184217325Y-80416929D01*
X184398667Y-80361919D01*
X184539993Y-80348000D01*
X185307607Y-80348000D01*
X185448933Y-80361919D01*
G37*
G36*
X150200000Y-81135000D02*
G01*
X148300000Y-81135000D01*
X148300000Y-80135000D01*
X150200000Y-80135000D01*
X150200000Y-81135000D01*
G37*
G36*
X159700000Y-81135000D02*
G01*
X157800000Y-81135000D01*
X157800000Y-80135000D01*
X159700000Y-80135000D01*
X159700000Y-81135000D01*
G37*
G36*
X92601333Y-78981919D02*
G01*
X92782675Y-79036929D01*
X92949793Y-79126256D01*
X93096278Y-79246472D01*
X93216494Y-79392957D01*
X93305821Y-79560075D01*
X93305822Y-79560078D01*
X93316061Y-79593832D01*
X93360831Y-79741417D01*
X93379404Y-79930000D01*
X93360831Y-80118583D01*
X93305821Y-80299925D01*
X93216494Y-80467043D01*
X93096278Y-80613528D01*
X92949793Y-80733744D01*
X92782675Y-80823071D01*
X92601333Y-80878081D01*
X92460007Y-80892000D01*
X91692393Y-80892000D01*
X91551067Y-80878081D01*
X91369725Y-80823071D01*
X91202607Y-80733744D01*
X91056122Y-80613528D01*
X90935906Y-80467043D01*
X90846579Y-80299925D01*
X90791569Y-80118583D01*
X90772996Y-79930000D01*
X90791569Y-79741417D01*
X90836339Y-79593832D01*
X90846578Y-79560078D01*
X90846579Y-79560075D01*
X90935906Y-79392957D01*
X91056122Y-79246472D01*
X91202607Y-79126256D01*
X91369725Y-79036929D01*
X91551067Y-78981919D01*
X91692393Y-78968000D01*
X92460007Y-78968000D01*
X92601333Y-78981919D01*
G37*
G36*
X159700000Y-79865000D02*
G01*
X157800000Y-79865000D01*
X157800000Y-78865000D01*
X159700000Y-78865000D01*
X159700000Y-79865000D01*
G37*
G36*
X150200000Y-79865000D02*
G01*
X148300000Y-79865000D01*
X148300000Y-78865000D01*
X150200000Y-78865000D01*
X150200000Y-79865000D01*
G37*
G36*
X185448933Y-77821919D02*
G01*
X185630275Y-77876929D01*
X185797393Y-77966256D01*
X185943878Y-78086472D01*
X186064094Y-78232957D01*
X186153421Y-78400075D01*
X186208431Y-78581417D01*
X186227004Y-78770000D01*
X186208431Y-78958583D01*
X186184665Y-79036928D01*
X186157568Y-79126256D01*
X186153421Y-79139925D01*
X186064094Y-79307043D01*
X185943878Y-79453528D01*
X185797393Y-79573744D01*
X185630275Y-79663071D01*
X185448933Y-79718081D01*
X185307607Y-79732000D01*
X184539993Y-79732000D01*
X184398667Y-79718081D01*
X184217325Y-79663071D01*
X184050207Y-79573744D01*
X183903722Y-79453528D01*
X183783506Y-79307043D01*
X183694179Y-79139925D01*
X183690033Y-79126256D01*
X183662935Y-79036928D01*
X183639169Y-78958583D01*
X183620596Y-78770000D01*
X183639169Y-78581417D01*
X183694179Y-78400075D01*
X183783506Y-78232957D01*
X183903722Y-78086472D01*
X184050207Y-77966256D01*
X184217325Y-77876929D01*
X184398667Y-77821919D01*
X184539993Y-77808000D01*
X185307607Y-77808000D01*
X185448933Y-77821919D01*
G37*
G36*
X141350000Y-79600000D02*
G01*
X139650000Y-79600000D01*
X139650000Y-77700000D01*
X141350000Y-77700000D01*
X141350000Y-79600000D01*
G37*
G36*
X143701780Y-79449300D02*
G01*
X141803180Y-79449300D01*
X141803180Y-77550700D01*
X143701780Y-77550700D01*
X143701780Y-79449300D01*
G37*
G36*
X147196820Y-79449300D02*
G01*
X145298220Y-79449300D01*
X145298220Y-77550700D01*
X147196820Y-77550700D01*
X147196820Y-79449300D01*
G37*
G36*
X159700000Y-78595000D02*
G01*
X157800000Y-78595000D01*
X157800000Y-77595000D01*
X159700000Y-77595000D01*
X159700000Y-78595000D01*
G37*
G36*
X150200000Y-78595000D02*
G01*
X148300000Y-78595000D01*
X148300000Y-77595000D01*
X150200000Y-77595000D01*
X150200000Y-78595000D01*
G37*
G36*
X92601333Y-76441919D02*
G01*
X92782675Y-76496929D01*
X92949793Y-76586256D01*
X93096278Y-76706472D01*
X93216494Y-76852957D01*
X93305821Y-77020075D01*
X93305822Y-77020078D01*
X93316061Y-77053832D01*
X93360831Y-77201417D01*
X93379404Y-77390000D01*
X93360831Y-77578583D01*
X93305821Y-77759925D01*
X93216494Y-77927043D01*
X93096278Y-78073528D01*
X92949793Y-78193744D01*
X92782675Y-78283071D01*
X92601333Y-78338081D01*
X92460007Y-78352000D01*
X91692393Y-78352000D01*
X91551067Y-78338081D01*
X91369725Y-78283071D01*
X91202607Y-78193744D01*
X91056122Y-78073528D01*
X90935906Y-77927043D01*
X90846579Y-77759925D01*
X90791569Y-77578583D01*
X90772996Y-77390000D01*
X90791569Y-77201417D01*
X90836339Y-77053832D01*
X90846578Y-77020078D01*
X90846579Y-77020075D01*
X90935906Y-76852957D01*
X91056122Y-76706472D01*
X91202607Y-76586256D01*
X91369725Y-76496929D01*
X91551067Y-76441919D01*
X91692393Y-76428000D01*
X92460007Y-76428000D01*
X92601333Y-76441919D01*
G37*
G36*
X150200000Y-77325000D02*
G01*
X148300000Y-77325000D01*
X148300000Y-76325000D01*
X150200000Y-76325000D01*
X150200000Y-77325000D01*
G37*
G36*
X159700000Y-77325000D02*
G01*
X157800000Y-77325000D01*
X157800000Y-76325000D01*
X159700000Y-76325000D01*
X159700000Y-77325000D01*
G37*
G36*
X185448933Y-75281919D02*
G01*
X185630275Y-75336929D01*
X185797393Y-75426256D01*
X185943878Y-75546472D01*
X186064094Y-75692957D01*
X186153421Y-75860075D01*
X186208431Y-76041417D01*
X186227004Y-76230000D01*
X186208431Y-76418583D01*
X186184665Y-76496928D01*
X186157568Y-76586256D01*
X186153421Y-76599925D01*
X186064094Y-76767043D01*
X185943878Y-76913528D01*
X185797393Y-77033744D01*
X185630275Y-77123071D01*
X185448933Y-77178081D01*
X185307607Y-77192000D01*
X184539993Y-77192000D01*
X184398667Y-77178081D01*
X184217325Y-77123071D01*
X184050207Y-77033744D01*
X183903722Y-76913528D01*
X183783506Y-76767043D01*
X183694179Y-76599925D01*
X183690033Y-76586256D01*
X183662935Y-76496928D01*
X183639169Y-76418583D01*
X183620596Y-76230000D01*
X183639169Y-76041417D01*
X183694179Y-75860075D01*
X183783506Y-75692957D01*
X183903722Y-75546472D01*
X184050207Y-75426256D01*
X184217325Y-75336929D01*
X184398667Y-75281919D01*
X184539993Y-75268000D01*
X185307607Y-75268000D01*
X185448933Y-75281919D01*
G37*
G36*
X109850000Y-76550000D02*
G01*
X108150000Y-76550000D01*
X108150000Y-74650000D01*
X109850000Y-74650000D01*
X109850000Y-76550000D01*
G37*
G36*
X142700000Y-76325000D02*
G01*
X140800000Y-76325000D01*
X140800000Y-74675000D01*
X142700000Y-74675000D01*
X142700000Y-76325000D01*
G37*
G36*
X145200000Y-76325000D02*
G01*
X143300000Y-76325000D01*
X143300000Y-74675000D01*
X145200000Y-74675000D01*
X145200000Y-76325000D01*
G37*
G36*
X150200000Y-76055000D02*
G01*
X148300000Y-76055000D01*
X148300000Y-75055000D01*
X150200000Y-75055000D01*
X150200000Y-76055000D01*
G37*
G36*
X159700000Y-76055000D02*
G01*
X157800000Y-76055000D01*
X157800000Y-75055000D01*
X159700000Y-75055000D01*
X159700000Y-76055000D01*
G37*
G36*
X92601333Y-73901919D02*
G01*
X92782675Y-73956929D01*
X92949793Y-74046256D01*
X93096278Y-74166472D01*
X93216494Y-74312957D01*
X93305821Y-74480075D01*
X93305822Y-74480078D01*
X93316061Y-74513832D01*
X93360831Y-74661417D01*
X93379404Y-74850000D01*
X93360831Y-75038583D01*
X93305821Y-75219925D01*
X93216494Y-75387043D01*
X93096278Y-75533528D01*
X92949793Y-75653744D01*
X92782675Y-75743071D01*
X92601333Y-75798081D01*
X92460007Y-75812000D01*
X91692393Y-75812000D01*
X91551067Y-75798081D01*
X91369725Y-75743071D01*
X91202607Y-75653744D01*
X91056122Y-75533528D01*
X90935906Y-75387043D01*
X90846579Y-75219925D01*
X90791569Y-75038583D01*
X90772996Y-74850000D01*
X90791569Y-74661417D01*
X90836339Y-74513832D01*
X90846578Y-74480078D01*
X90846579Y-74480075D01*
X90935906Y-74312957D01*
X91056122Y-74166472D01*
X91202607Y-74046256D01*
X91369725Y-73956929D01*
X91551067Y-73901919D01*
X91692393Y-73888000D01*
X92460007Y-73888000D01*
X92601333Y-73901919D01*
G37*
G36*
X159700000Y-74785000D02*
G01*
X157800000Y-74785000D01*
X157800000Y-73785000D01*
X159700000Y-73785000D01*
X159700000Y-74785000D01*
G37*
G36*
X150200000Y-74785000D02*
G01*
X148300000Y-74785000D01*
X148300000Y-73785000D01*
X150200000Y-73785000D01*
X150200000Y-74785000D01*
G37*
G36*
X185448933Y-72741919D02*
G01*
X185630275Y-72796929D01*
X185797393Y-72886256D01*
X185943878Y-73006472D01*
X186064094Y-73152957D01*
X186153421Y-73320075D01*
X186208431Y-73501417D01*
X186227004Y-73690000D01*
X186208431Y-73878583D01*
X186184665Y-73956928D01*
X186157568Y-74046256D01*
X186153421Y-74059925D01*
X186064094Y-74227043D01*
X185943878Y-74373528D01*
X185797393Y-74493744D01*
X185630275Y-74583071D01*
X185448933Y-74638081D01*
X185307607Y-74652000D01*
X184539993Y-74652000D01*
X184398667Y-74638081D01*
X184217325Y-74583071D01*
X184050207Y-74493744D01*
X183903722Y-74373528D01*
X183783506Y-74227043D01*
X183694179Y-74059925D01*
X183690033Y-74046256D01*
X183662935Y-73956928D01*
X183639169Y-73878583D01*
X183620596Y-73690000D01*
X183639169Y-73501417D01*
X183694179Y-73320075D01*
X183783506Y-73152957D01*
X183903722Y-73006472D01*
X184050207Y-72886256D01*
X184217325Y-72796929D01*
X184398667Y-72741919D01*
X184539993Y-72728000D01*
X185307607Y-72728000D01*
X185448933Y-72741919D01*
G37*
G36*
X117650000Y-74310000D02*
G01*
X115750000Y-74310000D01*
X115750000Y-73310000D01*
X117650000Y-73310000D01*
X117650000Y-74310000D01*
G37*
G36*
X112250000Y-74310000D02*
G01*
X110350000Y-74310000D01*
X110350000Y-73310000D01*
X112250000Y-73310000D01*
X112250000Y-74310000D01*
G37*
G36*
X109850000Y-73850000D02*
G01*
X108150000Y-73850000D01*
X108150000Y-71950000D01*
X109850000Y-71950000D01*
X109850000Y-73850000D01*
G37*
G36*
X92601333Y-71361919D02*
G01*
X92782675Y-71416929D01*
X92949793Y-71506256D01*
X93096278Y-71626472D01*
X93216494Y-71772957D01*
X93305821Y-71940075D01*
X93305822Y-71940078D01*
X93316061Y-71973832D01*
X93360831Y-72121417D01*
X93379404Y-72310000D01*
X93360831Y-72498583D01*
X93305821Y-72679925D01*
X93216494Y-72847043D01*
X93096278Y-72993528D01*
X92949793Y-73113744D01*
X92782675Y-73203071D01*
X92601333Y-73258081D01*
X92460007Y-73272000D01*
X91692393Y-73272000D01*
X91551067Y-73258081D01*
X91369725Y-73203071D01*
X91202607Y-73113744D01*
X91056122Y-72993528D01*
X90935906Y-72847043D01*
X90846579Y-72679925D01*
X90791569Y-72498583D01*
X90772996Y-72310000D01*
X90791569Y-72121417D01*
X90836339Y-71973832D01*
X90846578Y-71940078D01*
X90846579Y-71940075D01*
X90935906Y-71772957D01*
X91056122Y-71626472D01*
X91202607Y-71506256D01*
X91369725Y-71416929D01*
X91551067Y-71361919D01*
X91692393Y-71348000D01*
X92460007Y-71348000D01*
X92601333Y-71361919D01*
G37*
G36*
X117650000Y-73040000D02*
G01*
X115750000Y-73040000D01*
X115750000Y-72040000D01*
X117650000Y-72040000D01*
X117650000Y-73040000D01*
G37*
G36*
X112250000Y-73040000D02*
G01*
X110350000Y-73040000D01*
X110350000Y-72040000D01*
X112250000Y-72040000D01*
X112250000Y-73040000D01*
G37*
G36*
X185448933Y-70201919D02*
G01*
X185630275Y-70256929D01*
X185797393Y-70346256D01*
X185943878Y-70466472D01*
X186064094Y-70612957D01*
X186153421Y-70780075D01*
X186208431Y-70961417D01*
X186227004Y-71150000D01*
X186208431Y-71338583D01*
X186184665Y-71416928D01*
X186157568Y-71506256D01*
X186153421Y-71519925D01*
X186064094Y-71687043D01*
X185943878Y-71833528D01*
X185797393Y-71953744D01*
X185630275Y-72043071D01*
X185448933Y-72098081D01*
X185307607Y-72112000D01*
X184539993Y-72112000D01*
X184398667Y-72098081D01*
X184217325Y-72043071D01*
X184050207Y-71953744D01*
X183903722Y-71833528D01*
X183783506Y-71687043D01*
X183694179Y-71519925D01*
X183690033Y-71506256D01*
X183662935Y-71416928D01*
X183639169Y-71338583D01*
X183620596Y-71150000D01*
X183639169Y-70961417D01*
X183694179Y-70780075D01*
X183783506Y-70612957D01*
X183903722Y-70466472D01*
X184050207Y-70346256D01*
X184217325Y-70256929D01*
X184398667Y-70201919D01*
X184539993Y-70188000D01*
X185307607Y-70188000D01*
X185448933Y-70201919D01*
G37*
G36*
X112250000Y-71770000D02*
G01*
X110350000Y-71770000D01*
X110350000Y-70770000D01*
X112250000Y-70770000D01*
X112250000Y-71770000D01*
G37*
G36*
X117650000Y-71770000D02*
G01*
X115750000Y-71770000D01*
X115750000Y-70770000D01*
X117650000Y-70770000D01*
X117650000Y-71770000D01*
G37*
G36*
X92601333Y-68821919D02*
G01*
X92782675Y-68876929D01*
X92949793Y-68966256D01*
X93096278Y-69086472D01*
X93216494Y-69232957D01*
X93305821Y-69400075D01*
X93305822Y-69400078D01*
X93316061Y-69433832D01*
X93360831Y-69581417D01*
X93379404Y-69770000D01*
X93360831Y-69958583D01*
X93305821Y-70139925D01*
X93216494Y-70307043D01*
X93096278Y-70453528D01*
X92949793Y-70573744D01*
X92782675Y-70663071D01*
X92601333Y-70718081D01*
X92460007Y-70732000D01*
X91692393Y-70732000D01*
X91551067Y-70718081D01*
X91369725Y-70663071D01*
X91202607Y-70573744D01*
X91056122Y-70453528D01*
X90935906Y-70307043D01*
X90846579Y-70139925D01*
X90791569Y-69958583D01*
X90772996Y-69770000D01*
X90791569Y-69581417D01*
X90836339Y-69433832D01*
X90846578Y-69400078D01*
X90846579Y-69400075D01*
X90935906Y-69232957D01*
X91056122Y-69086472D01*
X91202607Y-68966256D01*
X91369725Y-68876929D01*
X91551067Y-68821919D01*
X91692393Y-68808000D01*
X92460007Y-68808000D01*
X92601333Y-68821919D01*
G37*
G36*
X117650000Y-70500000D02*
G01*
X115750000Y-70500000D01*
X115750000Y-69500000D01*
X117650000Y-69500000D01*
X117650000Y-70500000D01*
G37*
G36*
X112250000Y-70500000D02*
G01*
X110350000Y-70500000D01*
X110350000Y-69500000D01*
X112250000Y-69500000D01*
X112250000Y-70500000D01*
G37*
G36*
X185448933Y-67661919D02*
G01*
X185630275Y-67716929D01*
X185797393Y-67806256D01*
X185943878Y-67926472D01*
X186064094Y-68072957D01*
X186153421Y-68240075D01*
X186208431Y-68421417D01*
X186227004Y-68610000D01*
X186208431Y-68798583D01*
X186184665Y-68876928D01*
X186157568Y-68966256D01*
X186153421Y-68979925D01*
X186064094Y-69147043D01*
X185943878Y-69293528D01*
X185797393Y-69413744D01*
X185630275Y-69503071D01*
X185448933Y-69558081D01*
X185307607Y-69572000D01*
X184539993Y-69572000D01*
X184398667Y-69558081D01*
X184217325Y-69503071D01*
X184050207Y-69413744D01*
X183903722Y-69293528D01*
X183783506Y-69147043D01*
X183694179Y-68979925D01*
X183690033Y-68966256D01*
X183662935Y-68876928D01*
X183639169Y-68798583D01*
X183620596Y-68610000D01*
X183639169Y-68421417D01*
X183694179Y-68240075D01*
X183783506Y-68072957D01*
X183903722Y-67926472D01*
X184050207Y-67806256D01*
X184217325Y-67716929D01*
X184398667Y-67661919D01*
X184539993Y-67648000D01*
X185307607Y-67648000D01*
X185448933Y-67661919D01*
G37*
G36*
X117650000Y-69230000D02*
G01*
X115750000Y-69230000D01*
X115750000Y-68230000D01*
X117650000Y-68230000D01*
X117650000Y-69230000D01*
G37*
G36*
X112250000Y-69230000D02*
G01*
X110350000Y-69230000D01*
X110350000Y-68230000D01*
X112250000Y-68230000D01*
X112250000Y-69230000D01*
G37*
G36*
X92601333Y-66281919D02*
G01*
X92782675Y-66336929D01*
X92949793Y-66426256D01*
X93096278Y-66546472D01*
X93216494Y-66692957D01*
X93305821Y-66860075D01*
X93305822Y-66860078D01*
X93316061Y-66893832D01*
X93360831Y-67041417D01*
X93379404Y-67230000D01*
X93360831Y-67418583D01*
X93305821Y-67599925D01*
X93216494Y-67767043D01*
X93096278Y-67913528D01*
X92949793Y-68033744D01*
X92782675Y-68123071D01*
X92601333Y-68178081D01*
X92460007Y-68192000D01*
X91692393Y-68192000D01*
X91551067Y-68178081D01*
X91369725Y-68123071D01*
X91202607Y-68033744D01*
X91056122Y-67913528D01*
X90935906Y-67767043D01*
X90846579Y-67599925D01*
X90791569Y-67418583D01*
X90772996Y-67230000D01*
X90791569Y-67041417D01*
X90836339Y-66893832D01*
X90846578Y-66860078D01*
X90846579Y-66860075D01*
X90935906Y-66692957D01*
X91056122Y-66546472D01*
X91202607Y-66426256D01*
X91369725Y-66336929D01*
X91551067Y-66281919D01*
X91692393Y-66268000D01*
X92460007Y-66268000D01*
X92601333Y-66281919D01*
G37*
G36*
X117650000Y-67960000D02*
G01*
X115750000Y-67960000D01*
X115750000Y-66960000D01*
X117650000Y-66960000D01*
X117650000Y-67960000D01*
G37*
G36*
X112250000Y-67960000D02*
G01*
X110350000Y-67960000D01*
X110350000Y-66960000D01*
X112250000Y-66960000D01*
X112250000Y-67960000D01*
G37*
G36*
X185448933Y-65121919D02*
G01*
X185630275Y-65176929D01*
X185797393Y-65266256D01*
X185943878Y-65386472D01*
X186064094Y-65532957D01*
X186153421Y-65700075D01*
X186208431Y-65881417D01*
X186227004Y-66070000D01*
X186208431Y-66258583D01*
X186184665Y-66336928D01*
X186157568Y-66426256D01*
X186153421Y-66439925D01*
X186064094Y-66607043D01*
X185943878Y-66753528D01*
X185797393Y-66873744D01*
X185630275Y-66963071D01*
X185448933Y-67018081D01*
X185307607Y-67032000D01*
X184539993Y-67032000D01*
X184398667Y-67018081D01*
X184217325Y-66963071D01*
X184050207Y-66873744D01*
X183903722Y-66753528D01*
X183783506Y-66607043D01*
X183694179Y-66439925D01*
X183690033Y-66426256D01*
X183662935Y-66336928D01*
X183639169Y-66258583D01*
X183620596Y-66070000D01*
X183639169Y-65881417D01*
X183694179Y-65700075D01*
X183783506Y-65532957D01*
X183903722Y-65386472D01*
X184050207Y-65266256D01*
X184217325Y-65176929D01*
X184398667Y-65121919D01*
X184539993Y-65108000D01*
X185307607Y-65108000D01*
X185448933Y-65121919D01*
G37*
G36*
X120200000Y-66825000D02*
G01*
X118300000Y-66825000D01*
X118300000Y-65175000D01*
X120200000Y-65175000D01*
X120200000Y-66825000D01*
G37*
G36*
X122700000Y-66825000D02*
G01*
X120800000Y-66825000D01*
X120800000Y-65175000D01*
X122700000Y-65175000D01*
X122700000Y-66825000D01*
G37*
G36*
X117650000Y-66690000D02*
G01*
X115750000Y-66690000D01*
X115750000Y-65690000D01*
X117650000Y-65690000D01*
X117650000Y-66690000D01*
G37*
G36*
X112250000Y-66690000D02*
G01*
X110350000Y-66690000D01*
X110350000Y-65690000D01*
X112250000Y-65690000D01*
X112250000Y-66690000D01*
G37*
G36*
X92601333Y-63741919D02*
G01*
X92782675Y-63796929D01*
X92949793Y-63886256D01*
X93096278Y-64006472D01*
X93216494Y-64152957D01*
X93305821Y-64320075D01*
X93360831Y-64501417D01*
X93379404Y-64690000D01*
X93360831Y-64878583D01*
X93305821Y-65059925D01*
X93216494Y-65227043D01*
X93096278Y-65373528D01*
X92949793Y-65493744D01*
X92782675Y-65583071D01*
X92601333Y-65638081D01*
X92460007Y-65652000D01*
X91692393Y-65652000D01*
X91551067Y-65638081D01*
X91369725Y-65583071D01*
X91202607Y-65493744D01*
X91056122Y-65373528D01*
X90935906Y-65227043D01*
X90846579Y-65059925D01*
X90791569Y-64878583D01*
X90772996Y-64690000D01*
X90791569Y-64501417D01*
X90846579Y-64320075D01*
X90935906Y-64152957D01*
X91056122Y-64006472D01*
X91202607Y-63886256D01*
X91369725Y-63796929D01*
X91551067Y-63741919D01*
X91692393Y-63728000D01*
X92460007Y-63728000D01*
X92601333Y-63741919D01*
G37*
G36*
X92601333Y-61201919D02*
G01*
X92782675Y-61256929D01*
X92949793Y-61346256D01*
X93096278Y-61466472D01*
X93216494Y-61612957D01*
X93305821Y-61780075D01*
X93360831Y-61961417D01*
X93379404Y-62150000D01*
X93360831Y-62338583D01*
X93305821Y-62519925D01*
X93216494Y-62687043D01*
X93096278Y-62833528D01*
X92949793Y-62953744D01*
X92782675Y-63043071D01*
X92601333Y-63098081D01*
X92460007Y-63112000D01*
X91692393Y-63112000D01*
X91551067Y-63098081D01*
X91369725Y-63043071D01*
X91202607Y-62953744D01*
X91056122Y-62833528D01*
X90935906Y-62687043D01*
X90846579Y-62519925D01*
X90791569Y-62338583D01*
X90772996Y-62150000D01*
X90791569Y-61961417D01*
X90846579Y-61780075D01*
X90935906Y-61612957D01*
X91056122Y-61466472D01*
X91202607Y-61346256D01*
X91369725Y-61256929D01*
X91551067Y-61201919D01*
X91692393Y-61188000D01*
X92460007Y-61188000D01*
X92601333Y-61201919D01*
G37*
G36*
X159700000Y-61215000D02*
G01*
X157800000Y-61215000D01*
X157800000Y-60215000D01*
X159700000Y-60215000D01*
X159700000Y-61215000D01*
G37*
G36*
X150200000Y-61215000D02*
G01*
X148300000Y-61215000D01*
X148300000Y-60215000D01*
X150200000Y-60215000D01*
X150200000Y-61215000D01*
G37*
G36*
X112050000Y-61100000D02*
G01*
X110150000Y-61100000D01*
X110150000Y-59400000D01*
X112050000Y-59400000D01*
X112050000Y-61100000D01*
G37*
G36*
X109350000Y-61100000D02*
G01*
X107450000Y-61100000D01*
X107450000Y-59400000D01*
X109350000Y-59400000D01*
X109350000Y-61100000D01*
G37*
G36*
X92601333Y-58661919D02*
G01*
X92782675Y-58716929D01*
X92949793Y-58806256D01*
X93096278Y-58926472D01*
X93216494Y-59072957D01*
X93305821Y-59240075D01*
X93360831Y-59421417D01*
X93379404Y-59610000D01*
X93360831Y-59798583D01*
X93305821Y-59979925D01*
X93216494Y-60147043D01*
X93096278Y-60293528D01*
X92949793Y-60413744D01*
X92782675Y-60503071D01*
X92601333Y-60558081D01*
X92460007Y-60572000D01*
X91692393Y-60572000D01*
X91551067Y-60558081D01*
X91369725Y-60503071D01*
X91202607Y-60413744D01*
X91056122Y-60293528D01*
X90935906Y-60147043D01*
X90846579Y-59979925D01*
X90791569Y-59798583D01*
X90772996Y-59610000D01*
X90791569Y-59421417D01*
X90846579Y-59240075D01*
X90935906Y-59072957D01*
X91056122Y-58926472D01*
X91202607Y-58806256D01*
X91369725Y-58716929D01*
X91551067Y-58661919D01*
X91692393Y-58648000D01*
X92460007Y-58648000D01*
X92601333Y-58661919D01*
G37*
G36*
X159700000Y-59945000D02*
G01*
X157800000Y-59945000D01*
X157800000Y-58945000D01*
X159700000Y-58945000D01*
X159700000Y-59945000D01*
G37*
G36*
X150200000Y-59945000D02*
G01*
X148300000Y-59945000D01*
X148300000Y-58945000D01*
X150200000Y-58945000D01*
X150200000Y-59945000D01*
G37*
G36*
X150200000Y-58675000D02*
G01*
X148300000Y-58675000D01*
X148300000Y-57675000D01*
X150200000Y-57675000D01*
X150200000Y-58675000D01*
G37*
G36*
X159700000Y-58675000D02*
G01*
X157800000Y-58675000D01*
X157800000Y-57675000D01*
X159700000Y-57675000D01*
X159700000Y-58675000D01*
G37*
G36*
X109100000Y-58350000D02*
G01*
X107200000Y-58350000D01*
X107200000Y-56650000D01*
X109100000Y-56650000D01*
X109100000Y-58350000D01*
G37*
G36*
X111800000Y-58350000D02*
G01*
X109900000Y-58350000D01*
X109900000Y-56650000D01*
X111800000Y-56650000D01*
X111800000Y-58350000D01*
G37*
G36*
X93374750Y-58032000D02*
G01*
X90777650Y-58032000D01*
X90777650Y-56108000D01*
X93374750Y-56108000D01*
X93374750Y-58032000D01*
G37*
G36*
X159700000Y-57405000D02*
G01*
X157800000Y-57405000D01*
X157800000Y-56405000D01*
X159700000Y-56405000D01*
X159700000Y-57405000D01*
G37*
G36*
X150200000Y-57405000D02*
G01*
X148300000Y-57405000D01*
X148300000Y-56405000D01*
X150200000Y-56405000D01*
X150200000Y-57405000D01*
G37*
G36*
X146196820Y-57199300D02*
G01*
X144298220Y-57199300D01*
X144298220Y-55300700D01*
X146196820Y-55300700D01*
X146196820Y-57199300D01*
G37*
G36*
X142701780Y-57199300D02*
G01*
X140803180Y-57199300D01*
X140803180Y-55300700D01*
X142701780Y-55300700D01*
X142701780Y-57199300D01*
G37*
G36*
X137500000Y-57100000D02*
G01*
X135600000Y-57100000D01*
X135600000Y-55400000D01*
X137500000Y-55400000D01*
X137500000Y-57100000D01*
G37*
G36*
X134300000Y-57100000D02*
G01*
X132400000Y-57100000D01*
X132400000Y-55400000D01*
X134300000Y-55400000D01*
X134300000Y-57100000D01*
G37*
G36*
X131600000Y-57100000D02*
G01*
X129700000Y-57100000D01*
X129700000Y-55400000D01*
X131600000Y-55400000D01*
X131600000Y-57100000D01*
G37*
G36*
X140200000Y-57100000D02*
G01*
X138300000Y-57100000D01*
X138300000Y-55400000D01*
X140200000Y-55400000D01*
X140200000Y-57100000D01*
G37*
G36*
X150200000Y-56135000D02*
G01*
X148300000Y-56135000D01*
X148300000Y-55135000D01*
X150200000Y-55135000D01*
X150200000Y-56135000D01*
G37*
G36*
X159700000Y-56135000D02*
G01*
X157800000Y-56135000D01*
X157800000Y-55135000D01*
X159700000Y-55135000D01*
X159700000Y-56135000D01*
G37*
G36*
X150200000Y-54865000D02*
G01*
X148300000Y-54865000D01*
X148300000Y-53865000D01*
X150200000Y-53865000D01*
X150200000Y-54865000D01*
G37*
G36*
X159700000Y-54865000D02*
G01*
X157800000Y-54865000D01*
X157800000Y-53865000D01*
X159700000Y-53865000D01*
X159700000Y-54865000D01*
G37*
G36*
X159700000Y-53595000D02*
G01*
X157800000Y-53595000D01*
X157800000Y-52595000D01*
X159700000Y-52595000D01*
X159700000Y-53595000D01*
G37*
G36*
X150200000Y-53595000D02*
G01*
X148300000Y-53595000D01*
X148300000Y-52595000D01*
X150200000Y-52595000D01*
X150200000Y-53595000D01*
G37*
G36*
X159700000Y-52325000D02*
G01*
X157800000Y-52325000D01*
X157800000Y-51325000D01*
X159700000Y-51325000D01*
X159700000Y-52325000D01*
G37*
G36*
X150200000Y-52325000D02*
G01*
X148300000Y-52325000D01*
X148300000Y-51325000D01*
X150200000Y-51325000D01*
X150200000Y-52325000D01*
G37*
G36*
X189000000Y-45000000D02*
G01*
X186534365Y-45000000D01*
X186509979Y-45002402D01*
X186486530Y-45009515D01*
X186464919Y-45021066D01*
X186445977Y-45036611D01*
X186430432Y-45055553D01*
X186418881Y-45077164D01*
X186411768Y-45100613D01*
X186409366Y-45124999D01*
X186411768Y-45149385D01*
X186418881Y-45172834D01*
X186430432Y-45194445D01*
X186445972Y-45213381D01*
X186873978Y-45641387D01*
X187144537Y-46046308D01*
X187278899Y-46247394D01*
X187557812Y-46920751D01*
X187700000Y-47635580D01*
X187700000Y-48364420D01*
X187557812Y-49079249D01*
X187278899Y-49752606D01*
X187278898Y-49752607D01*
X186873978Y-50358613D01*
X186358613Y-50873978D01*
X186087694Y-51055000D01*
X185752606Y-51278899D01*
X185079249Y-51557812D01*
X184364420Y-51700000D01*
X183635580Y-51700000D01*
X182920751Y-51557812D01*
X182247394Y-51278899D01*
X181912306Y-51055000D01*
X181641387Y-50873978D01*
X181126022Y-50358613D01*
X180721102Y-49752607D01*
X180721101Y-49752606D01*
X180442188Y-49079249D01*
X180300000Y-48364420D01*
X180300000Y-47635580D01*
X180442188Y-46920751D01*
X180721101Y-46247394D01*
X180855463Y-46046308D01*
X181126022Y-45641387D01*
X181554028Y-45213381D01*
X181569568Y-45194445D01*
X181581119Y-45172834D01*
X181588232Y-45149385D01*
X181590634Y-45124999D01*
X181588232Y-45100613D01*
X181581119Y-45077164D01*
X181569568Y-45055553D01*
X181554023Y-45036611D01*
X181535081Y-45021066D01*
X181513470Y-45009515D01*
X181490021Y-45002402D01*
X181465635Y-45000000D01*
X96534365Y-45000000D01*
X96509979Y-45002402D01*
X96486530Y-45009515D01*
X96464919Y-45021066D01*
X96445977Y-45036611D01*
X96430432Y-45055553D01*
X96418881Y-45077164D01*
X96411768Y-45100613D01*
X96409366Y-45124999D01*
X96411768Y-45149385D01*
X96418881Y-45172834D01*
X96430432Y-45194445D01*
X96445972Y-45213381D01*
X96873978Y-45641387D01*
X97144537Y-46046308D01*
X97278899Y-46247394D01*
X97557812Y-46920751D01*
X97700000Y-47635580D01*
X97700000Y-48364420D01*
X97557812Y-49079249D01*
X97278899Y-49752606D01*
X97278898Y-49752607D01*
X96873978Y-50358613D01*
X96358613Y-50873978D01*
X96087694Y-51055000D01*
X95752606Y-51278899D01*
X95079249Y-51557812D01*
X94364420Y-51700000D01*
X93635580Y-51700000D01*
X92920751Y-51557812D01*
X92247394Y-51278899D01*
X91912306Y-51055000D01*
X91641387Y-50873978D01*
X91126022Y-50358613D01*
X90721102Y-49752607D01*
X90721101Y-49752606D01*
X90442188Y-49079249D01*
X90300000Y-48364420D01*
X90300000Y-47635580D01*
X90442188Y-46920751D01*
X90721101Y-46247394D01*
X90855463Y-46046308D01*
X91126022Y-45641387D01*
X91554028Y-45213381D01*
X91569568Y-45194445D01*
X91581119Y-45172834D01*
X91588232Y-45149385D01*
X91590634Y-45124999D01*
X91588232Y-45100613D01*
X91581119Y-45077164D01*
X91569568Y-45055553D01*
X91554023Y-45036611D01*
X91535081Y-45021066D01*
X91513470Y-45009515D01*
X91490021Y-45002402D01*
X91465635Y-45000000D01*
X89000000Y-45000000D01*
X89000000Y-43000000D01*
X189000000Y-43000000D01*
X189000000Y-45000000D01*
G37*
G36*
X150200000Y-51055000D02*
G01*
X148300000Y-51055000D01*
X148300000Y-50055000D01*
X150200000Y-50055000D01*
X150200000Y-51055000D01*
G37*
G36*
X159700000Y-51055000D02*
G01*
X157800000Y-51055000D01*
X157800000Y-50055000D01*
X159700000Y-50055000D01*
X159700000Y-51055000D01*
G37*
G36*
X143700000Y-50825000D02*
G01*
X141800000Y-50825000D01*
X141800000Y-49175000D01*
X143700000Y-49175000D01*
X143700000Y-50825000D01*
G37*
G36*
X141200000Y-50825000D02*
G01*
X139300000Y-50825000D01*
X139300000Y-49175000D01*
X141200000Y-49175000D01*
X141200000Y-50825000D01*
G37*
G36*
X159700000Y-49785000D02*
G01*
X157800000Y-49785000D01*
X157800000Y-48785000D01*
X159700000Y-48785000D01*
X159700000Y-49785000D01*
G37*
G36*
X150200000Y-49785000D02*
G01*
X148300000Y-49785000D01*
X148300000Y-48785000D01*
X150200000Y-48785000D01*
X150200000Y-49785000D01*
G37*
M02*
