0
SECTION
2 
ENTITIES
0
LINE
8
Outline
10
189
20
-146
11
189.08568
21
-145.99878
0
LINE
8
Outline
10
189.08568
20
-145.99878
11
189.17128
21
-145.99511
0
LINE
8
Outline
10
189.17128
20
-145.99511
11
189.25672
21
-145.989
0
LINE
8
Outline
10
189.25672
20
-145.989
11
189.34196
21
-145.98045
0
LINE
8
Outline
10
189.34196
20
-145.98045
11
189.42694
21
-145.96946
0
LINE
8
Outline
10
189.42694
20
-145.96946
11
189.51156
21
-145.95606
0
LINE
8
Outline
10
189.51156
20
-145.95606
11
189.59576
21
-145.94025
0
LINE
8
Outline
10
189.59576
20
-145.94025
11
189.67948
21
-145.92204
0
LINE
8
Outline
10
189.67948
20
-145.92204
11
189.76266
21
-145.90144
0
LINE
8
Outline
10
189.76266
20
-145.90144
11
189.8452
21
-145.87848
0
LINE
8
Outline
10
189.8452
20
-145.87848
11
189.92704
21
-145.85317
0
LINE
8
Outline
10
189.92704
20
-145.85317
11
190.00816
21
-145.82553
0
LINE
8
Outline
10
190.00816
20
-145.82553
11
190.08842
21
-145.79559
0
LINE
8
Outline
10
190.08842
20
-145.79559
11
190.1678
21
-145.76337
0
LINE
8
Outline
10
190.1678
20
-145.76337
11
190.24624
21
-145.7289
0
LINE
8
Outline
10
190.24624
20
-145.7289
11
190.32366
21
-145.6922
0
LINE
8
Outline
10
190.32366
20
-145.6922
11
190.4
21
-145.6533
0
LINE
8
Outline
10
190.4
20
-145.6533
11
190.4752
21
-145.61224
0
LINE
8
Outline
10
190.4752
20
-145.61224
11
190.5492
21
-145.56905
0
LINE
8
Outline
10
190.5492
20
-145.56905
11
190.62192
21
-145.52376
0
LINE
8
Outline
10
190.62192
20
-145.52376
11
190.69332
21
-145.47642
0
LINE
8
Outline
10
190.69332
20
-145.47642
11
190.76336
21
-145.42705
0
LINE
8
Outline
10
190.76336
20
-145.42705
11
190.83194
21
-145.37571
0
LINE
8
Outline
10
190.83194
20
-145.37571
11
190.89904
21
-145.32242
0
LINE
8
Outline
10
190.89904
20
-145.32242
11
190.96458
21
-145.26725
0
LINE
8
Outline
10
190.96458
20
-145.26725
11
191.02852
21
-145.21022
0
LINE
8
Outline
10
191.02852
20
-145.21022
11
191.0908
21
-145.1514
0
LINE
8
Outline
10
191.0908
20
-145.1514
11
191.1514
21
-145.09081
0
LINE
8
Outline
10
191.1514
20
-145.09081
11
191.21022
21
-145.02852
0
LINE
8
Outline
10
191.21022
20
-145.02852
11
191.26724
21
-144.96458
0
LINE
8
Outline
10
191.26724
20
-144.96458
11
191.32242
21
-144.89904
0
LINE
8
Outline
10
191.32242
20
-144.89904
11
191.37572
21
-144.83194
0
LINE
8
Outline
10
191.37572
20
-144.83194
11
191.42704
21
-144.76336
0
LINE
8
Outline
10
191.42704
20
-144.76336
11
191.47642
21
-144.69333
0
LINE
8
Outline
10
191.47642
20
-144.69333
11
191.52376
21
-144.62192
0
LINE
8
Outline
10
191.52376
20
-144.62192
11
191.56904
21
-144.54919
0
LINE
8
Outline
10
191.56904
20
-144.54919
11
191.61224
21
-144.4752
0
LINE
8
Outline
10
191.61224
20
-144.4752
11
191.6533
21
-144.4
0
LINE
8
Outline
10
191.6533
20
-144.4
11
191.6922
21
-144.32366
0
LINE
8
Outline
10
191.6922
20
-144.32366
11
191.7289
21
-144.24625
0
LINE
8
Outline
10
191.7289
20
-144.24625
11
191.76336
21
-144.16781
0
LINE
8
Outline
10
191.76336
20
-144.16781
11
191.7956
21
-144.08842
0
LINE
8
Outline
10
191.7956
20
-144.08842
11
191.82552
21
-144.00815
0
LINE
8
Outline
10
191.82552
20
-144.00815
11
191.85316
21
-143.92705
0
LINE
8
Outline
10
191.85316
20
-143.92705
11
191.87848
21
-143.8452
0
LINE
8
Outline
10
191.87848
20
-143.8452
11
191.90144
21
-143.76266
0
LINE
8
Outline
10
191.90144
20
-143.76266
11
191.92204
21
-143.67949
0
LINE
8
Outline
10
191.92204
20
-143.67949
11
191.94024
21
-143.59577
0
LINE
8
Outline
10
191.94024
20
-143.59577
11
191.95606
21
-143.51157
0
LINE
8
Outline
10
191.95606
20
-143.51157
11
191.96946
21
-143.42694
0
LINE
8
Outline
10
191.96946
20
-143.42694
11
191.98044
21
-143.34197
0
LINE
8
Outline
10
191.98044
20
-143.34197
11
191.989
21
-143.25673
0
LINE
8
Outline
10
191.989
20
-143.25673
11
191.99512
21
-143.17127
0
LINE
8
Outline
10
191.99512
20
-143.17127
11
191.99878
21
-143.08567
0
LINE
8
Outline
10
191.99878
20
-143.08567
11
192
21
-143
0
LINE
8
Outline
10
192
20
-143
11
192
21
-43
0
LINE
8
Outline
10
192
20
-43
11
191.99878
21
-42.91433
0
LINE
8
Outline
10
191.99878
20
-42.91433
11
191.99512
21
-42.82873
0
LINE
8
Outline
10
191.99512
20
-42.82873
11
191.989
21
-42.74327
0
LINE
8
Outline
10
191.989
20
-42.74327
11
191.98044
21
-42.65803
0
LINE
8
Outline
10
191.98044
20
-42.65803
11
191.96946
21
-42.57306
0
LINE
8
Outline
10
191.96946
20
-42.57306
11
191.95606
21
-42.48843
0
LINE
8
Outline
10
191.95606
20
-42.48843
11
191.94024
21
-42.40423
0
LINE
8
Outline
10
191.94024
20
-42.40423
11
191.92204
21
-42.32051
0
LINE
8
Outline
10
191.92204
20
-42.32051
11
191.90144
21
-42.23734
0
LINE
8
Outline
10
191.90144
20
-42.23734
11
191.87848
21
-42.1548
0
LINE
8
Outline
10
191.87848
20
-42.1548
11
191.85316
21
-42.07295
0
LINE
8
Outline
10
191.85316
20
-42.07295
11
191.82552
21
-41.99185
0
LINE
8
Outline
10
191.82552
20
-41.99185
11
191.7956
21
-41.91158
0
LINE
8
Outline
10
191.7956
20
-41.91158
11
191.76336
21
-41.83219
0
LINE
8
Outline
10
191.76336
20
-41.83219
11
191.7289
21
-41.75375
0
LINE
8
Outline
10
191.7289
20
-41.75375
11
191.6922
21
-41.67634
0
LINE
8
Outline
10
191.6922
20
-41.67634
11
191.6533
21
-41.6
0
LINE
8
Outline
10
191.6533
20
-41.6
11
191.61224
21
-41.5248
0
LINE
8
Outline
10
191.61224
20
-41.5248
11
191.56904
21
-41.45081
0
LINE
8
Outline
10
191.56904
20
-41.45081
11
191.52376
21
-41.37808
0
LINE
8
Outline
10
191.52376
20
-41.37808
11
191.47642
21
-41.30667
0
LINE
8
Outline
10
191.47642
20
-41.30667
11
191.42704
21
-41.23664
0
LINE
8
Outline
10
191.42704
20
-41.23664
11
191.37572
21
-41.16806
0
LINE
8
Outline
10
191.37572
20
-41.16806
11
191.32242
21
-41.10096
0
LINE
8
Outline
10
191.32242
20
-41.10096
11
191.26724
21
-41.03542
0
LINE
8
Outline
10
191.26724
20
-41.03542
11
191.21022
21
-40.97148
0
LINE
8
Outline
10
191.21022
20
-40.97148
11
191.1514
21
-40.90919
0
LINE
8
Outline
10
191.1514
20
-40.90919
11
191.0908
21
-40.8486
0
LINE
8
Outline
10
191.0908
20
-40.8486
11
191.02852
21
-40.78978
0
LINE
8
Outline
10
191.02852
20
-40.78978
11
190.96458
21
-40.73275
0
LINE
8
Outline
10
190.96458
20
-40.73275
11
190.89904
21
-40.67758
0
LINE
8
Outline
10
190.89904
20
-40.67758
11
190.83194
21
-40.62429
0
LINE
8
Outline
10
190.83194
20
-40.62429
11
190.76336
21
-40.57295
0
LINE
8
Outline
10
190.76336
20
-40.57295
11
190.69332
21
-40.52358
0
LINE
8
Outline
10
190.69332
20
-40.52358
11
190.62192
21
-40.47624
0
LINE
8
Outline
10
190.62192
20
-40.47624
11
190.5492
21
-40.43095
0
LINE
8
Outline
10
190.5492
20
-40.43095
11
190.4752
21
-40.38776
0
LINE
8
Outline
10
190.4752
20
-40.38776
11
190.4
21
-40.3467
0
LINE
8
Outline
10
190.4
20
-40.3467
11
190.32366
21
-40.3078
0
LINE
8
Outline
10
190.32366
20
-40.3078
11
190.24624
21
-40.2711
0
LINE
8
Outline
10
190.24624
20
-40.2711
11
190.1678
21
-40.23663
0
LINE
8
Outline
10
190.1678
20
-40.23663
11
190.08842
21
-40.20441
0
LINE
8
Outline
10
190.08842
20
-40.20441
11
190.00816
21
-40.17447
0
LINE
8
Outline
10
190.00816
20
-40.17447
11
189.92704
21
-40.14683
0
LINE
8
Outline
10
189.92704
20
-40.14683
11
189.8452
21
-40.12152
0
LINE
8
Outline
10
189.8452
20
-40.12152
11
189.76266
21
-40.09856
0
LINE
8
Outline
10
189.76266
20
-40.09856
11
189.67948
21
-40.07796
0
LINE
8
Outline
10
189.67948
20
-40.07796
11
189.59576
21
-40.05975
0
LINE
8
Outline
10
189.59576
20
-40.05975
11
189.51156
21
-40.04394
0
LINE
8
Outline
10
189.51156
20
-40.04394
11
189.42694
21
-40.03054
0
LINE
8
Outline
10
189.42694
20
-40.03054
11
189.34196
21
-40.01955
0
LINE
8
Outline
10
189.34196
20
-40.01955
11
189.25672
21
-40.011
0
LINE
8
Outline
10
189.25672
20
-40.011
11
189.17128
21
-40.00489
0
LINE
8
Outline
10
189.17128
20
-40.00489
11
189.08568
21
-40.00122
0
LINE
8
Outline
10
189.08568
20
-40.00122
11
189
21
-40
0
LINE
8
Outline
10
189
20
-40
11
89
21
-40
0
LINE
8
Outline
10
89
20
-40
11
88.91433
21
-40.00122
0
LINE
8
Outline
10
88.91433
20
-40.00122
11
88.82873
21
-40.00489
0
LINE
8
Outline
10
88.82873
20
-40.00489
11
88.74327
21
-40.011
0
LINE
8
Outline
10
88.74327
20
-40.011
11
88.65803
21
-40.01955
0
LINE
8
Outline
10
88.65803
20
-40.01955
11
88.57306
21
-40.03054
0
LINE
8
Outline
10
88.57306
20
-40.03054
11
88.48843
21
-40.04394
0
LINE
8
Outline
10
88.48843
20
-40.04394
11
88.40423
21
-40.05975
0
LINE
8
Outline
10
88.40423
20
-40.05975
11
88.32051
21
-40.07796
0
LINE
8
Outline
10
88.32051
20
-40.07796
11
88.23734
21
-40.09856
0
LINE
8
Outline
10
88.23734
20
-40.09856
11
88.1548
21
-40.12152
0
LINE
8
Outline
10
88.1548
20
-40.12152
11
88.07295
21
-40.14683
0
LINE
8
Outline
10
88.07295
20
-40.14683
11
87.99185
21
-40.17447
0
LINE
8
Outline
10
87.99185
20
-40.17447
11
87.91158
21
-40.20441
0
LINE
8
Outline
10
87.91158
20
-40.20441
11
87.83219
21
-40.23663
0
LINE
8
Outline
10
87.83219
20
-40.23663
11
87.75375
21
-40.2711
0
LINE
8
Outline
10
87.75375
20
-40.2711
11
87.67634
21
-40.3078
0
LINE
8
Outline
10
87.67634
20
-40.3078
11
87.6
21
-40.3467
0
LINE
8
Outline
10
87.6
20
-40.3467
11
87.5248
21
-40.38776
0
LINE
8
Outline
10
87.5248
20
-40.38776
11
87.45081
21
-40.43095
0
LINE
8
Outline
10
87.45081
20
-40.43095
11
87.37808
21
-40.47624
0
LINE
8
Outline
10
87.37808
20
-40.47624
11
87.30667
21
-40.52358
0
LINE
8
Outline
10
87.30667
20
-40.52358
11
87.23664
21
-40.57295
0
LINE
8
Outline
10
87.23664
20
-40.57295
11
87.16806
21
-40.62429
0
LINE
8
Outline
10
87.16806
20
-40.62429
11
87.10096
21
-40.67758
0
LINE
8
Outline
10
87.10096
20
-40.67758
11
87.03542
21
-40.73275
0
LINE
8
Outline
10
87.03542
20
-40.73275
11
86.97148
21
-40.78978
0
LINE
8
Outline
10
86.97148
20
-40.78978
11
86.90919
21
-40.8486
0
LINE
8
Outline
10
86.90919
20
-40.8486
11
86.8486
21
-40.90919
0
LINE
8
Outline
10
86.8486
20
-40.90919
11
86.78978
21
-40.97148
0
LINE
8
Outline
10
86.78978
20
-40.97148
11
86.73275
21
-41.03542
0
LINE
8
Outline
10
86.73275
20
-41.03542
11
86.67758
21
-41.10096
0
LINE
8
Outline
10
86.67758
20
-41.10096
11
86.62429
21
-41.16806
0
LINE
8
Outline
10
86.62429
20
-41.16806
11
86.57295
21
-41.23664
0
LINE
8
Outline
10
86.57295
20
-41.23664
11
86.52358
21
-41.30667
0
LINE
8
Outline
10
86.52358
20
-41.30667
11
86.47624
21
-41.37808
0
LINE
8
Outline
10
86.47624
20
-41.37808
11
86.43095
21
-41.45081
0
LINE
8
Outline
10
86.43095
20
-41.45081
11
86.38776
21
-41.5248
0
LINE
8
Outline
10
86.38776
20
-41.5248
11
86.3467
21
-41.6
0
LINE
8
Outline
10
86.3467
20
-41.6
11
86.3078
21
-41.67634
0
LINE
8
Outline
10
86.3078
20
-41.67634
11
86.2711
21
-41.75375
0
LINE
8
Outline
10
86.2711
20
-41.75375
11
86.23663
21
-41.83219
0
LINE
8
Outline
10
86.23663
20
-41.83219
11
86.20441
21
-41.91158
0
LINE
8
Outline
10
86.20441
20
-41.91158
11
86.17447
21
-41.99185
0
LINE
8
Outline
10
86.17447
20
-41.99185
11
86.14683
21
-42.07295
0
LINE
8
Outline
10
86.14683
20
-42.07295
11
86.12152
21
-42.1548
0
LINE
8
Outline
10
86.12152
20
-42.1548
11
86.09856
21
-42.23734
0
LINE
8
Outline
10
86.09856
20
-42.23734
11
86.07796
21
-42.32051
0
LINE
8
Outline
10
86.07796
20
-42.32051
11
86.05975
21
-42.40423
0
LINE
8
Outline
10
86.05975
20
-42.40423
11
86.04394
21
-42.48843
0
LINE
8
Outline
10
86.04394
20
-42.48843
11
86.03054
21
-42.57306
0
LINE
8
Outline
10
86.03054
20
-42.57306
11
86.01955
21
-42.65803
0
LINE
8
Outline
10
86.01955
20
-42.65803
11
86.011
21
-42.74327
0
LINE
8
Outline
10
86.011
20
-42.74327
11
86.00489
21
-42.82873
0
LINE
8
Outline
10
86.00489
20
-42.82873
11
86.00122
21
-42.91433
0
LINE
8
Outline
10
86.00122
20
-42.91433
11
86
21
-43
0
LINE
8
Outline
10
86
20
-43
11
86
21
-143
0
LINE
8
Outline
10
86
20
-143
11
86.00122
21
-143.08567
0
LINE
8
Outline
10
86.00122
20
-143.08567
11
86.00489
21
-143.17127
0
LINE
8
Outline
10
86.00489
20
-143.17127
11
86.011
21
-143.25673
0
LINE
8
Outline
10
86.011
20
-143.25673
11
86.01955
21
-143.34197
0
LINE
8
Outline
10
86.01955
20
-143.34197
11
86.03054
21
-143.42694
0
LINE
8
Outline
10
86.03054
20
-143.42694
11
86.04394
21
-143.51157
0
LINE
8
Outline
10
86.04394
20
-143.51157
11
86.05975
21
-143.59577
0
LINE
8
Outline
10
86.05975
20
-143.59577
11
86.07796
21
-143.67949
0
LINE
8
Outline
10
86.07796
20
-143.67949
11
86.09856
21
-143.76266
0
LINE
8
Outline
10
86.09856
20
-143.76266
11
86.12152
21
-143.8452
0
LINE
8
Outline
10
86.12152
20
-143.8452
11
86.14683
21
-143.92705
0
LINE
8
Outline
10
86.14683
20
-143.92705
11
86.17447
21
-144.00815
0
LINE
8
Outline
10
86.17447
20
-144.00815
11
86.20441
21
-144.08842
0
LINE
8
Outline
10
86.20441
20
-144.08842
11
86.23663
21
-144.16781
0
LINE
8
Outline
10
86.23663
20
-144.16781
11
86.2711
21
-144.24625
0
LINE
8
Outline
10
86.2711
20
-144.24625
11
86.3078
21
-144.32366
0
LINE
8
Outline
10
86.3078
20
-144.32366
11
86.3467
21
-144.4
0
LINE
8
Outline
10
86.3467
20
-144.4
11
86.38776
21
-144.4752
0
LINE
8
Outline
10
86.38776
20
-144.4752
11
86.43095
21
-144.54919
0
LINE
8
Outline
10
86.43095
20
-144.54919
11
86.47624
21
-144.62192
0
LINE
8
Outline
10
86.47624
20
-144.62192
11
86.52358
21
-144.69333
0
LINE
8
Outline
10
86.52358
20
-144.69333
11
86.57295
21
-144.76336
0
LINE
8
Outline
10
86.57295
20
-144.76336
11
86.62429
21
-144.83194
0
LINE
8
Outline
10
86.62429
20
-144.83194
11
86.67758
21
-144.89904
0
LINE
8
Outline
10
86.67758
20
-144.89904
11
86.73275
21
-144.96458
0
LINE
8
Outline
10
86.73275
20
-144.96458
11
86.78978
21
-145.02852
0
LINE
8
Outline
10
86.78978
20
-145.02852
11
86.8486
21
-145.09081
0
LINE
8
Outline
10
86.8486
20
-145.09081
11
86.90919
21
-145.1514
0
LINE
8
Outline
10
86.90919
20
-145.1514
11
86.97148
21
-145.21022
0
LINE
8
Outline
10
86.97148
20
-145.21022
11
87.03542
21
-145.26725
0
LINE
8
Outline
10
87.03542
20
-145.26725
11
87.10096
21
-145.32242
0
LINE
8
Outline
10
87.10096
20
-145.32242
11
87.16806
21
-145.37571
0
LINE
8
Outline
10
87.16806
20
-145.37571
11
87.23664
21
-145.42705
0
LINE
8
Outline
10
87.23664
20
-145.42705
11
87.30667
21
-145.47642
0
LINE
8
Outline
10
87.30667
20
-145.47642
11
87.37808
21
-145.52376
0
LINE
8
Outline
10
87.37808
20
-145.52376
11
87.45081
21
-145.56905
0
LINE
8
Outline
10
87.45081
20
-145.56905
11
87.5248
21
-145.61224
0
LINE
8
Outline
10
87.5248
20
-145.61224
11
87.6
21
-145.6533
0
LINE
8
Outline
10
87.6
20
-145.6533
11
87.67634
21
-145.6922
0
LINE
8
Outline
10
87.67634
20
-145.6922
11
87.75375
21
-145.7289
0
LINE
8
Outline
10
87.75375
20
-145.7289
11
87.83219
21
-145.76337
0
LINE
8
Outline
10
87.83219
20
-145.76337
11
87.91158
21
-145.79559
0
LINE
8
Outline
10
87.91158
20
-145.79559
11
87.99185
21
-145.82553
0
LINE
8
Outline
10
87.99185
20
-145.82553
11
88.07295
21
-145.85317
0
LINE
8
Outline
10
88.07295
20
-145.85317
11
88.1548
21
-145.87848
0
LINE
8
Outline
10
88.1548
20
-145.87848
11
88.23734
21
-145.90144
0
LINE
8
Outline
10
88.23734
20
-145.90144
11
88.32051
21
-145.92204
0
LINE
8
Outline
10
88.32051
20
-145.92204
11
88.40423
21
-145.94025
0
LINE
8
Outline
10
88.40423
20
-145.94025
11
88.48843
21
-145.95606
0
LINE
8
Outline
10
88.48843
20
-145.95606
11
88.57306
21
-145.96946
0
LINE
8
Outline
10
88.57306
20
-145.96946
11
88.65803
21
-145.98045
0
LINE
8
Outline
10
88.65803
20
-145.98045
11
88.74327
21
-145.989
0
LINE
8
Outline
10
88.74327
20
-145.989
11
88.82873
21
-145.99511
0
LINE
8
Outline
10
88.82873
20
-145.99511
11
88.91433
21
-145.99878
0
LINE
8
Outline
10
88.91433
20
-145.99878
11
89
21
-146
0
LINE
8
Outline
10
89
20
-146
11
189
21
-146
0
LINE
8
Outline
10
189
20
-146
11
189
21
-146
0
ENDSEC
0
EOF
