G04 #@! TF.FileFunction,Soldermask,Top*
%FSLAX46Y46*%
G04 Gerber Fmt 4.6, Leading zero omitted, Abs format (unit mm)*
G04 Created by KiCad (PCBNEW 4.0.7) date 12/30/17 13:55:51*
%MOMM*%
%LPD*%
G01*
G04 APERTURE LIST*
%ADD10C,0.100000*%
%ADD11R,1.900000X1.650000*%
%ADD12R,1.650000X1.900000*%
%ADD13R,4.150000X2.900000*%
%ADD14R,1.898600X1.898600*%
%ADD15R,3.900000X2.700000*%
%ADD16O,2.597100X1.924000*%
%ADD17R,2.597100X1.924000*%
%ADD18R,1.900000X1.700000*%
%ADD19R,1.700000X1.900000*%
%ADD20C,7.400000*%
%ADD21R,1.900000X1.000000*%
%ADD22R,5.000000X1.500000*%
%ADD23R,9.800000X11.200000*%
G04 APERTURE END LIST*
D10*
D11*
X119250000Y-66000000D03*
X121750000Y-66000000D03*
X117250000Y-88000000D03*
X119750000Y-88000000D03*
X142750000Y-50000000D03*
X140250000Y-50000000D03*
X144250000Y-75500000D03*
X141750000Y-75500000D03*
X149250000Y-97000000D03*
X151750000Y-97000000D03*
D12*
X145500000Y-124250000D03*
X145500000Y-121750000D03*
D11*
X110250000Y-122000000D03*
X112750000Y-122000000D03*
D13*
X121625000Y-118500000D03*
X115375000Y-118500000D03*
D11*
X110250000Y-132000000D03*
X112750000Y-132000000D03*
D13*
X109875000Y-135000000D03*
X116125000Y-135000000D03*
D12*
X97000000Y-128250000D03*
X97000000Y-125750000D03*
D14*
X146247520Y-78500000D03*
X142752480Y-78500000D03*
X145247520Y-56250000D03*
X141752480Y-56250000D03*
X161252480Y-107500000D03*
X164747520Y-107500000D03*
X161252480Y-127500000D03*
X164747520Y-127500000D03*
D15*
X103700000Y-114500000D03*
X98300000Y-114500000D03*
D16*
X92076200Y-77390000D03*
X92076200Y-74850000D03*
X92076200Y-72310000D03*
X92076200Y-67230000D03*
X92076200Y-64690000D03*
X92076200Y-62150000D03*
X92076200Y-79930000D03*
X92076200Y-69770000D03*
D17*
X92076200Y-57070000D03*
D16*
X92076200Y-59610000D03*
X92076200Y-104500000D03*
X92076200Y-109580000D03*
X92076200Y-107040000D03*
D17*
X92076200Y-99420000D03*
D16*
X92076200Y-101960000D03*
X92076200Y-90770000D03*
X92076200Y-88230000D03*
X92076200Y-95850000D03*
X92076200Y-93310000D03*
D17*
X92076200Y-83150000D03*
D16*
X92076200Y-85690000D03*
D17*
X92076200Y-123730000D03*
D16*
X92076200Y-126270000D03*
X184923800Y-68610000D03*
X184923800Y-71150000D03*
X184923800Y-73690000D03*
X184923800Y-78770000D03*
X184923800Y-81310000D03*
X184923800Y-83850000D03*
X184923800Y-66070000D03*
X184923800Y-76230000D03*
D17*
X184923800Y-88930000D03*
D16*
X184923800Y-86390000D03*
X92076200Y-119040000D03*
D17*
X92076200Y-113960000D03*
D16*
X92076200Y-116500000D03*
D18*
X111100000Y-60250000D03*
X108400000Y-60250000D03*
X119850000Y-85500000D03*
X117150000Y-85500000D03*
X108150000Y-57500000D03*
X110850000Y-57500000D03*
D19*
X109000000Y-75600000D03*
X109000000Y-72900000D03*
D18*
X111650000Y-88000000D03*
X114350000Y-88000000D03*
D19*
X107750000Y-100850000D03*
X107750000Y-98150000D03*
D18*
X133350000Y-56250000D03*
X130650000Y-56250000D03*
D19*
X140500000Y-81350000D03*
X140500000Y-78650000D03*
D18*
X136550000Y-56250000D03*
X139250000Y-56250000D03*
D19*
X167500000Y-110350000D03*
X167500000Y-107650000D03*
X167000000Y-124650000D03*
X167000000Y-127350000D03*
D20*
X184000000Y-48000000D03*
X94000000Y-138000000D03*
X94000000Y-48000000D03*
X184000000Y-138000000D03*
D21*
X111300000Y-66190000D03*
X111300000Y-67460000D03*
X111300000Y-68730000D03*
X111300000Y-70000000D03*
X111300000Y-71270000D03*
X111300000Y-72540000D03*
X111300000Y-73810000D03*
X116700000Y-73810000D03*
X116700000Y-72540000D03*
X116700000Y-71270000D03*
X116700000Y-70000000D03*
X116700000Y-68730000D03*
X116700000Y-67460000D03*
X116700000Y-66190000D03*
X111300000Y-91190000D03*
X111300000Y-92460000D03*
X111300000Y-93730000D03*
X111300000Y-95000000D03*
X111300000Y-96270000D03*
X111300000Y-97540000D03*
X111300000Y-98810000D03*
X116700000Y-98810000D03*
X116700000Y-97540000D03*
X116700000Y-96270000D03*
X116700000Y-95000000D03*
X116700000Y-93730000D03*
X116700000Y-92460000D03*
X116700000Y-91190000D03*
D22*
X115725000Y-124460000D03*
X115725000Y-127000000D03*
X115725000Y-129540000D03*
D23*
X124875000Y-127000000D03*
D16*
X140423800Y-105000000D03*
X140423800Y-99920000D03*
X140423800Y-102460000D03*
D17*
X140423800Y-110080000D03*
D16*
X140423800Y-107540000D03*
X140423800Y-125730000D03*
X140423800Y-128270000D03*
X140423800Y-120650000D03*
X140423800Y-123190000D03*
D17*
X140423800Y-133350000D03*
D16*
X140423800Y-130810000D03*
X185000000Y-96050000D03*
X185000000Y-98590000D03*
X185000000Y-101130000D03*
X185000000Y-103670000D03*
X185000000Y-106210000D03*
X185000000Y-108750000D03*
X185000000Y-113830000D03*
X185000000Y-116370000D03*
X185000000Y-118910000D03*
X185000000Y-93510000D03*
X185000000Y-111290000D03*
D17*
X185000000Y-123990000D03*
D16*
X185000000Y-121450000D03*
D21*
X149250000Y-55635000D03*
X149250000Y-54365000D03*
X149250000Y-53095000D03*
X149250000Y-51825000D03*
X149250000Y-50555000D03*
X149250000Y-49285000D03*
X149250000Y-56905000D03*
X149250000Y-58175000D03*
X149250000Y-59445000D03*
X149250000Y-60715000D03*
X158750000Y-60715000D03*
X158750000Y-59445000D03*
X158750000Y-58175000D03*
X158750000Y-56905000D03*
X158750000Y-55635000D03*
X158750000Y-54365000D03*
X158750000Y-53095000D03*
X158750000Y-51825000D03*
X158750000Y-50555000D03*
X158750000Y-49285000D03*
X149250000Y-80635000D03*
X149250000Y-79365000D03*
X149250000Y-78095000D03*
X149250000Y-76825000D03*
X149250000Y-75555000D03*
X149250000Y-74285000D03*
X149250000Y-81905000D03*
X149250000Y-83175000D03*
X149250000Y-84445000D03*
X149250000Y-85715000D03*
X158750000Y-85715000D03*
X158750000Y-84445000D03*
X158750000Y-83175000D03*
X158750000Y-81905000D03*
X158750000Y-80635000D03*
X158750000Y-79365000D03*
X158750000Y-78095000D03*
X158750000Y-76825000D03*
X158750000Y-75555000D03*
X158750000Y-74285000D03*
X149250000Y-105635000D03*
X149250000Y-104365000D03*
X149250000Y-103095000D03*
X149250000Y-101825000D03*
X149250000Y-100555000D03*
X149250000Y-99285000D03*
X149250000Y-106905000D03*
X149250000Y-108175000D03*
X149250000Y-109445000D03*
X149250000Y-110715000D03*
X158750000Y-110715000D03*
X158750000Y-109445000D03*
X158750000Y-108175000D03*
X158750000Y-106905000D03*
X158750000Y-105635000D03*
X158750000Y-104365000D03*
X158750000Y-103095000D03*
X158750000Y-101825000D03*
X158750000Y-100555000D03*
X158750000Y-99285000D03*
X149250000Y-130635000D03*
X149250000Y-129365000D03*
X149250000Y-128095000D03*
X149250000Y-126825000D03*
X149250000Y-125555000D03*
X149250000Y-124285000D03*
X149250000Y-131905000D03*
X149250000Y-133175000D03*
X149250000Y-134445000D03*
X149250000Y-135715000D03*
X158750000Y-135715000D03*
X158750000Y-134445000D03*
X158750000Y-133175000D03*
X158750000Y-131905000D03*
X158750000Y-130635000D03*
X158750000Y-129365000D03*
X158750000Y-128095000D03*
X158750000Y-126825000D03*
X158750000Y-125555000D03*
X158750000Y-124285000D03*
M02*
