%TF.GenerationSoftware,KiCad,Pcbnew,(5.1.5)-3*%
%TF.CreationDate,2020-07-23T08:34:40+02:00*%
%TF.ProjectId,Alexandrie,416c6578-616e-4647-9269-652e6b696361,rev?*%
%TF.SameCoordinates,Original*%
%TF.FileFunction,Legend,Bot*%
%TF.FilePolarity,Positive*%
%FSLAX46Y46*%
G04 Gerber Fmt 4.6, Leading zero omitted, Abs format (unit mm)*
G04 Created by KiCad (PCBNEW (5.1.5)-3) date 2020-07-23 08:34:40*
%MOMM*%
%LPD*%
G04 APERTURE LIST*
%ADD10C,0.300000*%
G04 APERTURE END LIST*
D10*
X175519285Y-56700000D02*
X174805000Y-56700000D01*
X175662142Y-57128571D02*
X175162142Y-55628571D01*
X174662142Y-57128571D01*
X174162142Y-56128571D02*
X174162142Y-57128571D01*
X174162142Y-56271428D02*
X174090714Y-56200000D01*
X173947857Y-56128571D01*
X173733571Y-56128571D01*
X173590714Y-56200000D01*
X173519285Y-56342857D01*
X173519285Y-57128571D01*
X172162142Y-57128571D02*
X172162142Y-55628571D01*
X172162142Y-57057142D02*
X172305000Y-57128571D01*
X172590714Y-57128571D01*
X172733571Y-57057142D01*
X172805000Y-56985714D01*
X172876428Y-56842857D01*
X172876428Y-56414285D01*
X172805000Y-56271428D01*
X172733571Y-56200000D01*
X172590714Y-56128571D01*
X172305000Y-56128571D01*
X172162142Y-56200000D01*
X170090714Y-57128571D02*
X170233571Y-57057142D01*
X170305000Y-56985714D01*
X170376428Y-56842857D01*
X170376428Y-56414285D01*
X170305000Y-56271428D01*
X170233571Y-56200000D01*
X170090714Y-56128571D01*
X169876428Y-56128571D01*
X169733571Y-56200000D01*
X169662142Y-56271428D01*
X169590714Y-56414285D01*
X169590714Y-56842857D01*
X169662142Y-56985714D01*
X169733571Y-57057142D01*
X169876428Y-57128571D01*
X170090714Y-57128571D01*
X168947857Y-56128571D02*
X168947857Y-57128571D01*
X168947857Y-56271428D02*
X168876428Y-56200000D01*
X168733571Y-56128571D01*
X168519285Y-56128571D01*
X168376428Y-56200000D01*
X168305000Y-56342857D01*
X168305000Y-57128571D01*
X166662142Y-56128571D02*
X166090714Y-56128571D01*
X166447857Y-55628571D02*
X166447857Y-56914285D01*
X166376428Y-57057142D01*
X166233571Y-57128571D01*
X166090714Y-57128571D01*
X165590714Y-57128571D02*
X165590714Y-55628571D01*
X164947857Y-57128571D02*
X164947857Y-56342857D01*
X165019285Y-56200000D01*
X165162142Y-56128571D01*
X165376428Y-56128571D01*
X165519285Y-56200000D01*
X165590714Y-56271428D01*
X163662142Y-57057142D02*
X163805000Y-57128571D01*
X164090714Y-57128571D01*
X164233571Y-57057142D01*
X164305000Y-56914285D01*
X164305000Y-56342857D01*
X164233571Y-56200000D01*
X164090714Y-56128571D01*
X163805000Y-56128571D01*
X163662142Y-56200000D01*
X163590714Y-56342857D01*
X163590714Y-56485714D01*
X164305000Y-56628571D01*
X161805000Y-56128571D02*
X161805000Y-57628571D01*
X161805000Y-56200000D02*
X161662142Y-56128571D01*
X161376428Y-56128571D01*
X161233571Y-56200000D01*
X161162142Y-56271428D01*
X161090714Y-56414285D01*
X161090714Y-56842857D01*
X161162142Y-56985714D01*
X161233571Y-57057142D01*
X161376428Y-57128571D01*
X161662142Y-57128571D01*
X161805000Y-57057142D01*
X159876428Y-57057142D02*
X160019285Y-57128571D01*
X160305000Y-57128571D01*
X160447857Y-57057142D01*
X160519285Y-56914285D01*
X160519285Y-56342857D01*
X160447857Y-56200000D01*
X160305000Y-56128571D01*
X160019285Y-56128571D01*
X159876428Y-56200000D01*
X159805000Y-56342857D01*
X159805000Y-56485714D01*
X160519285Y-56628571D01*
X158519285Y-57128571D02*
X158519285Y-55628571D01*
X158519285Y-57057142D02*
X158662142Y-57128571D01*
X158947857Y-57128571D01*
X159090714Y-57057142D01*
X159162142Y-56985714D01*
X159233571Y-56842857D01*
X159233571Y-56414285D01*
X159162142Y-56271428D01*
X159090714Y-56200000D01*
X158947857Y-56128571D01*
X158662142Y-56128571D01*
X158519285Y-56200000D01*
X157233571Y-57057142D02*
X157376428Y-57128571D01*
X157662142Y-57128571D01*
X157805000Y-57057142D01*
X157876428Y-56914285D01*
X157876428Y-56342857D01*
X157805000Y-56200000D01*
X157662142Y-56128571D01*
X157376428Y-56128571D01*
X157233571Y-56200000D01*
X157162142Y-56342857D01*
X157162142Y-56485714D01*
X157876428Y-56628571D01*
X156590714Y-57057142D02*
X156447857Y-57128571D01*
X156162142Y-57128571D01*
X156019285Y-57057142D01*
X155947857Y-56914285D01*
X155947857Y-56842857D01*
X156019285Y-56700000D01*
X156162142Y-56628571D01*
X156376428Y-56628571D01*
X156519285Y-56557142D01*
X156590714Y-56414285D01*
X156590714Y-56342857D01*
X156519285Y-56200000D01*
X156376428Y-56128571D01*
X156162142Y-56128571D01*
X156019285Y-56200000D01*
X155519285Y-56128571D02*
X154947857Y-56128571D01*
X155305000Y-55628571D02*
X155305000Y-56914285D01*
X155233571Y-57057142D01*
X155090714Y-57128571D01*
X154947857Y-57128571D01*
X153805000Y-57128571D02*
X153805000Y-56342857D01*
X153876428Y-56200000D01*
X154019285Y-56128571D01*
X154305000Y-56128571D01*
X154447857Y-56200000D01*
X153805000Y-57057142D02*
X153947857Y-57128571D01*
X154305000Y-57128571D01*
X154447857Y-57057142D01*
X154519285Y-56914285D01*
X154519285Y-56771428D01*
X154447857Y-56628571D01*
X154305000Y-56557142D01*
X153947857Y-56557142D01*
X153805000Y-56485714D01*
X152876428Y-57128571D02*
X153019285Y-57057142D01*
X153090714Y-56914285D01*
X153090714Y-55628571D01*
X151376428Y-56128571D02*
X150805000Y-56128571D01*
X151162142Y-55628571D02*
X151162142Y-56914285D01*
X151090714Y-57057142D01*
X150947857Y-57128571D01*
X150805000Y-57128571D01*
X150305000Y-57128571D02*
X150305000Y-55628571D01*
X149662142Y-57128571D02*
X149662142Y-56342857D01*
X149733571Y-56200000D01*
X149876428Y-56128571D01*
X150090714Y-56128571D01*
X150233571Y-56200000D01*
X150305000Y-56271428D01*
X148376428Y-57057142D02*
X148519285Y-57128571D01*
X148805000Y-57128571D01*
X148947857Y-57057142D01*
X149019285Y-56914285D01*
X149019285Y-56342857D01*
X148947857Y-56200000D01*
X148805000Y-56128571D01*
X148519285Y-56128571D01*
X148376428Y-56200000D01*
X148305000Y-56342857D01*
X148305000Y-56485714D01*
X149019285Y-56628571D01*
X147733571Y-57057142D02*
X147590714Y-57128571D01*
X147305000Y-57128571D01*
X147162142Y-57057142D01*
X147090714Y-56914285D01*
X147090714Y-56842857D01*
X147162142Y-56700000D01*
X147305000Y-56628571D01*
X147519285Y-56628571D01*
X147662142Y-56557142D01*
X147733571Y-56414285D01*
X147733571Y-56342857D01*
X147662142Y-56200000D01*
X147519285Y-56128571D01*
X147305000Y-56128571D01*
X147162142Y-56200000D01*
X145876428Y-57057142D02*
X146019285Y-57128571D01*
X146305000Y-57128571D01*
X146447857Y-57057142D01*
X146519285Y-56914285D01*
X146519285Y-56342857D01*
X146447857Y-56200000D01*
X146305000Y-56128571D01*
X146019285Y-56128571D01*
X145876428Y-56200000D01*
X145805000Y-56342857D01*
X145805000Y-56485714D01*
X146519285Y-56628571D01*
X144162142Y-56128571D02*
X143876428Y-57128571D01*
X143590714Y-56414285D01*
X143305000Y-57128571D01*
X143019285Y-56128571D01*
X142233571Y-57128571D02*
X142376428Y-57057142D01*
X142447857Y-56985714D01*
X142519285Y-56842857D01*
X142519285Y-56414285D01*
X142447857Y-56271428D01*
X142376428Y-56200000D01*
X142233571Y-56128571D01*
X142019285Y-56128571D01*
X141876428Y-56200000D01*
X141805000Y-56271428D01*
X141733571Y-56414285D01*
X141733571Y-56842857D01*
X141805000Y-56985714D01*
X141876428Y-57057142D01*
X142019285Y-57128571D01*
X142233571Y-57128571D01*
X141090714Y-57128571D02*
X141090714Y-56128571D01*
X141090714Y-56414285D02*
X141019285Y-56271428D01*
X140947857Y-56200000D01*
X140805000Y-56128571D01*
X140662142Y-56128571D01*
X139519285Y-57128571D02*
X139519285Y-55628571D01*
X139519285Y-57057142D02*
X139662142Y-57128571D01*
X139947857Y-57128571D01*
X140090714Y-57057142D01*
X140162142Y-56985714D01*
X140233571Y-56842857D01*
X140233571Y-56414285D01*
X140162142Y-56271428D01*
X140090714Y-56200000D01*
X139947857Y-56128571D01*
X139662142Y-56128571D01*
X139519285Y-56200000D01*
X138876428Y-57057142D02*
X138733571Y-57128571D01*
X138447857Y-57128571D01*
X138305000Y-57057142D01*
X138233571Y-56914285D01*
X138233571Y-56842857D01*
X138305000Y-56700000D01*
X138447857Y-56628571D01*
X138662142Y-56628571D01*
X138805000Y-56557142D01*
X138876428Y-56414285D01*
X138876428Y-56342857D01*
X138805000Y-56200000D01*
X138662142Y-56128571D01*
X138447857Y-56128571D01*
X138305000Y-56200000D01*
X135805000Y-57128571D02*
X135805000Y-56342857D01*
X135876428Y-56200000D01*
X136019285Y-56128571D01*
X136305000Y-56128571D01*
X136447857Y-56200000D01*
X135805000Y-57057142D02*
X135947857Y-57128571D01*
X136305000Y-57128571D01*
X136447857Y-57057142D01*
X136519285Y-56914285D01*
X136519285Y-56771428D01*
X136447857Y-56628571D01*
X136305000Y-56557142D01*
X135947857Y-56557142D01*
X135805000Y-56485714D01*
X135090714Y-56128571D02*
X135090714Y-57628571D01*
X135090714Y-56200000D02*
X134947857Y-56128571D01*
X134662142Y-56128571D01*
X134519285Y-56200000D01*
X134447857Y-56271428D01*
X134376428Y-56414285D01*
X134376428Y-56842857D01*
X134447857Y-56985714D01*
X134519285Y-57057142D01*
X134662142Y-57128571D01*
X134947857Y-57128571D01*
X135090714Y-57057142D01*
X133733571Y-56128571D02*
X133733571Y-57628571D01*
X133733571Y-56200000D02*
X133590714Y-56128571D01*
X133305000Y-56128571D01*
X133162142Y-56200000D01*
X133090714Y-56271428D01*
X133019285Y-56414285D01*
X133019285Y-56842857D01*
X133090714Y-56985714D01*
X133162142Y-57057142D01*
X133305000Y-57128571D01*
X133590714Y-57128571D01*
X133733571Y-57057142D01*
X131805000Y-57057142D02*
X131947857Y-57128571D01*
X132233571Y-57128571D01*
X132376428Y-57057142D01*
X132447857Y-56914285D01*
X132447857Y-56342857D01*
X132376428Y-56200000D01*
X132233571Y-56128571D01*
X131947857Y-56128571D01*
X131805000Y-56200000D01*
X131733571Y-56342857D01*
X131733571Y-56485714D01*
X132447857Y-56628571D01*
X130447857Y-57128571D02*
X130447857Y-56342857D01*
X130519285Y-56200000D01*
X130662142Y-56128571D01*
X130947857Y-56128571D01*
X131090714Y-56200000D01*
X130447857Y-57057142D02*
X130590714Y-57128571D01*
X130947857Y-57128571D01*
X131090714Y-57057142D01*
X131162142Y-56914285D01*
X131162142Y-56771428D01*
X131090714Y-56628571D01*
X130947857Y-56557142D01*
X130590714Y-56557142D01*
X130447857Y-56485714D01*
X129733571Y-57128571D02*
X129733571Y-56128571D01*
X129733571Y-56414285D02*
X129662142Y-56271428D01*
X129590714Y-56200000D01*
X129447857Y-56128571D01*
X129305000Y-56128571D01*
X128805000Y-56985714D02*
X128733571Y-57057142D01*
X128805000Y-57128571D01*
X128876428Y-57057142D01*
X128805000Y-56985714D01*
X128805000Y-57128571D01*
X128805000Y-56200000D02*
X128733571Y-56271428D01*
X128805000Y-56342857D01*
X128876428Y-56271428D01*
X128805000Y-56200000D01*
X128805000Y-56342857D01*
X175519285Y-58178571D02*
X175519285Y-58464285D01*
X174947857Y-58178571D02*
X174947857Y-58464285D01*
X174305000Y-59678571D02*
X174305000Y-58178571D01*
X173805000Y-59250000D01*
X173305000Y-58178571D01*
X173305000Y-59678571D01*
X172733571Y-58678571D02*
X172376428Y-59678571D01*
X172019285Y-58678571D02*
X172376428Y-59678571D01*
X172519285Y-60035714D01*
X172590714Y-60107142D01*
X172733571Y-60178571D01*
X170305000Y-58678571D02*
X170305000Y-59678571D01*
X170305000Y-58821428D02*
X170233571Y-58750000D01*
X170090714Y-58678571D01*
X169876428Y-58678571D01*
X169733571Y-58750000D01*
X169662142Y-58892857D01*
X169662142Y-59678571D01*
X168305000Y-59678571D02*
X168305000Y-58892857D01*
X168376428Y-58750000D01*
X168519285Y-58678571D01*
X168805000Y-58678571D01*
X168947857Y-58750000D01*
X168305000Y-59607142D02*
X168447857Y-59678571D01*
X168805000Y-59678571D01*
X168947857Y-59607142D01*
X169019285Y-59464285D01*
X169019285Y-59321428D01*
X168947857Y-59178571D01*
X168805000Y-59107142D01*
X168447857Y-59107142D01*
X168305000Y-59035714D01*
X167590714Y-59678571D02*
X167590714Y-58678571D01*
X167590714Y-58821428D02*
X167519285Y-58750000D01*
X167376428Y-58678571D01*
X167162142Y-58678571D01*
X167019285Y-58750000D01*
X166947857Y-58892857D01*
X166947857Y-59678571D01*
X166947857Y-58892857D02*
X166876428Y-58750000D01*
X166733571Y-58678571D01*
X166519285Y-58678571D01*
X166376428Y-58750000D01*
X166305000Y-58892857D01*
X166305000Y-59678571D01*
X165019285Y-59607142D02*
X165162142Y-59678571D01*
X165447857Y-59678571D01*
X165590714Y-59607142D01*
X165662142Y-59464285D01*
X165662142Y-58892857D01*
X165590714Y-58750000D01*
X165447857Y-58678571D01*
X165162142Y-58678571D01*
X165019285Y-58750000D01*
X164947857Y-58892857D01*
X164947857Y-59035714D01*
X165662142Y-59178571D01*
X163162142Y-59678571D02*
X163162142Y-58678571D01*
X163162142Y-58178571D02*
X163233571Y-58250000D01*
X163162142Y-58321428D01*
X163090714Y-58250000D01*
X163162142Y-58178571D01*
X163162142Y-58321428D01*
X162519285Y-59607142D02*
X162376428Y-59678571D01*
X162090714Y-59678571D01*
X161947857Y-59607142D01*
X161876428Y-59464285D01*
X161876428Y-59392857D01*
X161947857Y-59250000D01*
X162090714Y-59178571D01*
X162305000Y-59178571D01*
X162447857Y-59107142D01*
X162519285Y-58964285D01*
X162519285Y-58892857D01*
X162447857Y-58750000D01*
X162305000Y-58678571D01*
X162090714Y-58678571D01*
X161947857Y-58750000D01*
X159805000Y-58178571D02*
X159519285Y-58178571D01*
X159376428Y-58250000D01*
X159233571Y-58392857D01*
X159162142Y-58678571D01*
X159162142Y-59178571D01*
X159233571Y-59464285D01*
X159376428Y-59607142D01*
X159519285Y-59678571D01*
X159805000Y-59678571D01*
X159947857Y-59607142D01*
X160090714Y-59464285D01*
X160162142Y-59178571D01*
X160162142Y-58678571D01*
X160090714Y-58392857D01*
X159947857Y-58250000D01*
X159805000Y-58178571D01*
X158662142Y-58678571D02*
X157876428Y-58678571D01*
X158662142Y-59678571D01*
X157876428Y-59678571D01*
X157447857Y-58678571D02*
X157090714Y-59678571D01*
X156733571Y-58678571D02*
X157090714Y-59678571D01*
X157233571Y-60035714D01*
X157305000Y-60107142D01*
X157447857Y-60178571D01*
X156162142Y-59678571D02*
X156162142Y-58678571D01*
X156162142Y-58821428D02*
X156090714Y-58750000D01*
X155947857Y-58678571D01*
X155733571Y-58678571D01*
X155590714Y-58750000D01*
X155519285Y-58892857D01*
X155519285Y-59678571D01*
X155519285Y-58892857D02*
X155447857Y-58750000D01*
X155305000Y-58678571D01*
X155090714Y-58678571D01*
X154947857Y-58750000D01*
X154876428Y-58892857D01*
X154876428Y-59678571D01*
X153519285Y-59678571D02*
X153519285Y-58892857D01*
X153590714Y-58750000D01*
X153733571Y-58678571D01*
X154019285Y-58678571D01*
X154162142Y-58750000D01*
X153519285Y-59607142D02*
X153662142Y-59678571D01*
X154019285Y-59678571D01*
X154162142Y-59607142D01*
X154233571Y-59464285D01*
X154233571Y-59321428D01*
X154162142Y-59178571D01*
X154019285Y-59107142D01*
X153662142Y-59107142D01*
X153519285Y-59035714D01*
X152805000Y-58678571D02*
X152805000Y-59678571D01*
X152805000Y-58821428D02*
X152733571Y-58750000D01*
X152590714Y-58678571D01*
X152376428Y-58678571D01*
X152233571Y-58750000D01*
X152162142Y-58892857D01*
X152162142Y-59678571D01*
X150805000Y-59678571D02*
X150805000Y-58178571D01*
X150805000Y-59607142D02*
X150947857Y-59678571D01*
X151233571Y-59678571D01*
X151376428Y-59607142D01*
X151447857Y-59535714D01*
X151519285Y-59392857D01*
X151519285Y-58964285D01*
X151447857Y-58821428D01*
X151376428Y-58750000D01*
X151233571Y-58678571D01*
X150947857Y-58678571D01*
X150805000Y-58750000D01*
X150090714Y-59678571D02*
X150090714Y-58678571D01*
X150090714Y-58178571D02*
X150162142Y-58250000D01*
X150090714Y-58321428D01*
X150019285Y-58250000D01*
X150090714Y-58178571D01*
X150090714Y-58321428D01*
X148733571Y-59678571D02*
X148733571Y-58892857D01*
X148805000Y-58750000D01*
X148947857Y-58678571D01*
X149233571Y-58678571D01*
X149376428Y-58750000D01*
X148733571Y-59607142D02*
X148876428Y-59678571D01*
X149233571Y-59678571D01*
X149376428Y-59607142D01*
X149447857Y-59464285D01*
X149447857Y-59321428D01*
X149376428Y-59178571D01*
X149233571Y-59107142D01*
X148876428Y-59107142D01*
X148733571Y-59035714D01*
X148090714Y-59607142D02*
X147947857Y-59678571D01*
X147662142Y-59678571D01*
X147519285Y-59607142D01*
X147447857Y-59464285D01*
X147447857Y-59392857D01*
X147519285Y-59250000D01*
X147662142Y-59178571D01*
X147876428Y-59178571D01*
X148019285Y-59107142D01*
X148090714Y-58964285D01*
X148090714Y-58892857D01*
X148019285Y-58750000D01*
X147876428Y-58678571D01*
X147662142Y-58678571D01*
X147519285Y-58750000D01*
X146733571Y-59607142D02*
X146733571Y-59678571D01*
X146805000Y-59821428D01*
X146876428Y-59892857D01*
X144947857Y-59678571D02*
X144947857Y-58178571D01*
X144805000Y-59107142D02*
X144376428Y-59678571D01*
X144376428Y-58678571D02*
X144947857Y-59250000D01*
X143733571Y-59678571D02*
X143733571Y-58678571D01*
X143733571Y-58178571D02*
X143805000Y-58250000D01*
X143733571Y-58321428D01*
X143662142Y-58250000D01*
X143733571Y-58178571D01*
X143733571Y-58321428D01*
X143019285Y-58678571D02*
X143019285Y-59678571D01*
X143019285Y-58821428D02*
X142947857Y-58750000D01*
X142805000Y-58678571D01*
X142590714Y-58678571D01*
X142447857Y-58750000D01*
X142376428Y-58892857D01*
X142376428Y-59678571D01*
X141019285Y-58678571D02*
X141019285Y-59892857D01*
X141090714Y-60035714D01*
X141162142Y-60107142D01*
X141305000Y-60178571D01*
X141519285Y-60178571D01*
X141662142Y-60107142D01*
X141019285Y-59607142D02*
X141162142Y-59678571D01*
X141447857Y-59678571D01*
X141590714Y-59607142D01*
X141662142Y-59535714D01*
X141733571Y-59392857D01*
X141733571Y-58964285D01*
X141662142Y-58821428D01*
X141590714Y-58750000D01*
X141447857Y-58678571D01*
X141162142Y-58678571D01*
X141019285Y-58750000D01*
X138947857Y-59678571D02*
X139090714Y-59607142D01*
X139162142Y-59535714D01*
X139233571Y-59392857D01*
X139233571Y-58964285D01*
X139162142Y-58821428D01*
X139090714Y-58750000D01*
X138947857Y-58678571D01*
X138733571Y-58678571D01*
X138590714Y-58750000D01*
X138519285Y-58821428D01*
X138447857Y-58964285D01*
X138447857Y-59392857D01*
X138519285Y-59535714D01*
X138590714Y-59607142D01*
X138733571Y-59678571D01*
X138947857Y-59678571D01*
X138019285Y-58678571D02*
X137447857Y-58678571D01*
X137805000Y-59678571D02*
X137805000Y-58392857D01*
X137733571Y-58250000D01*
X137590714Y-58178571D01*
X137447857Y-58178571D01*
X135805000Y-59678571D02*
X135805000Y-58178571D01*
X135662142Y-59107142D02*
X135233571Y-59678571D01*
X135233571Y-58678571D02*
X135805000Y-59250000D01*
X134590714Y-59678571D02*
X134590714Y-58678571D01*
X134590714Y-58178571D02*
X134662142Y-58250000D01*
X134590714Y-58321428D01*
X134519285Y-58250000D01*
X134590714Y-58178571D01*
X134590714Y-58321428D01*
X133876428Y-58678571D02*
X133876428Y-59678571D01*
X133876428Y-58821428D02*
X133805000Y-58750000D01*
X133662142Y-58678571D01*
X133447857Y-58678571D01*
X133305000Y-58750000D01*
X133233571Y-58892857D01*
X133233571Y-59678571D01*
X131876428Y-58678571D02*
X131876428Y-59892857D01*
X131947857Y-60035714D01*
X132019285Y-60107142D01*
X132162142Y-60178571D01*
X132376428Y-60178571D01*
X132519285Y-60107142D01*
X131876428Y-59607142D02*
X132019285Y-59678571D01*
X132305000Y-59678571D01*
X132447857Y-59607142D01*
X132519285Y-59535714D01*
X132590714Y-59392857D01*
X132590714Y-58964285D01*
X132519285Y-58821428D01*
X132447857Y-58750000D01*
X132305000Y-58678571D01*
X132019285Y-58678571D01*
X131876428Y-58750000D01*
X131233571Y-59607142D02*
X131090714Y-59678571D01*
X130805000Y-59678571D01*
X130662142Y-59607142D01*
X130590714Y-59464285D01*
X130590714Y-59392857D01*
X130662142Y-59250000D01*
X130805000Y-59178571D01*
X131019285Y-59178571D01*
X131162142Y-59107142D01*
X131233571Y-58964285D01*
X131233571Y-58892857D01*
X131162142Y-58750000D01*
X131019285Y-58678571D01*
X130805000Y-58678571D01*
X130662142Y-58750000D01*
X129947857Y-59535714D02*
X129876428Y-59607142D01*
X129947857Y-59678571D01*
X130019285Y-59607142D01*
X129947857Y-59535714D01*
X129947857Y-59678571D01*
X129947857Y-58750000D02*
X129876428Y-58821428D01*
X129947857Y-58892857D01*
X130019285Y-58821428D01*
X129947857Y-58750000D01*
X129947857Y-58892857D01*
X174733571Y-62228571D02*
X175447857Y-62228571D01*
X175447857Y-60728571D01*
X174019285Y-62228571D02*
X174162142Y-62157142D01*
X174233571Y-62085714D01*
X174305000Y-61942857D01*
X174305000Y-61514285D01*
X174233571Y-61371428D01*
X174162142Y-61300000D01*
X174019285Y-61228571D01*
X173805000Y-61228571D01*
X173662142Y-61300000D01*
X173590714Y-61371428D01*
X173519285Y-61514285D01*
X173519285Y-61942857D01*
X173590714Y-62085714D01*
X173662142Y-62157142D01*
X173805000Y-62228571D01*
X174019285Y-62228571D01*
X172662142Y-62228571D02*
X172805000Y-62157142D01*
X172876428Y-62085714D01*
X172947857Y-61942857D01*
X172947857Y-61514285D01*
X172876428Y-61371428D01*
X172805000Y-61300000D01*
X172662142Y-61228571D01*
X172447857Y-61228571D01*
X172305000Y-61300000D01*
X172233571Y-61371428D01*
X172162142Y-61514285D01*
X172162142Y-61942857D01*
X172233571Y-62085714D01*
X172305000Y-62157142D01*
X172447857Y-62228571D01*
X172662142Y-62228571D01*
X171519285Y-62228571D02*
X171519285Y-60728571D01*
X171376428Y-61657142D02*
X170947857Y-62228571D01*
X170947857Y-61228571D02*
X171519285Y-61800000D01*
X168947857Y-62228571D02*
X169090714Y-62157142D01*
X169162142Y-62085714D01*
X169233571Y-61942857D01*
X169233571Y-61514285D01*
X169162142Y-61371428D01*
X169090714Y-61300000D01*
X168947857Y-61228571D01*
X168733571Y-61228571D01*
X168590714Y-61300000D01*
X168519285Y-61371428D01*
X168447857Y-61514285D01*
X168447857Y-61942857D01*
X168519285Y-62085714D01*
X168590714Y-62157142D01*
X168733571Y-62228571D01*
X168947857Y-62228571D01*
X167805000Y-61228571D02*
X167805000Y-62228571D01*
X167805000Y-61371428D02*
X167733571Y-61300000D01*
X167590714Y-61228571D01*
X167376428Y-61228571D01*
X167233571Y-61300000D01*
X167162142Y-61442857D01*
X167162142Y-62228571D01*
X165305000Y-62228571D02*
X165305000Y-61228571D01*
X165305000Y-61371428D02*
X165233571Y-61300000D01*
X165090714Y-61228571D01*
X164876428Y-61228571D01*
X164733571Y-61300000D01*
X164662142Y-61442857D01*
X164662142Y-62228571D01*
X164662142Y-61442857D02*
X164590714Y-61300000D01*
X164447857Y-61228571D01*
X164233571Y-61228571D01*
X164090714Y-61300000D01*
X164019285Y-61442857D01*
X164019285Y-62228571D01*
X163447857Y-61228571D02*
X163090714Y-62228571D01*
X162733571Y-61228571D02*
X163090714Y-62228571D01*
X163233571Y-62585714D01*
X163305000Y-62657142D01*
X163447857Y-62728571D01*
X161162142Y-61228571D02*
X160876428Y-62228571D01*
X160590714Y-61514285D01*
X160305000Y-62228571D01*
X160019285Y-61228571D01*
X159233571Y-62228571D02*
X159376428Y-62157142D01*
X159447857Y-62085714D01*
X159519285Y-61942857D01*
X159519285Y-61514285D01*
X159447857Y-61371428D01*
X159376428Y-61300000D01*
X159233571Y-61228571D01*
X159019285Y-61228571D01*
X158876428Y-61300000D01*
X158805000Y-61371428D01*
X158733571Y-61514285D01*
X158733571Y-61942857D01*
X158805000Y-62085714D01*
X158876428Y-62157142D01*
X159019285Y-62228571D01*
X159233571Y-62228571D01*
X158090714Y-62228571D02*
X158090714Y-61228571D01*
X158090714Y-61514285D02*
X158019285Y-61371428D01*
X157947857Y-61300000D01*
X157805000Y-61228571D01*
X157662142Y-61228571D01*
X157162142Y-62228571D02*
X157162142Y-60728571D01*
X157019285Y-61657142D02*
X156590714Y-62228571D01*
X156590714Y-61228571D02*
X157162142Y-61800000D01*
X156019285Y-62157142D02*
X155876428Y-62228571D01*
X155590714Y-62228571D01*
X155447857Y-62157142D01*
X155376428Y-62014285D01*
X155376428Y-61942857D01*
X155447857Y-61800000D01*
X155590714Y-61728571D01*
X155805000Y-61728571D01*
X155947857Y-61657142D01*
X156019285Y-61514285D01*
X156019285Y-61442857D01*
X155947857Y-61300000D01*
X155805000Y-61228571D01*
X155590714Y-61228571D01*
X155447857Y-61300000D01*
X154662142Y-62157142D02*
X154662142Y-62228571D01*
X154733571Y-62371428D01*
X154805000Y-62442857D01*
X152590714Y-61514285D02*
X152590714Y-62228571D01*
X153090714Y-60728571D02*
X152590714Y-61514285D01*
X152090714Y-60728571D01*
X151019285Y-62157142D02*
X151162142Y-62228571D01*
X151447857Y-62228571D01*
X151590714Y-62157142D01*
X151662142Y-62014285D01*
X151662142Y-61442857D01*
X151590714Y-61300000D01*
X151447857Y-61228571D01*
X151162142Y-61228571D01*
X151019285Y-61300000D01*
X150947857Y-61442857D01*
X150947857Y-61585714D01*
X151662142Y-61728571D01*
X149162142Y-62228571D02*
X149162142Y-60728571D01*
X148662142Y-61800000D01*
X148162142Y-60728571D01*
X148162142Y-62228571D01*
X147447857Y-62228571D02*
X147447857Y-61228571D01*
X147447857Y-60728571D02*
X147519285Y-60800000D01*
X147447857Y-60871428D01*
X147376428Y-60800000D01*
X147447857Y-60728571D01*
X147447857Y-60871428D01*
X146090714Y-61228571D02*
X146090714Y-62442857D01*
X146162142Y-62585714D01*
X146233571Y-62657142D01*
X146376428Y-62728571D01*
X146590714Y-62728571D01*
X146733571Y-62657142D01*
X146090714Y-62157142D02*
X146233571Y-62228571D01*
X146519285Y-62228571D01*
X146662142Y-62157142D01*
X146733571Y-62085714D01*
X146805000Y-61942857D01*
X146805000Y-61514285D01*
X146733571Y-61371428D01*
X146662142Y-61300000D01*
X146519285Y-61228571D01*
X146233571Y-61228571D01*
X146090714Y-61300000D01*
X145376428Y-62228571D02*
X145376428Y-60728571D01*
X144733571Y-62228571D02*
X144733571Y-61442857D01*
X144805000Y-61300000D01*
X144947857Y-61228571D01*
X145162142Y-61228571D01*
X145305000Y-61300000D01*
X145376428Y-61371428D01*
X144233571Y-61228571D02*
X143662142Y-61228571D01*
X144019285Y-60728571D02*
X144019285Y-62014285D01*
X143947857Y-62157142D01*
X143805000Y-62228571D01*
X143662142Y-62228571D01*
X143305000Y-61228571D02*
X142947857Y-62228571D01*
X142590714Y-61228571D02*
X142947857Y-62228571D01*
X143090714Y-62585714D01*
X143162142Y-62657142D01*
X143305000Y-62728571D01*
X141947857Y-62157142D02*
X141947857Y-62228571D01*
X142019285Y-62371428D01*
X142090714Y-62442857D01*
X139519285Y-62228571D02*
X139519285Y-61442857D01*
X139590714Y-61300000D01*
X139733571Y-61228571D01*
X140019285Y-61228571D01*
X140162142Y-61300000D01*
X139519285Y-62157142D02*
X139662142Y-62228571D01*
X140019285Y-62228571D01*
X140162142Y-62157142D01*
X140233571Y-62014285D01*
X140233571Y-61871428D01*
X140162142Y-61728571D01*
X140019285Y-61657142D01*
X139662142Y-61657142D01*
X139519285Y-61585714D01*
X138805000Y-61228571D02*
X138805000Y-62228571D01*
X138805000Y-61371428D02*
X138733571Y-61300000D01*
X138590714Y-61228571D01*
X138376428Y-61228571D01*
X138233571Y-61300000D01*
X138162142Y-61442857D01*
X138162142Y-62228571D01*
X136805000Y-62228571D02*
X136805000Y-60728571D01*
X136805000Y-62157142D02*
X136947857Y-62228571D01*
X137233571Y-62228571D01*
X137376428Y-62157142D01*
X137447857Y-62085714D01*
X137519285Y-61942857D01*
X137519285Y-61514285D01*
X137447857Y-61371428D01*
X137376428Y-61300000D01*
X137233571Y-61228571D01*
X136947857Y-61228571D01*
X136805000Y-61300000D01*
X134305000Y-62228571D02*
X134305000Y-60728571D01*
X134305000Y-62157142D02*
X134447857Y-62228571D01*
X134733571Y-62228571D01*
X134876428Y-62157142D01*
X134947857Y-62085714D01*
X135019285Y-61942857D01*
X135019285Y-61514285D01*
X134947857Y-61371428D01*
X134876428Y-61300000D01*
X134733571Y-61228571D01*
X134447857Y-61228571D01*
X134305000Y-61300000D01*
X133019285Y-62157142D02*
X133162142Y-62228571D01*
X133447857Y-62228571D01*
X133590714Y-62157142D01*
X133662142Y-62014285D01*
X133662142Y-61442857D01*
X133590714Y-61300000D01*
X133447857Y-61228571D01*
X133162142Y-61228571D01*
X133019285Y-61300000D01*
X132947857Y-61442857D01*
X132947857Y-61585714D01*
X133662142Y-61728571D01*
X132376428Y-62157142D02*
X132233571Y-62228571D01*
X131947857Y-62228571D01*
X131805000Y-62157142D01*
X131733571Y-62014285D01*
X131733571Y-61942857D01*
X131805000Y-61800000D01*
X131947857Y-61728571D01*
X132162142Y-61728571D01*
X132305000Y-61657142D01*
X132376428Y-61514285D01*
X132376428Y-61442857D01*
X132305000Y-61300000D01*
X132162142Y-61228571D01*
X131947857Y-61228571D01*
X131805000Y-61300000D01*
X131090714Y-61228571D02*
X131090714Y-62728571D01*
X131090714Y-61300000D02*
X130947857Y-61228571D01*
X130662142Y-61228571D01*
X130519285Y-61300000D01*
X130447857Y-61371428D01*
X130376428Y-61514285D01*
X130376428Y-61942857D01*
X130447857Y-62085714D01*
X130519285Y-62157142D01*
X130662142Y-62228571D01*
X130947857Y-62228571D01*
X131090714Y-62157142D01*
X129090714Y-62228571D02*
X129090714Y-61442857D01*
X129162142Y-61300000D01*
X129305000Y-61228571D01*
X129590714Y-61228571D01*
X129733571Y-61300000D01*
X129090714Y-62157142D02*
X129233571Y-62228571D01*
X129590714Y-62228571D01*
X129733571Y-62157142D01*
X129805000Y-62014285D01*
X129805000Y-61871428D01*
X129733571Y-61728571D01*
X129590714Y-61657142D01*
X129233571Y-61657142D01*
X129090714Y-61585714D01*
X128376428Y-62228571D02*
X128376428Y-61228571D01*
X128376428Y-60728571D02*
X128447857Y-60800000D01*
X128376428Y-60871428D01*
X128305000Y-60800000D01*
X128376428Y-60728571D01*
X128376428Y-60871428D01*
X127662142Y-62228571D02*
X127662142Y-61228571D01*
X127662142Y-61514285D02*
X127590714Y-61371428D01*
X127519285Y-61300000D01*
X127376428Y-61228571D01*
X127233571Y-61228571D01*
X126733571Y-62085714D02*
X126662142Y-62157142D01*
X126733571Y-62228571D01*
X126805000Y-62157142D01*
X126733571Y-62085714D01*
X126733571Y-62228571D01*
X126733571Y-61657142D02*
X126805000Y-60800000D01*
X126733571Y-60728571D01*
X126662142Y-60800000D01*
X126733571Y-61657142D01*
X126733571Y-60728571D01*
X126090714Y-60728571D02*
X126090714Y-61014285D01*
X125519285Y-60728571D02*
X125519285Y-61014285D01*
X103380000Y-57115000D02*
X102665714Y-57115000D01*
X103522857Y-57543571D02*
X103022857Y-56043571D01*
X102522857Y-57543571D01*
X102022857Y-56543571D02*
X102022857Y-57543571D01*
X102022857Y-56686428D02*
X101951428Y-56615000D01*
X101808571Y-56543571D01*
X101594285Y-56543571D01*
X101451428Y-56615000D01*
X101380000Y-56757857D01*
X101380000Y-57543571D01*
X100880000Y-56543571D02*
X100308571Y-56543571D01*
X100665714Y-56043571D02*
X100665714Y-57329285D01*
X100594285Y-57472142D01*
X100451428Y-57543571D01*
X100308571Y-57543571D01*
X100165714Y-57686428D02*
X99022857Y-57686428D01*
X98880000Y-56043571D02*
X98022857Y-56043571D01*
X98451428Y-57543571D02*
X98451428Y-56043571D01*
X96880000Y-56543571D02*
X96880000Y-57543571D01*
X97522857Y-56543571D02*
X97522857Y-57329285D01*
X97451428Y-57472142D01*
X97308571Y-57543571D01*
X97094285Y-57543571D01*
X96951428Y-57472142D01*
X96880000Y-57400714D01*
X96165714Y-56543571D02*
X96165714Y-57543571D01*
X96165714Y-56686428D02*
X96094285Y-56615000D01*
X95951428Y-56543571D01*
X95737142Y-56543571D01*
X95594285Y-56615000D01*
X95522857Y-56757857D01*
X95522857Y-57543571D01*
X94237142Y-57472142D02*
X94380000Y-57543571D01*
X94665714Y-57543571D01*
X94808571Y-57472142D01*
X94880000Y-57329285D01*
X94880000Y-56757857D01*
X94808571Y-56615000D01*
X94665714Y-56543571D01*
X94380000Y-56543571D01*
X94237142Y-56615000D01*
X94165714Y-56757857D01*
X94165714Y-56900714D01*
X94880000Y-57043571D01*
X105237142Y-59522142D02*
X104094285Y-59522142D01*
X104665714Y-60093571D02*
X104665714Y-58950714D01*
X102594285Y-60093571D02*
X103451428Y-60093571D01*
X103022857Y-60093571D02*
X103022857Y-58593571D01*
X103165714Y-58807857D01*
X103308571Y-58950714D01*
X103451428Y-59022142D01*
X102022857Y-58736428D02*
X101951428Y-58665000D01*
X101808571Y-58593571D01*
X101451428Y-58593571D01*
X101308571Y-58665000D01*
X101237142Y-58736428D01*
X101165714Y-58879285D01*
X101165714Y-59022142D01*
X101237142Y-59236428D01*
X102094285Y-60093571D01*
X101165714Y-60093571D01*
X100737142Y-58593571D02*
X100237142Y-60093571D01*
X99737142Y-58593571D01*
X98165714Y-59665000D02*
X97451428Y-59665000D01*
X98308571Y-60093571D02*
X97808571Y-58593571D01*
X97308571Y-60093571D01*
X96594285Y-60093571D02*
X96737142Y-60022142D01*
X96808571Y-59879285D01*
X96808571Y-58593571D01*
X95451428Y-60022142D02*
X95594285Y-60093571D01*
X95880000Y-60093571D01*
X96022857Y-60022142D01*
X96094285Y-59879285D01*
X96094285Y-59307857D01*
X96022857Y-59165000D01*
X95880000Y-59093571D01*
X95594285Y-59093571D01*
X95451428Y-59165000D01*
X95380000Y-59307857D01*
X95380000Y-59450714D01*
X96094285Y-59593571D01*
X94880000Y-60093571D02*
X94094285Y-59093571D01*
X94880000Y-59093571D02*
X94094285Y-60093571D01*
X102880000Y-62572142D02*
X102665714Y-62643571D01*
X102308571Y-62643571D01*
X102165714Y-62572142D01*
X102094285Y-62500714D01*
X102022857Y-62357857D01*
X102022857Y-62215000D01*
X102094285Y-62072142D01*
X102165714Y-62000714D01*
X102308571Y-61929285D01*
X102594285Y-61857857D01*
X102737142Y-61786428D01*
X102808571Y-61715000D01*
X102880000Y-61572142D01*
X102880000Y-61429285D01*
X102808571Y-61286428D01*
X102737142Y-61215000D01*
X102594285Y-61143571D01*
X102237142Y-61143571D01*
X102022857Y-61215000D01*
X101380000Y-62643571D02*
X101380000Y-61143571D01*
X100808571Y-61143571D01*
X100665714Y-61215000D01*
X100594285Y-61286428D01*
X100522857Y-61429285D01*
X100522857Y-61643571D01*
X100594285Y-61786428D01*
X100665714Y-61857857D01*
X100808571Y-61929285D01*
X101380000Y-61929285D01*
X99880000Y-62643571D02*
X99880000Y-61143571D01*
X99522857Y-62786428D02*
X98380000Y-62786428D01*
X98094285Y-62572142D02*
X97880000Y-62643571D01*
X97522857Y-62643571D01*
X97380000Y-62572142D01*
X97308571Y-62500714D01*
X97237142Y-62357857D01*
X97237142Y-62215000D01*
X97308571Y-62072142D01*
X97380000Y-62000714D01*
X97522857Y-61929285D01*
X97808571Y-61857857D01*
X97951428Y-61786428D01*
X98022857Y-61715000D01*
X98094285Y-61572142D01*
X98094285Y-61429285D01*
X98022857Y-61286428D01*
X97951428Y-61215000D01*
X97808571Y-61143571D01*
X97451428Y-61143571D01*
X97237142Y-61215000D01*
X96594285Y-62643571D02*
X96594285Y-61143571D01*
X96237142Y-61143571D01*
X96022857Y-61215000D01*
X95880000Y-61357857D01*
X95808571Y-61500714D01*
X95737142Y-61786428D01*
X95737142Y-62000714D01*
X95808571Y-62286428D01*
X95880000Y-62429285D01*
X96022857Y-62572142D01*
X96237142Y-62643571D01*
X96594285Y-62643571D01*
X94808571Y-61143571D02*
X94522857Y-61143571D01*
X94380000Y-61215000D01*
X94237142Y-61357857D01*
X94165714Y-61643571D01*
X94165714Y-62143571D01*
X94237142Y-62429285D01*
X94380000Y-62572142D01*
X94522857Y-62643571D01*
X94808571Y-62643571D01*
X94951428Y-62572142D01*
X95094285Y-62429285D01*
X95165714Y-62143571D01*
X95165714Y-61643571D01*
X95094285Y-61357857D01*
X94951428Y-61215000D01*
X94808571Y-61143571D01*
X102808571Y-65122142D02*
X102594285Y-65193571D01*
X102237142Y-65193571D01*
X102094285Y-65122142D01*
X102022857Y-65050714D01*
X101951428Y-64907857D01*
X101951428Y-64765000D01*
X102022857Y-64622142D01*
X102094285Y-64550714D01*
X102237142Y-64479285D01*
X102522857Y-64407857D01*
X102665714Y-64336428D01*
X102737142Y-64265000D01*
X102808571Y-64122142D01*
X102808571Y-63979285D01*
X102737142Y-63836428D01*
X102665714Y-63765000D01*
X102522857Y-63693571D01*
X102165714Y-63693571D01*
X101951428Y-63765000D01*
X101308571Y-65193571D02*
X101308571Y-63693571D01*
X100737142Y-63693571D01*
X100594285Y-63765000D01*
X100522857Y-63836428D01*
X100451428Y-63979285D01*
X100451428Y-64193571D01*
X100522857Y-64336428D01*
X100594285Y-64407857D01*
X100737142Y-64479285D01*
X101308571Y-64479285D01*
X99808571Y-65193571D02*
X99808571Y-63693571D01*
X99451428Y-65336428D02*
X98308571Y-65336428D01*
X98022857Y-65122142D02*
X97808571Y-65193571D01*
X97451428Y-65193571D01*
X97308571Y-65122142D01*
X97237142Y-65050714D01*
X97165714Y-64907857D01*
X97165714Y-64765000D01*
X97237142Y-64622142D01*
X97308571Y-64550714D01*
X97451428Y-64479285D01*
X97737142Y-64407857D01*
X97880000Y-64336428D01*
X97951428Y-64265000D01*
X98022857Y-64122142D01*
X98022857Y-63979285D01*
X97951428Y-63836428D01*
X97880000Y-63765000D01*
X97737142Y-63693571D01*
X97380000Y-63693571D01*
X97165714Y-63765000D01*
X95665714Y-65050714D02*
X95737142Y-65122142D01*
X95951428Y-65193571D01*
X96094285Y-65193571D01*
X96308571Y-65122142D01*
X96451428Y-64979285D01*
X96522857Y-64836428D01*
X96594285Y-64550714D01*
X96594285Y-64336428D01*
X96522857Y-64050714D01*
X96451428Y-63907857D01*
X96308571Y-63765000D01*
X96094285Y-63693571D01*
X95951428Y-63693571D01*
X95737142Y-63765000D01*
X95665714Y-63836428D01*
X95022857Y-65193571D02*
X95022857Y-63693571D01*
X94165714Y-65193571D02*
X94808571Y-64336428D01*
X94165714Y-63693571D02*
X95022857Y-64550714D01*
X107737142Y-67672142D02*
X107522857Y-67743571D01*
X107165714Y-67743571D01*
X107022857Y-67672142D01*
X106951428Y-67600714D01*
X106880000Y-67457857D01*
X106880000Y-67315000D01*
X106951428Y-67172142D01*
X107022857Y-67100714D01*
X107165714Y-67029285D01*
X107451428Y-66957857D01*
X107594285Y-66886428D01*
X107665714Y-66815000D01*
X107737142Y-66672142D01*
X107737142Y-66529285D01*
X107665714Y-66386428D01*
X107594285Y-66315000D01*
X107451428Y-66243571D01*
X107094285Y-66243571D01*
X106880000Y-66315000D01*
X106237142Y-67743571D02*
X106237142Y-66243571D01*
X105665714Y-66243571D01*
X105522857Y-66315000D01*
X105451428Y-66386428D01*
X105380000Y-66529285D01*
X105380000Y-66743571D01*
X105451428Y-66886428D01*
X105522857Y-66957857D01*
X105665714Y-67029285D01*
X106237142Y-67029285D01*
X104737142Y-67743571D02*
X104737142Y-66243571D01*
X104380000Y-67886428D02*
X103237142Y-67886428D01*
X102022857Y-67743571D02*
X102522857Y-67029285D01*
X102880000Y-67743571D02*
X102880000Y-66243571D01*
X102308571Y-66243571D01*
X102165714Y-66315000D01*
X102094285Y-66386428D01*
X102022857Y-66529285D01*
X102022857Y-66743571D01*
X102094285Y-66886428D01*
X102165714Y-66957857D01*
X102308571Y-67029285D01*
X102880000Y-67029285D01*
X101522857Y-66243571D02*
X100522857Y-67743571D01*
X100522857Y-66243571D02*
X101522857Y-67743571D01*
X100308571Y-67886428D02*
X99165714Y-67886428D01*
X98094285Y-67743571D02*
X98808571Y-67743571D01*
X98808571Y-66243571D01*
X97380000Y-67743571D02*
X97522857Y-67672142D01*
X97594285Y-67600714D01*
X97665714Y-67457857D01*
X97665714Y-67029285D01*
X97594285Y-66886428D01*
X97522857Y-66815000D01*
X97380000Y-66743571D01*
X97165714Y-66743571D01*
X97022857Y-66815000D01*
X96951428Y-66886428D01*
X96880000Y-67029285D01*
X96880000Y-67457857D01*
X96951428Y-67600714D01*
X97022857Y-67672142D01*
X97165714Y-67743571D01*
X97380000Y-67743571D01*
X95594285Y-67743571D02*
X95594285Y-66957857D01*
X95665714Y-66815000D01*
X95808571Y-66743571D01*
X96094285Y-66743571D01*
X96237142Y-66815000D01*
X95594285Y-67672142D02*
X95737142Y-67743571D01*
X96094285Y-67743571D01*
X96237142Y-67672142D01*
X96308571Y-67529285D01*
X96308571Y-67386428D01*
X96237142Y-67243571D01*
X96094285Y-67172142D01*
X95737142Y-67172142D01*
X95594285Y-67100714D01*
X94237142Y-67743571D02*
X94237142Y-66243571D01*
X94237142Y-67672142D02*
X94380000Y-67743571D01*
X94665714Y-67743571D01*
X94808571Y-67672142D01*
X94880000Y-67600714D01*
X94951428Y-67457857D01*
X94951428Y-67029285D01*
X94880000Y-66886428D01*
X94808571Y-66815000D01*
X94665714Y-66743571D01*
X94380000Y-66743571D01*
X94237142Y-66815000D01*
X107380000Y-70222142D02*
X107165714Y-70293571D01*
X106808571Y-70293571D01*
X106665714Y-70222142D01*
X106594285Y-70150714D01*
X106522857Y-70007857D01*
X106522857Y-69865000D01*
X106594285Y-69722142D01*
X106665714Y-69650714D01*
X106808571Y-69579285D01*
X107094285Y-69507857D01*
X107237142Y-69436428D01*
X107308571Y-69365000D01*
X107380000Y-69222142D01*
X107380000Y-69079285D01*
X107308571Y-68936428D01*
X107237142Y-68865000D01*
X107094285Y-68793571D01*
X106737142Y-68793571D01*
X106522857Y-68865000D01*
X105880000Y-70293571D02*
X105880000Y-68793571D01*
X105308571Y-68793571D01*
X105165714Y-68865000D01*
X105094285Y-68936428D01*
X105022857Y-69079285D01*
X105022857Y-69293571D01*
X105094285Y-69436428D01*
X105165714Y-69507857D01*
X105308571Y-69579285D01*
X105880000Y-69579285D01*
X104380000Y-70293571D02*
X104380000Y-68793571D01*
X104022857Y-70436428D02*
X102880000Y-70436428D01*
X102737142Y-68793571D02*
X101880000Y-68793571D01*
X102308571Y-70293571D02*
X102308571Y-68793571D01*
X101522857Y-68793571D02*
X100522857Y-70293571D01*
X100522857Y-68793571D02*
X101522857Y-70293571D01*
X100308571Y-70436428D02*
X99165714Y-70436428D01*
X98094285Y-70293571D02*
X98808571Y-70293571D01*
X98808571Y-68793571D01*
X97380000Y-70293571D02*
X97522857Y-70222142D01*
X97594285Y-70150714D01*
X97665714Y-70007857D01*
X97665714Y-69579285D01*
X97594285Y-69436428D01*
X97522857Y-69365000D01*
X97380000Y-69293571D01*
X97165714Y-69293571D01*
X97022857Y-69365000D01*
X96951428Y-69436428D01*
X96880000Y-69579285D01*
X96880000Y-70007857D01*
X96951428Y-70150714D01*
X97022857Y-70222142D01*
X97165714Y-70293571D01*
X97380000Y-70293571D01*
X95594285Y-70293571D02*
X95594285Y-69507857D01*
X95665714Y-69365000D01*
X95808571Y-69293571D01*
X96094285Y-69293571D01*
X96237142Y-69365000D01*
X95594285Y-70222142D02*
X95737142Y-70293571D01*
X96094285Y-70293571D01*
X96237142Y-70222142D01*
X96308571Y-70079285D01*
X96308571Y-69936428D01*
X96237142Y-69793571D01*
X96094285Y-69722142D01*
X95737142Y-69722142D01*
X95594285Y-69650714D01*
X94237142Y-70293571D02*
X94237142Y-68793571D01*
X94237142Y-70222142D02*
X94380000Y-70293571D01*
X94665714Y-70293571D01*
X94808571Y-70222142D01*
X94880000Y-70150714D01*
X94951428Y-70007857D01*
X94951428Y-69579285D01*
X94880000Y-69436428D01*
X94808571Y-69365000D01*
X94665714Y-69293571D01*
X94380000Y-69293571D01*
X94237142Y-69365000D01*
X103380000Y-72057857D02*
X103880000Y-72057857D01*
X103880000Y-72843571D02*
X103880000Y-71343571D01*
X103165714Y-71343571D01*
X102737142Y-71343571D02*
X102380000Y-72843571D01*
X102094285Y-71772142D01*
X101808571Y-72843571D01*
X101451428Y-71343571D01*
X100880000Y-72843571D02*
X100880000Y-71343571D01*
X100522857Y-71343571D01*
X100308571Y-71415000D01*
X100165714Y-71557857D01*
X100094285Y-71700714D01*
X100022857Y-71986428D01*
X100022857Y-72200714D01*
X100094285Y-72486428D01*
X100165714Y-72629285D01*
X100308571Y-72772142D01*
X100522857Y-72843571D01*
X100880000Y-72843571D01*
X99737142Y-72986428D02*
X98594285Y-72986428D01*
X98237142Y-72843571D02*
X98237142Y-71343571D01*
X97665714Y-71343571D01*
X97522857Y-71415000D01*
X97451428Y-71486428D01*
X97380000Y-71629285D01*
X97380000Y-71843571D01*
X97451428Y-71986428D01*
X97522857Y-72057857D01*
X97665714Y-72129285D01*
X98237142Y-72129285D01*
X96880000Y-71343571D02*
X96522857Y-72843571D01*
X96237142Y-71772142D01*
X95951428Y-72843571D01*
X95594285Y-71343571D01*
X94165714Y-72843571D02*
X94665714Y-72129285D01*
X95022857Y-72843571D02*
X95022857Y-71343571D01*
X94451428Y-71343571D01*
X94308571Y-71415000D01*
X94237142Y-71486428D01*
X94165714Y-71629285D01*
X94165714Y-71843571D01*
X94237142Y-71986428D01*
X94308571Y-72057857D01*
X94451428Y-72129285D01*
X95022857Y-72129285D01*
X97308571Y-75393571D02*
X97308571Y-73893571D01*
X96737142Y-73893571D01*
X96594285Y-73965000D01*
X96522857Y-74036428D01*
X96451428Y-74179285D01*
X96451428Y-74393571D01*
X96522857Y-74536428D01*
X96594285Y-74607857D01*
X96737142Y-74679285D01*
X97308571Y-74679285D01*
X96022857Y-73893571D02*
X95165714Y-73893571D01*
X95594285Y-75393571D02*
X95594285Y-73893571D01*
X94880000Y-73893571D02*
X94022857Y-73893571D01*
X94451428Y-75393571D02*
X94451428Y-73893571D01*
X103880000Y-77943571D02*
X104380000Y-77229285D01*
X104737142Y-77943571D02*
X104737142Y-76443571D01*
X104165714Y-76443571D01*
X104022857Y-76515000D01*
X103951428Y-76586428D01*
X103880000Y-76729285D01*
X103880000Y-76943571D01*
X103951428Y-77086428D01*
X104022857Y-77157857D01*
X104165714Y-77229285D01*
X104737142Y-77229285D01*
X103237142Y-77157857D02*
X102737142Y-77157857D01*
X102522857Y-77943571D02*
X103237142Y-77943571D01*
X103237142Y-76443571D01*
X102522857Y-76443571D01*
X101380000Y-77157857D02*
X101880000Y-77157857D01*
X101880000Y-77943571D02*
X101880000Y-76443571D01*
X101165714Y-76443571D01*
X99880000Y-77943571D02*
X100594285Y-77943571D01*
X100594285Y-76443571D01*
X99737142Y-78086428D02*
X98594285Y-78086428D01*
X98237142Y-77943571D02*
X98237142Y-76443571D01*
X97665714Y-76443571D01*
X97522857Y-76515000D01*
X97451428Y-76586428D01*
X97380000Y-76729285D01*
X97380000Y-76943571D01*
X97451428Y-77086428D01*
X97522857Y-77157857D01*
X97665714Y-77229285D01*
X98237142Y-77229285D01*
X96880000Y-76443571D02*
X96522857Y-77943571D01*
X96237142Y-76872142D01*
X95951428Y-77943571D01*
X95594285Y-76443571D01*
X94165714Y-77943571D02*
X94665714Y-77229285D01*
X95022857Y-77943571D02*
X95022857Y-76443571D01*
X94451428Y-76443571D01*
X94308571Y-76515000D01*
X94237142Y-76586428D01*
X94165714Y-76729285D01*
X94165714Y-76943571D01*
X94237142Y-77086428D01*
X94308571Y-77157857D01*
X94451428Y-77229285D01*
X95022857Y-77229285D01*
X97308571Y-79065000D02*
X97451428Y-78993571D01*
X97665714Y-78993571D01*
X97880000Y-79065000D01*
X98022857Y-79207857D01*
X98094285Y-79350714D01*
X98165714Y-79636428D01*
X98165714Y-79850714D01*
X98094285Y-80136428D01*
X98022857Y-80279285D01*
X97880000Y-80422142D01*
X97665714Y-80493571D01*
X97522857Y-80493571D01*
X97308571Y-80422142D01*
X97237142Y-80350714D01*
X97237142Y-79850714D01*
X97522857Y-79850714D01*
X96594285Y-80493571D02*
X96594285Y-78993571D01*
X95737142Y-80493571D01*
X95737142Y-78993571D01*
X95022857Y-80493571D02*
X95022857Y-78993571D01*
X94665714Y-78993571D01*
X94451428Y-79065000D01*
X94308571Y-79207857D01*
X94237142Y-79350714D01*
X94165714Y-79636428D01*
X94165714Y-79850714D01*
X94237142Y-80136428D01*
X94308571Y-80279285D01*
X94451428Y-80422142D01*
X94665714Y-80493571D01*
X95022857Y-80493571D01*
X103380000Y-83447857D02*
X103880000Y-83447857D01*
X103880000Y-84233571D02*
X103880000Y-82733571D01*
X103165714Y-82733571D01*
X102737142Y-82733571D02*
X102380000Y-84233571D01*
X102094285Y-83162142D01*
X101808571Y-84233571D01*
X101451428Y-82733571D01*
X100880000Y-84233571D02*
X100880000Y-82733571D01*
X100522857Y-82733571D01*
X100308571Y-82805000D01*
X100165714Y-82947857D01*
X100094285Y-83090714D01*
X100022857Y-83376428D01*
X100022857Y-83590714D01*
X100094285Y-83876428D01*
X100165714Y-84019285D01*
X100308571Y-84162142D01*
X100522857Y-84233571D01*
X100880000Y-84233571D01*
X99737142Y-84376428D02*
X98594285Y-84376428D01*
X98237142Y-84233571D02*
X98237142Y-82733571D01*
X97665714Y-82733571D01*
X97522857Y-82805000D01*
X97451428Y-82876428D01*
X97380000Y-83019285D01*
X97380000Y-83233571D01*
X97451428Y-83376428D01*
X97522857Y-83447857D01*
X97665714Y-83519285D01*
X98237142Y-83519285D01*
X96880000Y-82733571D02*
X96522857Y-84233571D01*
X96237142Y-83162142D01*
X95951428Y-84233571D01*
X95594285Y-82733571D01*
X94165714Y-84233571D02*
X94665714Y-83519285D01*
X95022857Y-84233571D02*
X95022857Y-82733571D01*
X94451428Y-82733571D01*
X94308571Y-82805000D01*
X94237142Y-82876428D01*
X94165714Y-83019285D01*
X94165714Y-83233571D01*
X94237142Y-83376428D01*
X94308571Y-83447857D01*
X94451428Y-83519285D01*
X95022857Y-83519285D01*
X103880000Y-86783571D02*
X104380000Y-86069285D01*
X104737142Y-86783571D02*
X104737142Y-85283571D01*
X104165714Y-85283571D01*
X104022857Y-85355000D01*
X103951428Y-85426428D01*
X103880000Y-85569285D01*
X103880000Y-85783571D01*
X103951428Y-85926428D01*
X104022857Y-85997857D01*
X104165714Y-86069285D01*
X104737142Y-86069285D01*
X103237142Y-85997857D02*
X102737142Y-85997857D01*
X102522857Y-86783571D02*
X103237142Y-86783571D01*
X103237142Y-85283571D01*
X102522857Y-85283571D01*
X101380000Y-85997857D02*
X101880000Y-85997857D01*
X101880000Y-86783571D02*
X101880000Y-85283571D01*
X101165714Y-85283571D01*
X99880000Y-86783571D02*
X100594285Y-86783571D01*
X100594285Y-85283571D01*
X99737142Y-86926428D02*
X98594285Y-86926428D01*
X98237142Y-86783571D02*
X98237142Y-85283571D01*
X97665714Y-85283571D01*
X97522857Y-85355000D01*
X97451428Y-85426428D01*
X97380000Y-85569285D01*
X97380000Y-85783571D01*
X97451428Y-85926428D01*
X97522857Y-85997857D01*
X97665714Y-86069285D01*
X98237142Y-86069285D01*
X96880000Y-85283571D02*
X96522857Y-86783571D01*
X96237142Y-85712142D01*
X95951428Y-86783571D01*
X95594285Y-85283571D01*
X94165714Y-86783571D02*
X94665714Y-86069285D01*
X95022857Y-86783571D02*
X95022857Y-85283571D01*
X94451428Y-85283571D01*
X94308571Y-85355000D01*
X94237142Y-85426428D01*
X94165714Y-85569285D01*
X94165714Y-85783571D01*
X94237142Y-85926428D01*
X94308571Y-85997857D01*
X94451428Y-86069285D01*
X95022857Y-86069285D01*
X96951428Y-87905000D02*
X97094285Y-87833571D01*
X97308571Y-87833571D01*
X97522857Y-87905000D01*
X97665714Y-88047857D01*
X97737142Y-88190714D01*
X97808571Y-88476428D01*
X97808571Y-88690714D01*
X97737142Y-88976428D01*
X97665714Y-89119285D01*
X97522857Y-89262142D01*
X97308571Y-89333571D01*
X97165714Y-89333571D01*
X96951428Y-89262142D01*
X96880000Y-89190714D01*
X96880000Y-88690714D01*
X97165714Y-88690714D01*
X96237142Y-88333571D02*
X96237142Y-89333571D01*
X96237142Y-88476428D02*
X96165714Y-88405000D01*
X96022857Y-88333571D01*
X95808571Y-88333571D01*
X95665714Y-88405000D01*
X95594285Y-88547857D01*
X95594285Y-89333571D01*
X94237142Y-89333571D02*
X94237142Y-87833571D01*
X94237142Y-89262142D02*
X94380000Y-89333571D01*
X94665714Y-89333571D01*
X94808571Y-89262142D01*
X94880000Y-89190714D01*
X94951428Y-89047857D01*
X94951428Y-88619285D01*
X94880000Y-88476428D01*
X94808571Y-88405000D01*
X94665714Y-88333571D01*
X94380000Y-88333571D01*
X94237142Y-88405000D01*
X99522857Y-91312142D02*
X98380000Y-91312142D01*
X98951428Y-91883571D02*
X98951428Y-90740714D01*
X96880000Y-91883571D02*
X97737142Y-91883571D01*
X97308571Y-91883571D02*
X97308571Y-90383571D01*
X97451428Y-90597857D01*
X97594285Y-90740714D01*
X97737142Y-90812142D01*
X96308571Y-90526428D02*
X96237142Y-90455000D01*
X96094285Y-90383571D01*
X95737142Y-90383571D01*
X95594285Y-90455000D01*
X95522857Y-90526428D01*
X95451428Y-90669285D01*
X95451428Y-90812142D01*
X95522857Y-91026428D01*
X96380000Y-91883571D01*
X95451428Y-91883571D01*
X95022857Y-90383571D02*
X94522857Y-91883571D01*
X94022857Y-90383571D01*
X105522857Y-92933571D02*
X104665714Y-92933571D01*
X105094285Y-94433571D02*
X105094285Y-92933571D01*
X104308571Y-92933571D02*
X103308571Y-94433571D01*
X103308571Y-92933571D02*
X104308571Y-94433571D01*
X103094285Y-94576428D02*
X101951428Y-94576428D01*
X100737142Y-94433571D02*
X101237142Y-93719285D01*
X101594285Y-94433571D02*
X101594285Y-92933571D01*
X101022857Y-92933571D01*
X100880000Y-93005000D01*
X100808571Y-93076428D01*
X100737142Y-93219285D01*
X100737142Y-93433571D01*
X100808571Y-93576428D01*
X100880000Y-93647857D01*
X101022857Y-93719285D01*
X101594285Y-93719285D01*
X100237142Y-92933571D02*
X99237142Y-94433571D01*
X99237142Y-92933571D02*
X100237142Y-94433571D01*
X99022857Y-94576428D02*
X97880000Y-94576428D01*
X96665714Y-94433571D02*
X97165714Y-93719285D01*
X97522857Y-94433571D02*
X97522857Y-92933571D01*
X96951428Y-92933571D01*
X96808571Y-93005000D01*
X96737142Y-93076428D01*
X96665714Y-93219285D01*
X96665714Y-93433571D01*
X96737142Y-93576428D01*
X96808571Y-93647857D01*
X96951428Y-93719285D01*
X97522857Y-93719285D01*
X95308571Y-94433571D02*
X96022857Y-94433571D01*
X96022857Y-92933571D01*
X94522857Y-93719285D02*
X94522857Y-94433571D01*
X95022857Y-92933571D02*
X94522857Y-93719285D01*
X94022857Y-92933571D01*
X107451428Y-95483571D02*
X106594285Y-95483571D01*
X107022857Y-96983571D02*
X107022857Y-95483571D01*
X106237142Y-95483571D02*
X105237142Y-96983571D01*
X105237142Y-95483571D02*
X106237142Y-96983571D01*
X103808571Y-96983571D02*
X104308571Y-96269285D01*
X104665714Y-96983571D02*
X104665714Y-95483571D01*
X104094285Y-95483571D01*
X103951428Y-95555000D01*
X103880000Y-95626428D01*
X103808571Y-95769285D01*
X103808571Y-95983571D01*
X103880000Y-96126428D01*
X103951428Y-96197857D01*
X104094285Y-96269285D01*
X104665714Y-96269285D01*
X103308571Y-95483571D02*
X102308571Y-96983571D01*
X102308571Y-95483571D02*
X103308571Y-96983571D01*
X102094285Y-97126428D02*
X100951428Y-97126428D01*
X100665714Y-96912142D02*
X100451428Y-96983571D01*
X100094285Y-96983571D01*
X99951428Y-96912142D01*
X99880000Y-96840714D01*
X99808571Y-96697857D01*
X99808571Y-96555000D01*
X99880000Y-96412142D01*
X99951428Y-96340714D01*
X100094285Y-96269285D01*
X100380000Y-96197857D01*
X100522857Y-96126428D01*
X100594285Y-96055000D01*
X100665714Y-95912142D01*
X100665714Y-95769285D01*
X100594285Y-95626428D01*
X100522857Y-95555000D01*
X100380000Y-95483571D01*
X100022857Y-95483571D01*
X99808571Y-95555000D01*
X99380000Y-95983571D02*
X98808571Y-95983571D01*
X99165714Y-95483571D02*
X99165714Y-96769285D01*
X99094285Y-96912142D01*
X98951428Y-96983571D01*
X98808571Y-96983571D01*
X97665714Y-96983571D02*
X97665714Y-96197857D01*
X97737142Y-96055000D01*
X97880000Y-95983571D01*
X98165714Y-95983571D01*
X98308571Y-96055000D01*
X97665714Y-96912142D02*
X97808571Y-96983571D01*
X98165714Y-96983571D01*
X98308571Y-96912142D01*
X98380000Y-96769285D01*
X98380000Y-96626428D01*
X98308571Y-96483571D01*
X98165714Y-96412142D01*
X97808571Y-96412142D01*
X97665714Y-96340714D01*
X97165714Y-95983571D02*
X96594285Y-95983571D01*
X96951428Y-95483571D02*
X96951428Y-96769285D01*
X96880000Y-96912142D01*
X96737142Y-96983571D01*
X96594285Y-96983571D01*
X95451428Y-95983571D02*
X95451428Y-96983571D01*
X96094285Y-95983571D02*
X96094285Y-96769285D01*
X96022857Y-96912142D01*
X95880000Y-96983571D01*
X95665714Y-96983571D01*
X95522857Y-96912142D01*
X95451428Y-96840714D01*
X94808571Y-96912142D02*
X94665714Y-96983571D01*
X94380000Y-96983571D01*
X94237142Y-96912142D01*
X94165714Y-96769285D01*
X94165714Y-96697857D01*
X94237142Y-96555000D01*
X94380000Y-96483571D01*
X94594285Y-96483571D01*
X94737142Y-96412142D01*
X94808571Y-96269285D01*
X94808571Y-96197857D01*
X94737142Y-96055000D01*
X94594285Y-95983571D01*
X94380000Y-95983571D01*
X94237142Y-96055000D01*
X103380000Y-99327857D02*
X103880000Y-99327857D01*
X103880000Y-100113571D02*
X103880000Y-98613571D01*
X103165714Y-98613571D01*
X102737142Y-98613571D02*
X102380000Y-100113571D01*
X102094285Y-99042142D01*
X101808571Y-100113571D01*
X101451428Y-98613571D01*
X100880000Y-100113571D02*
X100880000Y-98613571D01*
X100522857Y-98613571D01*
X100308571Y-98685000D01*
X100165714Y-98827857D01*
X100094285Y-98970714D01*
X100022857Y-99256428D01*
X100022857Y-99470714D01*
X100094285Y-99756428D01*
X100165714Y-99899285D01*
X100308571Y-100042142D01*
X100522857Y-100113571D01*
X100880000Y-100113571D01*
X99737142Y-100256428D02*
X98594285Y-100256428D01*
X98237142Y-100113571D02*
X98237142Y-98613571D01*
X97665714Y-98613571D01*
X97522857Y-98685000D01*
X97451428Y-98756428D01*
X97380000Y-98899285D01*
X97380000Y-99113571D01*
X97451428Y-99256428D01*
X97522857Y-99327857D01*
X97665714Y-99399285D01*
X98237142Y-99399285D01*
X96880000Y-98613571D02*
X96522857Y-100113571D01*
X96237142Y-99042142D01*
X95951428Y-100113571D01*
X95594285Y-98613571D01*
X94165714Y-100113571D02*
X94665714Y-99399285D01*
X95022857Y-100113571D02*
X95022857Y-98613571D01*
X94451428Y-98613571D01*
X94308571Y-98685000D01*
X94237142Y-98756428D01*
X94165714Y-98899285D01*
X94165714Y-99113571D01*
X94237142Y-99256428D01*
X94308571Y-99327857D01*
X94451428Y-99399285D01*
X95022857Y-99399285D01*
X103880000Y-102663571D02*
X104380000Y-101949285D01*
X104737142Y-102663571D02*
X104737142Y-101163571D01*
X104165714Y-101163571D01*
X104022857Y-101235000D01*
X103951428Y-101306428D01*
X103880000Y-101449285D01*
X103880000Y-101663571D01*
X103951428Y-101806428D01*
X104022857Y-101877857D01*
X104165714Y-101949285D01*
X104737142Y-101949285D01*
X103237142Y-101877857D02*
X102737142Y-101877857D01*
X102522857Y-102663571D02*
X103237142Y-102663571D01*
X103237142Y-101163571D01*
X102522857Y-101163571D01*
X101380000Y-101877857D02*
X101880000Y-101877857D01*
X101880000Y-102663571D02*
X101880000Y-101163571D01*
X101165714Y-101163571D01*
X99880000Y-102663571D02*
X100594285Y-102663571D01*
X100594285Y-101163571D01*
X99737142Y-102806428D02*
X98594285Y-102806428D01*
X98237142Y-102663571D02*
X98237142Y-101163571D01*
X97665714Y-101163571D01*
X97522857Y-101235000D01*
X97451428Y-101306428D01*
X97380000Y-101449285D01*
X97380000Y-101663571D01*
X97451428Y-101806428D01*
X97522857Y-101877857D01*
X97665714Y-101949285D01*
X98237142Y-101949285D01*
X96880000Y-101163571D02*
X96522857Y-102663571D01*
X96237142Y-101592142D01*
X95951428Y-102663571D01*
X95594285Y-101163571D01*
X94165714Y-102663571D02*
X94665714Y-101949285D01*
X95022857Y-102663571D02*
X95022857Y-101163571D01*
X94451428Y-101163571D01*
X94308571Y-101235000D01*
X94237142Y-101306428D01*
X94165714Y-101449285D01*
X94165714Y-101663571D01*
X94237142Y-101806428D01*
X94308571Y-101877857D01*
X94451428Y-101949285D01*
X95022857Y-101949285D01*
X96951428Y-103785000D02*
X97094285Y-103713571D01*
X97308571Y-103713571D01*
X97522857Y-103785000D01*
X97665714Y-103927857D01*
X97737142Y-104070714D01*
X97808571Y-104356428D01*
X97808571Y-104570714D01*
X97737142Y-104856428D01*
X97665714Y-104999285D01*
X97522857Y-105142142D01*
X97308571Y-105213571D01*
X97165714Y-105213571D01*
X96951428Y-105142142D01*
X96880000Y-105070714D01*
X96880000Y-104570714D01*
X97165714Y-104570714D01*
X96237142Y-104213571D02*
X96237142Y-105213571D01*
X96237142Y-104356428D02*
X96165714Y-104285000D01*
X96022857Y-104213571D01*
X95808571Y-104213571D01*
X95665714Y-104285000D01*
X95594285Y-104427857D01*
X95594285Y-105213571D01*
X94237142Y-105213571D02*
X94237142Y-103713571D01*
X94237142Y-105142142D02*
X94380000Y-105213571D01*
X94665714Y-105213571D01*
X94808571Y-105142142D01*
X94880000Y-105070714D01*
X94951428Y-104927857D01*
X94951428Y-104499285D01*
X94880000Y-104356428D01*
X94808571Y-104285000D01*
X94665714Y-104213571D01*
X94380000Y-104213571D01*
X94237142Y-104285000D01*
X99522857Y-107192142D02*
X98380000Y-107192142D01*
X98951428Y-107763571D02*
X98951428Y-106620714D01*
X96880000Y-107763571D02*
X97737142Y-107763571D01*
X97308571Y-107763571D02*
X97308571Y-106263571D01*
X97451428Y-106477857D01*
X97594285Y-106620714D01*
X97737142Y-106692142D01*
X96308571Y-106406428D02*
X96237142Y-106335000D01*
X96094285Y-106263571D01*
X95737142Y-106263571D01*
X95594285Y-106335000D01*
X95522857Y-106406428D01*
X95451428Y-106549285D01*
X95451428Y-106692142D01*
X95522857Y-106906428D01*
X96380000Y-107763571D01*
X95451428Y-107763571D01*
X95022857Y-106263571D02*
X94522857Y-107763571D01*
X94022857Y-106263571D01*
X105522857Y-108813571D02*
X104665714Y-108813571D01*
X105094285Y-110313571D02*
X105094285Y-108813571D01*
X104308571Y-108813571D02*
X103308571Y-110313571D01*
X103308571Y-108813571D02*
X104308571Y-110313571D01*
X103094285Y-110456428D02*
X101951428Y-110456428D01*
X100737142Y-110313571D02*
X101237142Y-109599285D01*
X101594285Y-110313571D02*
X101594285Y-108813571D01*
X101022857Y-108813571D01*
X100880000Y-108885000D01*
X100808571Y-108956428D01*
X100737142Y-109099285D01*
X100737142Y-109313571D01*
X100808571Y-109456428D01*
X100880000Y-109527857D01*
X101022857Y-109599285D01*
X101594285Y-109599285D01*
X100237142Y-108813571D02*
X99237142Y-110313571D01*
X99237142Y-108813571D02*
X100237142Y-110313571D01*
X99022857Y-110456428D02*
X97880000Y-110456428D01*
X96665714Y-110313571D02*
X97165714Y-109599285D01*
X97522857Y-110313571D02*
X97522857Y-108813571D01*
X96951428Y-108813571D01*
X96808571Y-108885000D01*
X96737142Y-108956428D01*
X96665714Y-109099285D01*
X96665714Y-109313571D01*
X96737142Y-109456428D01*
X96808571Y-109527857D01*
X96951428Y-109599285D01*
X97522857Y-109599285D01*
X95308571Y-110313571D02*
X96022857Y-110313571D01*
X96022857Y-108813571D01*
X94522857Y-109599285D02*
X94522857Y-110313571D01*
X95022857Y-108813571D02*
X94522857Y-109599285D01*
X94022857Y-108813571D01*
X102737142Y-113522142D02*
X101594285Y-113522142D01*
X102165714Y-114093571D02*
X102165714Y-112950714D01*
X100094285Y-114093571D02*
X100951428Y-114093571D01*
X100522857Y-114093571D02*
X100522857Y-112593571D01*
X100665714Y-112807857D01*
X100808571Y-112950714D01*
X100951428Y-113022142D01*
X99522857Y-112736428D02*
X99451428Y-112665000D01*
X99308571Y-112593571D01*
X98951428Y-112593571D01*
X98808571Y-112665000D01*
X98737142Y-112736428D01*
X98665714Y-112879285D01*
X98665714Y-113022142D01*
X98737142Y-113236428D01*
X99594285Y-114093571D01*
X98665714Y-114093571D01*
X98237142Y-112593571D02*
X97737142Y-114093571D01*
X97237142Y-112593571D01*
X95594285Y-114093571D02*
X95594285Y-112593571D01*
X94880000Y-113093571D02*
X94880000Y-114093571D01*
X94880000Y-113236428D02*
X94808571Y-113165000D01*
X94665714Y-113093571D01*
X94451428Y-113093571D01*
X94308571Y-113165000D01*
X94237142Y-113307857D01*
X94237142Y-114093571D01*
X102737142Y-116072142D02*
X101594285Y-116072142D01*
X102165714Y-116643571D02*
X102165714Y-115500714D01*
X100094285Y-116643571D02*
X100951428Y-116643571D01*
X100522857Y-116643571D02*
X100522857Y-115143571D01*
X100665714Y-115357857D01*
X100808571Y-115500714D01*
X100951428Y-115572142D01*
X99522857Y-115286428D02*
X99451428Y-115215000D01*
X99308571Y-115143571D01*
X98951428Y-115143571D01*
X98808571Y-115215000D01*
X98737142Y-115286428D01*
X98665714Y-115429285D01*
X98665714Y-115572142D01*
X98737142Y-115786428D01*
X99594285Y-116643571D01*
X98665714Y-116643571D01*
X98237142Y-115143571D02*
X97737142Y-116643571D01*
X97237142Y-115143571D01*
X95594285Y-116643571D02*
X95594285Y-115143571D01*
X94880000Y-115643571D02*
X94880000Y-116643571D01*
X94880000Y-115786428D02*
X94808571Y-115715000D01*
X94665714Y-115643571D01*
X94451428Y-115643571D01*
X94308571Y-115715000D01*
X94237142Y-115857857D01*
X94237142Y-116643571D01*
X96951428Y-117765000D02*
X97094285Y-117693571D01*
X97308571Y-117693571D01*
X97522857Y-117765000D01*
X97665714Y-117907857D01*
X97737142Y-118050714D01*
X97808571Y-118336428D01*
X97808571Y-118550714D01*
X97737142Y-118836428D01*
X97665714Y-118979285D01*
X97522857Y-119122142D01*
X97308571Y-119193571D01*
X97165714Y-119193571D01*
X96951428Y-119122142D01*
X96880000Y-119050714D01*
X96880000Y-118550714D01*
X97165714Y-118550714D01*
X96237142Y-118193571D02*
X96237142Y-119193571D01*
X96237142Y-118336428D02*
X96165714Y-118265000D01*
X96022857Y-118193571D01*
X95808571Y-118193571D01*
X95665714Y-118265000D01*
X95594285Y-118407857D01*
X95594285Y-119193571D01*
X94237142Y-119193571D02*
X94237142Y-117693571D01*
X94237142Y-119122142D02*
X94380000Y-119193571D01*
X94665714Y-119193571D01*
X94808571Y-119122142D01*
X94880000Y-119050714D01*
X94951428Y-118907857D01*
X94951428Y-118479285D01*
X94880000Y-118336428D01*
X94808571Y-118265000D01*
X94665714Y-118193571D01*
X94380000Y-118193571D01*
X94237142Y-118265000D01*
X103022857Y-123687142D02*
X101880000Y-123687142D01*
X102451428Y-124258571D02*
X102451428Y-123115714D01*
X100451428Y-122758571D02*
X101165714Y-122758571D01*
X101237142Y-123472857D01*
X101165714Y-123401428D01*
X101022857Y-123330000D01*
X100665714Y-123330000D01*
X100522857Y-123401428D01*
X100451428Y-123472857D01*
X100380000Y-123615714D01*
X100380000Y-123972857D01*
X100451428Y-124115714D01*
X100522857Y-124187142D01*
X100665714Y-124258571D01*
X101022857Y-124258571D01*
X101165714Y-124187142D01*
X101237142Y-124115714D01*
X99951428Y-122758571D02*
X99451428Y-124258571D01*
X98951428Y-122758571D01*
X97022857Y-122758571D02*
X96737142Y-122758571D01*
X96594285Y-122830000D01*
X96451428Y-122972857D01*
X96380000Y-123258571D01*
X96380000Y-123758571D01*
X96451428Y-124044285D01*
X96594285Y-124187142D01*
X96737142Y-124258571D01*
X97022857Y-124258571D01*
X97165714Y-124187142D01*
X97308571Y-124044285D01*
X97380000Y-123758571D01*
X97380000Y-123258571D01*
X97308571Y-122972857D01*
X97165714Y-122830000D01*
X97022857Y-122758571D01*
X95094285Y-123258571D02*
X95094285Y-124258571D01*
X95737142Y-123258571D02*
X95737142Y-124044285D01*
X95665714Y-124187142D01*
X95522857Y-124258571D01*
X95308571Y-124258571D01*
X95165714Y-124187142D01*
X95094285Y-124115714D01*
X94594285Y-123258571D02*
X94022857Y-123258571D01*
X94380000Y-122758571D02*
X94380000Y-124044285D01*
X94308571Y-124187142D01*
X94165714Y-124258571D01*
X94022857Y-124258571D01*
X96951428Y-125380000D02*
X97094285Y-125308571D01*
X97308571Y-125308571D01*
X97522857Y-125380000D01*
X97665714Y-125522857D01*
X97737142Y-125665714D01*
X97808571Y-125951428D01*
X97808571Y-126165714D01*
X97737142Y-126451428D01*
X97665714Y-126594285D01*
X97522857Y-126737142D01*
X97308571Y-126808571D01*
X97165714Y-126808571D01*
X96951428Y-126737142D01*
X96880000Y-126665714D01*
X96880000Y-126165714D01*
X97165714Y-126165714D01*
X96237142Y-125808571D02*
X96237142Y-126808571D01*
X96237142Y-125951428D02*
X96165714Y-125880000D01*
X96022857Y-125808571D01*
X95808571Y-125808571D01*
X95665714Y-125880000D01*
X95594285Y-126022857D01*
X95594285Y-126808571D01*
X94237142Y-126808571D02*
X94237142Y-125308571D01*
X94237142Y-126737142D02*
X94380000Y-126808571D01*
X94665714Y-126808571D01*
X94808571Y-126737142D01*
X94880000Y-126665714D01*
X94951428Y-126522857D01*
X94951428Y-126094285D01*
X94880000Y-125951428D01*
X94808571Y-125880000D01*
X94665714Y-125808571D01*
X94380000Y-125808571D01*
X94237142Y-125880000D01*
X137447857Y-120457142D02*
X136305000Y-120457142D01*
X136876428Y-121028571D02*
X136876428Y-119885714D01*
X134805000Y-121028571D02*
X135662142Y-121028571D01*
X135233571Y-121028571D02*
X135233571Y-119528571D01*
X135376428Y-119742857D01*
X135519285Y-119885714D01*
X135662142Y-119957142D01*
X134233571Y-119671428D02*
X134162142Y-119600000D01*
X134019285Y-119528571D01*
X133662142Y-119528571D01*
X133519285Y-119600000D01*
X133447857Y-119671428D01*
X133376428Y-119814285D01*
X133376428Y-119957142D01*
X133447857Y-120171428D01*
X134305000Y-121028571D01*
X133376428Y-121028571D01*
X132947857Y-119528571D02*
X132447857Y-121028571D01*
X131947857Y-119528571D01*
X136662142Y-122150000D02*
X136805000Y-122078571D01*
X137019285Y-122078571D01*
X137233571Y-122150000D01*
X137376428Y-122292857D01*
X137447857Y-122435714D01*
X137519285Y-122721428D01*
X137519285Y-122935714D01*
X137447857Y-123221428D01*
X137376428Y-123364285D01*
X137233571Y-123507142D01*
X137019285Y-123578571D01*
X136876428Y-123578571D01*
X136662142Y-123507142D01*
X136590714Y-123435714D01*
X136590714Y-122935714D01*
X136876428Y-122935714D01*
X135947857Y-122578571D02*
X135947857Y-123578571D01*
X135947857Y-122721428D02*
X135876428Y-122650000D01*
X135733571Y-122578571D01*
X135519285Y-122578571D01*
X135376428Y-122650000D01*
X135305000Y-122792857D01*
X135305000Y-123578571D01*
X133947857Y-123578571D02*
X133947857Y-122078571D01*
X133947857Y-123507142D02*
X134090714Y-123578571D01*
X134376428Y-123578571D01*
X134519285Y-123507142D01*
X134590714Y-123435714D01*
X134662142Y-123292857D01*
X134662142Y-122864285D01*
X134590714Y-122721428D01*
X134519285Y-122650000D01*
X134376428Y-122578571D01*
X134090714Y-122578571D01*
X133947857Y-122650000D01*
X137590714Y-124628571D02*
X136590714Y-126128571D01*
X136590714Y-124628571D02*
X137590714Y-126128571D01*
X136162142Y-125128571D02*
X135805000Y-126128571D01*
X135447857Y-125128571D01*
X135090714Y-125128571D02*
X134519285Y-125128571D01*
X134876428Y-124628571D02*
X134876428Y-125914285D01*
X134805000Y-126057142D01*
X134662142Y-126128571D01*
X134519285Y-126128571D01*
X134019285Y-126128571D02*
X134019285Y-125128571D01*
X134019285Y-125414285D02*
X133947857Y-125271428D01*
X133876428Y-125200000D01*
X133733571Y-125128571D01*
X133590714Y-125128571D01*
X133447857Y-126271428D02*
X132305000Y-126271428D01*
X131947857Y-126128571D02*
X131947857Y-124628571D01*
X131233571Y-126128571D02*
X131233571Y-124628571D01*
X130376428Y-126128571D01*
X130376428Y-124628571D01*
X136590714Y-128678571D02*
X137090714Y-127964285D01*
X137447857Y-128678571D02*
X137447857Y-127178571D01*
X136876428Y-127178571D01*
X136733571Y-127250000D01*
X136662142Y-127321428D01*
X136590714Y-127464285D01*
X136590714Y-127678571D01*
X136662142Y-127821428D01*
X136733571Y-127892857D01*
X136876428Y-127964285D01*
X137447857Y-127964285D01*
X136090714Y-127178571D02*
X135090714Y-128678571D01*
X135090714Y-127178571D02*
X136090714Y-128678571D01*
X134590714Y-127321428D02*
X134519285Y-127250000D01*
X134376428Y-127178571D01*
X134019285Y-127178571D01*
X133876428Y-127250000D01*
X133805000Y-127321428D01*
X133733571Y-127464285D01*
X133733571Y-127607142D01*
X133805000Y-127821428D01*
X134662142Y-128678571D01*
X133733571Y-128678571D01*
X133447857Y-128821428D02*
X132305000Y-128821428D01*
X131947857Y-128678571D02*
X131947857Y-127178571D01*
X131233571Y-128678571D02*
X131233571Y-127178571D01*
X130376428Y-128678571D01*
X130376428Y-127178571D01*
X136590714Y-131228571D02*
X137090714Y-130514285D01*
X137447857Y-131228571D02*
X137447857Y-129728571D01*
X136876428Y-129728571D01*
X136733571Y-129800000D01*
X136662142Y-129871428D01*
X136590714Y-130014285D01*
X136590714Y-130228571D01*
X136662142Y-130371428D01*
X136733571Y-130442857D01*
X136876428Y-130514285D01*
X137447857Y-130514285D01*
X136090714Y-129728571D02*
X135090714Y-131228571D01*
X135090714Y-129728571D02*
X136090714Y-131228571D01*
X134662142Y-129728571D02*
X133733571Y-129728571D01*
X134233571Y-130300000D01*
X134019285Y-130300000D01*
X133876428Y-130371428D01*
X133805000Y-130442857D01*
X133733571Y-130585714D01*
X133733571Y-130942857D01*
X133805000Y-131085714D01*
X133876428Y-131157142D01*
X134019285Y-131228571D01*
X134447857Y-131228571D01*
X134590714Y-131157142D01*
X134662142Y-131085714D01*
X133447857Y-131371428D02*
X132305000Y-131371428D01*
X131947857Y-131228571D02*
X131947857Y-129728571D01*
X131233571Y-131228571D02*
X131233571Y-129728571D01*
X130376428Y-131228571D01*
X130376428Y-129728571D01*
X136590714Y-133778571D02*
X137090714Y-133064285D01*
X137447857Y-133778571D02*
X137447857Y-132278571D01*
X136876428Y-132278571D01*
X136733571Y-132350000D01*
X136662142Y-132421428D01*
X136590714Y-132564285D01*
X136590714Y-132778571D01*
X136662142Y-132921428D01*
X136733571Y-132992857D01*
X136876428Y-133064285D01*
X137447857Y-133064285D01*
X136090714Y-132278571D02*
X135090714Y-133778571D01*
X135090714Y-132278571D02*
X136090714Y-133778571D01*
X134876428Y-133921428D02*
X133733571Y-133921428D01*
X132876428Y-132992857D02*
X132662142Y-133064285D01*
X132590714Y-133135714D01*
X132519285Y-133278571D01*
X132519285Y-133492857D01*
X132590714Y-133635714D01*
X132662142Y-133707142D01*
X132805000Y-133778571D01*
X133376428Y-133778571D01*
X133376428Y-132278571D01*
X132876428Y-132278571D01*
X132733571Y-132350000D01*
X132662142Y-132421428D01*
X132590714Y-132564285D01*
X132590714Y-132707142D01*
X132662142Y-132850000D01*
X132733571Y-132921428D01*
X132876428Y-132992857D01*
X133376428Y-132992857D01*
X132019285Y-132778571D02*
X131662142Y-133778571D01*
X131305000Y-132778571D02*
X131662142Y-133778571D01*
X131805000Y-134135714D01*
X131876428Y-134207142D01*
X132019285Y-134278571D01*
X130733571Y-133778571D02*
X130733571Y-132278571D01*
X130162142Y-132278571D01*
X130019285Y-132350000D01*
X129947857Y-132421428D01*
X129876428Y-132564285D01*
X129876428Y-132778571D01*
X129947857Y-132921428D01*
X130019285Y-132992857D01*
X130162142Y-133064285D01*
X130733571Y-133064285D01*
X128590714Y-133778571D02*
X128590714Y-132992857D01*
X128662142Y-132850000D01*
X128805000Y-132778571D01*
X129090714Y-132778571D01*
X129233571Y-132850000D01*
X128590714Y-133707142D02*
X128733571Y-133778571D01*
X129090714Y-133778571D01*
X129233571Y-133707142D01*
X129305000Y-133564285D01*
X129305000Y-133421428D01*
X129233571Y-133278571D01*
X129090714Y-133207142D01*
X128733571Y-133207142D01*
X128590714Y-133135714D01*
X127947857Y-133707142D02*
X127805000Y-133778571D01*
X127519285Y-133778571D01*
X127376428Y-133707142D01*
X127305000Y-133564285D01*
X127305000Y-133492857D01*
X127376428Y-133350000D01*
X127519285Y-133278571D01*
X127733571Y-133278571D01*
X127876428Y-133207142D01*
X127947857Y-133064285D01*
X127947857Y-132992857D01*
X127876428Y-132850000D01*
X127733571Y-132778571D01*
X127519285Y-132778571D01*
X127376428Y-132850000D01*
X126733571Y-133707142D02*
X126590714Y-133778571D01*
X126305000Y-133778571D01*
X126162142Y-133707142D01*
X126090714Y-133564285D01*
X126090714Y-133492857D01*
X126162142Y-133350000D01*
X126305000Y-133278571D01*
X126519285Y-133278571D01*
X126662142Y-133207142D01*
X126733571Y-133064285D01*
X126733571Y-132992857D01*
X126662142Y-132850000D01*
X126519285Y-132778571D01*
X126305000Y-132778571D01*
X126162142Y-132850000D01*
X125805000Y-133921428D02*
X124662142Y-133921428D01*
X124019285Y-132278571D02*
X123733571Y-132278571D01*
X123590714Y-132350000D01*
X123447857Y-132492857D01*
X123376428Y-132778571D01*
X123376428Y-133278571D01*
X123447857Y-133564285D01*
X123590714Y-133707142D01*
X123733571Y-133778571D01*
X124019285Y-133778571D01*
X124162142Y-133707142D01*
X124305000Y-133564285D01*
X124376428Y-133278571D01*
X124376428Y-132778571D01*
X124305000Y-132492857D01*
X124162142Y-132350000D01*
X124019285Y-132278571D01*
X122733571Y-132278571D02*
X122733571Y-133492857D01*
X122662142Y-133635714D01*
X122590714Y-133707142D01*
X122447857Y-133778571D01*
X122162142Y-133778571D01*
X122019285Y-133707142D01*
X121947857Y-133635714D01*
X121876428Y-133492857D01*
X121876428Y-132278571D01*
X121376428Y-132278571D02*
X120519285Y-132278571D01*
X120947857Y-133778571D02*
X120947857Y-132278571D01*
X137662142Y-134828571D02*
X136805000Y-134828571D01*
X137233571Y-136328571D02*
X137233571Y-134828571D01*
X136447857Y-134828571D02*
X135447857Y-136328571D01*
X135447857Y-134828571D02*
X136447857Y-136328571D01*
X135233571Y-136471428D02*
X134090714Y-136471428D01*
X132876428Y-136328571D02*
X133376428Y-135614285D01*
X133733571Y-136328571D02*
X133733571Y-134828571D01*
X133162142Y-134828571D01*
X133019285Y-134900000D01*
X132947857Y-134971428D01*
X132876428Y-135114285D01*
X132876428Y-135328571D01*
X132947857Y-135471428D01*
X133019285Y-135542857D01*
X133162142Y-135614285D01*
X133733571Y-135614285D01*
X132376428Y-134828571D02*
X131376428Y-136328571D01*
X131376428Y-134828571D02*
X132376428Y-136328571D01*
X131162142Y-136471428D02*
X130019285Y-136471428D01*
X128805000Y-136328571D02*
X129305000Y-135614285D01*
X129662142Y-136328571D02*
X129662142Y-134828571D01*
X129090714Y-134828571D01*
X128947857Y-134900000D01*
X128876428Y-134971428D01*
X128805000Y-135114285D01*
X128805000Y-135328571D01*
X128876428Y-135471428D01*
X128947857Y-135542857D01*
X129090714Y-135614285D01*
X129662142Y-135614285D01*
X127447857Y-136328571D02*
X128162142Y-136328571D01*
X128162142Y-134828571D01*
X126662142Y-135614285D02*
X126662142Y-136328571D01*
X127162142Y-134828571D02*
X126662142Y-135614285D01*
X126162142Y-134828571D01*
X138217857Y-100177142D02*
X137075000Y-100177142D01*
X137646428Y-100748571D02*
X137646428Y-99605714D01*
X135575000Y-100748571D02*
X136432142Y-100748571D01*
X136003571Y-100748571D02*
X136003571Y-99248571D01*
X136146428Y-99462857D01*
X136289285Y-99605714D01*
X136432142Y-99677142D01*
X135003571Y-99391428D02*
X134932142Y-99320000D01*
X134789285Y-99248571D01*
X134432142Y-99248571D01*
X134289285Y-99320000D01*
X134217857Y-99391428D01*
X134146428Y-99534285D01*
X134146428Y-99677142D01*
X134217857Y-99891428D01*
X135075000Y-100748571D01*
X134146428Y-100748571D01*
X133717857Y-99248571D02*
X133217857Y-100748571D01*
X132717857Y-99248571D01*
X137432142Y-101870000D02*
X137575000Y-101798571D01*
X137789285Y-101798571D01*
X138003571Y-101870000D01*
X138146428Y-102012857D01*
X138217857Y-102155714D01*
X138289285Y-102441428D01*
X138289285Y-102655714D01*
X138217857Y-102941428D01*
X138146428Y-103084285D01*
X138003571Y-103227142D01*
X137789285Y-103298571D01*
X137646428Y-103298571D01*
X137432142Y-103227142D01*
X137360714Y-103155714D01*
X137360714Y-102655714D01*
X137646428Y-102655714D01*
X136717857Y-102298571D02*
X136717857Y-103298571D01*
X136717857Y-102441428D02*
X136646428Y-102370000D01*
X136503571Y-102298571D01*
X136289285Y-102298571D01*
X136146428Y-102370000D01*
X136075000Y-102512857D01*
X136075000Y-103298571D01*
X134717857Y-103298571D02*
X134717857Y-101798571D01*
X134717857Y-103227142D02*
X134860714Y-103298571D01*
X135146428Y-103298571D01*
X135289285Y-103227142D01*
X135360714Y-103155714D01*
X135432142Y-103012857D01*
X135432142Y-102584285D01*
X135360714Y-102441428D01*
X135289285Y-102370000D01*
X135146428Y-102298571D01*
X134860714Y-102298571D01*
X134717857Y-102370000D01*
X138289285Y-105420000D02*
X137575000Y-105420000D01*
X138432142Y-105848571D02*
X137932142Y-104348571D01*
X137432142Y-105848571D01*
X136932142Y-104848571D02*
X136932142Y-105848571D01*
X136932142Y-104991428D02*
X136860714Y-104920000D01*
X136717857Y-104848571D01*
X136503571Y-104848571D01*
X136360714Y-104920000D01*
X136289285Y-105062857D01*
X136289285Y-105848571D01*
X135789285Y-104848571D02*
X135217857Y-104848571D01*
X135575000Y-104348571D02*
X135575000Y-105634285D01*
X135503571Y-105777142D01*
X135360714Y-105848571D01*
X135217857Y-105848571D01*
X135075000Y-105991428D02*
X133932142Y-105991428D01*
X132789285Y-105848571D02*
X133646428Y-105848571D01*
X133217857Y-105848571D02*
X133217857Y-104348571D01*
X133360714Y-104562857D01*
X133503571Y-104705714D01*
X133646428Y-104777142D01*
X138289285Y-107970000D02*
X137575000Y-107970000D01*
X138432142Y-108398571D02*
X137932142Y-106898571D01*
X137432142Y-108398571D01*
X136932142Y-107398571D02*
X136932142Y-108398571D01*
X136932142Y-107541428D02*
X136860714Y-107470000D01*
X136717857Y-107398571D01*
X136503571Y-107398571D01*
X136360714Y-107470000D01*
X136289285Y-107612857D01*
X136289285Y-108398571D01*
X135789285Y-107398571D02*
X135217857Y-107398571D01*
X135575000Y-106898571D02*
X135575000Y-108184285D01*
X135503571Y-108327142D01*
X135360714Y-108398571D01*
X135217857Y-108398571D01*
X135075000Y-108541428D02*
X133932142Y-108541428D01*
X133646428Y-107041428D02*
X133575000Y-106970000D01*
X133432142Y-106898571D01*
X133075000Y-106898571D01*
X132932142Y-106970000D01*
X132860714Y-107041428D01*
X132789285Y-107184285D01*
X132789285Y-107327142D01*
X132860714Y-107541428D01*
X133717857Y-108398571D01*
X132789285Y-108398571D01*
X138289285Y-110520000D02*
X137575000Y-110520000D01*
X138432142Y-110948571D02*
X137932142Y-109448571D01*
X137432142Y-110948571D01*
X136932142Y-109948571D02*
X136932142Y-110948571D01*
X136932142Y-110091428D02*
X136860714Y-110020000D01*
X136717857Y-109948571D01*
X136503571Y-109948571D01*
X136360714Y-110020000D01*
X136289285Y-110162857D01*
X136289285Y-110948571D01*
X135789285Y-109948571D02*
X135217857Y-109948571D01*
X135575000Y-109448571D02*
X135575000Y-110734285D01*
X135503571Y-110877142D01*
X135360714Y-110948571D01*
X135217857Y-110948571D01*
X135075000Y-111091428D02*
X133932142Y-111091428D01*
X133717857Y-109448571D02*
X132789285Y-109448571D01*
X133289285Y-110020000D01*
X133075000Y-110020000D01*
X132932142Y-110091428D01*
X132860714Y-110162857D01*
X132789285Y-110305714D01*
X132789285Y-110662857D01*
X132860714Y-110805714D01*
X132932142Y-110877142D01*
X133075000Y-110948571D01*
X133503571Y-110948571D01*
X133646428Y-110877142D01*
X133717857Y-110805714D01*
X181912142Y-65275000D02*
X182055000Y-65203571D01*
X182269285Y-65203571D01*
X182483571Y-65275000D01*
X182626428Y-65417857D01*
X182697857Y-65560714D01*
X182769285Y-65846428D01*
X182769285Y-66060714D01*
X182697857Y-66346428D01*
X182626428Y-66489285D01*
X182483571Y-66632142D01*
X182269285Y-66703571D01*
X182126428Y-66703571D01*
X181912142Y-66632142D01*
X181840714Y-66560714D01*
X181840714Y-66060714D01*
X182126428Y-66060714D01*
X181197857Y-65703571D02*
X181197857Y-66703571D01*
X181197857Y-65846428D02*
X181126428Y-65775000D01*
X180983571Y-65703571D01*
X180769285Y-65703571D01*
X180626428Y-65775000D01*
X180555000Y-65917857D01*
X180555000Y-66703571D01*
X179197857Y-66703571D02*
X179197857Y-65203571D01*
X179197857Y-66632142D02*
X179340714Y-66703571D01*
X179626428Y-66703571D01*
X179769285Y-66632142D01*
X179840714Y-66560714D01*
X179912142Y-66417857D01*
X179912142Y-65989285D01*
X179840714Y-65846428D01*
X179769285Y-65775000D01*
X179626428Y-65703571D01*
X179340714Y-65703571D01*
X179197857Y-65775000D01*
X182697857Y-68682142D02*
X181555000Y-68682142D01*
X182126428Y-69253571D02*
X182126428Y-68110714D01*
X180055000Y-69253571D02*
X180912142Y-69253571D01*
X180483571Y-69253571D02*
X180483571Y-67753571D01*
X180626428Y-67967857D01*
X180769285Y-68110714D01*
X180912142Y-68182142D01*
X179483571Y-67896428D02*
X179412142Y-67825000D01*
X179269285Y-67753571D01*
X178912142Y-67753571D01*
X178769285Y-67825000D01*
X178697857Y-67896428D01*
X178626428Y-68039285D01*
X178626428Y-68182142D01*
X178697857Y-68396428D01*
X179555000Y-69253571D01*
X178626428Y-69253571D01*
X178197857Y-67753571D02*
X177697857Y-69253571D01*
X177197857Y-67753571D01*
X182912142Y-70303571D02*
X182055000Y-70303571D01*
X182483571Y-71803571D02*
X182483571Y-70303571D01*
X181697857Y-70303571D02*
X180697857Y-71803571D01*
X180697857Y-70303571D02*
X181697857Y-71803571D01*
X180483571Y-71946428D02*
X179340714Y-71946428D01*
X178126428Y-71803571D02*
X178626428Y-71089285D01*
X178983571Y-71803571D02*
X178983571Y-70303571D01*
X178412142Y-70303571D01*
X178269285Y-70375000D01*
X178197857Y-70446428D01*
X178126428Y-70589285D01*
X178126428Y-70803571D01*
X178197857Y-70946428D01*
X178269285Y-71017857D01*
X178412142Y-71089285D01*
X178983571Y-71089285D01*
X177626428Y-70303571D02*
X176626428Y-71803571D01*
X176626428Y-70303571D02*
X177626428Y-71803571D01*
X176412142Y-71946428D02*
X175269285Y-71946428D01*
X174055000Y-71803571D02*
X174555000Y-71089285D01*
X174912142Y-71803571D02*
X174912142Y-70303571D01*
X174340714Y-70303571D01*
X174197857Y-70375000D01*
X174126428Y-70446428D01*
X174055000Y-70589285D01*
X174055000Y-70803571D01*
X174126428Y-70946428D01*
X174197857Y-71017857D01*
X174340714Y-71089285D01*
X174912142Y-71089285D01*
X172697857Y-71803571D02*
X173412142Y-71803571D01*
X173412142Y-70303571D01*
X171912142Y-71089285D02*
X171912142Y-71803571D01*
X172412142Y-70303571D02*
X171912142Y-71089285D01*
X171412142Y-70303571D01*
X182055000Y-72853571D02*
X182340714Y-72853571D01*
X182483571Y-72925000D01*
X182555000Y-72996428D01*
X182697857Y-73210714D01*
X182769285Y-73496428D01*
X182769285Y-74067857D01*
X182697857Y-74210714D01*
X182626428Y-74282142D01*
X182483571Y-74353571D01*
X182197857Y-74353571D01*
X182055000Y-74282142D01*
X181983571Y-74210714D01*
X181912142Y-74067857D01*
X181912142Y-73710714D01*
X181983571Y-73567857D01*
X182055000Y-73496428D01*
X182197857Y-73425000D01*
X182483571Y-73425000D01*
X182626428Y-73496428D01*
X182697857Y-73567857D01*
X182769285Y-73710714D01*
X181269285Y-74353571D02*
X181269285Y-73353571D01*
X181269285Y-73496428D02*
X181197857Y-73425000D01*
X181055000Y-73353571D01*
X180840714Y-73353571D01*
X180697857Y-73425000D01*
X180626428Y-73567857D01*
X180626428Y-74353571D01*
X180626428Y-73567857D02*
X180555000Y-73425000D01*
X180412142Y-73353571D01*
X180197857Y-73353571D01*
X180055000Y-73425000D01*
X179983571Y-73567857D01*
X179983571Y-74353571D01*
X181912142Y-76903571D02*
X182769285Y-76903571D01*
X182340714Y-76903571D02*
X182340714Y-75403571D01*
X182483571Y-75617857D01*
X182626428Y-75760714D01*
X182769285Y-75832142D01*
X181340714Y-75546428D02*
X181269285Y-75475000D01*
X181126428Y-75403571D01*
X180769285Y-75403571D01*
X180626428Y-75475000D01*
X180555000Y-75546428D01*
X180483571Y-75689285D01*
X180483571Y-75832142D01*
X180555000Y-76046428D01*
X181412142Y-76903571D01*
X180483571Y-76903571D01*
X178769285Y-75332142D02*
X180055000Y-77260714D01*
X177483571Y-76903571D02*
X178340714Y-76903571D01*
X177912142Y-76903571D02*
X177912142Y-75403571D01*
X178055000Y-75617857D01*
X178197857Y-75760714D01*
X178340714Y-75832142D01*
X176555000Y-75403571D02*
X176412142Y-75403571D01*
X176269285Y-75475000D01*
X176197857Y-75546428D01*
X176126428Y-75689285D01*
X176055000Y-75975000D01*
X176055000Y-76332142D01*
X176126428Y-76617857D01*
X176197857Y-76760714D01*
X176269285Y-76832142D01*
X176412142Y-76903571D01*
X176555000Y-76903571D01*
X176697857Y-76832142D01*
X176769285Y-76760714D01*
X176840714Y-76617857D01*
X176912142Y-76332142D01*
X176912142Y-75975000D01*
X176840714Y-75689285D01*
X176769285Y-75546428D01*
X176697857Y-75475000D01*
X176555000Y-75403571D01*
X175412142Y-76903571D02*
X175412142Y-75903571D01*
X175412142Y-76046428D02*
X175340714Y-75975000D01*
X175197857Y-75903571D01*
X174983571Y-75903571D01*
X174840714Y-75975000D01*
X174769285Y-76117857D01*
X174769285Y-76903571D01*
X174769285Y-76117857D02*
X174697857Y-75975000D01*
X174555000Y-75903571D01*
X174340714Y-75903571D01*
X174197857Y-75975000D01*
X174126428Y-76117857D01*
X174126428Y-76903571D01*
X181912142Y-79453571D02*
X182769285Y-79453571D01*
X182340714Y-79453571D02*
X182340714Y-77953571D01*
X182483571Y-78167857D01*
X182626428Y-78310714D01*
X182769285Y-78382142D01*
X181412142Y-77953571D02*
X180412142Y-77953571D01*
X181055000Y-79453571D01*
X178769285Y-77882142D02*
X180055000Y-79810714D01*
X177483571Y-79453571D02*
X178340714Y-79453571D01*
X177912142Y-79453571D02*
X177912142Y-77953571D01*
X178055000Y-78167857D01*
X178197857Y-78310714D01*
X178340714Y-78382142D01*
X176126428Y-77953571D02*
X176840714Y-77953571D01*
X176912142Y-78667857D01*
X176840714Y-78596428D01*
X176697857Y-78525000D01*
X176340714Y-78525000D01*
X176197857Y-78596428D01*
X176126428Y-78667857D01*
X176055000Y-78810714D01*
X176055000Y-79167857D01*
X176126428Y-79310714D01*
X176197857Y-79382142D01*
X176340714Y-79453571D01*
X176697857Y-79453571D01*
X176840714Y-79382142D01*
X176912142Y-79310714D01*
X175412142Y-79453571D02*
X175412142Y-78453571D01*
X175412142Y-78596428D02*
X175340714Y-78525000D01*
X175197857Y-78453571D01*
X174983571Y-78453571D01*
X174840714Y-78525000D01*
X174769285Y-78667857D01*
X174769285Y-79453571D01*
X174769285Y-78667857D02*
X174697857Y-78525000D01*
X174555000Y-78453571D01*
X174340714Y-78453571D01*
X174197857Y-78525000D01*
X174126428Y-78667857D01*
X174126428Y-79453571D01*
X182055000Y-80503571D02*
X182340714Y-80503571D01*
X182483571Y-80575000D01*
X182555000Y-80646428D01*
X182697857Y-80860714D01*
X182769285Y-81146428D01*
X182769285Y-81717857D01*
X182697857Y-81860714D01*
X182626428Y-81932142D01*
X182483571Y-82003571D01*
X182197857Y-82003571D01*
X182055000Y-81932142D01*
X181983571Y-81860714D01*
X181912142Y-81717857D01*
X181912142Y-81360714D01*
X181983571Y-81217857D01*
X182055000Y-81146428D01*
X182197857Y-81075000D01*
X182483571Y-81075000D01*
X182626428Y-81146428D01*
X182697857Y-81217857D01*
X182769285Y-81360714D01*
X181269285Y-82003571D02*
X181269285Y-81003571D01*
X181269285Y-81146428D02*
X181197857Y-81075000D01*
X181055000Y-81003571D01*
X180840714Y-81003571D01*
X180697857Y-81075000D01*
X180626428Y-81217857D01*
X180626428Y-82003571D01*
X180626428Y-81217857D02*
X180555000Y-81075000D01*
X180412142Y-81003571D01*
X180197857Y-81003571D01*
X180055000Y-81075000D01*
X179983571Y-81217857D01*
X179983571Y-82003571D01*
X178269285Y-80503571D02*
X177340714Y-80503571D01*
X177840714Y-81075000D01*
X177626428Y-81075000D01*
X177483571Y-81146428D01*
X177412142Y-81217857D01*
X177340714Y-81360714D01*
X177340714Y-81717857D01*
X177412142Y-81860714D01*
X177483571Y-81932142D01*
X177626428Y-82003571D01*
X178055000Y-82003571D01*
X178197857Y-81932142D01*
X178269285Y-81860714D01*
X176412142Y-80503571D02*
X176269285Y-80503571D01*
X176126428Y-80575000D01*
X176055000Y-80646428D01*
X175983571Y-80789285D01*
X175912142Y-81075000D01*
X175912142Y-81432142D01*
X175983571Y-81717857D01*
X176055000Y-81860714D01*
X176126428Y-81932142D01*
X176269285Y-82003571D01*
X176412142Y-82003571D01*
X176555000Y-81932142D01*
X176626428Y-81860714D01*
X176697857Y-81717857D01*
X176769285Y-81432142D01*
X176769285Y-81075000D01*
X176697857Y-80789285D01*
X176626428Y-80646428D01*
X176555000Y-80575000D01*
X176412142Y-80503571D01*
X174197857Y-80432142D02*
X175483571Y-82360714D01*
X173769285Y-80646428D02*
X173697857Y-80575000D01*
X173555000Y-80503571D01*
X173197857Y-80503571D01*
X173055000Y-80575000D01*
X172983571Y-80646428D01*
X172912142Y-80789285D01*
X172912142Y-80932142D01*
X172983571Y-81146428D01*
X173840714Y-82003571D01*
X172912142Y-82003571D01*
X171983571Y-80503571D02*
X171840714Y-80503571D01*
X171697857Y-80575000D01*
X171626428Y-80646428D01*
X171555000Y-80789285D01*
X171483571Y-81075000D01*
X171483571Y-81432142D01*
X171555000Y-81717857D01*
X171626428Y-81860714D01*
X171697857Y-81932142D01*
X171840714Y-82003571D01*
X171983571Y-82003571D01*
X172126428Y-81932142D01*
X172197857Y-81860714D01*
X172269285Y-81717857D01*
X172340714Y-81432142D01*
X172340714Y-81075000D01*
X172269285Y-80789285D01*
X172197857Y-80646428D01*
X172126428Y-80575000D01*
X171983571Y-80503571D01*
X170840714Y-82003571D02*
X170840714Y-81003571D01*
X170840714Y-81146428D02*
X170769285Y-81075000D01*
X170626428Y-81003571D01*
X170412142Y-81003571D01*
X170269285Y-81075000D01*
X170197857Y-81217857D01*
X170197857Y-82003571D01*
X170197857Y-81217857D02*
X170126428Y-81075000D01*
X169983571Y-81003571D01*
X169769285Y-81003571D01*
X169626428Y-81075000D01*
X169555000Y-81217857D01*
X169555000Y-82003571D01*
X182055000Y-83553571D02*
X182055000Y-84553571D01*
X182412142Y-82982142D02*
X182769285Y-84053571D01*
X181840714Y-84053571D01*
X180983571Y-83053571D02*
X180840714Y-83053571D01*
X180697857Y-83125000D01*
X180626428Y-83196428D01*
X180555000Y-83339285D01*
X180483571Y-83625000D01*
X180483571Y-83982142D01*
X180555000Y-84267857D01*
X180626428Y-84410714D01*
X180697857Y-84482142D01*
X180840714Y-84553571D01*
X180983571Y-84553571D01*
X181126428Y-84482142D01*
X181197857Y-84410714D01*
X181269285Y-84267857D01*
X181340714Y-83982142D01*
X181340714Y-83625000D01*
X181269285Y-83339285D01*
X181197857Y-83196428D01*
X181126428Y-83125000D01*
X180983571Y-83053571D01*
X179840714Y-84553571D02*
X179840714Y-83553571D01*
X179840714Y-83696428D02*
X179769285Y-83625000D01*
X179626428Y-83553571D01*
X179412142Y-83553571D01*
X179269285Y-83625000D01*
X179197857Y-83767857D01*
X179197857Y-84553571D01*
X179197857Y-83767857D02*
X179126428Y-83625000D01*
X178983571Y-83553571D01*
X178769285Y-83553571D01*
X178626428Y-83625000D01*
X178555000Y-83767857D01*
X178555000Y-84553571D01*
X182483571Y-86246428D02*
X182626428Y-86175000D01*
X182697857Y-86103571D01*
X182769285Y-85960714D01*
X182769285Y-85889285D01*
X182697857Y-85746428D01*
X182626428Y-85675000D01*
X182483571Y-85603571D01*
X182197857Y-85603571D01*
X182055000Y-85675000D01*
X181983571Y-85746428D01*
X181912142Y-85889285D01*
X181912142Y-85960714D01*
X181983571Y-86103571D01*
X182055000Y-86175000D01*
X182197857Y-86246428D01*
X182483571Y-86246428D01*
X182626428Y-86317857D01*
X182697857Y-86389285D01*
X182769285Y-86532142D01*
X182769285Y-86817857D01*
X182697857Y-86960714D01*
X182626428Y-87032142D01*
X182483571Y-87103571D01*
X182197857Y-87103571D01*
X182055000Y-87032142D01*
X181983571Y-86960714D01*
X181912142Y-86817857D01*
X181912142Y-86532142D01*
X181983571Y-86389285D01*
X182055000Y-86317857D01*
X182197857Y-86246428D01*
X180983571Y-85603571D02*
X180840714Y-85603571D01*
X180697857Y-85675000D01*
X180626428Y-85746428D01*
X180555000Y-85889285D01*
X180483571Y-86175000D01*
X180483571Y-86532142D01*
X180555000Y-86817857D01*
X180626428Y-86960714D01*
X180697857Y-87032142D01*
X180840714Y-87103571D01*
X180983571Y-87103571D01*
X181126428Y-87032142D01*
X181197857Y-86960714D01*
X181269285Y-86817857D01*
X181340714Y-86532142D01*
X181340714Y-86175000D01*
X181269285Y-85889285D01*
X181197857Y-85746428D01*
X181126428Y-85675000D01*
X180983571Y-85603571D01*
X179840714Y-87103571D02*
X179840714Y-86103571D01*
X179840714Y-86246428D02*
X179769285Y-86175000D01*
X179626428Y-86103571D01*
X179412142Y-86103571D01*
X179269285Y-86175000D01*
X179197857Y-86317857D01*
X179197857Y-87103571D01*
X179197857Y-86317857D02*
X179126428Y-86175000D01*
X178983571Y-86103571D01*
X178769285Y-86103571D01*
X178626428Y-86175000D01*
X178555000Y-86317857D01*
X178555000Y-87103571D01*
X181912142Y-89653571D02*
X182769285Y-89653571D01*
X182340714Y-89653571D02*
X182340714Y-88153571D01*
X182483571Y-88367857D01*
X182626428Y-88510714D01*
X182769285Y-88582142D01*
X180626428Y-88153571D02*
X180912142Y-88153571D01*
X181055000Y-88225000D01*
X181126428Y-88296428D01*
X181269285Y-88510714D01*
X181340714Y-88796428D01*
X181340714Y-89367857D01*
X181269285Y-89510714D01*
X181197857Y-89582142D01*
X181055000Y-89653571D01*
X180769285Y-89653571D01*
X180626428Y-89582142D01*
X180555000Y-89510714D01*
X180483571Y-89367857D01*
X180483571Y-89010714D01*
X180555000Y-88867857D01*
X180626428Y-88796428D01*
X180769285Y-88725000D01*
X181055000Y-88725000D01*
X181197857Y-88796428D01*
X181269285Y-88867857D01*
X181340714Y-89010714D01*
X179555000Y-88153571D02*
X179412142Y-88153571D01*
X179269285Y-88225000D01*
X179197857Y-88296428D01*
X179126428Y-88439285D01*
X179055000Y-88725000D01*
X179055000Y-89082142D01*
X179126428Y-89367857D01*
X179197857Y-89510714D01*
X179269285Y-89582142D01*
X179412142Y-89653571D01*
X179555000Y-89653571D01*
X179697857Y-89582142D01*
X179769285Y-89510714D01*
X179840714Y-89367857D01*
X179912142Y-89082142D01*
X179912142Y-88725000D01*
X179840714Y-88439285D01*
X179769285Y-88296428D01*
X179697857Y-88225000D01*
X179555000Y-88153571D01*
X178412142Y-89653571D02*
X178412142Y-88653571D01*
X178412142Y-88796428D02*
X178340714Y-88725000D01*
X178197857Y-88653571D01*
X177983571Y-88653571D01*
X177840714Y-88725000D01*
X177769285Y-88867857D01*
X177769285Y-89653571D01*
X177769285Y-88867857D02*
X177697857Y-88725000D01*
X177555000Y-88653571D01*
X177340714Y-88653571D01*
X177197857Y-88725000D01*
X177126428Y-88867857D01*
X177126428Y-89653571D01*
X181912142Y-92700000D02*
X182055000Y-92628571D01*
X182269285Y-92628571D01*
X182483571Y-92700000D01*
X182626428Y-92842857D01*
X182697857Y-92985714D01*
X182769285Y-93271428D01*
X182769285Y-93485714D01*
X182697857Y-93771428D01*
X182626428Y-93914285D01*
X182483571Y-94057142D01*
X182269285Y-94128571D01*
X182126428Y-94128571D01*
X181912142Y-94057142D01*
X181840714Y-93985714D01*
X181840714Y-93485714D01*
X182126428Y-93485714D01*
X181197857Y-93128571D02*
X181197857Y-94128571D01*
X181197857Y-93271428D02*
X181126428Y-93200000D01*
X180983571Y-93128571D01*
X180769285Y-93128571D01*
X180626428Y-93200000D01*
X180555000Y-93342857D01*
X180555000Y-94128571D01*
X179197857Y-94128571D02*
X179197857Y-92628571D01*
X179197857Y-94057142D02*
X179340714Y-94128571D01*
X179626428Y-94128571D01*
X179769285Y-94057142D01*
X179840714Y-93985714D01*
X179912142Y-93842857D01*
X179912142Y-93414285D01*
X179840714Y-93271428D01*
X179769285Y-93200000D01*
X179626428Y-93128571D01*
X179340714Y-93128571D01*
X179197857Y-93200000D01*
X182697857Y-96107142D02*
X181555000Y-96107142D01*
X182126428Y-96678571D02*
X182126428Y-95535714D01*
X180055000Y-96678571D02*
X180912142Y-96678571D01*
X180483571Y-96678571D02*
X180483571Y-95178571D01*
X180626428Y-95392857D01*
X180769285Y-95535714D01*
X180912142Y-95607142D01*
X179483571Y-95321428D02*
X179412142Y-95250000D01*
X179269285Y-95178571D01*
X178912142Y-95178571D01*
X178769285Y-95250000D01*
X178697857Y-95321428D01*
X178626428Y-95464285D01*
X178626428Y-95607142D01*
X178697857Y-95821428D01*
X179555000Y-96678571D01*
X178626428Y-96678571D01*
X178197857Y-95178571D02*
X177697857Y-96678571D01*
X177197857Y-95178571D01*
X182697857Y-99228571D02*
X182697857Y-97728571D01*
X182697857Y-98442857D02*
X181840714Y-98442857D01*
X181840714Y-99228571D02*
X181840714Y-97728571D01*
X181126428Y-99228571D02*
X181126428Y-97728571D01*
X180555000Y-97728571D01*
X180412142Y-97800000D01*
X180340714Y-97871428D01*
X180269285Y-98014285D01*
X180269285Y-98228571D01*
X180340714Y-98371428D01*
X180412142Y-98442857D01*
X180555000Y-98514285D01*
X181126428Y-98514285D01*
X179126428Y-98442857D02*
X179626428Y-98442857D01*
X179626428Y-99228571D02*
X179626428Y-97728571D01*
X178912142Y-97728571D01*
X178697857Y-99371428D02*
X177555000Y-99371428D01*
X176697857Y-98442857D02*
X176483571Y-98514285D01*
X176412142Y-98585714D01*
X176340714Y-98728571D01*
X176340714Y-98942857D01*
X176412142Y-99085714D01*
X176483571Y-99157142D01*
X176626428Y-99228571D01*
X177197857Y-99228571D01*
X177197857Y-97728571D01*
X176697857Y-97728571D01*
X176555000Y-97800000D01*
X176483571Y-97871428D01*
X176412142Y-98014285D01*
X176412142Y-98157142D01*
X176483571Y-98300000D01*
X176555000Y-98371428D01*
X176697857Y-98442857D01*
X177197857Y-98442857D01*
X175840714Y-98228571D02*
X175483571Y-99228571D01*
X175126428Y-98228571D02*
X175483571Y-99228571D01*
X175626428Y-99585714D01*
X175697857Y-99657142D01*
X175840714Y-99728571D01*
X174555000Y-99228571D02*
X174555000Y-97728571D01*
X173983571Y-97728571D01*
X173840714Y-97800000D01*
X173769285Y-97871428D01*
X173697857Y-98014285D01*
X173697857Y-98228571D01*
X173769285Y-98371428D01*
X173840714Y-98442857D01*
X173983571Y-98514285D01*
X174555000Y-98514285D01*
X172412142Y-99228571D02*
X172412142Y-98442857D01*
X172483571Y-98300000D01*
X172626428Y-98228571D01*
X172912142Y-98228571D01*
X173055000Y-98300000D01*
X172412142Y-99157142D02*
X172555000Y-99228571D01*
X172912142Y-99228571D01*
X173055000Y-99157142D01*
X173126428Y-99014285D01*
X173126428Y-98871428D01*
X173055000Y-98728571D01*
X172912142Y-98657142D01*
X172555000Y-98657142D01*
X172412142Y-98585714D01*
X171769285Y-99157142D02*
X171626428Y-99228571D01*
X171340714Y-99228571D01*
X171197857Y-99157142D01*
X171126428Y-99014285D01*
X171126428Y-98942857D01*
X171197857Y-98800000D01*
X171340714Y-98728571D01*
X171555000Y-98728571D01*
X171697857Y-98657142D01*
X171769285Y-98514285D01*
X171769285Y-98442857D01*
X171697857Y-98300000D01*
X171555000Y-98228571D01*
X171340714Y-98228571D01*
X171197857Y-98300000D01*
X170555000Y-99157142D02*
X170412142Y-99228571D01*
X170126428Y-99228571D01*
X169983571Y-99157142D01*
X169912142Y-99014285D01*
X169912142Y-98942857D01*
X169983571Y-98800000D01*
X170126428Y-98728571D01*
X170340714Y-98728571D01*
X170483571Y-98657142D01*
X170555000Y-98514285D01*
X170555000Y-98442857D01*
X170483571Y-98300000D01*
X170340714Y-98228571D01*
X170126428Y-98228571D01*
X169983571Y-98300000D01*
X181912142Y-100350000D02*
X182055000Y-100278571D01*
X182269285Y-100278571D01*
X182483571Y-100350000D01*
X182626428Y-100492857D01*
X182697857Y-100635714D01*
X182769285Y-100921428D01*
X182769285Y-101135714D01*
X182697857Y-101421428D01*
X182626428Y-101564285D01*
X182483571Y-101707142D01*
X182269285Y-101778571D01*
X182126428Y-101778571D01*
X181912142Y-101707142D01*
X181840714Y-101635714D01*
X181840714Y-101135714D01*
X182126428Y-101135714D01*
X181197857Y-100778571D02*
X181197857Y-101778571D01*
X181197857Y-100921428D02*
X181126428Y-100850000D01*
X180983571Y-100778571D01*
X180769285Y-100778571D01*
X180626428Y-100850000D01*
X180555000Y-100992857D01*
X180555000Y-101778571D01*
X179197857Y-101778571D02*
X179197857Y-100278571D01*
X179197857Y-101707142D02*
X179340714Y-101778571D01*
X179626428Y-101778571D01*
X179769285Y-101707142D01*
X179840714Y-101635714D01*
X179912142Y-101492857D01*
X179912142Y-101064285D01*
X179840714Y-100921428D01*
X179769285Y-100850000D01*
X179626428Y-100778571D01*
X179340714Y-100778571D01*
X179197857Y-100850000D01*
X182055000Y-102828571D02*
X182340714Y-102828571D01*
X182483571Y-102900000D01*
X182555000Y-102971428D01*
X182697857Y-103185714D01*
X182769285Y-103471428D01*
X182769285Y-104042857D01*
X182697857Y-104185714D01*
X182626428Y-104257142D01*
X182483571Y-104328571D01*
X182197857Y-104328571D01*
X182055000Y-104257142D01*
X181983571Y-104185714D01*
X181912142Y-104042857D01*
X181912142Y-103685714D01*
X181983571Y-103542857D01*
X182055000Y-103471428D01*
X182197857Y-103400000D01*
X182483571Y-103400000D01*
X182626428Y-103471428D01*
X182697857Y-103542857D01*
X182769285Y-103685714D01*
X181269285Y-104328571D02*
X181269285Y-103328571D01*
X181269285Y-103471428D02*
X181197857Y-103400000D01*
X181055000Y-103328571D01*
X180840714Y-103328571D01*
X180697857Y-103400000D01*
X180626428Y-103542857D01*
X180626428Y-104328571D01*
X180626428Y-103542857D02*
X180555000Y-103400000D01*
X180412142Y-103328571D01*
X180197857Y-103328571D01*
X180055000Y-103400000D01*
X179983571Y-103542857D01*
X179983571Y-104328571D01*
X178555000Y-104328571D02*
X179269285Y-104328571D01*
X179269285Y-102828571D01*
X178055000Y-104328571D02*
X178055000Y-102828571D01*
X177197857Y-104328571D01*
X177197857Y-102828571D01*
X176555000Y-103900000D02*
X175840714Y-103900000D01*
X176697857Y-104328571D02*
X176197857Y-102828571D01*
X175697857Y-104328571D01*
X181912142Y-106878571D02*
X182769285Y-106878571D01*
X182340714Y-106878571D02*
X182340714Y-105378571D01*
X182483571Y-105592857D01*
X182626428Y-105735714D01*
X182769285Y-105807142D01*
X181269285Y-106735714D02*
X181197857Y-106807142D01*
X181269285Y-106878571D01*
X181340714Y-106807142D01*
X181269285Y-106735714D01*
X181269285Y-106878571D01*
X179840714Y-105378571D02*
X180555000Y-105378571D01*
X180626428Y-106092857D01*
X180555000Y-106021428D01*
X180412142Y-105950000D01*
X180055000Y-105950000D01*
X179912142Y-106021428D01*
X179840714Y-106092857D01*
X179769285Y-106235714D01*
X179769285Y-106592857D01*
X179840714Y-106735714D01*
X179912142Y-106807142D01*
X180055000Y-106878571D01*
X180412142Y-106878571D01*
X180555000Y-106807142D01*
X180626428Y-106735714D01*
X179126428Y-106878571D02*
X179126428Y-105378571D01*
X179126428Y-106092857D02*
X178269285Y-106092857D01*
X178269285Y-106878571D02*
X178269285Y-105378571D01*
X177555000Y-106878571D02*
X177555000Y-105378571D01*
X176983571Y-105378571D01*
X176840714Y-105450000D01*
X176769285Y-105521428D01*
X176697857Y-105664285D01*
X176697857Y-105878571D01*
X176769285Y-106021428D01*
X176840714Y-106092857D01*
X176983571Y-106164285D01*
X177555000Y-106164285D01*
X175555000Y-106092857D02*
X176055000Y-106092857D01*
X176055000Y-106878571D02*
X176055000Y-105378571D01*
X175340714Y-105378571D01*
X182055000Y-107928571D02*
X182340714Y-107928571D01*
X182483571Y-108000000D01*
X182555000Y-108071428D01*
X182697857Y-108285714D01*
X182769285Y-108571428D01*
X182769285Y-109142857D01*
X182697857Y-109285714D01*
X182626428Y-109357142D01*
X182483571Y-109428571D01*
X182197857Y-109428571D01*
X182055000Y-109357142D01*
X181983571Y-109285714D01*
X181912142Y-109142857D01*
X181912142Y-108785714D01*
X181983571Y-108642857D01*
X182055000Y-108571428D01*
X182197857Y-108500000D01*
X182483571Y-108500000D01*
X182626428Y-108571428D01*
X182697857Y-108642857D01*
X182769285Y-108785714D01*
X181269285Y-109285714D02*
X181197857Y-109357142D01*
X181269285Y-109428571D01*
X181340714Y-109357142D01*
X181269285Y-109285714D01*
X181269285Y-109428571D01*
X179840714Y-107928571D02*
X180555000Y-107928571D01*
X180626428Y-108642857D01*
X180555000Y-108571428D01*
X180412142Y-108500000D01*
X180055000Y-108500000D01*
X179912142Y-108571428D01*
X179840714Y-108642857D01*
X179769285Y-108785714D01*
X179769285Y-109142857D01*
X179840714Y-109285714D01*
X179912142Y-109357142D01*
X180055000Y-109428571D01*
X180412142Y-109428571D01*
X180555000Y-109357142D01*
X180626428Y-109285714D01*
X179126428Y-109428571D02*
X179126428Y-107928571D01*
X179126428Y-108642857D02*
X178269285Y-108642857D01*
X178269285Y-109428571D02*
X178269285Y-107928571D01*
X177555000Y-109428571D02*
X177555000Y-107928571D01*
X176983571Y-107928571D01*
X176840714Y-108000000D01*
X176769285Y-108071428D01*
X176697857Y-108214285D01*
X176697857Y-108428571D01*
X176769285Y-108571428D01*
X176840714Y-108642857D01*
X176983571Y-108714285D01*
X177555000Y-108714285D01*
X175555000Y-108642857D02*
X176055000Y-108642857D01*
X176055000Y-109428571D02*
X176055000Y-107928571D01*
X175340714Y-107928571D01*
X182626428Y-111978571D02*
X182340714Y-111978571D01*
X182197857Y-111907142D01*
X182126428Y-111835714D01*
X181983571Y-111621428D01*
X181912142Y-111335714D01*
X181912142Y-110764285D01*
X181983571Y-110621428D01*
X182055000Y-110550000D01*
X182197857Y-110478571D01*
X182483571Y-110478571D01*
X182626428Y-110550000D01*
X182697857Y-110621428D01*
X182769285Y-110764285D01*
X182769285Y-111121428D01*
X182697857Y-111264285D01*
X182626428Y-111335714D01*
X182483571Y-111407142D01*
X182197857Y-111407142D01*
X182055000Y-111335714D01*
X181983571Y-111264285D01*
X181912142Y-111121428D01*
X181269285Y-111835714D02*
X181197857Y-111907142D01*
X181269285Y-111978571D01*
X181340714Y-111907142D01*
X181269285Y-111835714D01*
X181269285Y-111978571D01*
X179840714Y-110478571D02*
X180555000Y-110478571D01*
X180626428Y-111192857D01*
X180555000Y-111121428D01*
X180412142Y-111050000D01*
X180055000Y-111050000D01*
X179912142Y-111121428D01*
X179840714Y-111192857D01*
X179769285Y-111335714D01*
X179769285Y-111692857D01*
X179840714Y-111835714D01*
X179912142Y-111907142D01*
X180055000Y-111978571D01*
X180412142Y-111978571D01*
X180555000Y-111907142D01*
X180626428Y-111835714D01*
X179126428Y-111978571D02*
X179126428Y-110478571D01*
X179126428Y-111192857D02*
X178269285Y-111192857D01*
X178269285Y-111978571D02*
X178269285Y-110478571D01*
X177555000Y-111978571D02*
X177555000Y-110478571D01*
X176983571Y-110478571D01*
X176840714Y-110550000D01*
X176769285Y-110621428D01*
X176697857Y-110764285D01*
X176697857Y-110978571D01*
X176769285Y-111121428D01*
X176840714Y-111192857D01*
X176983571Y-111264285D01*
X177555000Y-111264285D01*
X175555000Y-111192857D02*
X176055000Y-111192857D01*
X176055000Y-111978571D02*
X176055000Y-110478571D01*
X175340714Y-110478571D01*
X181912142Y-114528571D02*
X182769285Y-114528571D01*
X182340714Y-114528571D02*
X182340714Y-113028571D01*
X182483571Y-113242857D01*
X182626428Y-113385714D01*
X182769285Y-113457142D01*
X181412142Y-113028571D02*
X180483571Y-113028571D01*
X180983571Y-113600000D01*
X180769285Y-113600000D01*
X180626428Y-113671428D01*
X180555000Y-113742857D01*
X180483571Y-113885714D01*
X180483571Y-114242857D01*
X180555000Y-114385714D01*
X180626428Y-114457142D01*
X180769285Y-114528571D01*
X181197857Y-114528571D01*
X181340714Y-114457142D01*
X181412142Y-114385714D01*
X179840714Y-114528571D02*
X179840714Y-113028571D01*
X179840714Y-113742857D02*
X178983571Y-113742857D01*
X178983571Y-114528571D02*
X178983571Y-113028571D01*
X178269285Y-114528571D02*
X178269285Y-113028571D01*
X177697857Y-113028571D01*
X177555000Y-113100000D01*
X177483571Y-113171428D01*
X177412142Y-113314285D01*
X177412142Y-113528571D01*
X177483571Y-113671428D01*
X177555000Y-113742857D01*
X177697857Y-113814285D01*
X178269285Y-113814285D01*
X176269285Y-113742857D02*
X176769285Y-113742857D01*
X176769285Y-114528571D02*
X176769285Y-113028571D01*
X176055000Y-113028571D01*
X182769285Y-115721428D02*
X182697857Y-115650000D01*
X182555000Y-115578571D01*
X182197857Y-115578571D01*
X182055000Y-115650000D01*
X181983571Y-115721428D01*
X181912142Y-115864285D01*
X181912142Y-116007142D01*
X181983571Y-116221428D01*
X182840714Y-117078571D01*
X181912142Y-117078571D01*
X180983571Y-115578571D02*
X180840714Y-115578571D01*
X180697857Y-115650000D01*
X180626428Y-115721428D01*
X180555000Y-115864285D01*
X180483571Y-116150000D01*
X180483571Y-116507142D01*
X180555000Y-116792857D01*
X180626428Y-116935714D01*
X180697857Y-117007142D01*
X180840714Y-117078571D01*
X180983571Y-117078571D01*
X181126428Y-117007142D01*
X181197857Y-116935714D01*
X181269285Y-116792857D01*
X181340714Y-116507142D01*
X181340714Y-116150000D01*
X181269285Y-115864285D01*
X181197857Y-115721428D01*
X181126428Y-115650000D01*
X180983571Y-115578571D01*
X179840714Y-117078571D02*
X179840714Y-115578571D01*
X179840714Y-116292857D02*
X178983571Y-116292857D01*
X178983571Y-117078571D02*
X178983571Y-115578571D01*
X178269285Y-117078571D02*
X178269285Y-115578571D01*
X177697857Y-115578571D01*
X177555000Y-115650000D01*
X177483571Y-115721428D01*
X177412142Y-115864285D01*
X177412142Y-116078571D01*
X177483571Y-116221428D01*
X177555000Y-116292857D01*
X177697857Y-116364285D01*
X178269285Y-116364285D01*
X176269285Y-116292857D02*
X176769285Y-116292857D01*
X176769285Y-117078571D02*
X176769285Y-115578571D01*
X176055000Y-115578571D01*
X182769285Y-119200000D02*
X182055000Y-119200000D01*
X182912142Y-119628571D02*
X182412142Y-118128571D01*
X181912142Y-119628571D01*
X181626428Y-118628571D02*
X181055000Y-118628571D01*
X181412142Y-118128571D02*
X181412142Y-119414285D01*
X181340714Y-119557142D01*
X181197857Y-119628571D01*
X181055000Y-119628571D01*
X180769285Y-118628571D02*
X180197857Y-118628571D01*
X180555000Y-118128571D02*
X180555000Y-119414285D01*
X180483571Y-119557142D01*
X180340714Y-119628571D01*
X180197857Y-119628571D01*
X179769285Y-118271428D02*
X179697857Y-118200000D01*
X179555000Y-118128571D01*
X179197857Y-118128571D01*
X179055000Y-118200000D01*
X178983571Y-118271428D01*
X178912142Y-118414285D01*
X178912142Y-118557142D01*
X178983571Y-118771428D01*
X179840714Y-119628571D01*
X178912142Y-119628571D01*
X182769285Y-121750000D02*
X182055000Y-121750000D01*
X182912142Y-122178571D02*
X182412142Y-120678571D01*
X181912142Y-122178571D01*
X181626428Y-121178571D02*
X181055000Y-121178571D01*
X181412142Y-120678571D02*
X181412142Y-121964285D01*
X181340714Y-122107142D01*
X181197857Y-122178571D01*
X181055000Y-122178571D01*
X180769285Y-121178571D02*
X180197857Y-121178571D01*
X180555000Y-120678571D02*
X180555000Y-121964285D01*
X180483571Y-122107142D01*
X180340714Y-122178571D01*
X180197857Y-122178571D01*
X178912142Y-122178571D02*
X179769285Y-122178571D01*
X179340714Y-122178571D02*
X179340714Y-120678571D01*
X179483571Y-120892857D01*
X179626428Y-121035714D01*
X179769285Y-121107142D01*
X182912142Y-123228571D02*
X182055000Y-123228571D01*
X182483571Y-124728571D02*
X182483571Y-123228571D01*
X181697857Y-123228571D02*
X180697857Y-124728571D01*
X180697857Y-123228571D02*
X181697857Y-124728571D01*
X180483571Y-124871428D02*
X179340714Y-124871428D01*
X178126428Y-124728571D02*
X178626428Y-124014285D01*
X178983571Y-124728571D02*
X178983571Y-123228571D01*
X178412142Y-123228571D01*
X178269285Y-123300000D01*
X178197857Y-123371428D01*
X178126428Y-123514285D01*
X178126428Y-123728571D01*
X178197857Y-123871428D01*
X178269285Y-123942857D01*
X178412142Y-124014285D01*
X178983571Y-124014285D01*
X177626428Y-123228571D02*
X176626428Y-124728571D01*
X176626428Y-123228571D02*
X177626428Y-124728571D01*
X176412142Y-124871428D02*
X175269285Y-124871428D01*
X174055000Y-124728571D02*
X174555000Y-124014285D01*
X174912142Y-124728571D02*
X174912142Y-123228571D01*
X174340714Y-123228571D01*
X174197857Y-123300000D01*
X174126428Y-123371428D01*
X174055000Y-123514285D01*
X174055000Y-123728571D01*
X174126428Y-123871428D01*
X174197857Y-123942857D01*
X174340714Y-124014285D01*
X174912142Y-124014285D01*
X172697857Y-124728571D02*
X173412142Y-124728571D01*
X173412142Y-123228571D01*
X171912142Y-124014285D02*
X171912142Y-124728571D01*
X172412142Y-123228571D02*
X171912142Y-124014285D01*
X171412142Y-123228571D01*
M02*
