M48
;DRILL file {KiCad 4.0.7} date 12/30/17 13:56:07
;FORMAT={3:3/ absolute / metric / suppress leading zeros}
FMAT,2
METRIC,TZ
T1C0.400
T2C1.016
T3C3.500
%
G90
G05
M71
T1
X90000Y-55000
X90000Y-61000
X90000Y-66000
X90000Y-71000
X90000Y-76000
X90000Y-81000
X90000Y-87000
X90000Y-92000
X90000Y-97000
X90000Y-103000
X90000Y-108000
X90000Y-112000
X90000Y-118000
X90000Y-122000
X90000Y-128000
X90000Y-133000
X95000Y-57000
X95000Y-59500
X95000Y-63500
X95000Y-66000
X95000Y-68500
X95000Y-71000
X95000Y-73750
X95000Y-76000
X95000Y-78750
X95000Y-81000
X95000Y-84500
X95000Y-86750
X95000Y-89000
X95000Y-92250
X95000Y-94500
X95000Y-97500
X95000Y-100750
X95000Y-103250
X98000Y-107000
X99750Y-107000
X99750Y-107040
X100000Y-46000
X101000Y-141000
X101500Y-107000
X101500Y-111500
X102500Y-112500
X103500Y-67000
X103500Y-86500
X103500Y-93500
X103500Y-109500
X103500Y-113500
X103500Y-115750
X104500Y-77500
X104500Y-85500
X104500Y-102000
X105000Y-46000
X105500Y-57500
X105500Y-66000
X105500Y-70000
X105500Y-72500
X105500Y-83000
X105500Y-99500
X106000Y-141000
X106500Y-54500
X106500Y-96000
X107500Y-64500
X107500Y-71270
X107500Y-96000
X108000Y-103000
X108500Y-81000
X108500Y-95000
X109500Y-63500
X109500Y-70000
X110000Y-46000
X110250Y-78750
X110250Y-83500
X111000Y-141000
X111250Y-127000
X113000Y-62000
X113000Y-70000
X113000Y-91000
X113000Y-103000
X114000Y-86500
X114000Y-92500
X115000Y-46000
X115000Y-52000
X115000Y-68500
X115000Y-91250
X115000Y-101000
X116000Y-141000
X116500Y-58000
X116500Y-64300
X117000Y-83500
X117000Y-89500
X118000Y-103000
X119500Y-90000
X119500Y-98500
X120000Y-46000
X120500Y-67500
X120500Y-71000
X120500Y-91000
X120500Y-96000
X121000Y-141000
X123000Y-103000
X124000Y-61000
X124000Y-67000
X124000Y-75000
X124000Y-86000
X124000Y-94000
X124750Y-133250
X125000Y-46000
X126000Y-141000
X127340Y-118505
X128000Y-103000
X129000Y-61000
X129000Y-67000
X129000Y-75000
X129000Y-86000
X129000Y-94000
X130000Y-46000
X131000Y-141000
X131150Y-135015
X133000Y-117000
X133000Y-122000
X133000Y-127000
X133000Y-132000
X133000Y-133000
X134000Y-61000
X134000Y-67000
X134000Y-75000
X134000Y-86000
X134000Y-94000
X135000Y-46000
X136000Y-141000
X139000Y-61000
X139000Y-67000
X139000Y-75000
X139000Y-86000
X139000Y-94000
X140000Y-46000
X141000Y-141000
X144000Y-71250
X144000Y-107000
X144000Y-112000
X144000Y-117750
X144000Y-136000
X145000Y-46000
X145000Y-135000
X145500Y-50500
X145500Y-58000
X145500Y-75500
X145500Y-80500
X145500Y-83500
X145500Y-100500
X145500Y-108500
X145500Y-125500
X145500Y-133500
X146000Y-141000
X150000Y-46000
X151000Y-81000
X151000Y-93000
X151000Y-141000
X152000Y-79500
X152000Y-92000
X153000Y-82000
X153000Y-87500
X154000Y-58250
X154000Y-72500
X154000Y-108000
X155000Y-46000
X155500Y-77000
X155500Y-127000
X156000Y-141000
X156500Y-52000
X156500Y-101500
X156500Y-128000
X156500Y-130000
X156500Y-132000
X156500Y-134000
X156500Y-136000
X157000Y-125500
X157500Y-96000
X157500Y-97500
X160000Y-46000
X160000Y-96000
X160000Y-97500
X161000Y-83000
X161000Y-90000
X161000Y-133000
X161000Y-141000
X161500Y-73000
X161500Y-75500
X161500Y-77500
X162000Y-84500
X162000Y-91000
X162000Y-119000
X162000Y-129500
X163000Y-59500
X163000Y-63500
X163000Y-109500
X163000Y-134500
X164000Y-74000
X164000Y-105500
X165000Y-46000
X165000Y-76000
X165000Y-104000
X165000Y-121500
X165000Y-130500
X166000Y-78500
X166000Y-103000
X166000Y-110500
X166000Y-122500
X166000Y-141000
X167000Y-57000
X167000Y-81000
X167500Y-99000
X167500Y-132000
X168000Y-55500
X168000Y-83500
X169000Y-54500
X169000Y-86000
X169500Y-93000
X169500Y-116500
X170000Y-46000
X170000Y-53000
X170000Y-88500
X170500Y-92000
X170500Y-114000
X171000Y-141000
X171500Y-82500
X171500Y-111500
X172500Y-80000
X172500Y-109000
X173500Y-77500
X173500Y-106000
X174500Y-88000
X174500Y-103500
X175000Y-46000
X176000Y-141000
X177500Y-93500
X177500Y-97500
X177500Y-100500
X177500Y-102000
X177500Y-105000
X177500Y-107500
X177500Y-110500
X177500Y-112500
X177500Y-115000
X177500Y-120000
X177500Y-123000
X178000Y-66500
X178000Y-69000
X178000Y-72500
X178000Y-75000
X178000Y-77500
X178000Y-79500
X178000Y-82000
X178000Y-85000
X178000Y-87000
X178000Y-90000
X180000Y-46000
X180750Y-117750
X180750Y-124000
X181000Y-96000
X187500Y-57500
X187500Y-62500
X187500Y-67500
X187500Y-72500
X187500Y-77500
X187500Y-82500
X187500Y-87500
X187500Y-92500
X187500Y-97500
X187500Y-102500
X187500Y-107500
X187500Y-112500
X187500Y-117500
X187500Y-122500
X187500Y-127500
X187500Y-132500
T2
X92076Y-57070
X92076Y-59610
X92076Y-62150
X92076Y-64690
X92076Y-67230
X92076Y-69770
X92076Y-72310
X92076Y-74850
X92076Y-77390
X92076Y-79930
X92076Y-83150
X92076Y-85690
X92076Y-88230
X92076Y-90770
X92076Y-93310
X92076Y-95850
X92076Y-99420
X92076Y-101960
X92076Y-104500
X92076Y-107040
X92076Y-109580
X92076Y-113960
X92076Y-116500
X92076Y-119040
X92076Y-123730
X92076Y-126270
X140424Y-99920
X140424Y-102460
X140424Y-105000
X140424Y-107540
X140424Y-110080
X140424Y-120650
X140424Y-123190
X140424Y-125730
X140424Y-128270
X140424Y-130810
X140424Y-133350
X184924Y-66070
X184924Y-68610
X184924Y-71150
X184924Y-73690
X184924Y-76230
X184924Y-78770
X184924Y-81310
X184924Y-83850
X184924Y-86390
X184924Y-88930
X185000Y-93510
X185000Y-96050
X185000Y-98590
X185000Y-101130
X185000Y-103670
X185000Y-106210
X185000Y-108750
X185000Y-111290
X185000Y-113830
X185000Y-116370
X185000Y-118910
X185000Y-121450
X185000Y-123990
T3
X94000Y-48000
X94000Y-138000
X184000Y-48000
X184000Y-138000
T0
M30
